<?xml version="1.0" encoding="UTF-8"?><svg id="Layer_1" xmlns="http://www.w3.org/2000/svg" viewBox="0 0 185.76 185.76"><defs><style>.cls-1,.cls-2{fill:#5bba5e;}.cls-3{fill:#9f74b2;}.cls-4{fill:#fcb216;}.cls-5,.cls-6{fill:#fff;}.cls-6,.cls-2{stroke:#fff;stroke-miterlimit:10;}.cls-7{fill:#424142;}.cls-2{stroke-width:.1px;}.cls-8{fill:#61bcc6;}</style></defs><rect class="cls-6" width="185.76" height="185.76"/><path d="M158.21,37v69.63c.02,2.05-.65,2.4-2.56,2.4H30.69c-1.95,0-2.54-.41-2.54-2.42V36.98c0-1.95.65-2.29,2.45-2.27h125.18c1.82-.02,2.43.37,2.43,2.29Z"/><path d="M8.33,158.79c-5.09,0-6.73-2.7-4.44-7.3l15.02-30.09c.68-1.37,1.46-1.92,3.04-1.92h141.78c1.56,0,2.38.49,3.06,1.88l15.22,30.52c2.07,4.16.31,6.9-4.35,6.9H8.33ZM168.28,141.28c2.71,0,2.81-.15,1.6-2.57-2.24-4.49-4.56-8.93-6.69-13.47-.77-1.64-1.64-2.26-3.53-2.26-44.57.06-89.15.06-133.72.02-1.6,0-2.53.39-3.25,1.93-2.16,4.61-4.51,9.13-6.78,13.69-1.27,2.55-1.19,2.66,1.7,2.66h150.68Z"/><path d="M22.46,116.8c-2.05,0-2.63-.49-2.62-2.59,0,0,.05-53.65.05-80.47,0-4.67,2.08-6.77,6.71-6.77h132.56c4.62,0,6.69,2.1,6.69,6.79l.05,80.47c0,2.13-.62,2.58-2.64,2.57,0,0-117.41-.07-140.8,0ZM28.01,32.57c-1.87,0-2.54.35-2.54,2.4v73.65c-.01,2.13.6,2.57,2.63,2.57h129.5c1.99,0,2.67-.37,2.66-2.54V34.98c0-2.03-.63-2.43-2.52-2.42H28.01Z"/><path d="M160.13,137.7l-135.52.42c-1.57,0-2.59-1.66-1.88-3.06l3.95-7.77c.36-.7,1.08-1.15,1.87-1.15h128.65c.86,0,1.64.53,1.95,1.33l2.91,7.35c.55,1.38-.47,2.87-1.95,2.88Z"/><path class="cls-5" d="M110.38,153.83h-36.33c-.77,0-1.35-.69-1.22-1.44l.91-5.52c.1-.6.62-1.04,1.22-1.04h34.84c.64,0,1.17.48,1.23,1.11l.58,5.52c.08.73-.5,1.37-1.23,1.37Z"/><path class="cls-1" d="M33.06,39.65v2.38h.69s.08,0,.1.03c.02.02.03.04.03.07s0,.05-.03.07c-.02.02-.05.03-.1.03h-1.57s-.08,0-.1-.03c-.02-.02-.03-.04-.03-.07s0-.05.03-.07c.02-.02.05-.03.1-.03h.69v-2.38h-.69s-.08,0-.1-.03c-.02-.02-.03-.04-.03-.07s0-.05.03-.07c.02-.02.05-.03.1-.03h1.57s.08,0,.1.03c.02.02.03.04.03.07s0,.05-.03.07c-.02.02-.05.03-.1.03h-.69Z"/><path class="cls-1" d="M35.24,40.18v.3c.14-.14.27-.24.38-.29.11-.05.24-.08.38-.08.15,0,.29.03.42.1.09.05.17.13.24.24.07.11.11.22.11.34v1.26h.17s.08,0,.1.03.03.04.03.07-.01.05-.03.07-.05.03-.1.03h-.54s-.08,0-.11-.03c-.02-.02-.03-.04-.03-.07s0-.05.03-.07c.02-.02.06-.03.11-.03h.17v-1.23c0-.14-.05-.26-.15-.36-.1-.1-.24-.15-.41-.15-.13,0-.25.03-.34.08-.1.05-.23.19-.41.4v1.25h.23s.08,0,.1.03c.02.02.03.04.03.07s0,.05-.03.07c-.02.02-.05.03-.1.03h-.65s-.08,0-.1-.03-.03-.04-.03-.07.01-.05.03-.07.05-.03.1-.03h.23v-1.66h-.17s-.08,0-.1-.03-.03-.04-.03-.07c0-.03,0-.05.03-.07s.05-.03.1-.03h.37Z"/><path class="cls-1" d="M41.83,39.45v3.2h.49s.08,0,.1.03c.02.02.03.04.03.07s-.01.05-.03.07c-.02.02-.05.03-.1.03h-.68v-3.6h.68s.08,0,.1.03.03.04.03.07c0,.03-.01.05-.03.07s-.05.03-.1.03h-.49Z"/><path class="cls-1" d="M44.76,39.21v2.83h.68s.08,0,.1.03.03.04.03.07-.01.05-.03.07-.05.03-.1.03h-1.57s-.08,0-.1-.03-.03-.04-.03-.07.01-.05.03-.07.05-.03.1-.03h.68v-2.55l-.65.2s-.05.01-.07.01c-.02,0-.04,0-.07-.03-.02-.02-.03-.04-.03-.07,0-.02,0-.05.02-.07.01-.01.04-.03.08-.04l.91-.29Z"/><path class="cls-1" d="M47.49,42.65v-3.2h-.48s-.08,0-.1-.03-.03-.04-.03-.07c0-.03,0-.05.03-.07s.05-.03.1-.03h.69v3.6h-.69s-.08,0-.1-.03c-.02-.02-.03-.04-.03-.07,0-.03,0-.05.03-.07s.05-.03.1-.03h.48Z"/><path class="cls-1" d="M50.46,40.18h.09c.09,0,.17.03.23.1s.09.14.09.23c0,.09-.03.17-.1.23-.06.06-.14.09-.23.09h-.09c-.09,0-.17-.03-.23-.09-.06-.06-.09-.14-.09-.23,0-.09.03-.17.1-.23.06-.06.14-.09.23-.09ZM50.46,41.66h.09c.09,0,.17.03.23.09.06.06.09.14.09.23s-.03.17-.1.23c-.06.06-.14.09-.23.09h-.09c-.09,0-.17-.03-.23-.09-.06-.06-.09-.14-.09-.23s.03-.17.1-.23c.06-.06.14-.09.23-.09Z"/><path class="cls-1" d="M56.22,40.38v1.66h.88s.08,0,.1.03.03.04.03.07-.01.05-.03.07-.05.03-.1.03h-1.56s-.08,0-.1-.03-.03-.04-.03-.07,0-.05.03-.07.05-.03.1-.03h.48v-1.66h-.43s-.08,0-.1-.03c-.02-.02-.03-.04-.03-.07,0-.03,0-.05.03-.07.02-.02.06-.03.1-.03h.43v-.3c0-.17.07-.31.2-.44.14-.12.32-.19.54-.19.19,0,.39.02.6.05.08.01.13.03.15.04s.02.04.02.07,0,.05-.03.07c-.02.02-.04.03-.08.03-.01,0-.03,0-.06,0-.24-.04-.44-.06-.61-.06-.17,0-.31.04-.4.13-.09.09-.14.18-.14.29v.3h.93s.08,0,.1.03c.02.02.03.04.03.07,0,.03,0,.05-.03.07-.02.02-.06.03-.1.03h-.93Z"/><path class="cls-1" d="M59.03,40.18v.5c.26-.23.46-.39.58-.45s.25-.1.36-.1c.12,0,.23.04.33.12.1.08.15.14.15.18,0,.03,0,.06-.03.07-.02.02-.04.03-.08.03-.02,0-.03,0-.04,0-.01,0-.03-.02-.06-.05-.05-.06-.1-.09-.14-.11-.04-.02-.08-.03-.12-.03-.09,0-.19.04-.32.1s-.34.24-.64.51v1.09h.88s.08,0,.1.03.03.04.03.07-.01.05-.03.07-.06.03-.1.03h-1.57s-.08,0-.1-.03-.03-.04-.03-.07c0-.03,0-.05.03-.07.02-.02.05-.03.1-.03h.48v-1.67h-.37s-.08,0-.1-.03-.03-.04-.03-.07c0-.03.01-.05.03-.07s.05-.03.1-.03h.57Z"/><path class="cls-1" d="M63.31,41.21c0,.3-.11.56-.33.78-.22.22-.48.32-.79.32s-.58-.11-.79-.32c-.22-.22-.33-.48-.33-.78s.11-.56.33-.78c.22-.22.48-.32.79-.32s.57.11.79.32c.22.22.33.48.33.78ZM63.11,41.21c0-.25-.09-.46-.27-.64-.18-.18-.39-.26-.65-.26s-.47.09-.65.27c-.18.18-.27.39-.27.64s.09.46.27.64c.18.18.39.27.65.27s.47-.09.65-.27c.18-.18.27-.39.27-.64Z"/><path class="cls-1" d="M64.21,40.18v.2c.17-.18.34-.27.51-.27.1,0,.19.03.27.08.08.05.14.14.2.25.09-.11.18-.19.27-.25.09-.05.18-.08.27-.08.14,0,.26.05.34.14.11.12.17.25.17.39v1.4h.17s.08,0,.1.03.03.04.03.07,0,.05-.03.07-.05.03-.1.03h-.37v-1.58c0-.1-.03-.19-.09-.25-.06-.07-.13-.1-.21-.1-.07,0-.15.03-.23.08s-.17.16-.28.32v1.33h.17s.08,0,.1.03.03.04.03.07,0,.05-.03.07-.05.03-.1.03h-.37v-1.56c0-.11-.03-.19-.09-.26s-.13-.1-.21-.1c-.07,0-.14.02-.21.07-.1.06-.2.18-.3.33v1.33h.17s.08,0,.1.03.03.04.03.07,0,.05-.03.07-.05.03-.1.03h-.54s-.08,0-.1-.03-.03-.04-.03-.07.01-.05.03-.07.05-.03.1-.03h.17v-1.66h-.17s-.08,0-.1-.03-.03-.04-.03-.07c0-.03.01-.05.03-.07s.05-.03.1-.03h.37Z"/><path class="cls-3" d="M70.06,40.18v.2c.17-.18.34-.27.51-.27.1,0,.19.03.27.08.08.05.14.14.2.25.09-.11.18-.19.27-.25.09-.05.18-.08.27-.08.14,0,.26.05.34.14.11.12.17.25.17.39v1.4h.17s.08,0,.1.03.03.04.03.07,0,.05-.03.07-.05.03-.1.03h-.37v-1.58c0-.1-.03-.19-.09-.25-.06-.07-.13-.1-.21-.1-.07,0-.15.03-.23.08s-.17.16-.28.32v1.33h.17s.08,0,.1.03.03.04.03.07,0,.05-.03.07-.05.03-.1.03h-.37v-1.56c0-.11-.03-.19-.09-.26s-.13-.1-.21-.1c-.07,0-.14.02-.21.07-.1.06-.2.18-.3.33v1.33h.17s.08,0,.1.03.03.04.03.07,0,.05-.03.07-.05.03-.1.03h-.54s-.08,0-.1-.03-.03-.04-.03-.07.01-.05.03-.07.05-.03.1-.03h.17v-1.66h-.17s-.08,0-.1-.03-.03-.04-.03-.07c0-.03.01-.05.03-.07s.05-.03.1-.03h.37Z"/><path class="cls-3" d="M74,40.18v1.86h.79s.08,0,.1.03.03.04.03.07-.01.05-.03.07-.06.03-.1.03h-1.77s-.08,0-.1-.03-.03-.04-.03-.07.01-.05.03-.07.05-.03.1-.03h.79v-1.66h-.58s-.08,0-.1-.03-.03-.04-.03-.07c0-.03,0-.05.03-.07.02-.02.05-.03.1-.03h.78ZM73.99,39.15v.52h-.29v-.52h.29Z"/><path class="cls-3" d="M77.65,40.38v-.07s0-.08.03-.1c.02-.02.04-.03.07-.03.03,0,.05.01.07.03.02.02.03.06.03.1v.45s-.01.08-.03.1-.04.03-.07.03c-.03,0-.05,0-.07-.03-.02-.02-.03-.05-.03-.09,0-.11-.08-.22-.22-.32s-.33-.15-.56-.15c-.3,0-.52.09-.68.28-.15.19-.23.4-.23.64,0,.26.08.47.25.64.17.17.39.25.66.25.16,0,.31-.03.47-.09s.31-.15.44-.28c.03-.03.06-.05.09-.05.03,0,.05,0,.07.03.02.02.03.04.03.07,0,.07-.08.15-.24.26-.26.17-.55.25-.86.25s-.59-.1-.79-.31-.31-.47-.31-.78.11-.59.32-.8c.21-.21.48-.32.8-.32s.56.09.77.27Z"/><path class="cls-3" d="M79.5,40.18v.5c.26-.23.46-.39.58-.45s.25-.1.36-.1c.12,0,.23.04.33.12.1.08.15.14.15.18,0,.03,0,.06-.03.07-.02.02-.04.03-.08.03-.02,0-.03,0-.04,0-.01,0-.03-.02-.06-.05-.05-.06-.1-.09-.14-.11-.04-.02-.08-.03-.12-.03-.09,0-.19.04-.32.1s-.34.24-.64.51v1.09h.88s.08,0,.1.03.03.04.03.07-.01.05-.03.07-.06.03-.1.03h-1.57s-.08,0-.1-.03-.03-.04-.03-.07c0-.03,0-.05.03-.07.02-.02.05-.03.1-.03h.48v-1.67h-.37s-.08,0-.1-.03-.03-.04-.03-.07c0-.03.01-.05.03-.07s.05-.03.1-.03h.57Z"/><path class="cls-3" d="M83.78,41.21c0,.3-.11.56-.33.78-.22.22-.48.32-.79.32s-.58-.11-.79-.32c-.22-.22-.33-.48-.33-.78s.11-.56.33-.78c.22-.22.48-.32.79-.32s.57.11.79.32c.22.22.33.48.33.78ZM83.57,41.21c0-.25-.09-.46-.27-.64-.18-.18-.39-.26-.65-.26s-.47.09-.65.27c-.18.18-.27.39-.27.64s.09.46.27.64c.18.18.39.27.65.27s.47-.09.65-.27c.18-.18.27-.39.27-.64Z"/><path class="cls-3" d="M86.24,40.31s0-.08.03-.1c.02-.02.04-.03.07-.03.03,0,.05.01.07.03.02.02.03.06.03.1v.34s0,.08-.03.1c-.02.02-.04.03-.07.03-.03,0-.05,0-.07-.03-.02-.02-.03-.05-.03-.09,0-.09-.06-.17-.15-.24-.13-.09-.3-.13-.52-.13s-.4.05-.52.14c-.09.07-.14.14-.14.23,0,.09.06.17.17.24.08.04.22.08.43.1.28.03.47.06.58.1.15.06.27.13.34.23.08.1.11.2.11.32,0,.17-.08.32-.25.45-.16.13-.4.2-.72.2s-.57-.08-.78-.24c0,.05,0,.09,0,.1,0,.02-.02.03-.03.04s-.04.02-.06.02c-.03,0-.05-.01-.07-.03-.02-.02-.03-.05-.03-.1v-.41s0-.08.03-.1c.02-.02.04-.03.07-.03s.05,0,.07.03c.02.02.03.05.03.08,0,.07.02.13.05.18.06.08.14.14.27.19s.27.08.45.08c.26,0,.45-.05.58-.15.13-.1.19-.2.19-.31,0-.12-.06-.22-.19-.3-.13-.07-.32-.12-.57-.15-.25-.03-.43-.06-.53-.1-.11-.04-.19-.1-.25-.19-.06-.08-.09-.17-.09-.27,0-.17.08-.31.25-.41.17-.1.37-.15.6-.15.28,0,.5.07.67.2Z"/><path class="cls-3" d="M89.34,40.38v-.07s0-.08.03-.1c.02-.02.04-.03.07-.03.03,0,.05.01.07.03.02.02.03.06.03.1v.45s-.01.08-.03.1-.04.03-.07.03c-.03,0-.05,0-.07-.03-.02-.02-.03-.05-.03-.09,0-.11-.08-.22-.22-.32s-.33-.15-.56-.15c-.3,0-.52.09-.68.28-.15.19-.23.4-.23.64,0,.26.08.47.25.64.17.17.39.25.66.25.16,0,.31-.03.47-.09s.31-.15.44-.28c.03-.03.06-.05.09-.05.03,0,.05,0,.07.03.02.02.03.04.03.07,0,.07-.08.15-.24.26-.26.17-.55.25-.86.25s-.59-.1-.79-.31-.31-.47-.31-.78.11-.59.32-.8c.21-.21.48-.32.8-.32s.56.09.77.27Z"/><path class="cls-3" d="M92.55,41.21c0,.3-.11.56-.33.78-.22.22-.48.32-.79.32s-.58-.11-.79-.32c-.22-.22-.33-.48-.33-.78s.11-.56.33-.78c.22-.22.48-.32.79-.32s.57.11.79.32c.22.22.33.48.33.78ZM92.34,41.21c0-.25-.09-.46-.27-.64-.18-.18-.39-.26-.65-.26s-.47.09-.65.27c-.18.18-.27.39-.27.64s.09.46.27.64c.18.18.39.27.65.27s.47-.09.65-.27c.18-.18.27-.39.27-.64Z"/><path class="cls-3" d="M93.6,40.18v.36c.12-.14.25-.25.38-.33.14-.07.3-.11.48-.11.2,0,.38.05.54.14.17.09.3.22.39.38.09.16.14.34.14.52,0,.29-.1.53-.31.74-.21.2-.46.31-.76.31-.36,0-.65-.15-.87-.44v1.2h.49s.08,0,.1.03c.02.02.03.04.03.07,0,.03,0,.05-.03.07-.02.02-.05.03-.1.03h-.95s-.08,0-.1-.03c-.02-.02-.03-.04-.03-.07s0-.05.03-.07.05-.03.1-.03h.27v-2.58h-.27s-.08,0-.1-.03-.03-.04-.03-.07c0-.03,0-.05.03-.07s.05-.03.1-.03h.47ZM95.33,41.14c0-.23-.08-.43-.25-.59-.17-.16-.37-.25-.61-.25s-.45.08-.62.25-.25.36-.25.59.08.43.25.59.37.25.62.25.44-.08.61-.25c.17-.16.25-.36.25-.59Z"/><path class="cls-3" d="M97.29,42.24l-.93-1.86h-.06s-.08,0-.1-.03c-.02-.02-.03-.04-.03-.07,0-.02,0-.04.02-.06,0-.02.02-.03.04-.04.02,0,.04-.01.08-.01h.55s.08,0,.1.03.03.04.03.07c0,.03-.01.05-.03.07s-.05.03-.1.03h-.27l.82,1.64.8-1.64h-.27s-.08,0-.1-.03-.03-.04-.03-.07c0-.03.01-.05.03-.07s.05-.03.1-.03h.54s.08,0,.1.03.03.04.03.07c0,.02,0,.04-.02.06s-.03.03-.04.03c-.02,0-.06,0-.13,0l-1.27,2.58h.31s.08,0,.1.03.03.04.03.07c0,.03,0,.05-.03.07s-.05.03-.1.03h-1.15s-.08,0-.1-.03c-.02-.02-.03-.04-.03-.07s0-.05.03-.07.05-.03.1-.03h.63l.35-.72Z"/><path class="cls-1" d="M103.23,40.18v1.86h.79s.08,0,.1.03.03.04.03.07-.01.05-.03.07-.06.03-.1.03h-1.77s-.08,0-.1-.03-.03-.04-.03-.07.01-.05.03-.07.05-.03.1-.03h.79v-1.66h-.58s-.08,0-.1-.03-.03-.04-.03-.07c0-.03,0-.05.03-.07.02-.02.05-.03.1-.03h.78ZM103.22,39.15v.52h-.29v-.52h.29Z"/><path class="cls-1" d="M105.14,40.18v.2c.17-.18.34-.27.51-.27.1,0,.19.03.27.08.08.05.14.14.2.25.09-.11.18-.19.27-.25.09-.05.18-.08.27-.08.14,0,.26.05.34.14.11.12.17.25.17.39v1.4h.17s.08,0,.1.03.03.04.03.07,0,.05-.03.07-.05.03-.1.03h-.37v-1.58c0-.1-.03-.19-.09-.25-.06-.07-.13-.1-.21-.1-.07,0-.15.03-.23.08s-.17.16-.28.32v1.33h.17s.08,0,.1.03.03.04.03.07,0,.05-.03.07-.05.03-.1.03h-.37v-1.56c0-.11-.03-.19-.09-.26s-.13-.1-.21-.1c-.07,0-.14.02-.21.07-.1.06-.2.18-.3.33v1.33h.17s.08,0,.1.03.03.04.03.07,0,.05-.03.07-.05.03-.1.03h-.54s-.08,0-.1-.03-.03-.04-.03-.07.01-.05.03-.07.05-.03.1-.03h.17v-1.66h-.17s-.08,0-.1-.03-.03-.04-.03-.07c0-.03.01-.05.03-.07s.05-.03.1-.03h.37Z"/><path class="cls-1" d="M108.22,40.18v.36c.12-.14.25-.25.38-.33.14-.07.3-.11.48-.11.2,0,.38.05.54.14.17.09.3.22.39.38.09.16.14.34.14.52,0,.29-.1.53-.31.74-.21.2-.46.31-.76.31-.36,0-.65-.15-.87-.44v1.2h.49s.08,0,.1.03c.02.02.03.04.03.07,0,.03,0,.05-.03.07-.02.02-.05.03-.1.03h-.95s-.08,0-.1-.03c-.02-.02-.03-.04-.03-.07s0-.05.03-.07.05-.03.1-.03h.27v-2.58h-.27s-.08,0-.1-.03-.03-.04-.03-.07c0-.03,0-.05.03-.07s.05-.03.1-.03h.47ZM109.95,41.14c0-.23-.08-.43-.25-.59-.17-.16-.37-.25-.61-.25s-.45.08-.62.25-.25.36-.25.59.08.43.25.59.37.25.62.25.44-.08.61-.25c.17-.16.25-.36.25-.59Z"/><path class="cls-1" d="M113.01,41.21c0,.3-.11.56-.33.78-.22.22-.48.32-.79.32s-.58-.11-.79-.32c-.22-.22-.33-.48-.33-.78s.11-.56.33-.78c.22-.22.48-.32.79-.32s.57.11.79.32c.22.22.33.48.33.78ZM112.81,41.21c0-.25-.09-.46-.27-.64-.18-.18-.39-.26-.65-.26s-.47.09-.65.27c-.18.18-.27.39-.27.64s.09.46.27.64c.18.18.39.27.65.27s.47-.09.65-.27c.18-.18.27-.39.27-.64Z"/><path class="cls-1" d="M114.58,40.18v.5c.26-.23.46-.39.58-.45s.25-.1.36-.1c.12,0,.23.04.33.12.1.08.15.14.15.18,0,.03,0,.06-.03.07-.02.02-.04.03-.08.03-.02,0-.03,0-.04,0-.01,0-.03-.02-.06-.05-.05-.06-.1-.09-.14-.11-.04-.02-.08-.03-.12-.03-.09,0-.19.04-.32.1s-.34.24-.64.51v1.09h.88s.08,0,.1.03.03.04.03.07-.01.05-.03.07-.06.03-.1.03h-1.57s-.08,0-.1-.03-.03-.04-.03-.07c0-.03,0-.05.03-.07.02-.02.05-.03.1-.03h.48v-1.67h-.37s-.08,0-.1-.03-.03-.04-.03-.07c0-.03.01-.05.03-.07s.05-.03.1-.03h.57Z"/><path class="cls-1" d="M117.33,40.18h1.08s.08,0,.1.03.03.04.03.07c0,.03-.01.05-.03.07s-.05.03-.1.03h-1.08v1.33c0,.12.05.21.14.29s.23.12.41.12c.13,0,.28-.02.44-.06.16-.04.28-.09.37-.14.03-.02.06-.03.08-.03.03,0,.05,0,.07.03.02.02.03.04.03.07,0,.02-.01.05-.03.07-.05.05-.17.11-.37.17-.2.06-.38.09-.56.09-.23,0-.42-.05-.56-.16-.14-.11-.21-.26-.21-.44v-1.33h-.37s-.08,0-.1-.03-.03-.04-.03-.07c0-.03,0-.05.03-.07s.05-.03.1-.03h.37v-.59s0-.08.03-.1c.02-.02.04-.03.07-.03.03,0,.05.01.07.03.02.02.03.05.03.1v.59Z"/><path class="cls-5" d="M124.16,42.24v-.29c-.29.24-.6.37-.93.37-.24,0-.43-.06-.56-.18-.13-.12-.2-.27-.2-.45,0-.19.09-.36.27-.51.18-.14.44-.22.78-.22.09,0,.19,0,.3.02.11.01.22.03.35.06v-.32c0-.11-.05-.2-.15-.29-.1-.08-.25-.12-.46-.12-.16,0-.37.05-.65.14-.05.02-.08.02-.1.02-.03,0-.05,0-.07-.03-.02-.02-.03-.04-.03-.07,0-.03,0-.05.02-.06.02-.02.11-.06.27-.1.25-.07.43-.1.56-.1.25,0,.45.06.59.19.14.12.21.27.21.42v1.32h.27s.08,0,.1.03.03.04.03.07-.01.05-.03.07-.06.03-.1.03h-.47ZM124.16,41.24c-.09-.03-.19-.05-.3-.06-.1-.01-.21-.02-.33-.02-.29,0-.52.06-.68.19-.12.09-.19.21-.19.34,0,.12.05.22.14.3.09.08.23.12.41.12s.33-.03.48-.1c.15-.07.3-.18.46-.33v-.44Z"/><path class="cls-5" d="M125.86,40.18v.3c.14-.14.27-.24.38-.29.11-.05.24-.08.38-.08.15,0,.29.03.42.1.09.05.17.13.24.24.07.11.11.22.11.34v1.26h.17s.08,0,.1.03.03.04.03.07-.01.05-.03.07-.05.03-.1.03h-.54s-.08,0-.11-.03c-.02-.02-.03-.04-.03-.07s0-.05.03-.07c.02-.02.06-.03.11-.03h.17v-1.23c0-.14-.05-.26-.15-.36-.1-.1-.24-.15-.41-.15-.13,0-.25.03-.34.08-.1.05-.23.19-.41.4v1.25h.23s.08,0,.1.03c.02.02.03.04.03.07s0,.05-.03.07c-.02.02-.05.03-.1.03h-.65s-.08,0-.1-.03-.03-.04-.03-.07.01-.05.03-.07.05-.03.1-.03h.23v-1.66h-.17s-.08,0-.1-.03-.03-.04-.03-.07c0-.03,0-.05.03-.07s.05-.03.1-.03h.37Z"/><path class="cls-5" d="M130.01,42.24v-.29c-.29.24-.6.37-.93.37-.24,0-.43-.06-.56-.18-.13-.12-.2-.27-.2-.45,0-.19.09-.36.27-.51.18-.14.44-.22.78-.22.09,0,.19,0,.3.02.11.01.22.03.35.06v-.32c0-.11-.05-.2-.15-.29-.1-.08-.25-.12-.46-.12-.16,0-.37.05-.65.14-.05.02-.08.02-.1.02-.03,0-.05,0-.07-.03-.02-.02-.03-.04-.03-.07,0-.03,0-.05.02-.06.02-.02.11-.06.27-.1.25-.07.43-.1.56-.1.25,0,.45.06.59.19.14.12.21.27.21.42v1.32h.27s.08,0,.1.03.03.04.03.07-.01.05-.03.07-.06.03-.1.03h-.47ZM130.01,41.24c-.09-.03-.19-.05-.3-.06-.1-.01-.21-.02-.33-.02-.29,0-.52.06-.68.19-.12.09-.19.21-.19.34,0,.12.05.22.14.3.09.08.23.12.41.12s.33-.03.48-.1c.15-.07.3-.18.46-.33v-.44Z"/><path class="cls-5" d="M132.46,39.25v2.79h.79s.08,0,.1.03.03.04.03.07-.01.05-.03.07-.06.03-.1.03h-1.77s-.08,0-.1-.03-.03-.04-.03-.07.01-.05.03-.07.05-.03.1-.03h.79v-2.58h-.58s-.08,0-.1-.03-.03-.04-.03-.07c0-.03.01-.05.03-.07s.06-.03.1-.03h.78Z"/><path class="cls-5" d="M135.29,42.24l-.93-1.86h-.06s-.08,0-.1-.03c-.02-.02-.03-.04-.03-.07,0-.02,0-.04.02-.06,0-.02.02-.03.04-.04.02,0,.04-.01.08-.01h.55s.08,0,.1.03.03.04.03.07c0,.03-.01.05-.03.07s-.05.03-.1.03h-.27l.82,1.64.8-1.64h-.27s-.08,0-.1-.03-.03-.04-.03-.07c0-.03.01-.05.03-.07s.05-.03.1-.03h.54s.08,0,.1.03.03.04.03.07c0,.02,0,.04-.02.06s-.03.03-.04.03c-.02,0-.06,0-.13,0l-1.27,2.58h.31s.08,0,.1.03.03.04.03.07c0,.03,0,.05-.03.07s-.05.03-.1.03h-1.15s-.08,0-.1-.03c-.02-.02-.03-.04-.03-.07s0-.05.03-.07.05-.03.1-.03h.63l.35-.72Z"/><path class="cls-5" d="M138.86,40.31s0-.08.03-.1c.02-.02.04-.03.07-.03.03,0,.05.01.07.03.02.02.03.06.03.1v.34s0,.08-.03.1c-.02.02-.04.03-.07.03-.03,0-.05,0-.07-.03-.02-.02-.03-.05-.03-.09,0-.09-.06-.17-.15-.24-.13-.09-.3-.13-.52-.13s-.4.05-.52.14c-.09.07-.14.14-.14.23,0,.09.06.17.17.24.08.04.22.08.43.1.28.03.47.06.58.1.15.06.27.13.34.23.08.1.11.2.11.32,0,.17-.08.32-.25.45-.16.13-.4.2-.72.2s-.57-.08-.78-.24c0,.05,0,.09,0,.1,0,.02-.02.03-.03.04s-.04.02-.06.02c-.03,0-.05-.01-.07-.03-.02-.02-.03-.05-.03-.1v-.41s0-.08.03-.1c.02-.02.04-.03.07-.03s.05,0,.07.03c.02.02.03.05.03.08,0,.07.02.13.05.18.06.08.14.14.27.19s.27.08.45.08c.26,0,.45-.05.58-.15.13-.1.19-.2.19-.31,0-.12-.06-.22-.19-.3-.13-.07-.32-.12-.57-.15-.25-.03-.43-.06-.53-.1-.11-.04-.19-.1-.25-.19-.06-.08-.09-.17-.09-.27,0-.17.08-.31.25-.41.17-.1.37-.15.6-.15.28,0,.5.07.67.2Z"/><path class="cls-5" d="M141.23,40.18v1.86h.79s.08,0,.1.03.03.04.03.07-.01.05-.03.07-.06.03-.1.03h-1.77s-.08,0-.1-.03-.03-.04-.03-.07.01-.05.03-.07.05-.03.1-.03h.79v-1.66h-.58s-.08,0-.1-.03-.03-.04-.03-.07c0-.03,0-.05.03-.07.02-.02.05-.03.1-.03h.78ZM141.22,39.15v.52h-.29v-.52h.29Z"/><path class="cls-5" d="M144.71,40.31s0-.08.03-.1c.02-.02.04-.03.07-.03.03,0,.05.01.07.03.02.02.03.06.03.1v.34s0,.08-.03.1c-.02.02-.04.03-.07.03-.03,0-.05,0-.07-.03-.02-.02-.03-.05-.03-.09,0-.09-.06-.17-.15-.24-.13-.09-.3-.13-.52-.13s-.4.05-.52.14c-.09.07-.14.14-.14.23,0,.09.06.17.17.24.08.04.22.08.43.1.28.03.47.06.58.1.15.06.27.13.34.23.08.1.11.2.11.32,0,.17-.08.32-.25.45-.16.13-.4.2-.72.2s-.57-.08-.78-.24c0,.05,0,.09,0,.1,0,.02-.02.03-.03.04s-.04.02-.06.02c-.03,0-.05-.01-.07-.03-.02-.02-.03-.05-.03-.1v-.41s0-.08.03-.1c.02-.02.04-.03.07-.03s.05,0,.07.03c.02.02.03.05.03.08,0,.07.02.13.05.18.06.08.14.14.27.19s.27.08.45.08c.26,0,.45-.05.58-.15.13-.1.19-.2.19-.31,0-.12-.06-.22-.19-.3-.13-.07-.32-.12-.57-.15-.25-.03-.43-.06-.53-.1-.11-.04-.19-.1-.25-.19-.06-.08-.09-.17-.09-.27,0-.17.08-.31.25-.41.17-.1.37-.15.6-.15.28,0,.5.07.67.2Z"/><path class="cls-1" d="M33.06,48.95v2.38h.69s.08,0,.1.03c.02.02.03.04.03.07s0,.05-.03.07c-.02.02-.05.03-.1.03h-1.57s-.08,0-.1-.03c-.02-.02-.03-.04-.03-.07s0-.05.03-.07c.02-.02.05-.03.1-.03h.69v-2.38h-.69s-.08,0-.1-.03c-.02-.02-.03-.04-.03-.07s0-.05.03-.07c.02-.02.05-.03.1-.03h1.57s.08,0,.1.03c.02.02.03.04.03.07s0,.05-.03.07c-.02.02-.05.03-.1.03h-.69Z"/><path class="cls-1" d="M35.24,49.48v.3c.14-.14.27-.24.38-.29.11-.05.24-.08.38-.08.15,0,.29.03.42.1.09.05.17.13.24.24.07.11.11.22.11.34v1.26h.17s.08,0,.1.03.03.04.03.07-.01.05-.03.07-.05.03-.1.03h-.54s-.08,0-.11-.03c-.02-.02-.03-.04-.03-.07s0-.05.03-.07c.02-.02.06-.03.11-.03h.17v-1.23c0-.14-.05-.26-.15-.36-.1-.1-.24-.15-.41-.15-.13,0-.25.03-.34.08-.1.05-.23.19-.41.4v1.25h.23s.08,0,.1.03c.02.02.03.04.03.07s0,.05-.03.07c-.02.02-.05.03-.1.03h-.65s-.08,0-.1-.03-.03-.04-.03-.07.01-.05.03-.07.05-.03.1-.03h.23v-1.66h-.17s-.08,0-.1-.03-.03-.04-.03-.07c0-.03,0-.05.03-.07s.05-.03.1-.03h.37Z"/><path class="cls-1" d="M41.83,48.75v3.2h.49s.08,0,.1.03c.02.02.03.04.03.07s-.01.05-.03.07c-.02.02-.05.03-.1.03h-.68v-3.6h.68s.08,0,.1.03.03.04.03.07c0,.03-.01.05-.03.07s-.05.03-.1.03h-.49Z"/><path class="cls-1" d="M43.8,51.34h1.53v-.08s0-.08.03-.1c.02-.02.04-.03.07-.03.03,0,.05.01.07.03.02.02.03.05.03.1v.28h-1.93v-.29c.41-.36.8-.74,1.18-1.11.18-.18.3-.31.37-.39s.11-.15.14-.22c.02-.06.04-.13.04-.19,0-.17-.07-.32-.21-.45-.14-.13-.3-.2-.5-.2-.17,0-.33.05-.46.15-.13.1-.22.22-.26.37,0,.04-.02.06-.04.07-.02.02-.04.02-.07.02-.03,0-.05,0-.07-.03-.02-.02-.03-.04-.03-.07,0-.08.04-.18.12-.31.08-.13.2-.23.34-.31.15-.07.3-.11.45-.11.25,0,.46.09.64.26.18.17.27.37.27.59,0,.09-.02.18-.04.25-.03.08-.08.16-.15.25-.07.09-.2.23-.39.41-.47.46-.85.82-1.15,1.08h0Z"/><path class="cls-1" d="M47.49,51.95v-3.2h-.48s-.08,0-.1-.03-.03-.04-.03-.07c0-.03,0-.05.03-.07s.05-.03.1-.03h.69v3.6h-.69s-.08,0-.1-.03c-.02-.02-.03-.04-.03-.07,0-.03,0-.05.03-.07s.05-.03.1-.03h.48Z"/><path class="cls-1" d="M50.46,49.48h.09c.09,0,.17.03.23.1s.09.14.09.23c0,.09-.03.17-.1.23-.06.06-.14.09-.23.09h-.09c-.09,0-.17-.03-.23-.09-.06-.06-.09-.14-.09-.23,0-.09.03-.17.1-.23.06-.06.14-.09.23-.09ZM50.46,50.96h.09c.09,0,.17.03.23.09.06.06.09.14.09.23s-.03.17-.1.23c-.06.06-.14.09-.23.09h-.09c-.09,0-.17-.03-.23-.09-.06-.06-.09-.14-.09-.23s.03-.17.1-.23c.06-.06.14-.09.23-.09Z"/><path class="cls-5" d="M56.46,49.48v1.86h.79s.08,0,.1.03.03.04.03.07-.01.05-.03.07-.06.03-.1.03h-1.77s-.08,0-.1-.03-.03-.04-.03-.07.01-.05.03-.07.05-.03.1-.03h.79v-1.66h-.58s-.08,0-.1-.03-.03-.04-.03-.07c0-.03,0-.05.03-.07.02-.02.05-.03.1-.03h.78ZM56.45,48.45v.52h-.29v-.52h.29Z"/><path class="cls-5" d="M58.36,49.48v.2c.17-.18.34-.27.51-.27.1,0,.19.03.27.08.08.05.14.14.2.25.09-.11.18-.19.27-.25.09-.05.18-.08.27-.08.14,0,.26.05.34.14.11.12.17.25.17.39v1.4h.17s.08,0,.1.03.03.04.03.07,0,.05-.03.07-.05.03-.1.03h-.37v-1.58c0-.1-.03-.19-.09-.25-.06-.07-.13-.1-.21-.1-.07,0-.15.03-.23.08s-.17.16-.28.32v1.33h.17s.08,0,.1.03.03.04.03.07,0,.05-.03.07-.05.03-.1.03h-.37v-1.56c0-.11-.03-.19-.09-.26s-.13-.1-.21-.1c-.07,0-.14.02-.21.07-.1.06-.2.18-.3.33v1.33h.17s.08,0,.1.03.03.04.03.07,0,.05-.03.07-.05.03-.1.03h-.54s-.08,0-.1-.03-.03-.04-.03-.07.01-.05.03-.07.05-.03.1-.03h.17v-1.66h-.17s-.08,0-.1-.03-.03-.04-.03-.07c0-.03.01-.05.03-.07s.05-.03.1-.03h.37Z"/><path class="cls-5" d="M62.87,49.84v-.37h.47s.08,0,.1.03.03.04.03.07c0,.03-.01.05-.03.07s-.05.03-.1.03h-.27v2c0,.13-.03.25-.08.36-.04.07-.1.14-.19.22-.09.07-.17.13-.24.16-.07.03-.17.05-.29.05h-.57s-.08,0-.1-.03c-.02-.02-.03-.04-.03-.07s0-.05.03-.07.05-.03.1-.03h.57c.12,0,.22-.03.32-.09.09-.06.17-.15.23-.26.04-.07.05-.15.05-.25v-.6c-.21.29-.49.44-.83.44-.27,0-.51-.1-.71-.31-.2-.2-.3-.45-.3-.74s.1-.53.3-.73.44-.3.71-.3c.34,0,.61.15.83.44ZM62.87,50.44c0-.23-.08-.43-.24-.59-.16-.16-.35-.24-.58-.24s-.42.08-.58.24-.24.36-.24.59.08.43.24.6.35.24.58.24.42-.08.58-.24c.16-.16.24-.36.24-.6Z"/><path class="cls-5" d="M69.13,49.88h-2.18s-.08,0-.1-.03-.03-.04-.03-.07.01-.05.03-.07.05-.03.1-.03h2.18s.08,0,.1.03.03.04.03.07c0,.03-.01.05-.03.07s-.05.03-.1.03ZM69.13,50.6h-2.18s-.08,0-.1-.03c-.02-.02-.03-.04-.03-.07s.01-.05.03-.07c.02-.02.05-.03.1-.03h2.18s.08,0,.1.03c.02.02.03.04.03.07s-.01.05-.03.07c-.02.02-.05.03-.1.03Z"/><path class="cls-5" d="M74.46,51.54v-.29c-.29.24-.6.37-.93.37-.24,0-.43-.06-.56-.18-.13-.12-.2-.27-.2-.45,0-.19.09-.36.27-.51.18-.14.44-.22.78-.22.09,0,.19,0,.3.02.11.01.22.03.35.06v-.32c0-.11-.05-.2-.15-.29-.1-.08-.25-.12-.46-.12-.16,0-.37.05-.65.14-.05.02-.08.02-.1.02-.03,0-.05,0-.07-.03-.02-.02-.03-.04-.03-.07,0-.03,0-.05.02-.06.02-.02.11-.06.27-.1.25-.07.43-.1.56-.1.25,0,.45.06.59.19.14.12.21.27.21.42v1.32h.27s.08,0,.1.03.03.04.03.07-.01.05-.03.07-.06.03-.1.03h-.47ZM74.46,50.54c-.09-.03-.19-.05-.3-.06-.1-.01-.21-.02-.33-.02-.29,0-.52.06-.68.19-.12.09-.19.21-.19.34,0,.12.05.22.14.3.09.08.23.12.41.12s.33-.03.48-.1c.15-.07.3-.18.46-.33v-.44Z"/><path class="cls-5" d="M76.17,49.48v.3c.14-.14.27-.24.38-.29.11-.05.24-.08.38-.08.15,0,.29.03.42.1.09.05.17.13.24.24.07.11.11.22.11.34v1.26h.17s.08,0,.1.03.03.04.03.07-.01.05-.03.07-.05.03-.1.03h-.54s-.08,0-.11-.03c-.02-.02-.03-.04-.03-.07s0-.05.03-.07c.02-.02.06-.03.11-.03h.17v-1.23c0-.14-.05-.26-.15-.36-.1-.1-.24-.15-.41-.15-.13,0-.25.03-.34.08-.1.05-.23.19-.41.4v1.25h.23s.08,0,.1.03c.02.02.03.04.03.07s0,.05-.03.07c-.02.02-.05.03-.1.03h-.65s-.08,0-.1-.03-.03-.04-.03-.07.01-.05.03-.07.05-.03.1-.03h.23v-1.66h-.17s-.08,0-.1-.03-.03-.04-.03-.07c0-.03,0-.05.03-.07s.05-.03.1-.03h.37Z"/><path class="cls-5" d="M80.31,51.54v-.29c-.29.24-.6.37-.93.37-.24,0-.43-.06-.56-.18-.13-.12-.2-.27-.2-.45,0-.19.09-.36.27-.51.18-.14.44-.22.78-.22.09,0,.19,0,.3.02.11.01.22.03.35.06v-.32c0-.11-.05-.2-.15-.29-.1-.08-.25-.12-.46-.12-.16,0-.37.05-.65.14-.05.02-.08.02-.1.02-.03,0-.05,0-.07-.03-.02-.02-.03-.04-.03-.07,0-.03,0-.05.02-.06.02-.02.11-.06.27-.1.25-.07.43-.1.56-.1.25,0,.45.06.59.19.14.12.21.27.21.42v1.32h.27s.08,0,.1.03.03.04.03.07-.01.05-.03.07-.06.03-.1.03h-.47ZM80.31,50.54c-.09-.03-.19-.05-.3-.06-.1-.01-.21-.02-.33-.02-.29,0-.52.06-.68.19-.12.09-.19.21-.19.34,0,.12.05.22.14.3.09.08.23.12.41.12s.33-.03.48-.1c.15-.07.3-.18.46-.33v-.44Z"/><path class="cls-5" d="M82.76,48.55v2.79h.79s.08,0,.1.03.03.04.03.07-.01.05-.03.07-.06.03-.1.03h-1.77s-.08,0-.1-.03-.03-.04-.03-.07.01-.05.03-.07.05-.03.1-.03h.79v-2.58h-.58s-.08,0-.1-.03-.03-.04-.03-.07c0-.03.01-.05.03-.07s.06-.03.1-.03h.78Z"/><path class="cls-5" d="M85.6,51.54l-.93-1.86h-.06s-.08,0-.1-.03c-.02-.02-.03-.04-.03-.07,0-.02,0-.04.02-.06,0-.02.02-.03.04-.04.02,0,.04-.01.08-.01h.55s.08,0,.1.03.03.04.03.07c0,.03-.01.05-.03.07s-.05.03-.1.03h-.27l.82,1.64.8-1.64h-.27s-.08,0-.1-.03-.03-.04-.03-.07c0-.03.01-.05.03-.07s.05-.03.1-.03h.54s.08,0,.1.03.03.04.03.07c0,.02,0,.04-.02.06s-.03.03-.04.03c-.02,0-.06,0-.13,0l-1.27,2.58h.31s.08,0,.1.03.03.04.03.07c0,.03,0,.05-.03.07s-.05.03-.1.03h-1.15s-.08,0-.1-.03c-.02-.02-.03-.04-.03-.07s0-.05.03-.07.05-.03.1-.03h.63l.35-.72Z"/><path class="cls-5" d="M89.17,49.61s0-.08.03-.1c.02-.02.04-.03.07-.03.03,0,.05.01.07.03.02.02.03.06.03.1v.34s0,.08-.03.1c-.02.02-.04.03-.07.03-.03,0-.05,0-.07-.03-.02-.02-.03-.05-.03-.09,0-.09-.06-.17-.15-.24-.13-.09-.3-.13-.52-.13s-.4.05-.52.14c-.09.07-.14.14-.14.23,0,.09.06.17.17.24.08.04.22.08.43.1.28.03.47.06.58.1.15.06.27.13.34.23.08.1.11.2.11.32,0,.17-.08.32-.25.45-.16.13-.4.2-.72.2s-.57-.08-.78-.24c0,.05,0,.09,0,.1,0,.02-.02.03-.03.04s-.04.02-.06.02c-.03,0-.05-.01-.07-.03-.02-.02-.03-.05-.03-.1v-.41s0-.08.03-.1c.02-.02.04-.03.07-.03s.05,0,.07.03c.02.02.03.05.03.08,0,.07.02.13.05.18.06.08.14.14.27.19s.27.08.45.08c.26,0,.45-.05.58-.15.13-.1.19-.2.19-.31,0-.12-.06-.22-.19-.3-.13-.07-.32-.12-.57-.15-.25-.03-.43-.06-.53-.1-.11-.04-.19-.1-.25-.19-.06-.08-.09-.17-.09-.27,0-.17.08-.31.25-.41.17-.1.37-.15.6-.15.28,0,.5.07.67.2Z"/><path class="cls-5" d="M91.54,49.48v1.86h.79s.08,0,.1.03.03.04.03.07-.01.05-.03.07-.06.03-.1.03h-1.77s-.08,0-.1-.03-.03-.04-.03-.07.01-.05.03-.07.05-.03.1-.03h.79v-1.66h-.58s-.08,0-.1-.03-.03-.04-.03-.07c0-.03,0-.05.03-.07.02-.02.05-.03.1-.03h.78ZM91.53,48.45v.52h-.29v-.52h.29Z"/><path class="cls-5" d="M95.01,49.61s0-.08.03-.1c.02-.02.04-.03.07-.03.03,0,.05.01.07.03.02.02.03.06.03.1v.34s0,.08-.03.1c-.02.02-.04.03-.07.03-.03,0-.05,0-.07-.03-.02-.02-.03-.05-.03-.09,0-.09-.06-.17-.15-.24-.13-.09-.3-.13-.52-.13s-.4.05-.52.14c-.09.07-.14.14-.14.23,0,.09.06.17.17.24.08.04.22.08.43.1.28.03.47.06.58.1.15.06.27.13.34.23.08.1.11.2.11.32,0,.17-.08.32-.25.45-.16.13-.4.2-.72.2s-.57-.08-.78-.24c0,.05,0,.09,0,.1,0,.02-.02.03-.03.04s-.04.02-.06.02c-.03,0-.05-.01-.07-.03-.02-.02-.03-.05-.03-.1v-.41s0-.08.03-.1c.02-.02.04-.03.07-.03s.05,0,.07.03c.02.02.03.05.03.08,0,.07.02.13.05.18.06.08.14.14.27.19s.27.08.45.08c.26,0,.45-.05.58-.15.13-.1.19-.2.19-.31,0-.12-.06-.22-.19-.3-.13-.07-.32-.12-.57-.15-.25-.03-.43-.06-.53-.1-.11-.04-.19-.1-.25-.19-.06-.08-.09-.17-.09-.27,0-.17.08-.31.25-.41.17-.1.37-.15.6-.15.28,0,.5.07.67.2Z"/><path class="cls-5" d="M97.23,50.96h.09c.09,0,.17.03.23.09.06.06.09.14.09.23s-.03.17-.1.23c-.06.06-.14.09-.23.09h-.09c-.09,0-.17-.03-.23-.09-.06-.06-.09-.14-.09-.23s.03-.17.1-.23c.06-.06.14-.09.23-.09Z"/><path class="cls-8" d="M100.3,49.48v1.86h.79s.08,0,.1.03.03.04.03.07-.01.05-.03.07-.06.03-.1.03h-1.77s-.08,0-.1-.03-.03-.04-.03-.07.01-.05.03-.07.05-.03.1-.03h.79v-1.66h-.58s-.08,0-.1-.03-.03-.04-.03-.07c0-.03,0-.05.03-.07.02-.02.05-.03.1-.03h.78ZM100.3,48.45v.52h-.29v-.52h.29Z"/><path class="cls-8" d="M102.21,49.48v.2c.17-.18.34-.27.51-.27.1,0,.19.03.27.08.08.05.14.14.2.25.09-.11.18-.19.27-.25.09-.05.18-.08.27-.08.14,0,.26.05.34.14.11.12.17.25.17.39v1.4h.17s.08,0,.1.03.03.04.03.07,0,.05-.03.07-.05.03-.1.03h-.37v-1.58c0-.1-.03-.19-.09-.25-.06-.07-.13-.1-.21-.1-.07,0-.15.03-.23.08s-.17.16-.28.32v1.33h.17s.08,0,.1.03.03.04.03.07,0,.05-.03.07-.05.03-.1.03h-.37v-1.56c0-.11-.03-.19-.09-.26s-.13-.1-.21-.1c-.07,0-.14.02-.21.07-.1.06-.2.18-.3.33v1.33h.17s.08,0,.1.03.03.04.03.07,0,.05-.03.07-.05.03-.1.03h-.54s-.08,0-.1-.03-.03-.04-.03-.07.01-.05.03-.07.05-.03.1-.03h.17v-1.66h-.17s-.08,0-.1-.03-.03-.04-.03-.07c0-.03.01-.05.03-.07s.05-.03.1-.03h.37Z"/><path class="cls-8" d="M105.81,49.48v.5c.26-.23.46-.39.58-.45s.25-.1.36-.1c.12,0,.23.04.33.12.1.08.15.14.15.18,0,.03,0,.06-.03.07-.02.02-.04.03-.08.03-.02,0-.03,0-.04,0-.01,0-.03-.02-.06-.05-.05-.06-.1-.09-.14-.11-.04-.02-.08-.03-.12-.03-.09,0-.19.04-.32.1s-.34.24-.64.51v1.09h.88s.08,0,.1.03.03.04.03.07-.01.05-.03.07-.06.03-.1.03h-1.57s-.08,0-.1-.03-.03-.04-.03-.07c0-.03,0-.05.03-.07.02-.02.05-.03.1-.03h.48v-1.67h-.37s-.08,0-.1-.03-.03-.04-.03-.07c0-.03.01-.05.03-.07s.05-.03.1-.03h.57Z"/><path class="cls-8" d="M110.05,50.55h-2.04c.04.26.14.47.32.62s.41.24.67.24c.15,0,.3-.02.47-.07.16-.05.3-.11.4-.2.03-.02.06-.04.08-.04.03,0,.05,0,.07.03.02.02.03.04.03.07s-.01.05-.04.08c-.08.08-.21.15-.41.22s-.39.1-.6.1c-.34,0-.63-.11-.86-.34-.23-.22-.34-.5-.34-.81,0-.29.11-.54.32-.75.21-.21.48-.31.8-.31s.6.11.81.32c.21.21.31.49.31.83ZM109.85,50.35c-.04-.22-.14-.4-.31-.54-.17-.14-.37-.21-.6-.21s-.43.07-.6.2c-.17.14-.27.32-.31.54h1.83Z"/><path class="cls-8" d="M112.47,51.54v-.29c-.29.24-.6.37-.93.37-.24,0-.43-.06-.56-.18-.13-.12-.2-.27-.2-.45,0-.19.09-.36.27-.51.18-.14.44-.22.78-.22.09,0,.19,0,.3.02.11.01.22.03.35.06v-.32c0-.11-.05-.2-.15-.29-.1-.08-.25-.12-.46-.12-.16,0-.37.05-.65.14-.05.02-.08.02-.1.02-.03,0-.05,0-.07-.03-.02-.02-.03-.04-.03-.07,0-.03,0-.05.02-.06.02-.02.11-.06.27-.1.25-.07.43-.1.56-.1.25,0,.45.06.59.19.14.12.21.27.21.42v1.32h.27s.08,0,.1.03.03.04.03.07-.01.05-.03.07-.06.03-.1.03h-.47ZM112.47,50.54c-.09-.03-.19-.05-.3-.06-.1-.01-.21-.02-.33-.02-.29,0-.52.06-.68.19-.12.09-.19.21-.19.34,0,.12.05.22.14.3.09.08.23.12.41.12s.33-.03.48-.1c.15-.07.3-.18.46-.33v-.44Z"/><path class="cls-8" d="M115.79,48.55v2.79h.27s.08,0,.1.03.03.04.03.07-.01.05-.03.07-.06.03-.1.03h-.47v-.4c-.23.32-.53.48-.88.48-.18,0-.35-.05-.52-.14s-.3-.23-.39-.41c-.1-.18-.14-.36-.14-.55s.05-.37.14-.55.23-.31.39-.41c.17-.1.34-.15.52-.15.35,0,.64.16.88.48v-1.13h-.27s-.08,0-.1-.03-.03-.04-.03-.07c0-.03.01-.05.03-.07s.06-.03.1-.03h.47ZM115.59,50.51c0-.25-.09-.47-.26-.64s-.38-.26-.61-.26-.44.09-.61.26c-.17.17-.26.39-.26.64s.09.47.26.64c.17.18.38.26.61.26s.44-.09.61-.26.26-.39.26-.64Z"/><path class="cls-5" d="M117.72,50.35c0-.18.02-.38.07-.58.05-.2.14-.44.27-.71s.23-.43.29-.49c.02-.02.04-.03.06-.03.03,0,.05,0,.07.03.02.02.03.04.03.07,0,.02,0,.03-.02.05-.17.32-.3.61-.37.87-.07.26-.11.52-.11.78s.04.52.11.78c.08.26.2.55.37.87.01.02.02.04.02.05,0,.03,0,.05-.03.07-.02.02-.04.03-.07.03-.02,0-.04,0-.06-.03-.06-.05-.16-.21-.29-.47-.13-.26-.23-.49-.28-.69-.05-.2-.08-.4-.08-.61Z"/><path class="cls-4" d="M120.15,48.55h.52l-.7,1.13c-.04.06-.08.1-.13.1-.03,0-.06-.01-.09-.04s-.04-.05-.04-.08c0-.02,0-.05.02-.09l.41-1.03ZM121.18,48.55h.52l-.69,1.13c-.04.06-.08.1-.13.1-.03,0-.06-.01-.09-.04-.02-.02-.04-.05-.04-.08,0-.02,0-.05.02-.09l.41-1.03Z"/><path class="cls-4" d="M122.83,48.55v1.33c.24-.31.53-.47.87-.47.29,0,.54.11.75.32.21.21.31.47.31.78s-.11.57-.32.79c-.21.22-.46.32-.75.32-.35,0-.64-.16-.87-.47v.39h-.47s-.08,0-.1-.03-.03-.04-.03-.07,0-.05.03-.07.05-.03.1-.03h.27v-2.58h-.27s-.08,0-.1-.03-.03-.04-.03-.07c0-.03,0-.05.03-.07s.05-.03.1-.03h.47ZM124.57,50.51c0-.25-.09-.47-.26-.64-.17-.18-.38-.26-.61-.26s-.43.09-.61.26c-.17.17-.26.39-.26.64s.09.47.26.64.38.26.61.26.43-.09.61-.26.26-.39.26-.64Z"/><path class="cls-4" d="M127.63,50.51c0,.3-.11.56-.33.78-.22.22-.48.32-.79.32s-.58-.11-.79-.32c-.22-.22-.33-.48-.33-.78s.11-.56.33-.78c.22-.22.48-.32.79-.32s.57.11.79.32c.22.22.33.48.33.78ZM127.42,50.51c0-.25-.09-.46-.27-.64-.18-.18-.39-.26-.65-.26s-.47.09-.65.27c-.18.18-.27.39-.27.64s.09.46.27.64c.18.18.39.27.65.27s.47-.09.65-.27c.18-.18.27-.39.27-.64Z"/><path class="cls-4" d="M128.68,48.55v1.33c.24-.31.53-.47.87-.47.29,0,.54.11.75.32.21.21.31.47.31.78s-.11.57-.32.79c-.21.22-.46.32-.75.32-.35,0-.64-.16-.87-.47v.39h-.47s-.08,0-.1-.03-.03-.04-.03-.07,0-.05.03-.07.05-.03.1-.03h.27v-2.58h-.27s-.08,0-.1-.03-.03-.04-.03-.07c0-.03,0-.05.03-.07s.05-.03.1-.03h.47ZM130.41,50.51c0-.25-.09-.47-.26-.64-.17-.18-.38-.26-.61-.26s-.43.09-.61.26c-.17.17-.26.39-.26.64s.09.47.26.64.38.26.61.26.43-.09.61-.26.26-.39.26-.64Z"/><path class="cls-4" d="M132.46,49.48v1.86h.79s.08,0,.1.03.03.04.03.07-.01.05-.03.07-.06.03-.1.03h-1.77s-.08,0-.1-.03-.03-.04-.03-.07.01-.05.03-.07.05-.03.1-.03h.79v-1.66h-.58s-.08,0-.1-.03-.03-.04-.03-.07c0-.03,0-.05.03-.07.02-.02.05-.03.1-.03h.78ZM132.45,48.45v.52h-.29v-.52h.29Z"/><path class="cls-4" d="M135.85,51.54v-.29c-.29.24-.6.37-.93.37-.24,0-.43-.06-.56-.18-.13-.12-.2-.27-.2-.45,0-.19.09-.36.27-.51.18-.14.44-.22.78-.22.09,0,.19,0,.3.02.11.01.22.03.35.06v-.32c0-.11-.05-.2-.15-.29-.1-.08-.25-.12-.46-.12-.16,0-.37.05-.65.14-.05.02-.08.02-.1.02-.03,0-.05,0-.07-.03-.02-.02-.03-.04-.03-.07,0-.03,0-.05.02-.06.02-.02.11-.06.27-.1.25-.07.43-.1.56-.1.25,0,.45.06.59.19.14.12.21.27.21.42v1.32h.27s.08,0,.1.03.03.04.03.07-.01.05-.03.07-.06.03-.1.03h-.47ZM135.85,50.54c-.09-.03-.19-.05-.3-.06-.1-.01-.21-.02-.33-.02-.29,0-.52.06-.68.19-.12.09-.19.21-.19.34,0,.12.05.22.14.3.09.08.23.12.41.12s.33-.03.48-.1c.15-.07.3-.18.46-.33v-.44Z"/><path class="cls-4" d="M139.04,49.68v-.07s0-.08.03-.1c.02-.02.04-.03.07-.03.03,0,.05.01.07.03.02.02.03.06.03.1v.45s-.01.08-.03.1-.04.03-.07.03c-.03,0-.05,0-.07-.03-.02-.02-.03-.05-.03-.09,0-.11-.08-.22-.22-.32s-.33-.15-.56-.15c-.3,0-.52.09-.68.28-.15.19-.23.4-.23.64,0,.26.08.47.25.64.17.17.39.25.66.25.16,0,.31-.03.47-.09s.31-.15.44-.28c.03-.03.06-.05.09-.05.03,0,.05,0,.07.03.02.02.03.04.03.07,0,.07-.08.15-.24.26-.26.17-.55.25-.86.25s-.59-.1-.79-.31-.31-.47-.31-.78.11-.59.32-.8c.21-.21.48-.32.8-.32s.56.09.77.27Z"/><path class="cls-4" d="M141.08,50.96h.09c.09,0,.17.03.23.09.06.06.09.14.09.23s-.03.17-.1.23c-.06.06-.14.09-.23.09h-.09c-.09,0-.17-.03-.23-.09-.06-.06-.09-.14-.09-.23s.03-.17.1-.23c.06-.06.14-.09.23-.09Z"/><path class="cls-4" d="M143.64,49.48h1.08s.08,0,.1.03.03.04.03.07c0,.03-.01.05-.03.07s-.05.03-.1.03h-1.08v1.33c0,.12.05.21.14.29s.23.12.41.12c.13,0,.28-.02.44-.06.16-.04.28-.09.37-.14.03-.02.06-.03.08-.03.03,0,.05,0,.07.03.02.02.03.04.03.07,0,.02-.01.05-.03.07-.05.05-.17.11-.37.17-.2.06-.38.09-.56.09-.23,0-.42-.05-.56-.16-.14-.11-.21-.26-.21-.44v-1.33h-.37s-.08,0-.1-.03-.03-.04-.03-.07c0-.03,0-.05.03-.07s.05-.03.1-.03h.37v-.59s0-.08.03-.1c.02-.02.04-.03.07-.03.03,0,.05.01.07.03.02.02.03.05.03.1v.59Z"/><path class="cls-4" d="M147.08,49.48v1.86h.79s.08,0,.1.03.03.04.03.07-.01.05-.03.07-.06.03-.1.03h-1.77s-.08,0-.1-.03-.03-.04-.03-.07.01-.05.03-.07.05-.03.1-.03h.79v-1.66h-.58s-.08,0-.1-.03-.03-.04-.03-.07c0-.03,0-.05.03-.07.02-.02.05-.03.1-.03h.78ZM147.07,48.45v.52h-.29v-.52h.29Z"/><path class="cls-4" d="M149.76,49.68v1.66h.88s.08,0,.1.03.03.04.03.07-.01.05-.03.07-.05.03-.1.03h-1.56s-.08,0-.1-.03-.03-.04-.03-.07,0-.05.03-.07.05-.03.1-.03h.48v-1.66h-.43s-.08,0-.1-.03c-.02-.02-.03-.04-.03-.07,0-.03,0-.05.03-.07.02-.02.06-.03.1-.03h.43v-.3c0-.17.07-.31.2-.44.14-.12.32-.19.54-.19.19,0,.39.02.6.05.08.01.13.03.15.04s.02.04.02.07,0,.05-.03.07c-.02.02-.04.03-.08.03-.01,0-.03,0-.06,0-.24-.04-.44-.06-.61-.06-.17,0-.31.04-.4.13-.09.09-.14.18-.14.29v.3h.93s.08,0,.1.03c.02.02.03.04.03.07,0,.03,0,.05-.03.07-.02.02-.06.03-.1.03h-.93Z"/><path class="cls-4" d="M152.31,48.55h.52l-.7,1.13c-.04.06-.08.1-.13.1-.03,0-.06-.01-.09-.04s-.04-.05-.04-.08c0-.02,0-.05.02-.09l.41-1.03ZM153.34,48.55h.52l-.69,1.13c-.04.06-.08.1-.13.1-.03,0-.06-.01-.09-.04-.02-.02-.04-.05-.04-.08,0-.02,0-.05.02-.09l.41-1.03Z"/><path class="cls-5" d="M155.8,50.35c0,.18-.02.38-.07.58-.05.2-.14.44-.27.71-.13.27-.23.43-.29.48-.02.02-.04.03-.06.03-.03,0-.05-.01-.07-.03-.02-.02-.03-.04-.03-.07,0-.02,0-.03.02-.05.17-.32.3-.61.37-.87.07-.26.11-.52.11-.78s-.04-.52-.11-.78c-.08-.26-.2-.55-.37-.87-.01-.02-.02-.04-.02-.05,0-.03,0-.05.03-.07.02-.02.04-.03.07-.03.02,0,.04,0,.06.03.06.05.16.21.29.47.13.26.22.49.28.69.05.2.08.4.08.61Z"/><rect class="cls-7" x="55.23" y="97.73" width="2.35" height="4.88"/><path class="cls-1" d="M33.06,98.82v2.38h.69s.08,0,.1.03c.02.02.03.04.03.07s0,.05-.03.07c-.02.02-.05.03-.1.03h-1.57s-.08,0-.1-.03c-.02-.02-.03-.04-.03-.07s0-.05.03-.07c.02-.02.05-.03.1-.03h.69v-2.38h-.69s-.08,0-.1-.03c-.02-.02-.03-.04-.03-.07s0-.05.03-.07c.02-.02.05-.03.1-.03h1.57s.08,0,.1.03c.02.02.03.04.03.07s0,.05-.03.07c-.02.02-.05.03-.1.03h-.69Z"/><path class="cls-1" d="M35.24,99.34v.3c.14-.14.27-.24.38-.29.11-.05.24-.08.38-.08.15,0,.29.03.42.1.09.05.17.13.24.24.07.11.11.22.11.34v1.26h.17s.08,0,.1.03.03.04.03.07-.01.05-.03.07-.05.03-.1.03h-.54s-.08,0-.11-.03c-.02-.02-.03-.04-.03-.07s0-.05.03-.07c.02-.02.06-.03.11-.03h.17v-1.23c0-.14-.05-.26-.15-.36-.1-.1-.24-.15-.41-.15-.13,0-.25.03-.34.08-.1.05-.23.19-.41.4v1.25h.23s.08,0,.1.03c.02.02.03.04.03.07s0,.05-.03.07c-.02.02-.05.03-.1.03h-.65s-.08,0-.1-.03-.03-.04-.03-.07.01-.05.03-.07.05-.03.1-.03h.23v-1.66h-.17s-.08,0-.1-.03-.03-.04-.03-.07c0-.03,0-.05.03-.07s.05-.03.1-.03h.37Z"/><path class="cls-1" d="M41.83,98.62v3.2h.49s.08,0,.1.03c.02.02.03.04.03.07s-.01.05-.03.07c-.02.02-.05.03-.1.03h-.68v-3.6h.68s.08,0,.1.03.03.04.03.07c0,.03-.01.05-.03.07s-.05.03-.1.03h-.49Z"/><path class="cls-1" d="M45.03,100.57h-1.33v-.23l1.11-1.92h.42v1.95h.17s.08,0,.11.03c.02.02.03.04.03.07,0,.03,0,.05-.03.07-.02.02-.06.03-.11.03h-.17v.64h.17s.08,0,.11.03c.02.02.03.04.03.07s0,.05-.03.07c-.02.02-.06.03-.11.03h-.74s-.08,0-.11-.03-.03-.04-.03-.07,0-.05.03-.07.06-.03.11-.03h.37v-.64ZM45.03,100.37v-1.75h-.1l-1.01,1.75h1.12Z"/><path class="cls-1" d="M47.48,101.82v-3.2h-.48s-.08,0-.1-.03-.03-.04-.03-.07c0-.03,0-.05.03-.07s.05-.03.1-.03h.69v3.6h-.69s-.08,0-.1-.03c-.02-.02-.03-.04-.03-.07,0-.03,0-.05.03-.07s.05-.03.1-.03h.48Z"/><path class="cls-1" d="M50.46,99.34h.09c.09,0,.17.03.23.1s.09.14.09.23c0,.09-.03.17-.1.23-.06.06-.14.09-.23.09h-.09c-.09,0-.17-.03-.23-.09-.06-.06-.09-.14-.09-.23,0-.09.03-.17.1-.23.06-.06.14-.09.23-.09ZM50.46,100.83h.09c.09,0,.17.03.23.09.06.06.09.14.09.23s-.03.17-.1.23c-.06.06-.14.09-.23.09h-.09c-.09,0-.17-.03-.23-.09-.06-.06-.09-.14-.09-.23s.03-.17.1-.23c.06-.06.14-.09.23-.09Z"/><path class="cls-1" d="M33.06,58.25v2.38h.69s.08,0,.1.03c.02.02.03.04.03.07s0,.05-.03.07c-.02.02-.05.03-.1.03h-1.57s-.08,0-.1-.03c-.02-.02-.03-.04-.03-.07s0-.05.03-.07c.02-.02.05-.03.1-.03h.69v-2.38h-.69s-.08,0-.1-.03c-.02-.02-.03-.04-.03-.07s0-.05.03-.07c.02-.02.05-.03.1-.03h1.57s.08,0,.1.03c.02.02.03.04.03.07s0,.05-.03.07c-.02.02-.05.03-.1.03h-.69Z"/><path class="cls-1" d="M35.24,58.77v.3c.14-.14.27-.24.38-.29.11-.05.24-.08.38-.08.15,0,.29.03.42.1.09.05.17.13.24.24.07.11.11.22.11.34v1.26h.17s.08,0,.1.03.03.04.03.07-.01.05-.03.07-.05.03-.1.03h-.54s-.08,0-.11-.03c-.02-.02-.03-.04-.03-.07s0-.05.03-.07c.02-.02.06-.03.11-.03h.17v-1.23c0-.14-.05-.26-.15-.36-.1-.1-.24-.15-.41-.15-.13,0-.25.03-.34.08-.1.05-.23.19-.41.4v1.25h.23s.08,0,.1.03c.02.02.03.04.03.07s0,.05-.03.07c-.02.02-.05.03-.1.03h-.65s-.08,0-.1-.03-.03-.04-.03-.07.01-.05.03-.07.05-.03.1-.03h.23v-1.66h-.17s-.08,0-.1-.03-.03-.04-.03-.07c0-.03,0-.05.03-.07s.05-.03.1-.03h.37Z"/><path class="cls-1" d="M41.83,58.05v3.2h.49s.08,0,.1.03c.02.02.03.04.03.07s-.01.05-.03.07c-.02.02-.05.03-.1.03h-.68v-3.6h.68s.08,0,.1.03.03.04.03.07c0,.03-.01.05-.03.07s-.05.03-.1.03h-.49Z"/><path class="cls-1" d="M45.07,59.21c.18.08.32.2.42.34s.15.29.15.45c0,.24-.1.45-.29.63-.19.18-.44.27-.73.27-.17,0-.35-.04-.53-.11s-.31-.15-.39-.22c-.02-.03-.04-.05-.04-.08,0-.03,0-.05.03-.07s.04-.03.07-.03.05.01.09.04c.25.18.51.27.78.27.23,0,.42-.07.58-.22s.23-.31.23-.48c0-.12-.04-.24-.12-.35s-.19-.2-.33-.27-.29-.1-.44-.1c-.05,0-.08,0-.1-.03-.02-.02-.03-.04-.03-.07,0-.03,0-.05.03-.07s.05-.03.09-.03h.17c.18,0,.33-.05.44-.16s.17-.24.17-.38-.06-.28-.18-.4-.28-.17-.48-.17c-.14,0-.26.02-.38.07-.12.05-.21.11-.28.19-.03.03-.04.05-.06.06-.01,0-.03.01-.05.01-.03,0-.05,0-.07-.03-.02-.02-.03-.04-.03-.07,0-.06.07-.14.21-.24.19-.13.41-.2.65-.2s.46.08.62.23c.16.15.24.33.24.54,0,.13-.04.26-.12.38-.08.12-.19.21-.34.29Z"/><path class="cls-1" d="M47.49,61.25v-3.2h-.48s-.08,0-.1-.03-.03-.04-.03-.07c0-.03,0-.05.03-.07s.05-.03.1-.03h.69v3.6h-.69s-.08,0-.1-.03c-.02-.02-.03-.04-.03-.07,0-.03,0-.05.03-.07s.05-.03.1-.03h.48Z"/><path class="cls-1" d="M50.46,58.77h.09c.09,0,.17.03.23.1s.09.14.09.23c0,.09-.03.17-.1.23-.06.06-.14.09-.23.09h-.09c-.09,0-.17-.03-.23-.09-.06-.06-.09-.14-.09-.23,0-.09.03-.17.1-.23.06-.06.14-.09.23-.09ZM50.46,60.26h.09c.09,0,.17.03.23.09.06.06.09.14.09.23s-.03.17-.1.23c-.06.06-.14.09-.23.09h-.09c-.09,0-.17-.03-.23-.09-.06-.06-.09-.14-.09-.23s.03-.17.1-.23c.06-.06.14-.09.23-.09Z"/><path class="cls-5" d="M56.92,60.83v-.29c-.29.24-.6.37-.93.37-.24,0-.43-.06-.56-.18-.13-.12-.2-.27-.2-.45,0-.19.09-.36.27-.51.18-.14.44-.22.78-.22.09,0,.19,0,.3.02.11.01.22.03.35.06v-.32c0-.11-.05-.2-.15-.29-.1-.08-.25-.12-.46-.12-.16,0-.37.05-.65.14-.05.02-.08.02-.1.02-.03,0-.05,0-.07-.03-.02-.02-.03-.04-.03-.07,0-.03,0-.05.02-.06.02-.02.11-.06.27-.1.25-.07.43-.1.56-.1.25,0,.45.06.59.19.14.12.21.27.21.42v1.32h.27s.08,0,.1.03.03.04.03.07-.01.05-.03.07-.06.03-.1.03h-.47ZM56.92,59.84c-.09-.03-.19-.05-.3-.06-.1-.01-.21-.02-.33-.02-.29,0-.52.06-.68.19-.12.09-.19.21-.19.34,0,.12.05.22.14.3.09.08.23.12.41.12s.33-.03.48-.1c.15-.07.3-.18.46-.33v-.44Z"/><path class="cls-5" d="M58.63,58.77v.3c.14-.14.27-.24.38-.29.11-.05.24-.08.38-.08.15,0,.29.03.42.1.09.05.17.13.24.24.07.11.11.22.11.34v1.26h.17s.08,0,.1.03.03.04.03.07-.01.05-.03.07-.05.03-.1.03h-.54s-.08,0-.11-.03c-.02-.02-.03-.04-.03-.07s0-.05.03-.07c.02-.02.06-.03.11-.03h.17v-1.23c0-.14-.05-.26-.15-.36-.1-.1-.24-.15-.41-.15-.13,0-.25.03-.34.08-.1.05-.23.19-.41.4v1.25h.23s.08,0,.1.03c.02.02.03.04.03.07s0,.05-.03.07c-.02.02-.05.03-.1.03h-.65s-.08,0-.1-.03-.03-.04-.03-.07.01-.05.03-.07.05-.03.1-.03h.23v-1.66h-.17s-.08,0-.1-.03-.03-.04-.03-.07c0-.03,0-.05.03-.07s.05-.03.1-.03h.37Z"/><path class="cls-5" d="M62.77,60.83v-.29c-.29.24-.6.37-.93.37-.24,0-.43-.06-.56-.18-.13-.12-.2-.27-.2-.45,0-.19.09-.36.27-.51.18-.14.44-.22.78-.22.09,0,.19,0,.3.02.11.01.22.03.35.06v-.32c0-.11-.05-.2-.15-.29-.1-.08-.25-.12-.46-.12-.16,0-.37.05-.65.14-.05.02-.08.02-.1.02-.03,0-.05,0-.07-.03-.02-.02-.03-.04-.03-.07,0-.03,0-.05.02-.06.02-.02.11-.06.27-.1.25-.07.43-.1.56-.1.25,0,.45.06.59.19.14.12.21.27.21.42v1.32h.27s.08,0,.1.03.03.04.03.07-.01.05-.03.07-.06.03-.1.03h-.47ZM62.77,59.84c-.09-.03-.19-.05-.3-.06-.1-.01-.21-.02-.33-.02-.29,0-.52.06-.68.19-.12.09-.19.21-.19.34,0,.12.05.22.14.3.09.08.23.12.41.12s.33-.03.48-.1c.15-.07.3-.18.46-.33v-.44Z"/><path class="cls-5" d="M65.22,57.85v2.79h.79s.08,0,.1.03.03.04.03.07-.01.05-.03.07-.06.03-.1.03h-1.77s-.08,0-.1-.03-.03-.04-.03-.07.01-.05.03-.07.05-.03.1-.03h.79v-2.58h-.58s-.08,0-.1-.03-.03-.04-.03-.07c0-.03.01-.05.03-.07s.06-.03.1-.03h.78Z"/><path class="cls-5" d="M68.06,60.83l-.93-1.86h-.06s-.08,0-.1-.03c-.02-.02-.03-.04-.03-.07,0-.02,0-.04.02-.06,0-.02.02-.03.04-.04.02,0,.04-.01.08-.01h.55s.08,0,.1.03.03.04.03.07c0,.03-.01.05-.03.07s-.05.03-.1.03h-.27l.82,1.64.8-1.64h-.27s-.08,0-.1-.03-.03-.04-.03-.07c0-.03.01-.05.03-.07s.05-.03.1-.03h.54s.08,0,.1.03.03.04.03.07c0,.02,0,.04-.02.06s-.03.03-.04.03c-.02,0-.06,0-.13,0l-1.27,2.58h.31s.08,0,.1.03.03.04.03.07c0,.03,0,.05-.03.07s-.05.03-.1.03h-1.15s-.08,0-.1-.03c-.02-.02-.03-.04-.03-.07s0-.05.03-.07.05-.03.1-.03h.63l.35-.72Z"/><path class="cls-5" d="M71.63,58.9s0-.08.03-.1c.02-.02.04-.03.07-.03.03,0,.05.01.07.03.02.02.03.06.03.1v.34s0,.08-.03.1c-.02.02-.04.03-.07.03-.03,0-.05,0-.07-.03-.02-.02-.03-.05-.03-.09,0-.09-.06-.17-.15-.24-.13-.09-.3-.13-.52-.13s-.4.05-.52.14c-.09.07-.14.14-.14.23,0,.09.06.17.17.24.08.04.22.08.43.1.28.03.47.06.58.1.15.06.27.13.34.23.08.1.11.2.11.32,0,.17-.08.32-.25.45-.16.13-.4.2-.72.2s-.57-.08-.78-.24c0,.05,0,.09,0,.1,0,.02-.02.03-.03.04s-.04.02-.06.02c-.03,0-.05-.01-.07-.03-.02-.02-.03-.05-.03-.1v-.41s0-.08.03-.1c.02-.02.04-.03.07-.03s.05,0,.07.03c.02.02.03.05.03.08,0,.07.02.13.05.18.06.08.14.14.27.19s.27.08.45.08c.26,0,.45-.05.58-.15.13-.1.19-.2.19-.31,0-.12-.06-.22-.19-.3-.13-.07-.32-.12-.57-.15-.25-.03-.43-.06-.53-.1-.11-.04-.19-.1-.25-.19-.06-.08-.09-.17-.09-.27,0-.17.08-.31.25-.41.17-.1.37-.15.6-.15.28,0,.5.07.67.2Z"/><path class="cls-5" d="M74,58.77v1.86h.79s.08,0,.1.03.03.04.03.07-.01.05-.03.07-.06.03-.1.03h-1.77s-.08,0-.1-.03-.03-.04-.03-.07.01-.05.03-.07.05-.03.1-.03h.79v-1.66h-.58s-.08,0-.1-.03-.03-.04-.03-.07c0-.03,0-.05.03-.07.02-.02.05-.03.1-.03h.78ZM73.99,57.75v.52h-.29v-.52h.29Z"/><path class="cls-5" d="M77.47,58.9s0-.08.03-.1c.02-.02.04-.03.07-.03.03,0,.05.01.07.03.02.02.03.06.03.1v.34s0,.08-.03.1c-.02.02-.04.03-.07.03-.03,0-.05,0-.07-.03-.02-.02-.03-.05-.03-.09,0-.09-.06-.17-.15-.24-.13-.09-.3-.13-.52-.13s-.4.05-.52.14c-.09.07-.14.14-.14.23,0,.09.06.17.17.24.08.04.22.08.43.1.28.03.47.06.58.1.15.06.27.13.34.23.08.1.11.2.11.32,0,.17-.08.32-.25.45-.16.13-.4.2-.72.2s-.57-.08-.78-.24c0,.05,0,.09,0,.1,0,.02-.02.03-.03.04s-.04.02-.06.02c-.03,0-.05-.01-.07-.03-.02-.02-.03-.05-.03-.1v-.41s0-.08.03-.1c.02-.02.04-.03.07-.03s.05,0,.07.03c.02.02.03.05.03.08,0,.07.02.13.05.18.06.08.14.14.27.19s.27.08.45.08c.26,0,.45-.05.58-.15.13-.1.19-.2.19-.31,0-.12-.06-.22-.19-.3-.13-.07-.32-.12-.57-.15-.25-.03-.43-.06-.53-.1-.11-.04-.19-.1-.25-.19-.06-.08-.09-.17-.09-.27,0-.17.08-.31.25-.41.17-.1.37-.15.6-.15.28,0,.5.07.67.2Z"/><path class="cls-5" d="M79.69,60.26h.09c.09,0,.17.03.23.09.06.06.09.14.09.23s-.03.17-.1.23c-.06.06-.14.09-.23.09h-.09c-.09,0-.17-.03-.23-.09-.06-.06-.09-.14-.09-.23s.03-.17.1-.23c.06-.06.14-.09.23-.09Z"/><path class="cls-8" d="M82.77,58.77v1.86h.79s.08,0,.1.03.03.04.03.07-.01.05-.03.07-.06.03-.1.03h-1.77s-.08,0-.1-.03-.03-.04-.03-.07.01-.05.03-.07.05-.03.1-.03h.79v-1.66h-.58s-.08,0-.1-.03-.03-.04-.03-.07c0-.03,0-.05.03-.07.02-.02.05-.03.1-.03h.78ZM82.76,57.75v.52h-.29v-.52h.29Z"/><path class="cls-8" d="M84.67,58.77v.2c.17-.18.34-.27.51-.27.1,0,.19.03.27.08.08.05.14.14.2.25.09-.11.18-.19.27-.25.09-.05.18-.08.27-.08.14,0,.26.05.34.14.11.12.17.25.17.39v1.4h.17s.08,0,.1.03.03.04.03.07,0,.05-.03.07-.05.03-.1.03h-.37v-1.58c0-.1-.03-.19-.09-.25-.06-.07-.13-.1-.21-.1-.07,0-.15.03-.23.08s-.17.16-.28.32v1.33h.17s.08,0,.1.03.03.04.03.07,0,.05-.03.07-.05.03-.1.03h-.37v-1.56c0-.11-.03-.19-.09-.26s-.13-.1-.21-.1c-.07,0-.14.02-.21.07-.1.06-.2.18-.3.33v1.33h.17s.08,0,.1.03.03.04.03.07,0,.05-.03.07-.05.03-.1.03h-.54s-.08,0-.1-.03-.03-.04-.03-.07.01-.05.03-.07.05-.03.1-.03h.17v-1.66h-.17s-.08,0-.1-.03-.03-.04-.03-.07c0-.03.01-.05.03-.07s.05-.03.1-.03h.37Z"/><path class="cls-8" d="M89.17,58.9s0-.08.03-.1c.02-.02.04-.03.07-.03.03,0,.05.01.07.03.02.02.03.06.03.1v.34s0,.08-.03.1c-.02.02-.04.03-.07.03-.03,0-.05,0-.07-.03-.02-.02-.03-.05-.03-.09,0-.09-.06-.17-.15-.24-.13-.09-.3-.13-.52-.13s-.4.05-.52.14c-.09.07-.14.14-.14.23,0,.09.06.17.17.24.08.04.22.08.43.1.28.03.47.06.58.1.15.06.27.13.34.23.08.1.11.2.11.32,0,.17-.08.32-.25.45-.16.13-.4.2-.72.2s-.57-.08-.78-.24c0,.05,0,.09,0,.1,0,.02-.02.03-.03.04s-.04.02-.06.02c-.03,0-.05-.01-.07-.03-.02-.02-.03-.05-.03-.1v-.41s0-.08.03-.1c.02-.02.04-.03.07-.03s.05,0,.07.03c.02.02.03.05.03.08,0,.07.02.13.05.18.06.08.14.14.27.19s.27.08.45.08c.26,0,.45-.05.58-.15.13-.1.19-.2.19-.31,0-.12-.06-.22-.19-.3-.13-.07-.32-.12-.57-.15-.25-.03-.43-.06-.53-.1-.11-.04-.19-.1-.25-.19-.06-.08-.09-.17-.09-.27,0-.17.08-.31.25-.41.17-.1.37-.15.6-.15.28,0,.5.07.67.2Z"/><path class="cls-8" d="M90.77,57.85v1.23c.13-.14.25-.24.37-.29s.25-.08.39-.08c.16,0,.29.03.4.08.11.05.2.14.27.25.07.11.11.23.11.36v1.24h.22s.08,0,.1.03.03.04.03.07-.01.05-.03.07-.05.03-.1.03h-.65s-.08,0-.1-.03-.03-.04-.03-.07.01-.05.03-.07.06-.03.1-.03h.22v-1.23c0-.14-.05-.26-.16-.36-.1-.1-.25-.15-.43-.15-.15,0-.27.04-.37.11-.08.05-.2.17-.37.36v1.27h.23s.08,0,.1.03.03.04.03.07-.01.05-.03.07-.05.03-.1.03h-.65s-.08,0-.1-.03c-.02-.02-.03-.04-.03-.07s0-.05.03-.07c.02-.02.05-.03.1-.03h.23v-2.58h-.27s-.08,0-.1-.03-.03-.04-.03-.07c0-.03.01-.05.03-.07s.05-.03.1-.03h.47Z"/><path class="cls-8" d="M95.47,59.81c0,.3-.11.56-.33.78-.22.22-.48.32-.79.32s-.58-.11-.79-.32c-.22-.22-.33-.48-.33-.78s.11-.56.33-.78c.22-.22.48-.32.79-.32s.57.11.79.32c.22.22.33.48.33.78ZM95.27,59.81c0-.25-.09-.46-.27-.64-.18-.18-.39-.26-.65-.26s-.47.09-.65.27c-.18.18-.27.39-.27.64s.09.46.27.64c.18.18.39.27.65.27s.47-.09.65-.27c.18-.18.27-.39.27-.64Z"/><path class="cls-8" d="M97.96,60.83h-.25s-.44-1.28-.44-1.28l-.44,1.28h-.25s-.41-1.86-.41-1.86h-.1s-.08,0-.1-.03-.03-.04-.03-.07c0-.03.01-.05.03-.07s.05-.03.1-.03h.55s.08,0,.1.03.03.04.03.07c0,.03-.01.05-.03.07s-.05.03-.1.03h-.25l.35,1.58.43-1.27h.24l.44,1.27.34-1.58h-.25s-.08,0-.1-.03-.03-.04-.03-.07c0-.03,0-.05.03-.07s.06-.03.11-.03h.55s.08,0,.1.03.03.04.03.07c0,.03-.01.05-.03.07s-.06.03-.1.03h-.1l-.41,1.86Z"/><path class="cls-5" d="M100.18,59.65c0-.18.02-.38.07-.58.05-.2.14-.44.27-.71s.23-.43.29-.49c.02-.02.04-.03.06-.03.03,0,.05,0,.07.03.02.02.03.04.03.07,0,.02,0,.03-.02.05-.17.32-.3.61-.37.87-.07.26-.11.52-.11.78s.04.52.11.78c.08.26.2.55.37.87.01.02.02.04.02.05,0,.03,0,.05-.03.07-.02.02-.04.03-.07.03-.02,0-.04,0-.06-.03-.06-.05-.16-.21-.29-.47-.13-.26-.23-.49-.28-.69-.05-.2-.08-.4-.08-.61Z"/><path class="cls-5" d="M103.23,58.77v1.86h.79s.08,0,.1.03.03.04.03.07-.01.05-.03.07-.06.03-.1.03h-1.77s-.08,0-.1-.03-.03-.04-.03-.07.01-.05.03-.07.05-.03.1-.03h.79v-1.66h-.58s-.08,0-.1-.03-.03-.04-.03-.07c0-.03,0-.05.03-.07.02-.02.05-.03.1-.03h.78ZM103.22,57.75v.52h-.29v-.52h.29Z"/><path class="cls-5" d="M105.14,58.77v.2c.17-.18.34-.27.51-.27.1,0,.19.03.27.08.08.05.14.14.2.25.09-.11.18-.19.27-.25.09-.05.18-.08.27-.08.14,0,.26.05.34.14.11.12.17.25.17.39v1.4h.17s.08,0,.1.03.03.04.03.07,0,.05-.03.07-.05.03-.1.03h-.37v-1.58c0-.1-.03-.19-.09-.25-.06-.07-.13-.1-.21-.1-.07,0-.15.03-.23.08s-.17.16-.28.32v1.33h.17s.08,0,.1.03.03.04.03.07,0,.05-.03.07-.05.03-.1.03h-.37v-1.56c0-.11-.03-.19-.09-.26s-.13-.1-.21-.1c-.07,0-.14.02-.21.07-.1.06-.2.18-.3.33v1.33h.17s.08,0,.1.03.03.04.03.07,0,.05-.03.07-.05.03-.1.03h-.54s-.08,0-.1-.03-.03-.04-.03-.07.01-.05.03-.07.05-.03.1-.03h.17v-1.66h-.17s-.08,0-.1-.03-.03-.04-.03-.07c0-.03.01-.05.03-.07s.05-.03.1-.03h.37Z"/><path class="cls-5" d="M109.64,59.14v-.37h.47s.08,0,.1.03.03.04.03.07c0,.03-.01.05-.03.07s-.05.03-.1.03h-.27v2c0,.13-.03.25-.08.36-.04.07-.1.14-.19.22-.09.07-.17.13-.24.16-.07.03-.17.05-.29.05h-.57s-.08,0-.1-.03c-.02-.02-.03-.04-.03-.07s0-.05.03-.07.05-.03.1-.03h.57c.12,0,.22-.03.32-.09.09-.06.17-.15.23-.26.04-.07.05-.15.05-.25v-.6c-.21.29-.49.44-.83.44-.27,0-.51-.1-.71-.31-.2-.2-.3-.45-.3-.74s.1-.53.3-.73.44-.3.71-.3c.34,0,.61.15.83.44ZM109.64,59.74c0-.23-.08-.43-.24-.59-.16-.16-.35-.24-.58-.24s-.42.08-.58.24-.24.36-.24.59.08.43.24.6.35.24.58.24.42-.08.58-.24c.16-.16.24-.36.24-.6Z"/><path class="cls-5" d="M111.95,59.65c0,.18-.02.38-.07.58-.05.2-.14.44-.27.71-.13.27-.23.43-.29.48-.02.02-.04.03-.06.03-.03,0-.05-.01-.07-.03-.02-.02-.03-.04-.03-.07,0-.02,0-.03.02-.05.17-.32.3-.61.37-.87.07-.26.11-.52.11-.78s-.04-.52-.11-.78c-.08-.26-.2-.55-.37-.87-.01-.02-.02-.04-.02-.05,0-.03,0-.05.03-.07.02-.02.04-.03.07-.03.02,0,.04,0,.06.03.06.05.16.21.29.47.13.26.22.49.28.69.05.2.08.4.08.61Z"/><polygon class="cls-2" points="93.42 92.35 93.42 92.37 93.11 92.37 91.75 92.35 91.75 92.34 93.11 92.35 93.42 92.35"/><polygon class="cls-2" points="93.31 71.76 93.31 79.88 93.22 79.88 93.22 71.78 93.31 71.76"/><rect class="cls-2" x="93.22" y="71.73" width=".09" height="8.15"/><rect class="cls-2" x="93.11" y="92.35" width=".31" height=".02"/><path class="cls-2" d="M139.38,91.95c-.01.32,0,.64,0,.96l-45.96-.54v-.02h-1.67s-45.37-.17-45.37-.17c0-.36.01-2.63,0-3,0-.15.02-.26.2-.3.18-.05.35-.15.53-.21.19-.06.27-.15.26-.36-.01-.57,0-1.14,0-1.72-.01-.17.06-.23.23-.23h1.31c.15,0,.22.06.21.21,0,.15.01.3,0,.45-.01.18.06.24.24.24.33-.01.67,0,1,0,.24,0,.28.04.28.28v.66c.01.16-.03.33.05.5.07,0,.15,0,.23,0h1.56c.26,0,.28.02.28.28v3c0,.13.06.19.19.19.16-.01.32.02.47-.02.09-.24.05-.49.07-.73.05-.89.12-1.78.17-2.67.03-.66.04-1.32.09-1.97.02-.27.02-.54.04-.82.03-.64.09-1.28.12-1.92.04-.65.05-1.3.09-1.95.06-.75.12-1.49.12-2.24.01-.55.26-.95.65-1.29,0,0,.38.36.49.6.18.21.13.49.14.73.06,1,.11,2.01.18,3.02.02.33.03.67.05,1,.04.7.06,1.4.12,2.1.02.27.02.55.04.83.05.64.06,1.27.09,1.91.04.64.11,1.28.12,1.92,0,.36.06.73.05,1.09,0,.13.01.26.08.39.03,0,.07.02.12.02.23,0,.33.03.32-.3,0-.24.01-.47,0-.71-.01-.16.05-.25.2-.27.21-.03.27-.15.26-.35-.01-.28.02-2.99.02-3.57,0-.1-.06-.23-.01-.29.08-.1.22-.14.35-.18.94-.36,1.88-.72,2.83-1.07.15-.05.19-.13.19-.28-.02-.24.02-.49-.05-.73,0-.02-.02-.04-.02-.06.16-.42.08-.86.08-1.28,0-.34.52-.88.78-1.04,0,0,.4.21.53.39.07.09.14.16.18.26.06.13.09.23.07.39-.04.36-.02.74-.01,1.11,0,.06.05.11.08.17l-.04.19c0,.22,0,.43,0,.64-.01.14.05.2.17.24.52.19,1.03.38,1.54.58.51.19,1.01.39,1.52.57.15.06.2.15.2.3s-.08.28-.09.41c-.01.57,0,1.14,0,1.71,0,.13.12.23.08.37-.08.31-.03.64-.04.96-.01.47-.01.42.45.43.17,0,.24-.07.24-.24,0-.36,0-.71,0-1.07,0-.17.07-.25.24-.23.35.02.32-.09.32-.33v-12.51c.01-.23.13-.38.34-.45.07-.02.14-.02.2-.04.09-.04.21-.08.18-.21-.04-.2,0-.39-.07-.59-.11-.32.01-.47.34-.55.23-.05.44-.15.64-.29.31-.23.64-.43.96-.65.12-.09.23-.12.37,0,.22.17.47.31.7.47.29.2.58.41.94.49.13.03.29.02.32.2.01.12.03.26-.02.38-.19.45-.08.68.36.81.03.01.05.02.07.02.12.01.15.09.15.2.02.91-.07,1.83.08,2.73v10.36h1.01c0-3.71.02-7.74.02-11.45v-.12c0-.14.06-.2.19-.2h.73c.13,0,.2.06.19.2v.17c0,.31.03.34.34.34h3.45c.1,0,.2.01.3-.04.04-.15.02-.3.02-.45,0-.16.06-.22.21-.22.22.01.43.01.65,0,.26-.01.3.03.3.3-.01,1.66-.01,3.31-.01,4.97v4.25c0,.28.01.56,0,.84v.61c.28.09.48.23.48.5v.49c0,.37.07.45.44.49.07,0,.13,0,.19,0,.05-.1.05-.21.05-.32,0-.2.01-.4,0-.6-.01-.14.06-.24.17-.25.41-.01.53-.23.47-.6-.01-.1.04-.2.13-.19.28.02.26-.16.26-.35v-14.97c0-.46-.08-.49.45-.47.13,0,.19-.05.23-.17.04-.11.02-.17.02-.28v-.02c-.05-.02-.1-.04-.15-.04-.24,0-.26-.06-.26-.28,0-.22.02-.44-.03-.66.16-.07,1.73-.05,2.05-.05.32-.01.66.1.94-.17.14.03.24-.06.33-.14v-4.93h.19v4.97c.09.08.2.13.33.1.04,0,.1,0,.11.02.09.2.27.15.43.15.7,0,1.41-.01,2.12-.02.05,0,.11-.01.17,0,.11.03.21.06.18.24-.04.17-.02.35-.01.53,0,.15-.05.22-.22.23-.07.01-.14.04-.21.06v.16c.02.22.1.3.32.3.43-.01.41-.01.41.4v13.65c0,.3.02.33.32.33h2.07s.19-14.36.19-14.36c.03-.06.09-.08.24-.12l1.12-.29.11-.03-.16,18.18h.09l.16-18.2.07-.02h.04l6.43.39c.32.02.36.05.36.37v17.16c0,.1-.01.21.05.3.12.04.25.02.38.02.11.01.19-.08.19-.19v-.38c0-.16.13-.28.28-.28h3.46c.16,0,.28.12.28.28v.92c.15.08.28.08.41,0,.01-.04.02-.08.02-.12v-1.69c0-.11-.03-.21-.01-.32.06-.31.05-.62.01-.92-.01-.07-.03-.12,0-.2.1-.23-.02-.52.17-.74.02-.03,0-.07,0-.11,0-.16.01-.31,0-.47-.01-.19.04-.38-.02-.56-.08-.19-.04-.33.11-.42,0-.11-.02-.2.02-.28.16-.3.18-.64.28-.96.02-.08.08-.18.1-.26.03-.13.22-.15.28-.02.07.13.1.31.13.4.08.27.09.56.23.82.05.09.02.2.03.3,0,0,.23.11.11.4-.03.05-.03.12-.03.17v.84c0,.09-.01.19.05.25.13.15.11.32.13.5.03.19.01.38-.01.57-.03.36.03.72.01,1.07-.03.97,0,1.94-.01,2.91,0,.19.08.26.3.24.25-.03.51-.04.77-.01.22.03.31-.04.3-.23-.01-.96.01-1.92-.01-2.89-.03-1.46-.02-2.92-.03-4.38,0-.07-.01-.16.07-.19.19-.07.16-.24.17-.39,0-.09-.04-.22.06-.27.15-.07.15-.18.15-.31,0-.11-.02-.23.02-.3.08-.07.14-.06.19-.06q.28,0,.35-.28c.06-.27.18-.51.37-.73.26-.29.67-.38.92-.66,0,0,.13.23.38.32.53.19.8.6.9,1.12.04.2.12.24.29.23.25,0,.28.02.28.26,0,.13.07.31.15.41.09.11.06.25.06.38,0,.12.01.23.13.28.1.03.09.11.09.19-.02,1.08,0,2.15-.02,3.23-.03,1.45.02,2.89-.03,4.34,0,.17.07.24.24.24.31-.01.63,0,.94,0,.16,0,.28-.13.28-.28v-2.61c0-.12.02-.21.1-.3.2-.21.37-.45.56-.66.21-.24.39-.51.65-.74.38.35.75.7,1.13,1.04.07.05.04.12.04.19v1.19c.18.07.34.07.51,0,0-.31.01-.62,0-.93,0-.19.07-.25.26-.24.41.02.82.02,1.23,0,.14-.01.28,0,.42.07.02.24.07.5.06.74-.04.62.16,1.18.32,1.76.05.17.14.22.3.21h1.37c.19,0,.34-.15.34-.34v-4.77c0-.28.04-.33.3-.39.07-.01.15-.02.22-.02.46.04.82-.22,1.22-.38.09-.04.14-.12.1-.19-.16-.3.1-.46.23-.62.15-.11.27-.13.42-.07.11.04.19.12.23.22.07.14.15.34.11.42-.06.13-.01.21.11.26.27.11.54.23.81.34.11.05.23.02.34.02.06,0,.13,0,.19,0,.33.05.37.1.37.43,0,1.39,0,2.78-.01,4.17,0,.18.02.34.15.48.03.03.08.07.09.12.12.43.45.37.77.37.09-.01.14-.06.17-.12.08-.16.2-.3.31-.44.08-.11.11-.23.1-.37-.02-.35.04-.7-.08-1.05-.05-.15.1-.29.31-.29.59-.01,1.17-.01,1.76,0,.33,0,.46-.06.51-.43.08-.04.17-.05.26-.04.28,0,.56,0,.83-.01.19,0,.37-.15.34-.34-.06-.39.11-.6.45-.72.14-.05.19-.15.25-.28.12-.32.27-.63.61-.82.2-.12.36-.31.26-.6-.03-.1.14-.27.25-.27.12,0,.25.15.21.27-.08.27.04.44.24.56.35.2.55.52.66.88.06.17.2.26.33.31.27.11.37.28.35.57-.03.34.09.44.44.45.32.01.64-.05.96.03,0,0,.16.44.56.44.55,0,1.1,0,1.64-.01.21,0,.37.03.44.24-.05.18-.09.36-.08.56.01.42.03.85-.01,1.28-.01.1.01.2.08.28.1.09.11.21.11.34Z"/></svg>