<?xml version="1.0" encoding="UTF-8"?>
<svg id="Layer_1" data-name="Layer 1" xmlns="http://www.w3.org/2000/svg" xmlns:xlink="http://www.w3.org/1999/xlink" viewBox="0 0 1499.29 89.64">
  <defs>
    <style>
      .cls-1, .cls-2, .cls-3, .cls-4, .cls-5, .cls-6 {
        fill: none;
      }

      .cls-7 {
        fill: #06eeb6;
      }

      .cls-8 {
        fill: #f91c6b;
      }

      .cls-9 {
        fill: #2454ff;
      }

      .cls-10 {
        fill: #231f20;
      }

      .cls-11, .cls-12 {
        font-family: CourierNewPSMT, 'Courier New';
        font-size: 2.44px;
      }

      .cls-13 {
        font-family: RobotoSlab-Bold, 'RobotoSlab Bold';
        font-size: 13.58px;
        font-weight: 700;
      }

      .cls-13, .cls-14, .cls-15, .cls-16 {
        fill: #fff;
      }

      .cls-17 {
        fill: #ce6dff;
      }

      .cls-2 {
        stroke-width: .2px;
      }

      .cls-2, .cls-3 {
        stroke: #000;
      }

      .cls-18 {
        fill: #fcb216;
      }

      .cls-12, .cls-19, .cls-20 {
        fill: #5bb95e;
      }

      .cls-21 {
        fill: #fbde33;
      }

      .cls-3 {
        stroke-width: 1.1px;
      }

      .cls-22 {
        fill: #1cc239;
      }

      .cls-23 {
        stroke-width: .58px;
      }

      .cls-23, .cls-4, .cls-5, .cls-19, .cls-6, .cls-24 {
        stroke: #fff;
        stroke-miterlimit: 10;
      }

      .cls-23, .cls-24 {
        fill: #c32032;
      }

      .cls-4 {
        stroke-width: .48px;
      }

      .cls-25 {
        letter-spacing: 0em;
      }

      .cls-5 {
        stroke-width: .63px;
      }

      .cls-26 {
        fill: #99ce89;
      }

      .cls-27 {
        fill: #c41230;
      }

      .cls-19 {
        stroke-width: .1px;
      }

      .cls-28 {
        fill: #61bbc5;
      }

      .cls-29 {
        fill: #9e74b1;
      }

      .cls-30 {
        fill: #00b2ff;
      }

      .cls-6 {
        stroke-linecap: round;
        stroke-width: .87px;
      }

      .cls-31 {
        letter-spacing: -.11em;
      }

      .cls-32 {
        letter-spacing: -.02em;
      }

      .cls-33 {
        fill: #424142;
      }

      .cls-34 {
        letter-spacing: 0em;
      }

      .cls-15 {
        font-size: 11px;
      }

      .cls-15, .cls-16 {
        font-family: Avenir-Light, Avenir;
        font-weight: 300;
      }

      .cls-35 {
        letter-spacing: 0em;
      }

      .cls-36 {
        letter-spacing: 0em;
      }

      .cls-37 {
        letter-spacing: -.01em;
      }

      .cls-38 {
        fill: #fea802;
      }

      .cls-39 {
        letter-spacing: 0em;
      }

      .cls-16 {
        font-size: 80.24px;
        letter-spacing: .19em;
      }

      .cls-40 {
        letter-spacing: .02em;
      }

      .cls-24 {
        stroke-width: .09px;
      }

      .cls-41 {
        clip-path: url(#clippath);
      }

      .cls-42 {
        letter-spacing: 0em;
      }
    </style>
    <clipPath id="clippath">
      <rect class="cls-1" x="852.89" y=".81" width="277.23" height="88.58"/>
    </clipPath>
  </defs>
  <g>
    <path class="cls-23" d="M581.82,85.7h-7.37s0,0,0,0h-17.34s-3.04-.02-3.04-.02h-14.31s0-.01,0-.01h-17.34s0-.01,0-.01h-11.24s2.57-4.44,2.57-4.44l3.96-6.85,3.96-6.85,3.96-6.85,3.32-5.74c3.4,4.37,8.29,9.86,14.61,14.93t0,0c3.66,2.94,7.81,5.74,12.41,8.1,4.58,2.34,9.24,4.06,13.74,5.31,0,0,0,0,.01,0,4.24,1.18,8.34,1.94,12.08,2.42Z"/>
    <path class="cls-23" d="M587.89,69.97c-2.08-2.12-4.4-4.3-6.97-6.41-3.84-3.15-8.22-6.17-13.13-8.68-4.9-2.51-9.89-4.29-14.68-5.56-3.85-1.02-7.56-1.7-10.99-2.15-3.02-.4-5.81-.61-8.27-.72l4.56-7.88,5.88-10.16,9.85-17.02.29.51,5.57,9.66,13.98,24.26,1.57,2.73,4,6.95,4.7,8.15,3.65,6.33Z"/>
    <g>
      <path class="cls-5" d="M584.24,63.64l3.65,6.33c-2.08-2.12-4.4-4.3-6.97-6.41-3.84-3.15-8.22-6.17-13.13-8.68-4.9-2.51-9.89-4.29-14.68-5.56-3.85-1.02-7.56-1.7-10.99-2.15-1.52-2.74-2.76-5.62-3.71-8.6l5.88-10.16,9.85-17.02.29.51,5.57,9.66,13.98,24.26,1.57,2.73,4,6.95,4.7,8.15Z"/>
      <path class="cls-5" d="M584.24,63.64c-1.11.02-2.22,0-3.33-.08-3.84-3.15-8.22-6.17-13.13-8.68-4.9-2.51-9.89-4.29-14.68-5.56-4.95-5.99-7.99-13.29-8.82-20.91l9.85-17.02.29.51,5.57,9.66,13.98,24.26,1.57,2.73,4,6.95,4.7,8.15Z"/>
      <path class="cls-5" d="M579.55,55.5c-3.89-.5-7.75-1.73-11.39-3.76-14.21-7.93-19.91-25.19-13.73-39.84l5.57,9.66,13.98,24.26,1.57,2.73,4,6.95Z"/>
      <path class="cls-5" d="M573.97,45.82c-.67-.29-1.32-.62-1.97-.98-8.57-4.78-13.01-14.1-12.01-23.28l13.98,24.26Z"/>
    </g>
    <g>
      <polyline class="cls-6" points="525.63 60.66 543.57 69.86 543.57 69.86"/>
      <polyline class="cls-6" points="569.73 83.27 569.74 83.27 574.45 85.69 574.46 85.69"/>
      <line class="cls-6" x1="557.11" y1="85.68" x2="521.67" y2="67.51"/>
      <polyline class="cls-6" points="517.71 74.36 539.76 85.66 539.76 85.66"/>
      <polyline class="cls-6" points="513.75 81.2 522.42 85.65 522.42 85.65"/>
    </g>
  </g>
  <text class="cls-16" transform="translate(592.71 69.34)"><tspan x="0" y="0">CITE</tspan></text>
  <text class="cls-15" transform="translate(601.45 85.73)"><tspan x="0" y="0">Co</tspan><tspan class="cls-32" x="14.28" y="0">r</tspan><tspan x="17.75" y="0">e for Imaging </tspan><tspan class="cls-31" x="86.06" y="0">T</tspan><tspan x="91.16" y="0">echnology &amp; Educa</tspan><tspan class="cls-25" x="186.17" y="0">t</tspan><tspan x="189.85" y="0">ion </tspan></text>
  <g>
    <path class="cls-14" d="M0,7.78h18.52c10.21,0,15.58,5.8,15.58,13.85,0,6.68-3.71,11.03-8.09,12.32,3.78,1.13,9.98,5.07,9.98,13.93,0,11.19-7.86,16.26-17.16,16.26H0V7.78ZM17.16,32.02c9.07,0,12.48-3.62,12.48-10.06,0-5.56-3.55-9.98-10.89-9.98H4.16v20.05h13ZM4.16,60.03h14.74c6.96,0,12.7-3.7,12.7-11.91,0-7.17-4.23-12-14.82-12H4.16v23.91Z"/>
    <path class="cls-14" d="M77.49,43.93c0,11.19-5.82,21.17-17.09,21.17-10.28,0-16.63-8.94-16.63-21.09s5.97-21.09,17.01-21.09c10.06,0,16.71,8.37,16.71,21.01ZM47.93,44.01c0,9.5,4.76,17.23,12.78,17.23s12.63-7.16,12.63-17.23c0-9.5-4.46-17.23-12.78-17.23s-12.63,7.57-12.63,17.23Z"/>
  </g>
  <g>
    <path class="cls-14" d="M175.87,7.78h18.52c10.21,0,15.58,5.8,15.58,13.85,0,6.68-3.71,11.03-8.09,12.32,3.78,1.13,9.98,5.07,9.98,13.93,0,11.19-7.86,16.26-17.16,16.26h-18.83V7.78ZM193.03,32.02c9.07,0,12.48-3.62,12.48-10.06,0-5.56-3.55-9.98-10.89-9.98h-14.59v20.05h13ZM180.03,60.03h14.74c6.96,0,12.7-3.7,12.7-11.91,0-7.17-4.23-12-14.82-12h-12.63v23.91Z"/>
    <path class="cls-14" d="M248.52,44.82l-6.65,19.32h-4.31l19.36-56.35h5.07l20.19,56.35h-4.61l-6.8-19.32h-22.23ZM269.39,40.63c-5.9-16.58-8.85-24.63-9.98-28.5h-.08c-1.29,4.35-4.61,14.25-9.38,28.5h19.43Z"/>
    <path class="cls-14" d="M330.7,49c-2.5,9.02-8.7,15.78-19.96,15.78-15.2,0-23.21-12.88-23.21-28.74s7.86-29.06,23.29-29.06c11.49,0,18.22,6.84,19.96,16.26h-4.23c-2.42-7.25-6.8-12.08-15.95-12.08-13.08,0-18.52,12.72-18.52,24.8s5.37,24.71,18.83,24.71c8.62,0,12.93-4.83,15.58-11.67h4.23Z"/>
  </g>
  <g>
    <path class="cls-14" d="M.26,71.12h4.65c2.57,0,3.91,1.37,3.91,3.27,0,1.58-.93,2.6-2.03,2.91.95.27,2.51,1.2,2.51,3.29,0,2.64-1.98,3.84-4.31,3.84H.26v-13.3ZM4.57,76.84c2.28,0,3.13-.85,3.13-2.37,0-1.31-.89-2.36-2.74-2.36H1.3v4.73h3.27ZM1.3,83.45h3.71c1.75,0,3.19-.87,3.19-2.81,0-1.69-1.06-2.83-3.72-2.83H1.3v5.64Z"/>
    <path class="cls-14" d="M19.88,79.65c0,2.64-1.46,5-4.29,5-2.58,0-4.18-2.11-4.18-4.98s1.5-4.98,4.27-4.98c2.53,0,4.2,1.98,4.2,4.96ZM12.45,79.67c0,2.24,1.2,4.07,3.21,4.07s3.17-1.69,3.17-4.07c0-2.24-1.12-4.07-3.21-4.07s-3.17,1.79-3.17,4.07Z"/>
    <path class="cls-14" d="M22.62,81.8c.32,1.22,1.2,1.96,2.68,1.96,1.67,0,2.36-.78,2.36-1.82s-.46-1.6-2.56-2.11c-2.47-.59-3.08-1.35-3.08-2.6s.99-2.53,3.15-2.53,3.19,1.31,3.34,2.66h-.99c-.17-.8-.8-1.77-2.39-1.77s-2.11.8-2.11,1.56c0,.85.46,1.29,2.32,1.75,2.7.65,3.36,1.54,3.36,2.96,0,1.71-1.41,2.79-3.42,2.79-2.19,0-3.4-1.14-3.67-2.85h1.01Z"/>
    <path class="cls-14" d="M29.72,74.92h1.77v-2.96h.99v2.96h2.26v.91h-2.26v6.14c0,1.06.23,1.67,1.14,1.67.29,0,.68-.02.97-.11v.85c-.32.13-.78.17-1.18.17-1.23,0-1.92-.63-1.92-2.15v-6.57h-1.77v-.91Z"/>
    <path class="cls-14" d="M44.43,79.65c0,2.64-1.46,5-4.29,5-2.58,0-4.18-2.11-4.18-4.98s1.5-4.98,4.27-4.98c2.53,0,4.2,1.98,4.2,4.96ZM37,79.67c0,2.24,1.2,4.07,3.21,4.07s3.17-1.69,3.17-4.07c0-2.24-1.12-4.07-3.21-4.07s-3.17,1.79-3.17,4.07Z"/>
    <path class="cls-14" d="M46.94,77.31c0-.84,0-1.63-.02-2.39h.97c.04.3.06,1.52.04,1.79.42-.97,1.2-2.01,3.13-2.01,1.71,0,3.19.95,3.19,3.57v6.16h-.99v-6c0-1.67-.68-2.77-2.34-2.77-2.22,0-3,1.86-3,3.91v4.86h-.99v-7.1Z"/>
    <path class="cls-14" d="M62.92,71.12h4.65c2.57,0,3.91,1.37,3.91,3.27,0,1.58-.93,2.6-2.03,2.91.95.27,2.51,1.2,2.51,3.29,0,2.64-1.98,3.84-4.31,3.84h-4.73v-13.3ZM67.23,76.84c2.28,0,3.13-.85,3.13-2.37,0-1.31-.89-2.36-2.74-2.36h-3.67v4.73h3.27ZM63.96,83.45h3.71c1.75,0,3.19-.87,3.19-2.81,0-1.69-1.06-2.83-3.72-2.83h-3.17v5.64Z"/>
    <path class="cls-14" d="M87.5,79.65c0,2.64-1.46,5-4.29,5-2.58,0-4.18-2.11-4.18-4.98s1.5-4.98,4.27-4.98c2.53,0,4.2,1.98,4.2,4.96ZM80.07,79.67c0,2.24,1.2,4.07,3.21,4.07s3.17-1.69,3.17-4.07c0-2.24-1.12-4.07-3.21-4.07s-3.17,1.79-3.17,4.07Z"/>
    <path class="cls-14" d="M95.1,77.37c0-.82,0-1.71-.02-2.45h.97c.02.3.06,1.12.04,1.67.4-.95,1.27-1.9,2.85-1.9,1.33,0,2.36.67,2.74,1.86.47-.99,1.42-1.86,3.1-1.86,1.48,0,2.98.84,2.98,3.48v6.25h-.99v-6.14c0-1.27-.46-2.64-2.2-2.64s-2.64,1.46-2.64,3.31v5.47h-.99v-6.12c0-1.37-.4-2.66-2.15-2.66s-2.7,1.61-2.7,3.55v5.22h-.99v-7.05Z"/>
    <path class="cls-14" d="M117.46,82.59c0,.84.08,1.52.13,1.82h-.95c-.08-.23-.13-.65-.17-1.44-.32.68-1.16,1.67-3.12,1.67-2.2,0-3.15-1.42-3.15-2.85,0-2.09,1.62-3.06,4.46-3.06h1.8v-.95c0-.95-.29-2.2-2.43-2.2-1.9,0-2.18.99-2.39,1.77h-.99c.11-1.06.76-2.66,3.4-2.66,2.17,0,3.4.91,3.4,3v4.9ZM116.5,79.57h-1.86c-2.09,0-3.38.55-3.38,2.18,0,1.18.84,1.99,2.17,1.99,2.7,0,3.08-1.8,3.08-3.84v-.34Z"/>
    <path class="cls-14" d="M128.03,83.75c0,3.04-1.35,4.65-4.12,4.65-2.51,0-3.51-1.41-3.74-2.83h1.01c.34,1.29,1.41,1.92,2.77,1.92,2.45,0,3.13-1.6,3.13-3.99v-.99c-.51,1.23-1.44,1.9-3.17,1.9-2.22,0-3.93-1.82-3.93-4.75,0-3.19,1.82-4.98,4.07-4.98,1.94,0,2.77.89,3.04,1.65.02-.55.04-1.2.06-1.42h.93c0,.34-.04,1.84-.04,2.75v6.08ZM124.02,83.49c2.36,0,3.08-1.56,3.08-4.01s-.76-3.88-3.02-3.88-3.06,1.86-3.06,4.03,1.2,3.86,3,3.86Z"/>
    <path class="cls-14" d="M131.53,79.78c.02,2.43,1.23,3.95,3.06,3.95s2.38-1.01,2.7-1.79h1.03c-.4,1.25-1.42,2.7-3.76,2.7-2.91,0-4.03-2.49-4.03-4.9,0-2.74,1.35-5.05,4.14-5.05s3.86,2.51,3.86,4.31c0,.27,0,.53-.02.78h-6.97ZM137.49,78.93c-.02-1.86-1.03-3.32-2.87-3.32-1.96,0-2.83,1.35-3.04,3.32h5.91Z"/>
    <path class="cls-14" d="M147.77,79.86l-1.67,4.56h-1.08l4.86-13.3h1.27l5.07,13.3h-1.16l-1.71-4.56h-5.59ZM153.01,78.87c-1.48-3.91-2.22-5.81-2.51-6.72h-.02c-.32,1.03-1.16,3.36-2.36,6.72h4.88Z"/>
    <path class="cls-14" d="M158.43,77.31c0-.84,0-1.63-.02-2.39h.97c.04.3.06,1.52.04,1.79.42-.97,1.2-2.01,3.13-2.01,1.71,0,3.19.95,3.19,3.57v6.16h-.99v-6c0-1.67-.68-2.77-2.34-2.77-2.22,0-3,1.86-3,3.91v4.86h-.99v-7.1Z"/>
    <path class="cls-14" d="M175.45,82.59c0,.84.08,1.52.13,1.82h-.95c-.08-.23-.13-.65-.17-1.44-.32.68-1.16,1.67-3.12,1.67-2.2,0-3.15-1.42-3.15-2.85,0-2.09,1.62-3.06,4.46-3.06h1.8v-.95c0-.95-.29-2.2-2.43-2.2-1.9,0-2.18.99-2.39,1.77h-.99c.11-1.06.76-2.66,3.4-2.66,2.17,0,3.4.91,3.4,3v4.9ZM174.48,79.57h-1.86c-2.09,0-3.38.55-3.38,2.18,0,1.18.84,1.99,2.17,1.99,2.7,0,3.08-1.8,3.08-3.84v-.34Z"/>
    <path class="cls-14" d="M178.72,84.42v-14h.99v14h-.99Z"/>
    <path class="cls-14" d="M182.94,74.92c1.9,5.38,2.74,7.64,3.06,8.66h.02c.38-1.16,1.12-3.36,2.96-8.66h1.03l-3.57,10.05c-1.01,2.81-1.69,3.44-3.42,3.44-.34,0-.57-.02-.87-.06v-.99c.29.04.55.06.86.06,1.35,0,1.79-.65,2.49-2.58l-3.63-9.92h1.08Z"/>
    <path class="cls-14" d="M192.27,81.8c.32,1.22,1.2,1.96,2.68,1.96,1.67,0,2.36-.78,2.36-1.82s-.46-1.6-2.56-2.11c-2.47-.59-3.08-1.35-3.08-2.6s.99-2.53,3.15-2.53,3.19,1.31,3.34,2.66h-.99c-.17-.8-.8-1.77-2.39-1.77s-2.11.8-2.11,1.56c0,.85.46,1.29,2.32,1.75,2.7.65,3.36,1.54,3.36,2.96,0,1.71-1.41,2.79-3.42,2.79-2.19,0-3.4-1.14-3.67-2.85h1.01Z"/>
    <path class="cls-14" d="M205.99,81.8c.32,1.22,1.2,1.96,2.68,1.96,1.67,0,2.36-.78,2.36-1.82s-.46-1.6-2.56-2.11c-2.47-.59-3.08-1.35-3.08-2.6s.99-2.53,3.15-2.53,3.19,1.31,3.34,2.66h-.99c-.17-.8-.8-1.77-2.39-1.77s-2.11.8-2.11,1.56c0,.85.46,1.29,2.32,1.75,2.7.65,3.36,1.54,3.36,2.96,0,1.71-1.41,2.79-3.42,2.79-2.18,0-3.4-1.14-3.67-2.85h1.01Z"/>
    <path class="cls-14" d="M230.02,80.85c-.63,2.13-2.18,3.72-5.02,3.72-3.82,0-5.83-3.04-5.83-6.78s1.98-6.86,5.85-6.86c2.89,0,4.58,1.61,5.02,3.84h-1.06c-.61-1.71-1.71-2.85-4.01-2.85-3.29,0-4.65,3-4.65,5.85s1.35,5.83,4.73,5.83c2.17,0,3.25-1.14,3.91-2.75h1.06Z"/>
    <path class="cls-14" d="M240.39,79.65c0,2.64-1.46,5-4.29,5-2.58,0-4.18-2.11-4.18-4.98s1.5-4.98,4.27-4.98c2.53,0,4.2,1.98,4.2,4.96ZM232.96,79.67c0,2.24,1.2,4.07,3.21,4.07s3.17-1.69,3.17-4.07c0-2.24-1.12-4.07-3.21-4.07s-3.17,1.79-3.17,4.07Z"/>
    <path class="cls-14" d="M250.03,81.64c0,.93.02,2.39.02,2.77h-.95c-.04-.25-.06-.87-.06-1.63-.4,1.1-1.37,1.86-3.04,1.86-1.39,0-3.12-.55-3.12-3.44v-6.29h.97v6.04c0,1.39.44,2.72,2.3,2.72,2.11,0,2.89-1.18,2.89-3.88v-4.88h.99v6.73Z"/>
    <path class="cls-14" d="M253.29,77.5c0-1.6-.02-2.28-.02-2.58h.97c.02.28.04.91.04,2.11.55-1.42,1.75-2.26,3.31-2.34v1.04c-1.98.13-3.31,1.48-3.31,3.76v4.92h-.99v-6.92Z"/>
    <path class="cls-14" d="M259.75,81.8c.32,1.22,1.2,1.96,2.68,1.96,1.67,0,2.36-.78,2.36-1.82s-.46-1.6-2.56-2.11c-2.47-.59-3.08-1.35-3.08-2.6s.99-2.53,3.15-2.53,3.19,1.31,3.34,2.66h-.99c-.17-.8-.8-1.77-2.39-1.77s-2.11.8-2.11,1.56c0,.85.46,1.29,2.32,1.75,2.7.65,3.36,1.54,3.36,2.96,0,1.71-1.41,2.79-3.42,2.79-2.18,0-3.4-1.14-3.67-2.85h1.01Z"/>
    <path class="cls-14" d="M268.59,79.78c.02,2.43,1.23,3.95,3.06,3.95s2.38-1.01,2.7-1.79h1.03c-.4,1.25-1.42,2.7-3.76,2.7-2.91,0-4.03-2.49-4.03-4.9,0-2.74,1.35-5.05,4.14-5.05s3.86,2.51,3.86,4.31c0,.27,0,.53-.02.78h-6.97ZM274.55,78.93c-.02-1.86-1.03-3.32-2.87-3.32-1.96,0-2.83,1.35-3.04,3.32h5.91Z"/>
    <path class="cls-14" d="M284.59,69.58v19.81h-.97v-19.81h.97Z"/>
    <path class="cls-14" d="M292.76,84.42v-.06c0-1.58,1.31-3.51,3.82-5.45,2.15-1.67,2.7-2.18,2.7-3.76,0-1.35-.74-2.53-2.55-2.53-1.69,0-2.56.82-2.89,2.62h-1.01c.25-2.09,1.56-3.55,3.89-3.55,2.55,0,3.63,1.73,3.63,3.4,0,1.94-.82,2.6-3.13,4.48-1.82,1.5-2.94,2.68-3.33,3.88h6.97l-.17.97h-7.94Z"/>
    <path class="cls-14" d="M310.98,78.07c0,2.89-.74,6.57-4.08,6.57s-4.08-3.4-4.08-6.48.87-6.48,4.14-6.48,4.03,3.4,4.03,6.38ZM303.91,78.19c0,2.43.51,5.51,2.98,5.51s3-2.94,3-5.62c0-2.39-.47-5.45-2.92-5.45s-3.06,2.79-3.06,5.57Z"/>
    <path class="cls-14" d="M313.07,84.42v-.06c0-1.58,1.31-3.51,3.82-5.45,2.15-1.67,2.7-2.18,2.7-3.76,0-1.35-.74-2.53-2.55-2.53-1.69,0-2.56.82-2.89,2.62h-1.01c.25-2.09,1.56-3.55,3.89-3.55,2.55,0,3.63,1.73,3.63,3.4,0,1.94-.82,2.6-3.13,4.48-1.82,1.5-2.94,2.68-3.33,3.88h6.97l-.17.97h-7.94Z"/>
    <path class="cls-14" d="M330.39,72.89h-5.38c-.13,1.22-.49,3.53-.65,4.31.57-.7,1.44-1.22,2.85-1.22,2.17,0,3.7,1.46,3.7,4.14,0,2.45-1.25,4.52-4.07,4.52-2.07,0-3.55-1.22-3.91-3.27h1.04c.32,1.31,1.27,2.34,2.92,2.34,1.98,0,2.95-1.39,2.95-3.53,0-1.8-.78-3.25-2.72-3.25-1.73,0-2.45.72-3,1.9l-.97-.29c.4-1.65.84-5.15,1.01-6.63h6.35l-.13.97Z"/>
  </g>
  <g>
    <path class="cls-14" d="M223.58,7.74v7.89h3.93v-7.89h-3.93Z"/>
    <polygon class="cls-14" points="227.51 23.82 227.51 64.07 223.58 64.07 223.58 27.75 219.63 27.75 219.63 23.82 227.51 23.82"/>
    <rect class="cls-14" x="227.51" y="23.82" width=".01" height="3.93"/>
  </g>
  <g>
    <g>
      <g>
        <path class="cls-10" d="M156.11,5.83v34.84c0,1.02-.32,1.2-1.28,1.2h-62.53c-.98,0-1.27-.2-1.27-1.21V5.82c0-.98.32-1.14,1.23-1.14h62.64c.91,0,1.22.19,1.22,1.14Z"/>
        <path class="cls-14" d="M168.03,63.31l-7.62-15.27c-.34-.7-.75-.94-1.53-.94h-70.95c-.79,0-1.18.27-1.52.96l-7.52,15.05c-1.15,2.3-.32,3.66,2.22,3.66h84.74c2.33,0,3.21-1.38,2.18-3.46ZM132.18,64.29h-18.18c-.38,0-.67-.35-.61-.72l.45-2.77c.05-.3.31-.52.61-.52h17.44c.32,0,.58.24.62.56l.29,2.76c.03.37-.25.69-.62.69ZM161.15,58.01h-75.4c-1.44,0-1.48-.06-.85-1.33,1.14-2.29,2.32-4.55,3.4-6.85.36-.78.82-.97,1.62-.97,22.31.02,44.61.02,66.92-.01.94,0,1.38.31,1.76,1.13,1.07,2.27,2.23,4.5,3.35,6.74.61,1.21.56,1.29-.8,1.29Z"/>
        <path class="cls-14" d="M159.93,4.2c0-2.34-1.03-3.39-3.35-3.39h-66.33c-2.31,0-3.36,1.05-3.36,3.39,0,13.42-.02,40.26-.02,40.26,0,1.06.28,1.3,1.31,1.3,11.7-.04,70.46,0,70.46,0,1.01,0,1.32-.22,1.32-1.29l-.03-40.27ZM157.14,41.67c0,1.08-.34,1.27-1.33,1.27h-64.8c-1.02,0-1.33-.22-1.32-1.28V4.81c0-1.03.34-1.21,1.27-1.2h64.92c.95-.01,1.26.19,1.26,1.21v36.85Z"/>
      </g>
      <path class="cls-14" d="M157.07,56.22l-67.81.21c-.79,0-1.3-.83-.94-1.53l1.98-3.89c.18-.35.54-.57.94-.57h64.38c.43,0,.82.26.98.66l1.46,3.68c.27.69-.23,1.44-.97,1.44Z"/>
    </g>
    <text class="cls-11" transform="translate(92.71 8.45)"><tspan class="cls-20" x="0" y="0">In [1]: from</tspan><tspan class="cls-26" x="17.55" y="0"> </tspan><tspan class="cls-29" x="19.02" y="0">microscopy</tspan><tspan class="cls-26" x="33.65" y="0"> </tspan><tspan class="cls-20" x="35.11" y="0">import</tspan><tspan class="cls-26" x="43.89" y="0"> </tspan><tspan class="cls-14" x="45.35" y="0">analysis</tspan></text>
    <text class="cls-11" transform="translate(92.71 13.1)"><tspan class="cls-20" x="0" y="0">In [2]:</tspan><tspan class="cls-26" x="10.24" y="0"> </tspan><tspan class="cls-14" x="11.7" y="0">img =</tspan><tspan class="cls-26" x="19.02" y="0"> </tspan><tspan class="cls-14" x="20.48" y="0">analysis.</tspan><tspan class="cls-28" x="33.65" y="0">imread</tspan><tspan class="cls-14" x="42.42" y="0">(</tspan><tspan class="cls-18" x="43.89" y="0">”bobiac.tif”</tspan><tspan class="cls-14" x="61.44" y="0">)</tspan></text>
    <g>
      <rect class="cls-33" x="104.58" y="36.22" width="1.18" height="2.44"/>
      <text class="cls-12" transform="translate(92.71 38.06)"><tspan x="0" y="0">In [4]:</tspan></text>
    </g>
    <text class="cls-11" transform="translate(92.71 17.75)"><tspan class="cls-20" x="0" y="0">In [3]:</tspan><tspan class="cls-26" x="10.24" y="0"> </tspan><tspan class="cls-14" x="11.7" y="0">analysis.</tspan><tspan class="cls-28" x="24.87" y="0">imshow</tspan><tspan class="cls-14" x="33.65" y="0">(img)</tspan></text>
    <g>
      <g>
        <g>
          <polygon class="cls-19" points="123.69 33.53 123.69 33.54 123.54 33.54 122.86 33.53 122.86 33.52 123.54 33.53 123.69 33.53"/>
          <polygon class="cls-19" points="123.64 23.22 123.64 27.29 123.59 27.29 123.59 23.23 123.64 23.22"/>
        </g>
        <rect class="cls-19" x="123.59" y="23.21" width=".05" height="4.08"/>
        <rect class="cls-19" x="123.54" y="33.53" width=".16" height=".01"/>
      </g>
      <path class="cls-19" d="M146.69,33.33c0,.16,0,.32,0,.48l-23-.27h0s-.16-.01-.16-.01h-.68s-22.7-.09-22.7-.09c0-.18,0-1.32,0-1.5,0-.08.01-.13.1-.15.09-.03.18-.08.27-.11.1-.03.14-.08.13-.18,0-.29,0-.57,0-.86,0-.09.03-.12.12-.12h.66c.08,0,.11.03.11.11,0,.08,0,.15,0,.23,0,.09.03.12.12.12.17,0,.34,0,.5,0,.12,0,.14.02.14.14v.33c0,.08-.02.17.03.25.04,0,.08,0,.12,0h.78c.13,0,.14.01.14.14v1.5c0,.07.03.1.1.1.08,0,.16.01.24-.01.05-.12.03-.25.04-.37.02-.45.06-.89.09-1.34.02-.33.02-.66.05-.99,0-.14,0-.27.02-.41.01-.32.05-.64.06-.96.02-.33.03-.65.05-.98.03-.38.06-.75.06-1.12,0-.28.13-.48.33-.65,0,0,.19.18.25.3.09.11.07.25.07.37.03.5.06,1.01.09,1.51.01.17.02.34.03.5.02.35.03.7.06,1.05,0,.14,0,.28.02.42.02.32.03.64.05.96.02.32.06.64.06.96,0,.18.03.37.02.55,0,.07,0,.13.04.2.02,0,.04.01.06.01.12,0,.17.01.16-.15,0-.12,0-.24,0-.36,0-.08.02-.13.1-.14.11-.01.14-.08.13-.18,0-.14.01-1.5.01-1.79,0-.05-.03-.12,0-.15.04-.05.11-.07.18-.09.47-.18.94-.36,1.42-.54.08-.03.1-.07.1-.14-.01-.12.01-.25-.03-.37,0-.01-.01-.02-.01-.03.08-.21.04-.43.04-.64,0-.17.26-.44.39-.52,0,0,.2.11.27.2.04.05.07.08.09.13.03.07.05.12.04.2-.02.18-.01.37,0,.56,0,.03.02.06.04.09l-.02.1c0,.11,0,.22,0,.32,0,.07.02.1.09.12.26.1.52.19.77.29.26.1.51.2.76.29.08.03.1.08.1.15s-.04.14-.05.21c0,.29,0,.57,0,.86,0,.07.06.12.04.19-.04.16-.02.32-.02.48,0,.24,0,.21.23.22.09,0,.12-.04.12-.12,0-.18,0-.36,0-.54,0-.09.04-.13.12-.12.18.01.16-.05.16-.17v-6.26c0-.12.07-.19.17-.23.04-.01.07-.01.1-.02.05-.02.11-.04.09-.11-.02-.1,0-.2-.04-.3-.06-.16,0-.24.17-.28.12-.03.22-.08.32-.15.16-.12.32-.22.48-.33.06-.05.12-.06.19,0,.11.09.24.16.35.24.15.1.29.21.47.25.06.01.15,0,.16.1,0,.06.01.13-.01.19-.1.23-.04.34.18.41.02,0,.03.01.04.01.06,0,.08.05.08.1.01.46-.04.92.04,1.37v5.18h.51c0-1.86.01-3.87.01-5.73v-.06c0-.07.03-.1.1-.1h.37c.07,0,.1.03.1.1v.09c0,.16.02.17.17.17h1.73c.05,0,.1,0,.15-.02.02-.08.01-.15.01-.23,0-.08.03-.11.11-.11.11,0,.22,0,.33,0,.13,0,.15.01.15.15,0,.83,0,1.66,0,2.49v2.13c0,.14,0,.28,0,.42v.31c.14.05.24.12.24.25v.25c0,.19.04.23.22.25.03,0,.06,0,.1,0,.03-.05.03-.11.03-.16,0-.1,0-.2,0-.3,0-.07.03-.12.09-.13.21,0,.27-.12.24-.3,0-.05.02-.1.07-.1.14.01.13-.08.13-.18v-7.49c0-.23-.04-.25.23-.24.06,0,.1-.03.12-.09.02-.06.01-.09.01-.14h0s-.05-.03-.08-.03c-.12,0-.13-.03-.13-.14,0-.11,0-.22-.02-.33.08-.04.87-.03,1.03-.03.16,0,.33.05.47-.09.07.02.12-.03.17-.07v-2.47h.1v2.49s.1.07.17.05c.02,0,.05,0,.06.01.04.1.14.08.22.08.35,0,.71,0,1.06-.01.02,0,.06,0,.09,0,.06.01.11.03.09.12-.02.09-.01.18,0,.27,0,.08-.03.11-.11.12-.04,0-.07.02-.11.03v.08c.01.11.05.15.16.15.22,0,.21,0,.21.2v6.83c0,.15.01.17.16.17h1.04s.09-7.19.09-7.19c.01-.03.04-.04.12-.06l.56-.15.06-.02-.08,9.1h.05l.08-9.11h.04s.02-.01.02-.01l3.22.2c.16,0,.18.03.18.19v8.59c0,.05,0,.11.02.15.06.02.13.01.19.01.06,0,.1-.04.1-.1v-.19c0-.08.07-.14.14-.14h1.73c.08,0,.14.06.14.14v.46c.08.04.14.04.21,0,0-.02.01-.04.01-.06v-.85c0-.06-.01-.11,0-.16.03-.16.02-.31,0-.46,0-.04-.01-.06,0-.1.05-.12-.01-.26.09-.37.01-.01,0-.04,0-.06,0-.08,0-.16,0-.24,0-.1.02-.19-.01-.28-.04-.1-.02-.17.06-.21,0-.06-.01-.1.01-.14.08-.15.09-.32.14-.48.01-.04.04-.09.05-.13.02-.07.11-.08.14-.01.04.07.05.16.06.2.04.14.05.28.12.41.03.05.01.1.02.15,0,0,.12.06.06.2-.02.03-.02.06-.02.09v.42s0,.1.03.13c.06.08.05.16.06.25.02.1,0,.19,0,.29-.02.18.02.36,0,.54-.02.49,0,.97,0,1.46,0,.1.04.13.15.12.13-.02.26-.02.39,0,.11.02.16-.02.15-.12,0-.48,0-.96,0-1.45-.02-.73-.01-1.46-.02-2.19,0-.04,0-.08.04-.1.1-.04.08-.12.09-.2,0-.05-.02-.11.03-.14.08-.04.08-.09.08-.16,0-.06-.01-.12.01-.15.04-.04.07-.03.1-.03q.14,0,.18-.14c.03-.14.09-.26.19-.37.13-.15.34-.19.46-.33,0,0,.06.12.19.16.27.1.4.3.45.56.02.1.06.12.15.12.13,0,.14.01.14.13,0,.07.04.16.08.21.04.06.03.13.03.19,0,.06,0,.12.07.14.05.02.05.06.05.1,0,.54,0,1.08,0,1.62-.02.73,0,1.45-.02,2.17,0,.09.04.12.12.12.16,0,.32,0,.47,0,.08,0,.14-.07.14-.14v-1.31c0-.06.01-.11.05-.15.1-.11.19-.23.28-.33.11-.12.2-.26.33-.37.19.18.38.35.57.52.04.03.02.06.02.1v.6c.09.04.17.04.26,0,0-.16,0-.31,0-.47,0-.1.04-.13.13-.12.21,0,.41,0,.62,0,.07,0,.14,0,.21.04.01.12.04.25.03.37-.02.31.08.59.16.88.02.09.07.11.15.11h.69c.1,0,.17-.08.17-.17v-2.39c0-.14.02-.17.15-.2.04,0,.08-.01.11-.01.23.02.41-.11.61-.19.05-.02.07-.06.05-.1-.08-.15.05-.23.12-.31.08-.06.14-.07.21-.04.05.02.1.06.12.11.04.07.08.17.06.21-.03.07,0,.11.06.13.14.06.27.12.41.17.05.03.12,0,.17,0,.03,0,.07,0,.1,0,.17.03.19.05.19.22,0,.7,0,1.39,0,2.09,0,.09.01.17.08.24.02.02.04.04.05.06.06.22.23.19.39.19.05,0,.07-.03.09-.06.04-.08.1-.15.16-.22.04-.06.06-.12.05-.19-.01-.18.02-.35-.04-.53-.03-.08.05-.15.16-.15.3,0,.59,0,.88,0,.17,0,.23-.03.26-.22.04-.02.09-.03.13-.02.14,0,.28,0,.42,0,.1,0,.19-.08.17-.17-.03-.2.06-.3.23-.36.07-.03.1-.08.13-.14.06-.16.14-.32.31-.41.1-.06.18-.16.13-.3-.02-.05.07-.14.13-.14.06,0,.13.08.11.14-.04.14.02.22.12.28.18.1.28.26.33.44.03.09.1.13.17.16.14.06.19.14.18.29-.02.17.04.22.22.23.16,0,.32-.03.48.02,0,0,.08.22.28.22.28,0,.55,0,.82,0,.11,0,.19.01.22.12-.02.09-.05.18-.04.28,0,.21.02.43,0,.64,0,.05,0,.1.04.14.05.05.06.11.06.17Z"/>
    </g>
  </g>
  <g>
    <path class="cls-14" d="M201.66,70.42v1.86h.99v-1.86h-.99Z"/>
    <polygon class="cls-14" points="202.65 74.92 202.65 84.42 201.66 84.42 201.66 75.91 200.78 75.91 200.78 74.92 202.65 74.92"/>
  </g>
  <g>
    <path class="cls-14" d="M90.51,70.42v1.86h.99v-1.86h-.99Z"/>
    <polygon class="cls-14" points="91.5 74.92 91.5 84.42 90.51 84.42 90.51 75.91 89.63 75.91 89.63 74.92 91.5 74.92"/>
  </g>
  <g>
    <path class="cls-14" d="M75.08,70.42v1.86h.99v-1.86h-.99Z"/>
    <polygon class="cls-14" points="76.07 74.92 76.07 84.42 75.08 84.42 75.08 75.91 74.2 75.91 74.2 74.92 76.07 74.92"/>
  </g>
  <g>
    <path class="cls-24" d="M390.78,63.03c-.87-.35-1.8-.51-2.62-1.06-1.39-.94-2.06-2.21-2.17-3.84,0-.12,0-.24,0-.36-.02-1.65.25-1.99,1.9-2.21,2.69-.35,5.39-.15,8.09-.19.58,0,.9.41,1.09.76,1.06,1.94.03,4.83-1.89,5.8-1.12.56-2.31.81-3.5,1.1h-.89Z"/>
    <path class="cls-24" d="M380.25,58.03c-.82-.13-.84-.77-1.09-1.15-1.71-2.55-3.61-4.99-5.08-7.69-.64-1.17-1.12-2.46-1.49-3.75-.64-2.22-1.77-4.13-3.4-5.7-1.08-1.04-2.45-1.74-3.74-2.52-.74-.45-1.62-.81-2.01-1.86.88.3,1.73.27,2.58.45,1.38.29,2.83.31,4.23-.04.32-.08.63-.14.95-.18,1.59-.16,3.06-.75,4.56-1.28,1.77-.62,3.38-1.86,5.42-1.6,1.11.14,2.1.58,3.07,1.06.99.5,1.89,1.17,2.86,1.7.52.29.71.77.69,1.23-.08,1.56-.75,2.93-1.47,4.3-1.46,2.77-3.51,5.17-4.93,7.96-.96,1.9-1.16,3.98-1.16,6.08,0,.97,0,1.95,0,2.98Z"/>
    <path class="cls-24" d="M403.28,57.89c-.33-.7.21-1.18.27-1.79.15-1.52.28-3.05-.11-4.51-.38-1.44-.98-2.84-1.79-4.11-.93-1.46-1.84-2.95-2.87-4.34-.77-1.05-1.39-2.15-1.9-3.35-.42-.99-.76-2.01-.86-3.06-.08-.89.76-1.25,1.38-1.6,1.03-.58,2.14-1.03,3.2-1.57,1.81-.94,3.53-1,5.43-.04,1.39.7,2.9,1.22,4.44,1.64,2.61.71,5.19.61,7.81.3.71-.08,1.36-.51,2.1-.52.19,0,.44-.14.53.14.07.21-.06.34-.22.51-.66.71-1.5,1.16-2.3,1.64-1.86,1.1-3.69,2.26-5.03,3.96-.74.93-1.33,2.01-1.68,3.19-.66,2.21-1.57,4.32-2.8,6.25-1.27,1.99-2.69,3.86-4.25,5.65-.45.52-1.1.92-1.35,1.64Z"/>
    <path class="cls-24" d="M382.51,12.41c-.91-1.57-1.7-3.03-2.57-4.42-1.49-2.37-3.78-3.02-6.43-2.98-2.02.03-3.65.82-4.77,2.44-1,1.45-1.82,3.04-1.62,4.91.1.89.67,1.55,1.47,1.86.61.24,1.25.46,1.96.44,1.69-.06,3.39-.02,5.09,0,.19,0,.44-.11.55.14.1.24-.13.34-.25.5-1.24,1.62-2.76,2.71-4.89,2.69-.57,0-1.13.01-1.7,0-2.19-.08-2.84-.75-3.61-2.65-.56-1.37-.56-2.83-.28-4.16.35-1.65,1.06-3.23,1.9-4.74.61-1.1,1.26-2.18,2.06-3.13,1.1-1.31,2.26-2.37,4.23-2.47,3.06-.15,4.95,1.58,6.85,3.51,1.36,1.39,2.2,3.06,2.65,4.91.12.48.16,1.03-.12,1.55-.23.43-.31.94-.51,1.6Z"/>
    <path class="cls-24" d="M407.66,14.95c1.03-.22,1.91-.32,2.79-.24,1.72.15,3.29-.53,4.88-.98.62-.17,1.04-.77,1.27-1.6.3-1.14.1-2.14-.1-3.2-.25-1.3-1.11-2.18-2.08-2.98-1.48-1.23-3.23-1.55-5.03-1.27-2.17.33-4.2,1.2-5.69,2.87-.76.85-1.3,1.94-1.17,3.2.04.38.05.78,0,1.16-.04.31.26.9-.19.86-.34-.03-.99-.19-1.07-.84-.21-1.77-.29-3.53.53-5.17.68-1.37,1.49-2.66,2.73-3.61,1.34-1.02,2.63-2.02,4.44-2.25,3-.38,4.23.82,5.75,3.04,1.21,1.76,2.15,3.65,2.91,5.61.47,1.21,1.13,2.4,1.21,3.79.03.58.3,1.15.32,1.78.05,1.47-1.48,2.65-2.69,2.76-1.51.14-3.01.23-4.54.05-1.44-.17-2.45-.97-3.3-2-.26-.31-.52-.6-.97-.95Z"/>
  </g>
  <path class="cls-4" d="M421.75,12.45h49.88c6.44,0,11.67,5.22,11.67,11.67v53.6c0,6.44-5.22,11.67-11.67,11.67h-101.15c-6.44,0-11.67-5.22-11.67-11.67V24.12c0-3.8,1.82-7.17,4.63-9.3"/>
  <text class="cls-13" transform="translate(436.21 33.05)"><tspan class="cls-42" x="0" y="0">I</tspan><tspan x="3.38" y="0">mage</tspan></text>
  <text class="cls-13" transform="translate(426.06 55.1)"><tspan class="cls-39" x="0" y="0">A</tspan><tspan x="8.27" y="0">nal</tspan><tspan class="cls-34" x="25.55" y="0">y</tspan><tspan x="31.87" y="0">sis</tspan></text>
  <text class="cls-13" transform="translate(394.64 76.67)"><tspan class="cls-37" x="0" y="0">C</tspan><tspan x="7.72" y="0">ollabo</tspan><tspan class="cls-35" x="43.31" y="0">r</tspan><tspan class="cls-36" x="47.68" y="0">a</tspan><tspan class="cls-34" x="54.17" y="0">t</tspan><tspan x="58.58" y="0">o</tspan><tspan class="cls-40" x="66.04" y="0">r</tspan><tspan x="70.82" y="0">y</tspan></text>
  <g class="cls-41">
    <path class="cls-17" d="M854.84,16.78l24.12,13.92V2.86l-24.12,13.92Z"/>
    <path class="cls-9" d="M854.84,44.63v-27.85l24.12,13.92-24.12,13.92Z"/>
    <path class="cls-7" d="M854.84,72.48v-27.85l24.12,13.92-24.12,13.92Z"/>
    <path class="cls-8" d="M878.95,58.55v-27.85l24.12,13.92-24.12,13.92Z"/>
    <path class="cls-21" d="M878.95,86.4v-27.85l24.12,13.92-24.12,13.92Z"/>
    <path class="cls-30" d="M854.83,44.63l24.12,13.92v-27.85l-24.12,13.92Z"/>
    <path class="cls-22" d="M854.83,72.48l24.12,13.92v-27.85l-24.12,13.92Z"/>
    <path class="cls-38" d="M878.95,58.55l24.12,13.92v-27.85l-24.12,13.92Z"/>
    <path class="cls-14" d="M930.01,42.64v-2.46l2.18-.42v-14.68l-2.18-.42v-2.47h9.09c2.41,0,4.29.47,5.63,1.41,1.35.94,2.02,2.34,2.02,4.2,0,.95-.25,1.79-.76,2.54-.5.74-1.22,1.3-2.18,1.67,1.23.26,2.15.82,2.75,1.69.62.86.93,1.86.93,2.99,0,1.96-.65,3.44-1.94,4.45-1.29,1-3.12,1.5-5.49,1.5h-10.06ZM936.29,30.75h2.95c1.1,0,1.94-.22,2.53-.67.59-.45.89-1.11.89-1.97,0-1.85-1.19-2.77-3.55-2.77h-2.81v5.41ZM936.29,39.49h3.78c2.23,0,3.34-.94,3.34-2.81,0-1-.24-1.77-.73-2.29-.49-.53-1.26-.8-2.3-.8h-4.09v5.9Z"/>
    <path class="cls-14" d="M948.86,42.64v-2.46l1.98-.42v-9.43l-2.19-.42v-2.47h6.3v12.32l1.97.42v2.46h-8.05ZM950.7,24.22v-3.5h4.24v3.5h-4.24Z"/>
    <path class="cls-14" d="M965.54,42.93c-1.51,0-2.8-.33-3.88-.98-1.07-.66-1.89-1.56-2.46-2.73-.57-1.17-.86-2.52-.86-4.03v-.29c0-1.51.29-2.84.86-4,.57-1.17,1.39-2.08,2.46-2.74,1.08-.67,2.36-1,3.85-1s2.78.33,3.85.98c1.08.66,1.9,1.57,2.47,2.74.57,1.16.86,2.5.86,4.02v.29c0,1.52-.29,2.86-.86,4.03-.57,1.16-1.39,2.07-2.46,2.73s-2.35.98-3.84.98ZM965.54,39.78c1.06,0,1.83-.42,2.32-1.26.5-.84.74-1.95.74-3.33v-.29c0-1.35-.25-2.45-.74-3.3-.5-.85-1.28-1.28-2.35-1.28s-1.85.43-2.33,1.28c-.49.85-.73,1.95-.73,3.3v.29c0,1.39.24,2.5.73,3.34.49.83,1.27,1.25,2.36,1.25Z"/>
    <path class="cls-14" d="M974.44,42.64v-2.46l2.18-.42v-14.68l-2.18-.42v-2.47h8.46v2.47l-2.18.42v14.68l2.18.42v2.46h-8.46Z"/>
    <path class="cls-14" d="M984.41,42.64v-2.46l1.98-.42v-9.43l-2.19-.42v-2.47h6l.17,2.01c.49-.73,1.1-1.29,1.83-1.69.74-.4,1.59-.6,2.56-.6s1.81.22,2.5.65c.69.43,1.22,1.08,1.57,1.95.47-.81,1.08-1.45,1.83-1.91.75-.46,1.63-.69,2.64-.69,1.5,0,2.68.51,3.54,1.53.87,1.02,1.31,2.58,1.31,4.66v6.41l1.98.42v2.46h-7.85v-2.46l1.77-.42v-6.42c0-1.11-.19-1.89-.56-2.33-.37-.44-.9-.66-1.6-.66-.64,0-1.18.18-1.62.55-.44.36-.76.83-.96,1.42v7.45l1.66.42v2.46h-7.41v-2.46l1.66-.42v-6.42c0-1.1-.19-1.87-.56-2.32-.37-.45-.91-.67-1.63-.67-1.13,0-1.98.45-2.54,1.36v8.05l1.77.42v2.46h-7.84Z"/>
    <path class="cls-14" d="M1016.61,42.93c-1.51,0-2.71-.4-3.6-1.21-.89-.81-1.33-1.92-1.33-3.32s.58-2.59,1.73-3.48c1.16-.9,2.87-1.35,5.11-1.35h2.01v-1.12c0-.73-.21-1.32-.65-1.77-.42-.46-1.06-.69-1.91-.69-.44,0-.84.06-1.19.17-.35.1-.66.25-.94.45l-.32,2.01h-2.95l-.06-3.95c.8-.45,1.66-.81,2.59-1.1.93-.28,1.96-.42,3.11-.42,1.99,0,3.55.46,4.71,1.39,1.15.93,1.73,2.24,1.73,3.95v6.87c0,.2.03.39.06.59l1.59.22v2.46h-5.09c-.1-.26-.21-.54-.31-.84-.1-.3-.18-.6-.22-.9-.49.62-1.06,1.11-1.73,1.49-.65.37-1.43.55-2.32.55ZM1017.7,39.9c.57,0,1.11-.13,1.62-.38.52-.26.92-.6,1.21-1.03v-2.4h-2.02c-.9,0-1.58.21-2.05.62-.46.41-.69.91-.69,1.49,0,.54.17.96.51,1.26.35.29.83.44,1.43.44Z"/>
    <path class="cls-14" d="M1034.44,48.78c-.77,0-1.63-.1-2.59-.31-.96-.2-1.8-.47-2.53-.83l.76-2.92c.65.28,1.35.5,2.08.66.74.17,1.43.25,2.07.25,1.1,0,1.9-.3,2.4-.91.52-.61.77-1.46.77-2.54v-1c-.93,1.17-2.15,1.76-3.68,1.76-1.25,0-2.31-.31-3.19-.93-.88-.63-1.56-1.5-2.04-2.63-.47-1.12-.7-2.43-.7-3.92v-.3c0-1.6.23-3,.7-4.2.47-1.2,1.14-2.13,2.01-2.8.87-.67,1.91-1.01,3.13-1.01.91,0,1.69.19,2.35.58.66.37,1.21.91,1.67,1.62l.3-1.91h5.35v2.47l-1.78.38v11.9c0,2-.63,3.6-1.9,4.79-1.25,1.2-2.98,1.8-5.19,1.8ZM1034.87,39.74c1.15,0,1.99-.45,2.53-1.35v-6.6c-.55-.96-1.39-1.45-2.51-1.45-1.05,0-1.81.45-2.29,1.33-.47.89-.7,2.05-.7,3.48v.3c0,1.33.23,2.38.69,3.15.46.76,1.22,1.14,2.29,1.14Z"/>
    <path class="cls-14" d="M1044.44,42.64v-2.46l1.98-.42v-9.43l-2.19-.42v-2.47h6.3v12.32l1.97.42v2.46h-8.05ZM1046.28,24.22v-3.5h4.24v3.5h-4.24Z"/>
    <path class="cls-14" d="M1053.71,42.64v-2.46l1.97-.42v-9.43l-2.18-.42v-2.47h6l.18,2.18c.51-.78,1.13-1.38,1.87-1.81.75-.43,1.6-.65,2.56-.65,1.5,0,2.67.48,3.53,1.45.86.96,1.29,2.48,1.29,4.54v6.62l1.97.42v2.46h-7.84v-2.46l1.76-.42v-6.6c0-1.02-.21-1.74-.62-2.16-.4-.43-1-.65-1.78-.65-1.14,0-2.02.48-2.63,1.43v7.98l1.66.42v2.46h-7.73Z"/>
    <path class="cls-14" d="M1078.78,48.78c-.77,0-1.63-.1-2.59-.31-.96-.2-1.8-.47-2.53-.83l.76-2.92c.66.28,1.35.5,2.08.66.74.17,1.43.25,2.07.25,1.1,0,1.9-.3,2.4-.91.52-.61.77-1.46.77-2.54v-1c-.93,1.17-2.15,1.76-3.68,1.76-1.25,0-2.31-.31-3.19-.93-.88-.63-1.56-1.5-2.04-2.63-.47-1.12-.7-2.43-.7-3.92v-.3c0-1.6.23-3,.7-4.2.47-1.2,1.14-2.13,2.01-2.8.87-.67,1.92-1.01,3.13-1.01.91,0,1.69.19,2.35.58.66.37,1.21.91,1.67,1.62l.3-1.91h5.35v2.47l-1.78.38v11.9c0,2-.63,3.6-1.9,4.79-1.25,1.2-2.98,1.8-5.18,1.8ZM1079.22,39.74c1.15,0,2-.45,2.53-1.35v-6.6c-.55-.96-1.39-1.45-2.51-1.45-1.05,0-1.81.45-2.29,1.33-.47.89-.7,2.05-.7,3.48v.3c0,1.33.23,2.38.69,3.15.46.76,1.22,1.14,2.29,1.14Z"/>
    <path class="cls-14" d="M930.01,72.48v-2.46l2.18-.42v-14.68l-2.18-.42v-2.47h6.34l8.91,14.19h.08v-11.3l-2.61-.42v-2.47h8.47v2.47l-2.19.42v17.56h-3.96l-9.11-14.05h-.08v11.17l2.63.42v2.46h-8.47Z"/>
    <path class="cls-14" d="M959.89,72.77c-1.51,0-2.8-.33-3.88-.98-1.07-.66-1.89-1.56-2.46-2.73-.57-1.17-.86-2.52-.86-4.03v-.3c0-1.51.29-2.84.86-4,.57-1.17,1.39-2.08,2.46-2.74,1.08-.67,2.36-1,3.85-1s2.78.33,3.85.98c1.08.66,1.9,1.57,2.47,2.74.57,1.16.86,2.5.86,4.02v.3c0,1.52-.29,2.86-.86,4.03-.57,1.16-1.39,2.07-2.46,2.73-1.07.66-2.35.98-3.84.98ZM959.89,69.63c1.06,0,1.83-.42,2.32-1.26.5-.84.74-1.95.74-3.33v-.3c0-1.35-.25-2.45-.74-3.3-.5-.85-1.28-1.28-2.35-1.28s-1.85.43-2.33,1.28c-.49.85-.73,1.95-.73,3.3v.3c0,1.39.24,2.5.73,3.34.49.83,1.27,1.25,2.36,1.25Z"/>
    <path class="cls-14" d="M969.2,72.48v-2.46l1.97-.42v-9.43l-2.18-.42v-2.47h6l.15,1.88.03.34c.75-1.67,1.87-2.5,3.37-2.5.24,0,.51.02.79.06.29.04.55.09.79.17l-.44,3.78-2.04-.11c-.58-.03-1.05.07-1.42.3-.36.22-.67.55-.96.97v7.45l1.97.42v2.46h-8.04Z"/>
    <path class="cls-14" d="M987.65,72.77c-1.41,0-2.51-.39-3.27-1.17-.76-.78-1.14-2.01-1.14-3.7v-7.76h-2.09v-2.88h2.09v-3.72h4.09v3.72h2.8v2.88h-2.8v7.74c0,.59.12,1.01.37,1.26.25.25.59.38,1.03.38.22,0,.47-.01.73-.04.26-.04.49-.07.67-.11l.35,2.96c-.41.12-.87.22-1.36.3-.5.08-.98.13-1.46.13Z"/>
    <path class="cls-14" d="M991.79,72.48v-2.46l1.98-.42v-16.14l-2.19-.42v-2.47h6.28v8.66c.48-.7,1.07-1.25,1.77-1.63.71-.39,1.52-.59,2.42-.59,1.53,0,2.74.51,3.63,1.53.9,1.01,1.35,2.58,1.35,4.71v6.37l1.97.42v2.46h-7.84v-2.46l1.77-.42v-6.39c0-1.1-.21-1.87-.62-2.33-.41-.46-1.02-.69-1.81-.69-1.15,0-2.03.45-2.63,1.35v8.07l1.77.42v2.46h-7.84Z"/>
    <path class="cls-14" d="M1014.75,72.48v-2.46l1.46-.21,6.51-17.79h4.2l6.46,17.79,1.46.21v2.46h-6.97v-2.46l1.42-.25-.9-2.81h-7.19l-.9,2.81,1.42.25v2.46h-6.97ZM1022.17,63.94h5.25l-2.39-7.01-.2-.62h-.08l-.21.66-2.37,6.97Z"/>
    <path class="cls-14" d="M1035.87,72.48v-2.46l1.98-.42v-9.43l-2.19-.42v-2.47h6l.17,2.01c.49-.73,1.1-1.29,1.83-1.69.74-.4,1.59-.6,2.56-.6s1.81.22,2.5.65c.69.43,1.22,1.08,1.57,1.95.47-.82,1.08-1.45,1.83-1.91s1.63-.69,2.64-.69c1.5,0,2.68.51,3.54,1.53.87,1.02,1.31,2.58,1.31,4.66v6.41l1.98.42v2.46h-7.86v-2.46l1.77-.42v-6.42c0-1.11-.19-1.89-.56-2.33-.37-.44-.9-.66-1.6-.66-.64,0-1.17.18-1.62.55-.44.36-.76.83-.95,1.42v7.45l1.66.42v2.46h-7.41v-2.46l1.66-.42v-6.42c0-1.1-.19-1.87-.56-2.32-.37-.45-.91-.67-1.63-.67-1.13,0-1.98.45-2.54,1.36v8.05l1.77.42v2.46h-7.84Z"/>
    <path class="cls-14" d="M1070.11,72.77c-1.46,0-2.73-.32-3.82-.96-1.08-.65-1.92-1.53-2.51-2.66-.59-1.12-.89-2.41-.89-3.85v-.56c0-1.51.28-2.84.84-4,.56-1.17,1.35-2.09,2.38-2.75,1.03-.67,2.24-1.01,3.64-1,2.05,0,3.62.6,4.71,1.81,1.09,1.2,1.63,2.89,1.63,5.06v2.23h-8.94l-.03.08c.08,1,.41,1.83,1,2.47.59.65,1.43.97,2.51.97.75,0,1.45-.09,2.09-.28.66-.2,1.29-.48,1.91-.86l1.11,2.53c-.63.51-1.42.93-2.38,1.26-.95.33-2.03.49-3.26.49ZM1067.18,63.39h5.07v-.37c0-.92-.19-1.64-.58-2.18-.38-.54-.99-.81-1.86-.81s-1.45.31-1.88.94c-.43.62-.7,1.4-.8,2.35l.04.07Z"/>
    <path class="cls-14" d="M1078.29,72.48v-2.46l1.97-.42v-9.43l-2.18-.42v-2.47h6l.16,1.88.03.34c.75-1.67,1.87-2.5,3.37-2.5.24,0,.51.02.79.06.29.04.55.09.79.17l-.44,3.78-2.04-.11c-.58-.03-1.05.07-1.42.3-.36.22-.67.55-.95.97v7.45l1.97.42v2.46h-8.04Z"/>
    <path class="cls-14" d="M1090.5,72.48v-2.46l1.98-.42v-9.43l-2.19-.42v-2.47h6.3v12.32l1.97.42v2.46h-8.05ZM1092.34,54.06v-3.5h4.24v3.5h-4.24Z"/>
    <path class="cls-14" d="M1107.08,72.77c-1.46,0-2.73-.33-3.79-.98-1.06-.66-1.87-1.56-2.45-2.71-.57-1.15-.86-2.48-.86-3.98v-.42c0-1.49.29-2.81.87-3.96.58-1.16,1.4-2.07,2.46-2.73,1.06-.67,2.3-1,3.74-1,1.36,0,2.53.22,3.53.65.99.42,1.8.91,2.42,1.48l-.03,4.36h-3.09l-.55-2.71c-.22-.22-.51-.41-.86-.55-.35-.14-.7-.21-1.05-.21-1.12,0-1.96.42-2.51,1.25-.54.82-.82,1.97-.82,3.43v.42c0,1.56.3,2.71.89,3.44.59.72,1.3,1.08,2.14,1.08.72,0,1.3-.19,1.73-.56.44-.38.74-.92.91-1.62h3.5l.04.08c-.24,1.62-.84,2.9-1.8,3.84-.95.94-2.43,1.41-4.41,1.41Z"/>
    <path class="cls-14" d="M1120.22,72.77c-1.51,0-2.71-.4-3.6-1.21-.89-.81-1.34-1.92-1.34-3.32s.58-2.59,1.73-3.48c1.16-.9,2.87-1.35,5.11-1.35h2.01v-1.12c0-.73-.21-1.32-.65-1.77-.42-.46-1.06-.69-1.91-.69-.44,0-.84.06-1.19.17-.35.1-.66.25-.94.45l-.32,2.01h-2.95l-.06-3.95c.8-.45,1.66-.81,2.59-1.1.93-.28,1.96-.42,3.11-.42,1.98,0,3.55.46,4.71,1.39,1.15.93,1.73,2.24,1.73,3.95v6.87c0,.2.03.39.06.59l1.59.22v2.46h-5.09c-.1-.26-.21-.54-.31-.84-.1-.3-.18-.6-.22-.9-.49.62-1.06,1.11-1.73,1.49-.66.37-1.43.55-2.32.55ZM1121.32,69.74c.57,0,1.11-.13,1.62-.38.52-.26.92-.6,1.21-1.03v-2.4h-2.02c-.9,0-1.58.21-2.05.62-.46.41-.69.91-.69,1.49,0,.54.17.96.51,1.26.35.29.83.44,1.43.44Z"/>
  </g>
  <g>
    <path class="cls-14" d="M1357.15,14.9c-.72-1.57-1.81-2.77-3.74-3.26v-.84c1.21,0,5.06.12,6.03.12s4.34-.12,5.55-.12v.96c-1.08.24-2.29.84-2.29,1.93s.48,1.81,1.45,3.86l8.68,19.65,8.2-19.65c.6-1.57,1.08-2.77,1.08-3.74s-.96-1.81-2.29-2.05v-.96c1.08,0,3.74.12,4.58.12s3.86-.12,5.06-.12v.96c-2.05.6-3.26,1.69-4.46,4.34l-12.06,28.33h-2.53l-13.26-29.54h0Z"/>
    <path class="cls-14" d="M1240.7,43.23c1.57-.36,2.65-1.09,2.65-2.89V14.53c0-1.69-1.09-2.41-2.65-2.89v-.96c.84,0,4.34.12,5.18.12s4.7-.12,5.55-.12v.96c-1.57.36-2.77,1.09-2.77,2.89v10.85h19.29v-10.85c0-1.81-.96-2.53-2.65-2.89v-.96c.84,0,4.46.12,5.55.12s4.46-.12,5.3-.12v.96c-1.57.36-2.77,1.09-2.77,2.89v25.92c0,1.69,1.09,2.41,2.77,2.89v.84h-10.85v-.84c1.57-.36,2.65-1.09,2.65-2.89v-12.3h-19.29v12.3c0,1.81,1.09,2.41,2.77,2.89v.84h-10.73v-.96h0ZM1281.44,43.23c2.05-.48,3.26-1.81,4.1-3.74l10.73-25.68c.48-1.09.96-3.26.96-3.26h3.01s.48,2.17.96,3.26l11.33,25.8c.84,1.81,1.69,3.01,3.98,3.62v.84h-11.57v-.84c1.69-.36,2.17-1.21,2.17-2.05s-.24-1.45-.6-2.29l-2.41-5.43h-12.54l-2.17,5.55c-.24.6-.6,1.57-.6,2.17,0,.96.48,1.69,2.41,2.17v.84h-9.52l-.24-.84h0v-.12ZM1302.78,30.81l-5.3-12.42-4.94,12.42h10.25ZM1281.44,43.23c2.05-.48,3.26-1.81,4.1-3.74l10.73-25.68c.48-1.09.96-3.26.96-3.26h3.01s.48,2.17.96,3.26l11.33,25.8c.84,1.81,1.69,3.01,3.98,3.62v.84h-11.57v-.84c1.69-.36,2.17-1.21,2.17-2.05s-.24-1.45-.6-2.29l-2.41-5.43h-12.54l-2.17,5.55c-.24.6-.6,1.57-.6,2.17,0,.96.48,1.69,2.41,2.17v.84h-9.52l-.24-.84h0v-.12ZM1302.78,30.81l-5.3-12.42-4.94,12.42h10.25ZM1387.41,43.23c2.05-.48,3.26-1.81,3.98-3.74l10.73-25.68c.48-1.09.96-3.26.96-3.26h3.01s.48,2.17.96,3.26l11.33,25.8c.84,1.81,1.69,3.01,3.98,3.62v.84h-11.57v-.84c1.69-.36,2.17-1.21,2.17-2.05s-.24-1.45-.6-2.29l-2.41-5.43h-12.54l-2.17,5.55c-.24.6-.6,1.57-.6,2.17,0,.96.48,1.69,2.29,2.17v.84h-9.52v-.84h0v-.12ZM1408.63,30.81l-5.3-12.42-4.94,12.42h10.25ZM1464.57,43.23c2.05-.36,3.13-1.21,3.13-3.01V14.53c0-1.81-1.08-2.53-3.01-2.89v-.96c1.08,0,4.82.12,5.79.12,1.69,0,6.27-.36,9.77-.36,11.94,0,19.05,6.63,19.05,16.76s-7.47,17.12-19.77,17.12-7.84-.24-9.4-.24h-5.55v-.96h0v.12ZM1473.13,41.54c1.21.24,3.5.36,5.18.36,10.01,0,15.19-6.03,15.19-14.35s-5.43-14.83-14.83-14.83-4.34.12-5.55.36v28.45h0Z"/>
    <path class="cls-14" d="M1329.79,40.21c0,1.69,1.08,2.65,3.13,3.13v.96h-11.33v-.96c1.81-.36,3.01-1.33,3.01-3.13V14.53c0-1.57-.84-2.53-3.01-2.89v-.96c1.08,0,4.58.12,5.67.12,1.69,0,6.27-.24,8.08-.24,7.96,0,12.42,3.26,12.42,8.92s-3.38,7.47-8.44,8.68c0,0,1.21.72,2.29,2.05,1.45,1.69,5.43,7.23,6.99,9.16s3.62,4.1,5.79,4.22v.72c-1.08.24-2.65.36-3.98.36-2.77,0-4.94-.96-6.99-3.5-1.81-2.17-5.06-6.87-6.99-9.28-1.21-1.45-2.53-2.65-5.18-3.01-.48-.12-.96-.12-1.57-.24v11.57s.12,0,.12,0ZM1329.79,26.59c1.08.12,2.65.24,4.22.24,6.27,0,8.2-3.62,8.2-6.75,0-4.46-3.01-7.35-8.44-7.35s-2.77.12-3.86.36v13.5h-.12Z"/>
    <path class="cls-14" d="M1435.15,40.21c0,1.69,1.08,2.65,3.13,3.13v.96h-11.33v-.96c1.81-.36,3.01-1.33,3.01-3.13V14.53c0-1.57-.84-2.53-2.89-2.89v-.96c1.08,0,4.58.12,5.67.12,1.69,0,6.27-.24,8.08-.24,7.96,0,12.42,3.26,12.42,8.92s-3.38,7.47-8.44,8.68c0,0,1.21.72,2.29,2.05,1.45,1.69,5.3,7.23,6.87,9.16,1.57,1.93,3.62,4.1,5.79,4.22v.72c-1.08.24-2.65.36-3.98.36-2.77,0-4.94-.96-6.99-3.5-1.81-2.17-4.94-6.87-6.75-9.28-1.21-1.45-2.53-2.65-5.18-3.01-.48-.12-.96-.12-1.57-.24v11.57h-.12ZM1435.15,26.59c1.08.12,2.65.24,4.22.24,6.27,0,8.2-3.62,8.2-6.75,0-4.46-3.01-7.35-8.44-7.35s-2.77.12-3.86.36v13.5h-.12Z"/>
    <path class="cls-14" d="M1382.59,72.88h.48c.24.96.84,1.81,1.57,2.41.84.6,2.05.84,3.13.84,2.29,0,3.74-1.09,3.74-2.89s-1.81-2.65-3.98-3.74c-1.69-.84-4.94-2.05-4.94-5.3s2.29-4.82,5.79-4.82,3.5.6,5.06.48v3.5h-.6c-.6-2.05-2.53-2.77-4.58-2.77s-3.26,1.33-3.26,2.65c0,1.93,2.17,3.01,4.1,3.98,2.41,1.09,4.94,2.29,4.94,5.3s-2.17,4.82-6.27,4.82-3.86-.6-5.18-.84v-3.62h0Z"/>
    <path class="cls-14" d="M1419,76.5c.84-.24,1.33-.6,1.33-1.45v-13.38c0-.84-.48-1.21-1.33-1.45v-.48h5.67v.48c-.84.24-1.45.6-1.45,1.45v5.55h9.89v-5.55c0-.96-.48-1.33-1.33-1.45v-.48h5.67v.48c-.84.24-1.45.6-1.45,1.45v13.38c0,.84.6,1.21,1.45,1.45v.48h-5.67v-.48c.84-.24,1.33-.6,1.33-1.45v-6.39h-9.89v6.27c0,.96.6,1.21,1.45,1.45v.48h-5.67v-.36h0Z"/>
    <path class="cls-14" d="M1414.18,72.64l-.24,3.86c-1.33,0-3.13.84-6.15.84-6.39,0-9.28-3.86-9.28-8.92s3.74-9.04,9.16-9.04,4.34.96,6.03.84v3.86c.12,0-.36,0-.36,0-.96-2.29-3.26-3.38-5.67-3.38-3.98,0-6.15,3.5-6.15,7.72s1.69,7.72,6.51,7.72,4.7-.96,5.55-3.5h.6Z"/>
    <path class="cls-14" d="M1441.66,68.42c0-4.94,3.5-9.04,8.92-9.04s8.92,4.1,8.92,9.04-3.5,8.92-8.92,8.92-8.92-3.98-8.92-8.92h0ZM1456.37,68.42c0-3.98-1.81-7.84-5.79-7.84s-5.91,3.74-5.91,7.84,1.81,7.72,5.91,7.72,5.79-3.74,5.79-7.72h0Z"/>
    <path class="cls-14" d="M1463.36,68.42c0-4.94,3.5-9.04,8.92-9.04s8.92,4.1,8.92,9.04-3.5,8.92-8.92,8.92-8.92-3.98-8.92-8.92h0ZM1478.07,68.42c0-3.98-1.81-7.84-5.79-7.84s-5.91,3.74-5.91,7.84,1.81,7.72,5.91,7.72,5.79-3.74,5.79-7.72h0Z"/>
    <path class="cls-14" d="M1267.7,59.74h10.85c.36,0,.96,0,1.21-.24h.48v3.5h-.6c-.36-1.09-.96-1.93-3.13-1.93h-4.58v6.27h5.18c.84,0,1.21-.6,1.33-1.33h.48v4.22h-.48c-.24-.72-.6-1.21-1.33-1.45h-5.18v6.99h5.18c2.17,0,2.89-.96,3.38-2.29h.48l-.48,3.74h-13.02v-.48c.96-.24,1.57-.6,1.57-1.57v-13.26c0-.84-.48-1.33-1.57-1.57v-.36h.24v-.24Z"/>
    <path class="cls-14" d="M1309.17,61.79c0-.84-.48-1.33-1.57-1.57v-.48h6.03v.48c-1.08.24-1.57.6-1.57,1.57v13.14c0,.84.48,1.33,1.57,1.57v.48h-6.03v-.48c1.08-.24,1.57-.6,1.57-1.57v-13.14h0Z"/>
    <path class="cls-14" d="M1335.82,76.5c1.08-.24,1.69-.96,2.05-1.93l5.55-13.26c.24-.6.48-1.69.48-1.69h1.57s.24,1.09.48,1.69l5.79,13.26c.36.96.84,1.57,2.05,1.93v.48h-5.91v-.48c.84-.24,1.08-.6,1.08-1.09s-.12-.72-.36-1.21l-1.21-2.77h-6.39l-1.08,2.89c-.12.36-.24.84-.24,1.09,0,.48.24.84,1.21,1.09v.48h-4.94v-.48h-.12,0ZM1346.91,69.99l-2.77-6.39-2.53,6.39h5.3Z"/>
    <path class="cls-14" d="M1333.52,72.64l-.24,3.86c-1.33,0-3.13.84-6.15.84-6.39,0-9.28-3.86-9.28-8.92s3.74-9.04,9.16-9.04,4.34.96,6.03.84v3.86c.12,0-.36,0-.36,0-.96-2.29-3.26-3.38-5.67-3.38-3.98,0-6.15,3.5-6.15,7.72s1.69,7.72,6.51,7.72,4.7-.96,5.55-3.5h.6Z"/>
    <path class="cls-14" d="M1370.17,73.37c-.6,1.33-1.21,2.29-3.38,2.29h-5.3v-13.86c0-.96.48-1.33,1.57-1.57v-.48h-6.03v.48c1.08.24,1.57.72,1.57,1.57v13.14c0,.96-.48,1.45-1.57,1.57v.48h13.02l.48-3.62s-.36,0-.36,0Z"/>
    <path class="cls-14" d="M1498.2,73.37c-.6,1.33-1.21,2.29-3.38,2.29h-5.18v-13.86c0-.96.48-1.33,1.57-1.57v-.48h-6.03v.48c1.08.24,1.57.72,1.57,1.57v13.14c0,.96-.48,1.45-1.57,1.57v.48h13.02l.48-3.62s-.48,0-.48,0Z"/>
    <path class="cls-14" d="M1285.78,76.5c1.09-.24,1.57-.6,1.57-1.57v-13.26c0-.96-.6-1.33-1.57-1.45v-.48h3.01c.84,0,3.13-.24,4.94-.24,6.15,0,9.89,3.38,9.89,8.68s-3.86,8.8-10.13,8.8-3.86,0-4.7,0h-2.89v-.6h0l-.12.12ZM1290.12,75.66h2.53c5.18,0,7.84-2.89,7.84-7.47s-2.77-7.6-7.6-7.6-2.05,0-2.77.24v14.71h0v.12Z"/>
    <path class="cls-14" d="M1261.31,74.57l-.84-12.78c0-.84.36-1.33,1.33-1.57v-.48h-4.1l-5.67,13.26-5.67-13.26h-4.34v.48c.96,0,1.45.72,1.45,1.57l-.96,12.78c0,.96-.6,1.69-1.69,2.05v.48h4.82v-.48c-1.21-.36-1.45-.96-1.45-1.81l.72-11.33,5.91,13.62h.96l5.91-13.62.72,11.45c0,.72-.24,1.45-1.45,1.81v.48h6.03v-.48c-1.09-.48-1.57-1.09-1.69-2.17h0Z"/>
    <path class="cls-27" d="M1188.38.55h-35.93v28.69c-.12,35.2,35.2,57.63,35.56,57.87h.48c6.03-3.98,35.93-25.2,35.93-57.63V.67c0-.12-36.05-.12-36.05-.12h0ZM1224.18,25.99h-71.13v-4.1h71.13v4.1h0Z"/>
    <path d="M1164.5,4.05c2.41-.96,5.06-.24,7.72-.48.72,0,1.69-.36,2.17.36v2.29c.24.6,1.09.24,1.45.48.24,0,.48.24.6.6s0,.72-.12,1.09c-.48.48-1.09.36-1.81.48l-.24.24c.12,1.45-.24,2.65,0,3.98,0,.24-.12.72.24.84.72,0,1.33,0,1.81.48.24.36.24.72.12,1.21-.24,1.45-2.53-.24-2.29,1.45,0,.6.12,1.45-.12,2.05-2.65,0-5.3-.24-7.72,0-.48.36-.96.6-1.69.72-.48-.12-.96-.36-1.33-.72-2.41-.12-4.7-.12-6.99-.12-.72-.6-.24-1.69-.48-2.53-.36-.48-.96-.12-1.45-.36-.36,0-.48-.36-.6-.6,0-.48,0-.96.36-1.33.36-.24.96-.24,1.45-.24l.24-.24c0-1.57.24-3.13,0-4.82-.24-.36-.72,0-.96-.24-.36,0-.84-.36-.96-.84,0-.36,0-.72.24-1.09.48-.6,1.45,0,1.93-.48l.24-2.29c.36-.72,1.21-.36,1.93-.36,1.21-.24,2.65,0,3.86,0s1.81.24,2.53.48h-.12Z"/>
    <path class="cls-14" d="M1167.76,29.24v.48c-.12.24-.36.48-.6.36h-.96c-.36-.24-.72-.36-1.09-.24-.12.12-.36.24-.6.48.12,0,.12.12.12.12.24.12.72.24.84.84,0,.48.24.84.48,1.09v.24c.24.12.24.24.24.36s0,.12-.12.24l-.48.6-.24.24s-.24.6-.36.84c.12.24.24.36.36.36.48-.12.84,0,1.21,0h.72c0,.12.12.12.12.12h.24c.24,0,.72-.12,1.09.12,0,0,.36.6.36.72.12.24.12.36.12.6s0,.48-.12.72v.36c-.12,0-.12.24-.24.24-.6.96-1.45,1.69-2.53,2.17h.12c.12.24.48.24.84,0h.24c.48,0,.84,0,1.33-.36l1.33-.36c.24,0,.36,0,.48.24.24.48.6.84.84,1.09l.24-.24c.24-.24.72-.6,1.33-.36h.12c.48.36.6.84.72,1.21.12.24.12.6.36.72.12,0,.12.24.12.24h0c0,.6-.48.84-.6.84h-.24l-1.09.36c-.36,0-.72,0-.96.24h.12c.48.24,1.21.36,1.93.48h2.65c.16,0,.28.08.36.24.12,0,0,.36-.12.48l-.24.36h-.12l-2.29,1.69c-.12,0-1.33.48-1.33.48l-1.81.72h-.12c-1.09.24-1.69-.36-2.29-.72-.36-.36-.72-.6-1.21-.6s-.72,0-.96.36c-.12,0-.12.24-.12.48v.24h.12c.24,0,.72.24.72.84s-.36,1.45-.72,2.05c-.24.48-.6,1.09-.6,1.57h0c0,.24,0,.36.12.36h.24v-.24c.24-.24.48-.6.96-.72h.12c.96,0,1.45,0,1.81-.36h.24c.24,0,.6,0,.84.24s.36.48.36.72v.24c.6,0,.96-.6,1.45-1.33l.24-.36c.12,0,.24-.24.36-.24h.36c.48-.24.96-.48,1.57,0,.12,0,.24.24.24.36v.36c0,.48-.24.84-.36,1.21,0,0-.12.24-.12.48.84-.24,1.57-.96,2.17-1.81l.36-.48c.12-.24.36-.84,1.09-.84h.12c.36,0,.48,0,.84-.6l.72-.72h.96s.12,0,.12.24v.72h0c.12,0,.48-.24.72-.24l.96-.6h.48l3.62.96c.72.24.84.72.84,1.21v.72l.12.24c.12,0,.12.24.12.36v.24c-.12.36-.48.72-1.45.72h-1.81c-1.45,0-2.89,0-3.98,1.09l-.96.96h-.36c-.72,0-1.21.36-1.81.72-.48.36-1.09.72-1.81.84-.48.24-1.09.24-1.57.24h-.84c.48.6,1.33.84,2.17,1.09h.48c.36,0,.96,0,1.21.6v.24c0,.48.12.72.36.72h.12c.12,0,.6-.36,1.21,0,.12,0,.84.84.84.84l.96.96c.12,0,.12.36,0,.48-.36.72-1.21.6-1.69.6h-.84c-.72,0-1.81.36-2.53-.6h.12l-1.09-.24c-.6-.48-1.09-.96-1.81-.96-.72.24-1.09.48-1.09.84h0v.24c.12,0,.48.36.48.36.12,0,.12.24.12.24h0c0,.24-.12.36-.24.48-.6.36-1.33.96-1.33,1.69v.24h.24c.24,0,.72-.24,1.21,0,.12,0,.24.24.24.36v.6c0,.6.12.84.24,1.09h.24c.36-.24,1.09-.48,1.81,0,.12,0,.36,0,.72-.24l.72-.36h.12c1.21,0,1.81,1.09,2.05,1.81h0c.6.48,1.09.72,1.45.6h0v-.6s-.12-.36-.12-.6c0-.48.12-.96.84-1.21h2.05c1.09,0,1.93,0,2.29-.6,0,0,.84-1.33.96-1.57v-.84c.12-.24.24-.36.48-.36h1.33c-.24-.6-.36-1.21-.36-1.81s0-.6.12-.96c.24-.84.6-1.57,1.09-2.17.12,0,.36-.24.6,0h.24c.12.24.24.36.36.48l.24,1.21c0,.72.24,1.45.6,2.17v.24l-.48,1.69-.36,1.33c-.36,1.33-1.21,2.29-2.41,2.89h.96c1.33,0,2.53-.84,3.5-1.81,0,0,.36-.24.48,0,.24,0,.48,0,.84-.24s1.09-.6,1.81,0c.24.24.72.24,1.21,0,.72,0,1.93,0,2.17,1.21v.84c0,.6.24,1.81-1.09,2.17h-.24l-1.33-.48c-1.09-.48-1.57-.6-2.05,0,0,0-.24.36-.24.48,0,.36.6,1.09,0,1.69h0c-.36.6-.6.96-.36,1.45h.48c.48-.24,1.09,0,1.57,0l.6.24h.48c.48.48.84.72,1.33.84h0l.24-.72.84-.48c.48-.24.6-.24.6-.48,0-.84.72-1.69,1.57-2.17h.36c.24,0,.84-.24,1.09-.48h0l-.24-.36s0-.24-.24-.24v-.36c0-.6.36-1.09.6-1.57.24-.36.36-.72.36-.96v-.48h0v-.84c-.24-.6-.24-.96-.6-1.33l-.96-.48-.36-.36c-.24,0-.24-.24-.24-.48,0-.48.24-.72.84-.84h0c.6-.24,1.21,0,1.69.24h.72c0-.36-.48-.72-.72-1.09-.6-.36-1.33-.6-2.05-.72-1.21-.24-2.41-.6-3.13-1.69v-.72h0c0-.24.36-.24.48-.24,1.45.36,2.89,0,3.86-.84.6-.72,1.33-1.69,2.41-2.05.84-.6.96-1.69.96-3.01s.36-1.21.84-1.69l1.09-.48c.36,0,.48,0,.48-.24-.6-.24-1.33-.6-1.93-.48h-.36c-.36,0-.36-.36-.48-.6h0c0-.48.24-.72.48-.84h0v-.24l1.09-.6c1.45-.84,2.41-1.33,2.41-2.53h0s-.36,0-.48.24l-.96.48c-.72.36-1.57.6-2.29.72-.84,0-1.57.36-2.17.72h-.24c-.24,0-.6,0-.6-.48v-.36c0-.24,0-.48.24-.6.24-.36.6-.6.96-.72.48-.24.72-.36.84-.72v-.36c.36-.6.6-1.45,1.45-1.81l.72-.36h.24c-1.21-.48-2.41.48-3.13,1.09h0l-.6.24c-.84.36-1.69.72-2.17,1.33h-.96c-.24,0-.36-.36-.36-.6-.24-1.93,1.33-3.38,2.53-4.46l.24-.24h.24l.72-.48c.6-.36,1.33-.84,2.29-.36s1.33.6,1.93.48c.36,0,.6-.48.96-.96.24-.36.6-.84,1.09-1.21.48-.24.96,0,1.33,0s.48.12.48.12h0v-.24c0-.36-.24-.72-.6-1.21l-.48-.6v-.48c0-.36.24-.72.24-1.21,0-.96-.36-1.81-1.09-2.41-.24-.12-.72-.36-1.21-.36v.24l.48.96v.36c0,2.17-1.81,3.13-3.38,3.86l-1.33.72c-3.01,1.57-6.99,3.98-7.23,7.96,0,2.05.84,3.98,2.53,5.67h0l.6.84c.6.96,1.33,1.93,1.33,3.26s0,.6,0,.96c-.48,1.21-1.93,1.21-2.41,1.21-3.01-.24-4.58-3.26-5.79-5.43l-.24-.36-.24-.48c-.36-.72-.72-1.45-.72-2.29s0-.36,0-.36c0,0,.48-.48,1.09,0l.6.84v.36-.48c0-.48-.24-1.09-.48-1.69h0c0-.36-.48-.72-.84-.96-.48-.36-.96-.84-1.21-1.45h0v-.24c0-.72.6-.84.84-.96h0c-.24-.72-.36-1.57-.36-2.41v-1.21h0l.72-.72c.12,0,.24,0,.24-.24-.24-.84-.24-1.81-.24-2.65v-1.09c0-.12.24-.84.24-.84,0-.36.24-.6.24-.84v-.24c-.48-.24-.6-.84-.6-1.09v-.24h0c-1.21,0-2.29-.48-3.26-.96l-.96-.48c-.24-.12-.48,0-.84.24l-.6.24h-.6c-.6.24-1.21.36-1.57.72s-.24.6-.24,1.09v.36h0c-.12.48-.36.6-.48.6-.36.12-.6,0-.84-.12h-.12c-.96-.48-1.33-1.45-1.09-2.41,0-.12-.12-.36-.12-.36-.24-.12-.72-.24-1.09-.12-.24.12-.48.36-.6.96,0,0-.12.12-.12.24h0c0,.48.12.84.24.96.36.36.96.72,1.69,1.09l1.57.84s.12.12.12.24.12.36.12.48c0,.6-.24.96-.48,1.33h0c.12.12.48.36.48.84v.24c0,.24-.24.36-.36.36-.96.24-1.81,0-2.53-.48l-.48-.6c-.12-.24-.24-.36-.36-.36,0,0-.12.24-.12.36l-.24.48c0-.12,0,.36,0,.36,0,.36-.12.84-.48,1.21h-.84c-1.93-.6-3.62-1.57-5.55-3.01-.84-.6-1.45-1.45-2.05-2.29l-.48-.6h-.12c0-.12-.12-.72-.12-.72-.36-1.21-.6-1.93-1.45-2.17-.24-.24-.36-.24-.36-.24h0l.72.6h0ZM1168.97,36.23,1165.23,35.39h.24-.24ZM1182.59,36.11s.12-.12.12-.24h0s-.12.12-.12.24h0ZM1191.87,42.5h0ZM1180.42,50.46,1180.54,50.58,1170.29,53.59,1187.41,63.84,1188.01,68.91h.12-.12Z"/>
    <path class="cls-3" d="M1152.81,29.24V.55h71.73v28.81c0,36.29-36.17,57.63-36.17,57.63,0,0-35.56-22.3-35.56-57.75h0Z"/>
    <path d="M1202.84,71.08h0c-.24-.24-.48-.6-.6-.72-.24-1.33,1.69-2.17.72-3.5-.24-.84,0-1.81-.84-2.41-.6-.48-1.33-.6-1.93-.96,0-.36.48-.24.6-.36,1.09-.24,1.93.96,2.77,0,0-.72-.6-1.33-1.09-1.81-1.57-1.09-3.86-.6-5.06-2.29h0c1.45.24,3.13,0,4.22-1.09.6-.84,1.33-1.69,2.29-1.93,1.09-.84,1.21-2.17,1.21-3.38s.24-.96.6-1.33c.6-.48,2.05-.36,1.69-1.45-.84-.48-1.69-.84-2.53-.72-.48-.24,0-.6.24-.72,1.45-.96,3.86-1.57,3.74-3.86,0-.24,0-.6-.48-.6s-1.09.72-1.69.96c-1.45.84-3.13.6-4.58,1.45-.24,0-.24-.36,0-.48.48-.72,1.57-.72,1.93-1.69.24-.72.36-1.69,1.21-1.93.48-.36,1.21-.36,1.45-.96,0-.36-.48-.48-.72-.6-1.33-.36-2.65.36-3.62,1.33-.96.48-2.17.84-2.89,1.57,0,0-.36,0-.36-.24-.24-1.93,1.45-3.26,2.77-4.34.84-.24,1.69-1.33,2.65-.84.72.36,1.45.72,2.29.48,1.09-.36,1.21-1.57,2.17-2.17.72-.24,1.69.84,2.17-.24.24-1.09-.6-1.69-1.09-2.41.6-1.45,0-3.13-1.09-4.22-.6-.36-1.33-.6-1.93-.36-.48.6.48,1.09.48,1.69.24,2.65-2.65,3.26-4.46,4.46-3.26,1.69-7.23,4.22-7.47,8.44,0,2.29,1.09,4.46,2.65,6.03.84,1.45,2.17,2.77,1.69,4.7-.36.72-1.21.84-1.93.84-2.77-.24-4.34-3.38-5.55-5.55-.36-.84-.84-1.69-.96-2.65h.48c.48.48.48,1.57,1.33,1.45.72-.96.24-2.17-.24-3.13-.48-.84-1.57-1.33-2.05-2.29,0-.72.96-.24,1.09-.96-.36-1.21-.48-2.53-.24-3.62.24-.48.96-.48.96-1.09-.36-1.21-.36-2.29-.24-3.62,0-.72.72-1.57.36-2.29-.84-.24,0-1.33-.96-1.45-1.57,0-2.77-.84-4.1-1.33-.72-.24-1.21.24-1.81.36-.84.24-1.81.24-2.41.84s-.36,1.09-.36,1.81c-.12.36-.48,0-.72,0-.6-.36-.84-1.09-.72-1.81.12-.36,0-.6-.36-.84-.48-.24-1.09-.48-1.57-.24-.6.24-.84.96-1.09,1.57,0,.48,0,1.09.24,1.45.96.96,2.29,1.33,3.26,2.17.24.6-.24,1.09-.6,1.57,0,.48.72.48.6.96-.72.24-1.45,0-2.05-.48-.36-.36-.48-1.09-1.09-1.09s-.6.72-.84,1.09c-.24.48,0,1.09-.48,1.45h-.36c-1.93-.6-3.62-1.69-5.3-3.01-.96-.72-1.69-1.93-2.41-2.89-.36-1.21-.6-2.77-2.05-3.13-.36,0-.72.12-.84.48v.48c-.84,0-1.57-.48-2.41-.24-.36.24-.72.48-.96.84,0,.84.96.48,1.09,1.21,0,.6.48,1.09.72,1.57-.24.36-.6.48-.72.84l-.48,1.21c.24.36.48.84.84.84.6-.24,1.21.24,1.93.12.48,0,1.09-.36,1.21.36.24.6,0,1.09,0,1.57-.6.84-1.45,1.57-2.29,1.93-.24.24-.24.6-.24.84.36.48,1.09.24,1.57.24.96,0,1.69-.6,2.65-.72.24.48.6,1.09,1.09,1.33.72.24.96-.84,1.69-.6.6.48.48,1.33.96,1.93,0,.36-.24.36-.48.48-.84.24-1.93,0-2.53.6-.12.36.24.72.48.84.72.36,1.57.48,2.41.6.72,0,1.57-.24,2.29,0l-.24.36-2.29,1.57c-1.09.48-2.17.6-3.13,1.21-1.45.36-2.05-1.45-3.38-1.33-.6,0-.96.24-1.33.48-.36.36-.36.84-.24,1.33.24.48.84.24.84.72,0,1.33-1.21,2.29-1.33,3.62,0,.36,0,.72.48.84h.84c.24-.24.24-.72.72-.84.84,0,1.69,0,2.17-.48.24,0,.6.24.6.48,0,.36,0,.72.36.84,1.21,0,1.69-1.21,2.29-2.05.48,0,1.09-.48,1.57,0,.24.84-.48,1.33-.6,2.17,0,.24.24.36.48.36,1.45-.24,2.17-1.45,3.01-2.53.12-.24.24-.6.72-.6,1.09.36,1.33-.96,2.05-1.45h.24c.12.36-.12.6,0,.84.48.48.96,0,1.45,0l.96-.6c1.21.36,2.41.6,3.62.96.96.36,0,1.45.6,2.05-.12.36-.6.48-.96.48-2.05.24-4.46-.24-6.15,1.21l-.96.96c-1.57,0-2.29,1.33-3.74,1.57-.96.6-2.41-.24-3.01.84.48.96,1.69,1.33,2.65,1.57.48.24,1.09,0,1.33.48,0,.48.12,1.09.72,1.21.36,0,.6-.48,1.09,0,.48.72,1.33,1.09,1.69,1.69-.36.6-1.09.24-1.69.24h-.12c-.84,0-1.93.48-2.53-.24-.84-.6-1.57-1.69-2.89-1.69-.72.24-1.45.48-1.57,1.21-.12.48.36.6.6.96-.84.6-1.69,1.45-1.45,2.53.12.24.24.48.48.48.48,0,.72-.36,1.21,0,.12.72-.12,1.81.72,2.17.6,0,1.09-.84,1.81-.24.72.36,1.21-.36,1.93-.48.96,0,1.33.96,1.69,1.69.6.48,1.45,1.21,2.29.72.6-.84-.48-1.81.6-2.29.6-.24,1.21,0,1.93,0,1.09,0,2.29.24,2.89-.96l.96-1.57.24-.96c.6-.24,1.45.84,1.81,0-.36-.96-.48-1.93-.24-2.89.24-.72.48-1.33.96-1.81h.24c.24,1.33.36,2.41.84,3.5,0,1.09-.6,2.05-.84,3.13-.24,1.09-1.09,2.05-2.17,2.53-.24.24-.48.48-.24.84.24.48.96.24,1.45.36,1.45-.24,2.77-.84,3.86-1.93,1.09.24,1.57-.96,2.53-.48.96.72,2.77-.6,3.13,1.09,0,.72.6,2.05-.6,2.41-1.21-.24-2.65-1.81-3.86-.36-.24.24-.48.6-.24,1.09.24.36.48.72,0,1.09-.36.6-.84,1.33-.48,1.93.24.36.72.36,1.09.36.72-.24,1.33.36,2.05.36.6.48,1.21,1.09,2.05.96.36-.24.24-.6.48-.84.48-.48,1.57-.36,1.57-1.33s.72-1.33,1.33-1.69c.24-.36,1.69-.72,2.05-1.33h0v-.84h.12Z"/>
    <path class="cls-2" d="M1202.84,71.08h0c-.24-.24-.48-.6-.6-.72-.24-1.33,1.69-2.05.72-3.5-.24-.84,0-1.81-.84-2.41-.6-.48-1.33-.6-1.93-.96,0-.36.48-.24.6-.36,1.09-.24,1.93.96,2.77,0,0-.72-.6-1.33-1.09-1.81-1.57-1.09-3.86-.6-5.06-2.29h0c1.45.24,3.13,0,4.22-1.09.6-.84,1.33-1.69,2.29-1.93,1.09-.84,1.21-2.17,1.21-3.38s.24-.96.6-1.33c.6-.48,2.05-.36,1.69-1.45-.84-.48-1.69-.84-2.53-.72-.36-.24,0-.6.24-.72,1.45-.96,3.86-1.57,3.74-3.86,0-.24,0-.6-.48-.6s-1.09.72-1.69.96c-1.45.84-3.13.6-4.58,1.45-.24,0-.24-.36,0-.48.48-.72,1.57-.72,1.93-1.69.24-.72.36-1.69,1.21-1.93.48-.36,1.21-.36,1.45-.96,0-.36-.48-.48-.72-.6-1.33-.36-2.65.36-3.62,1.33-.96.48-2.17.84-2.89,1.57,0,0-.36,0-.36-.24-.24-1.93,1.45-3.26,2.77-4.34.84-.24,1.69-1.33,2.65-.84.72.36,1.45.72,2.29.48,1.09-.36,1.33-1.57,2.17-2.17.72-.24,1.69.84,2.17-.24.24-1.09-.6-1.69-1.09-2.41.6-1.45,0-3.13-1.09-4.22-.6-.36-1.33-.6-1.93-.36-.48.6.48,1.09.48,1.69.24,2.65-2.65,3.26-4.46,4.46-3.26,1.69-7.23,4.22-7.47,8.44,0,2.29,1.09,4.46,2.65,6.03.84,1.45,2.17,2.77,1.69,4.7-.36.72-1.21.84-1.93.84-2.77-.24-4.34-3.38-5.55-5.55-.36-.84-.84-1.69-.96-2.65h.48c.48.48.48,1.57,1.33,1.45.72-.96.24-2.17-.24-3.13-.48-.84-1.57-1.33-2.05-2.29,0-.72.96-.24,1.09-.96-.36-1.21-.48-2.53-.24-3.62.24-.48.96-.48.96-1.09-.36-1.21-.36-2.29-.24-3.62,0-.72.72-1.57.36-2.29-.84-.24,0-1.33-.96-1.45-1.57,0-2.77-.84-4.1-1.33-.72-.24-1.21.24-1.81.36-.84.24-1.81.24-2.41.84s-.36,1.09-.36,1.81c-.12.36-.48,0-.72,0-.6-.36-.84-1.09-.72-1.81.12-.36,0-.6-.36-.84-.48-.24-1.09-.36-1.57-.24-.6.24-.84.96-1.09,1.57,0,.48,0,1.09.24,1.45.96.96,2.29,1.33,3.26,2.17.24.6-.24,1.09-.6,1.57,0,.48.72.48.6.96-.72.24-1.45,0-2.05-.48-.36-.36-.48-1.09-1.09-1.09s-.6.72-.84,1.09c-.24.48,0,1.09-.48,1.45h-.36c-1.93-.6-3.62-1.69-5.3-3.01-.96-.72-1.69-1.93-2.41-2.89-.36-1.21-.6-2.77-2.05-3.13-.36,0-.72.12-.84.48v.48c-.84,0-1.57-.48-2.41-.24-.36.24-.72.48-.96.84,0,.84.96.48,1.09,1.21,0,.6.48,1.09.72,1.57-.24.36-.6.48-.72.84l-.48,1.21c.24.36.48.84.84.84.6-.24,1.21.24,1.93.12.48,0,1.09-.36,1.21.36.24.6,0,1.09,0,1.57-.6.84-1.45,1.57-2.29,1.93-.24.24-.24.6-.24.84.36.48,1.09.24,1.57.24.96,0,1.69-.6,2.65-.72.24.48.6,1.09,1.09,1.33.72.24.96-.84,1.69-.6.6.48.36,1.33.96,1.93,0,.36-.24.36-.48.48-.84.24-1.93,0-2.53.6-.12.36.24.72.48.84.72.36,1.57.48,2.41.6.72,0,1.57-.24,2.29,0l-.24.36-2.29,1.57c-1.09.48-2.17.6-3.13,1.21-1.45.36-2.05-1.45-3.38-1.33-.6,0-.96.24-1.33.48-.36.36-.36.84-.24,1.33.24.48.84.24.84.72,0,1.33-1.21,2.29-1.33,3.62,0,.36,0,.72.36.84h.84c.24-.24.24-.72.72-.84.84,0,1.69,0,2.17-.48.24,0,.6.24.6.48,0,.36,0,.72.36.84,1.21,0,1.69-1.21,2.29-2.05.48,0,1.09-.48,1.57,0,.24.84-.48,1.33-.6,2.17,0,.24.24.36.48.36,1.45-.24,2.17-1.45,3.01-2.53.12-.24.24-.6.72-.6,1.09.36,1.33-.96,2.05-1.45h.24c.12.36-.12.6,0,.84.48.48.96,0,1.45,0l.96-.6c1.21.36,2.41.6,3.62.96.96.36,0,1.45.6,2.05-.12.36-.6.48-.96.48-2.05.24-4.46-.24-6.15,1.21l-.96.96c-1.57,0-2.29,1.33-3.74,1.57-.96.6-2.41-.24-3.01.84.48.96,1.69,1.33,2.65,1.57.48.24,1.09,0,1.33.48,0,.48.12,1.09.72,1.21.36,0,.6-.48,1.09,0,.48.72,1.33,1.09,1.69,1.69-.36.6-1.09.24-1.69.24h-.12c-.84,0-1.93.48-2.53-.24-.84-.6-1.57-1.69-2.89-1.69-.72.24-1.45.48-1.57,1.33-.12.48.36.6.6.96-.84.6-1.69,1.45-1.45,2.53.12.24.24.48.48.48.48,0,.72-.36,1.21,0,.12.72-.12,1.81.72,2.17.6,0,1.09-.84,1.81-.24.72.36,1.33-.36,1.93-.48.96,0,1.33.96,1.69,1.69.6.48,1.45,1.21,2.29.72.6-.84-.48-1.81.6-2.29.6-.24,1.21,0,1.93,0,1.09,0,2.29.24,2.89-.96l.96-1.57.24-.96c.6-.24,1.45.84,1.81,0-.36-.96-.48-1.93-.24-2.89.24-.72.48-1.33.96-1.81h.24c.24,1.33.36,2.41.84,3.5,0,1.09-.6,2.05-.84,3.13-.24,1.09-1.09,2.05-2.17,2.53-.24.24-.48.48-.24.84.24.48.96.24,1.45.36,1.45-.24,2.77-.84,3.86-1.93,1.09.24,1.57-.96,2.53-.48.96.72,2.77-.6,3.13,1.09,0,.72.6,2.05-.6,2.41-1.21-.24-2.65-1.81-3.86-.36-.24.24-.48.6-.24,1.09.24.36.48.72,0,1.09-.36.6-.84,1.33-.48,1.93.24.36.72.36,1.09.36.72-.24,1.33.36,2.05.36.6.48,1.21,1.09,2.05.96.36-.24.24-.6.48-.84.48-.48,1.57-.36,1.57-1.33s.72-1.33,1.33-1.69c.36-.48,1.81-.84,2.17-1.45h0v-.84h.12Z"/>
    <path class="cls-14" d="M1181.38,29.97c-.12.6-.12,1.21.24,1.69.96,1.09,2.53,1.45,3.13,2.65h-.36c-1.21-.72-2.29-1.69-3.5-2.17-.48-.36-.84-.84-.72-1.45.12-.36.24-.84.72-.96.24-.12.48,0,.48.24h0Z"/>
    <path class="cls-14" d="M1191.39,31.05c.24.24,0,.84.6.96,0,0,.24.12.24.24,0,.48,0,.96-.24,1.45,0,.36-.6.48-.6,1.09s.36.36.48.72v1.93c-1.21.36-.6,1.81-.72,2.53v1.81c-.24,0-.84,0-.96.48,0,.72.36,1.33.6,1.81.48.6,1.33.72,1.33,1.57-.6,0-1.21-.36-1.69-.6-.84-.48-1.45-1.45-2.05-2.29h-.48c-.12.6-.12,1.33-.6,1.69-.6-.36-.6-1.93-1.57-1.45-.36,2.05-1.69,3.62-2.89,5.3-.24,0-.36.48-.72.48.6-1.57,1.09-3.38.48-5.18-.12-.36-.48-.24-.72,0s-.48.6-.84.48c-.36-.48.36-1.33-.48-1.69-.6,0-1.09.72-1.57.96-1.45.84-3.13,1.21-4.82,1.21s-.6,0-.84-.24c.36-.48,1.09-.48,1.57-.84,1.93-1.21,3.26-3.38,4.82-4.94-.12-.72-.72-1.57-.12-2.17.48,0,.72.6,1.09.72.72.36,1.57.6,2.29.24.6-.12,1.09-.72,1.21-1.33,0-.24-.12-.48-.36-.48s-.36,0-.48-.24c0-.36.24-.6.48-.6.84,0,1.57,1.69,2.17.36.36-1.09-.72-1.93-1.45-2.65s-.36-.48-.24-.84c.6-.36-.12-.84.36-1.33.84-.6,2.05-.24,2.89-.84,1.45.48,2.53,1.57,3.86,1.81h0v-.12Z"/>
    <path class="cls-14" d="M1169.09,30.69c0,.24.12.48,0,.6-.24.24-.48,0-.6-.12-.24-.24-.36-.6-.36-.84.12-.96.96,0,.96.36h0Z"/>
    <path class="cls-14" d="M1168.36,32.02c1.33.6,2.17,1.93,3.13,3.01,2.05,1.69,4.22,3.13,6.63,3.86.12.36-.24.72-.48.96-.84.84-1.45,1.81-2.29,2.53h-.48c-.84-.84-.72-2.41-2.17-2.53-.48,0-.84.6-1.33.24s.12-1.21-.6-1.45c-.84.36-1.45,1.21-2.41,1.09.6-1.09,1.69-2.17,1.09-3.5-.12-.6-.48-1.33-1.09-1.45-.6,0-.84.6-1.45.36-.24-.48-1.33-.24-.84-.96.36-.6,1.69-.6,1.21-1.57-.36-.48-1.33-.24-1.33-.96.12-.36-.24-.96,0-1.21,1.09-.24,1.81.96,2.41,1.57h0Z"/>
    <path class="cls-14" d="M1209.59,32.62c0,.72-.6,1.21-.36,1.93.24.36.84.48.72.84-1.81,0-2.17,2.41-3.86,2.29-.72,0-1.33-.96-2.17-.6-2.29,1.09-4.82,2.65-5.43,5.43-.24,1.09-.24,2.17.6,3.01h.6c.48-.84.84-1.93,1.93-2.17.6-.24,1.33-.48,1.93-.84h.24c-.24.84-.6,1.81-1.57,2.05-.6.6-1.33,1.21-1.33,2.05s0,.96.24,1.33c.36.24.72,0,.96-.24,1.21-1.45,3.01-1.69,4.82-1.81,0,0,0,.48-.36.48-1.57.48-3.01,1.81-3.5,3.38,0,.24.24.48.36.48.72,0,1.33-.6,2.17-.48.24.48-.6.48-.84.96-1.45,1.33,0,4.1-2.41,4.58-.72.24-.6,1.09-1.09,1.45-.84,1.09-2.17,1.33-3.38,1.21-.96,0-1.69-1.21-2.53-.36,0,.96.84,1.45,1.33,2.29,1.21,1.09,2.77,1.21,4.34,1.69.24,0,.36.24.48.36,0,.36-.48.24-.72.24-.96,0-2.05.24-3.01,0,0,0-.24,0-.36.24,0,1.09,1.33,1.45,2.05,1.93.72.36,1.69.24,1.93,1.09v1.09c.36.48.48,1.21.36,1.81-.6.72-1.09,1.69-.6,2.77-.24.24-.72,0-.96.24-.36.72-1.21.84-1.45,1.45,0,.6-.36,1.09-.96,1.21-.48,0-.84.24-1.21,0-.24-.36,0-.84-.36-1.09-.6,0-.84.84-1.57.48-.36-.24-.6-.36-.84-.6,0-.48.36-.6.6-.72,1.57-.24,3.62-.48,4.1-2.17,0-.84-.24-1.45,0-2.17-.24-.84-1.09-1.45-2.05-1.57-.84-.24-1.81,0-2.41-.48s-.48-.36-.84-.24c-.24,0-.36.36-.6.24-.24-.24-.6-.6-.84-.24-.6,1.09-1.45,2.29-2.77,2.53-.24-.36.24-.72.36-1.09.36-.84.72-1.93.96-2.89.36-.48.84-1.21.48-1.93-.6-1.57-1.21-3.38-.72-5.18.36-2.17-.24-4.22-1.81-5.67-.84-.48-1.69-1.45-2.77-1.57-.72-.24-1.69,0-2.17-.6.12-.72.84-1.21,1.21-1.81l1.21-1.93c.48,0,.36.6.84.6.96,0,.96-1.69,1.93-1.09.48.6,1.21.84,1.69,1.45.6,2.65,1.69,5.3,3.5,7.35,1.45,1.81,3.62,3.13,5.79,2.53.6-.48,1.45-1.09,1.57-1.93.6-4.22-4.82-6.39-4.46-10.61.36-3.98,4.46-6.15,7.72-7.72,1.81-.96,3.98-2.17,4.22-4.46v-.6c1.09.24.96,1.09,1.09,1.69h0v.12Z"/>
    <path class="cls-14" d="M1180.42,45.28c.48,0,1.09-.6,1.33,0-.12.96-.12,2.17-.6,3.01-.48.48-1.21,0-1.69.36-.72.24-.84,1.93-1.69.84-.36,0-.6.24-.84.48-.36.84-.72,1.81-1.45,2.53-.12,0-.36.24-.48,0-.12-.6.36-1.69-.48-1.93-.36,0-.72.24-1.09.36-.72,0-1.69,0-2.05.6-.12.36-.12.84-.6.84-.48-.24-.96-.36-1.21-.84-.24,0-.48-.36-.72,0-.36.36-.48,1.09-1.09,1.09s-.84,0-1.33-.36c.12-1.09,1.33-1.21,2.05-1.69,1.45-.36,2.65-1.33,4.1-1.57,2.29-.84,4.22-2.65,6.03-4.46.24,0,.6-.24.84-.24.48.36.48.84.96.96h0Z"/>
    <path class="cls-14" d="M1168.97,49.62c-.48.24-1.09.48-1.57.24-.24-.24-.12-.84-.24-1.21.12-.36.6-.24.84,0,.36.36.96.48.96,1.09h0v-.12Z"/>
    <path class="cls-14" d="M1189.1,55.64c0,.72-.12,1.21-.48,1.81-.84.72-1.57,1.69-1.81,2.89,0,.84-.12,1.57-.12,2.29-.24.24-.48,0-.6-.24-.36-.6-.24-1.81-1.21-1.69-.48.6-1.09,1.45-.72,2.17.48.6,1.33,1.09.84,1.93-.72.36-.48,1.45-1.45,1.57-1.45.24-2.89-.48-3.98.6-.36.36-.6.84-.84,1.33-.6,0-.48-.84-.84-1.21-.24-.36-.72,0-1.09-.36-.48-.24-1.09-.72-1.69-.36-.48.24-1.09.96-1.69.48l-.84-.24c0-.24.24-.6,0-.96l-1.57-.84c-.12,0,0-.36.12-.48,1.33-.84,2.89,0,4.46,0,1.09-.36,2.05-.24,3.13,0,.6,0,1.33.24,1.69-.36.24-.36.36-.84.12-1.21-.48-1.09-1.93-1.21-2.17-2.53-.12-.24-.24-.48-.48-.6-.36,0-.6.24-.96,0-.12-.36-.24-.72-.6-.84-.72,0-1.57.36-2.17,0,.12-.36.6-.24.84-.48.96-.24,1.81-.84,2.77-1.33l1.33-.24c1.33-2.17,4.1-2.05,6.51-2.17l2.29-.72c.84.48,1.09,1.45,1.21,2.05h0v-.24Z"/>
    <path class="cls-14" d="M1174.15,63.24c-.48.24-.96,0-1.45,0-.24-.24-.36-.72-.36-1.09.72-.24,1.45.48,1.81,1.09h0Z"/>
    <path class="cls-14" d="M1195.13,70.83c0,.24-.24.24-.36.24-.16,0-.24-.08-.24-.24,0-.36.48,0,.6,0h0Z"/>
    <path d="M1188.98,31.89c.12.36-.12.6-.48.6-.6,0-1.09,0-1.45-.48-.48-.36-.24-.84-.12-1.33.24-.24.48-.24.72-.12.48.36.96.84,1.33,1.33h0Z"/>
    <path d="M1191.63,32.62c0,.36-.24.72-.48,1.09-.24.12-.48,0-.48-.24,0-.36,0-.84.36-1.09.24-.12.6,0,.6.24h0Z"/>
    <path d="M1188.62,35.99v.84c-.84.84-.84,2.29-2.05,2.77-.36,0-.6,0-.6-.48s-.12-1.21,0-1.69c.48-.24.6.72,1.09.24.24-.72.84-1.33,1.21-1.93.12,0,.36.12.36.24h0Z"/>
    <polygon points="1152.81 21.41 1224.42 21.41 1224.42 26.35 1152.81 26.35 1152.81 21.41"/>
    <polygon class="cls-2" points="1152.81 21.41 1224.42 21.41 1224.42 26.35 1152.81 26.35 1152.81 21.41"/>
    <polygon class="cls-14" points="1206.1 22.25 1214.17 22.25 1214.17 25.51 1206.1 25.51 1206.1 22.25"/>
    <polygon class="cls-14" points="1188.38 22.25 1196.45 22.25 1196.45 25.51 1188.38 25.51 1188.38 22.25"/>
    <polygon class="cls-14" points="1170.53 22.25 1178.73 22.25 1178.73 25.51 1170.53 25.51 1170.53 22.25"/>
    <polygon class="cls-14" points="1153.65 22.25 1161.01 22.25 1161.01 25.51 1153.65 25.51 1153.65 22.25"/>
    <path d="M1221.17,3.68c.6.72.24,1.81.36,2.65.6.48,2.05,0,2.17,1.21,0,.48-.24.84-.48,1.09-.48.48-1.21,0-1.57.48v4.7c.48.24.96.24,1.45.48.24.24.48.6.48.96s-.24.72-.72.84c-.36.24-1.09,0-1.21.48-.24.72,0,1.69,0,2.53-.48.24-1.21.24-1.81.24h-5.79c-.48.24-1.09.84-1.81.48-1.21-.72-2.89-.48-4.22-.6h-4.22c-.72-.72-.24-1.81-.48-2.65-.24-.48-1.09-.24-1.57-.48-.48-.24-.48-.72-.48-1.09s.48-.72.96-.84c.36-.24.96.12,1.09-.36v-4.34c0-.84-1.21-.36-1.69-.72-.48-.24-.48-.84-.36-1.33.36-.84,1.33-.6,2.05-.84v-.24l.24-2.53v-.24h6.75c.72,0,1.45.36,2.17.6,1.45-1.09,3.5-.48,5.18-.84,1.21.24,2.41,0,3.62.24h0l-.12.12Z"/>
    <path class="cls-2" d="M1221.17,3.68c.6.72.24,1.81.36,2.65.6.48,2.05,0,2.17,1.21,0,.48-.24.84-.48,1.09-.48.48-1.21,0-1.57.48v4.7c.48.24.96.24,1.45.48.24.24.48.6.48.96s-.24.72-.72.84c-.36.24-1.09,0-1.21.48-.24.72,0,1.69,0,2.53-.48.24-1.21.24-1.81.24h-5.79c-.48.24-1.09.84-1.81.48-1.21-.72-2.89-.48-4.22-.6h-4.22c-.72-.72-.24-1.81-.48-2.65-.24-.48-1.09-.24-1.57-.48-.48-.24-.48-.72-.48-1.09s.48-.72.96-.84c.36-.24.96.12,1.09-.36v-4.34c0-.84-1.21-.36-1.69-.72-.48-.24-.48-.84-.36-1.33.36-.84,1.33-.6,2.05-.84v-.24l.24-2.53v-.24h6.75c.72,0,1.45.36,2.17.6,1.45-1.09,3.5-.48,5.18-.84,1.21.24,2.41,0,3.62.24h0l-.12.12Z"/>
    <path d="M1197.3,3.56c.24,0,.6.24.84.36.24.96,0,1.69.24,2.53.6.24,1.57,0,1.93.84v1.21c-.48.6-1.57,0-1.93.72v4.58c.48.48,1.33.12,1.81.72.24.24.36.6.24.96-.36.6-1.21.6-1.93.72-.24.24,0,.72,0,.96-.24.6.36,1.45-.36,1.81-2.05.24-3.86-.12-5.91,0h-1.93c-.48.36-1.21.84-1.81.48l-1.21-.48h-4.22c-.96,0-2.29.36-3.01-.48,0-.72.12-1.57,0-2.29-.72-.24-1.93.12-2.29-.84-.12-.24,0-.72.12-.96.48-.72,1.81-.12,2.29-.72v-2.17c.12-.96,0-1.81,0-2.77-.72-.24-2.05.12-2.17-.96-.12-.6.24-1.09.72-1.21s1.21,0,1.45-.36v-2.29c.72-.96,2.17-.36,3.01-.48h4.46c.72,0,1.33.72,2.05.36,2.17-.84,5.18,0,7.84-.24,0,0-.24,0-.24,0Z"/>
    <path class="cls-2" d="M1197.3,3.56c.24,0,.6.24.84.36.24.96,0,1.69.24,2.53.6.24,1.57,0,1.93.84v1.21c-.48.6-1.57,0-1.93.72v4.58c.48.48,1.33.12,1.81.72.24.24.36.6.24.96-.36.6-1.21.6-1.93.72-.24.24,0,.72,0,.96-.24.6.36,1.45-.36,1.81-2.05.24-3.86-.12-5.91,0h-1.93c-.48.36-1.21.84-1.81.48l-1.21-.48h-4.22c-.96,0-2.29.36-3.01-.48,0-.72.12-1.57,0-2.29-.72-.24-1.93.12-2.29-.84-.12-.24,0-.72.12-.96.48-.72,1.81-.12,2.29-.72v-2.17c.12-.96,0-1.81,0-2.77-.72-.24-2.05.12-2.17-.96-.12-.6.24-1.09.72-1.21s1.21,0,1.45-.36v-2.29c.72-.96,2.17-.36,3.01-.48h4.46c.72,0,1.33.72,2.05.36,2.17-.84,5.18,0,7.84-.24,0,0-.24,0-.24,0ZM1164.5,4.05c2.41-.96,5.06-.24,7.72-.48.72,0,1.69-.36,2.17.36v2.29c.24.6,1.09.24,1.45.48.24,0,.48.24.6.6s0,.72-.12,1.09c-.48.48-1.09.36-1.69.48l-.24.24c.12,1.45-.24,2.65,0,3.98,0,.24-.12.72.24.84.72,0,1.33,0,1.81.48.24.36.24.72.12,1.21-.24,1.45-2.53-.24-2.29,1.45,0,.6.12,1.45-.12,2.05-2.65,0-5.3-.24-7.72,0-.48.36-.96.6-1.69.72-.48-.12-.96-.36-1.33-.72-2.41-.12-4.7-.12-6.99-.12-.72-.6-.24-1.69-.48-2.53-.36-.48-.96-.12-1.45-.36-.36,0-.48-.36-.6-.6,0-.48,0-.96.36-1.33.36-.24.96-.24,1.45-.24l.24-.24c0-1.57.24-3.13,0-4.82-.24-.36-.72,0-.96-.24-.48,0-.96-.36-1.09-.84,0-.36,0-.72.24-1.09.48-.6,1.45,0,1.93-.48l.24-2.29c.36-.72,1.21-.36,1.93-.36,1.21-.24,2.65,0,3.86,0s1.81.24,2.53.48h-.12Z"/>
    <path class="cls-14" d="M1164.14,4.65l.24.48c.12,3.26.12,6.51.12,10.01v1.21c-.96,0-1.81-.36-2.65-.24-.96-.12-1.93.12-2.77-.12-.48-1.09,0-2.29-.24-3.5v-7.96c0-2.53.24-.24.36-.36,1.69,0,3.5-.36,4.82.48h.12Z"/>
    <path class="cls-14" d="M1157.75,4.41c-.48.36-1.09.96-.84,1.57.24,4.1,0,7.72.24,11.57l.36.36c1.93,0,3.98-.24,5.79,0,.12,0,.12.24,0,.24-.48.24-1.09.12-1.57.12h-4.94c-.36-.36-.24-.96-.24-1.45s0-1.09-.36-1.33c-.72-.12-1.33,0-1.81-.48.36-.96,1.93-.24,2.17-1.21v-5.3c-.24-.96-1.21-.72-1.93-.84,0,0-.24-.24-.24-.48.6-.6,1.81,0,2.17-.72.24-.72,0-1.45,0-2.29h1.09v.24h.12Z"/>
    <path class="cls-14" d="M1171.38,4.41v11.45c-1.93.24-4.1-.12-6.03.36-.48-.36-.12-.96-.24-1.57-.12-1.21,0-2.65,0-3.98,0-1.93-.12-3.98,0-5.91.24-.6.96-.72,1.57-.72h4.58v.36h.12Z"/>
    <path class="cls-14" d="M1173.67,4.41c.12.72-.24,1.81.24,2.53.48.24,1.21,0,1.69.24.24.24.12.48,0,.72-.48.48-1.69,0-1.93.72,0,1.93-.12,3.74,0,5.67l.24.24c.6.12,1.45-.12,1.81.36,0,.24,0,.6-.24.72-.6.12-1.57-.24-1.93.48-.12.72.12,1.57-.12,2.29h-.36c0,.12-6.87,0-6.87,0-.12-.12,0-.24,0-.24l.72-.24h5.55c.6-.12.6-.84.6-1.33v-7.72c0-1.33.24-2.53-.12-3.86,0-.24-.48-.48-.48-.84.48,0,.96,0,1.21.24h0Z"/>
    <path class="cls-14" d="M1204.89,4.41c0,.36-.6.72-.72,1.09v12.42l.36.24c2.17,0,4.46-.48,6.27.48h0c-2.29.12-4.7.24-6.99.12l-.24-.24c0-.84,0-1.69-.24-2.53-.48-.48-2.05.12-1.69-.96.6-.48,1.45.12,1.81-.6v-5.79c-.48-.6-1.21-.24-1.81-.36-.24-.24-.36-.48,0-.72.6-.48,2.53,0,2.17-1.33.24-.6-.24-1.81.6-1.93h.48v.12Z"/>
    <path class="cls-14" d="M1220.8,4.41c.24.96-.24,1.81.36,2.65.48.24,1.45,0,1.69.48,0,1.21-1.69.24-2.05,1.21v5.3c-.24.12-.24.36,0,.48.48.48,1.21-.24,1.81.24.36.12,0,.36,0,.6-.48.6-1.45-.12-1.81.72v2.41h-.48c0,.12-6.51.12-6.51.12v-.24l.72-.24h4.94c.24,0,.6-.24.6-.6V5.61l-.6-1.21c.6-.24,1.33-.36,1.45,0h-.12Z"/>
    <path class="cls-14" d="M1205.61,5.98v10.49c0,.24-.48.48-.6.6h-.24V5.49c.24-.24.36-.6.6-.72.24.48.24.72.24,1.21h0Z"/>
    <path class="cls-14" d="M1219.84,5.49v11.45c-.84-.36-.48-1.21-.6-2.05V4.89c.24-.36.6.24.72.6h-.12Z"/>
    <path class="cls-14" d="M1172.7,5.25c0,3.98,0,7.84-.12,11.33-.12.24-.24,0-.48-.12-.24-.6,0-1.33,0-1.93-.12-3.13,0-6.39,0-9.52.24-.24.48,0,.6.24h0Z"/>
    <path class="cls-14" d="M1212.73,10.19c0,.24-.48.24-.72.12h-.24c0-.6,0-1.33.48-1.69.36.36.24,1.09.48,1.57h0Z"/>
    <path class="cls-14" d="M1172.22,17.19c-.12.24-.6.12-.84.24h-1.57c-1.21,0-2.53-.12-3.62.12-.24,0-.36-.24-.36-.48.12-.48.72-.24,1.09-.48h4.7c.12,0,.36.36.6.6h0Z"/>
    <path class="cls-14" d="M1164.02,16.95c0,.24-.24.48-.48.6-1.57-.48-3.26-.12-4.94-.36h0c0-.24.36-.48.72-.48,1.57,0,3.26,0,4.7.24h0Z"/>
    <path class="cls-14" d="M1211.64,17.19v.36c-.6.72-1.33-.12-2.05,0-1.21-.12-2.65,0-3.98-.12.36-1.09,1.81-.48,2.65-.6,1.21.12,2.41-.24,3.38.36h0Z"/>
    <path class="cls-14" d="M1218.88,16.95c.24.12.48.36.48.6-2.05.24-3.98-.24-5.79.24-.24,0-.36-.36-.24-.6.36-.48.96-.36,1.57-.48l3.98.24h0Z"/>
    <path class="cls-14" d="M1165.59,17.91c.12.36,0,.84-.24,1.09-.24.24-.6.24-.84.12-.24,0-.36-.36-.36-.6-.12-.48.48-.72.72-1.09.36,0,.6.24.72.48h0Z"/>
    <path class="cls-14" d="M1213.09,18.15c0,.48,0,1.09-.48,1.09s-.72-.12-.84-.48c0-.48.24-.96.48-1.09.48,0,.72.24.84.48h0Z"/>
    <path class="cls-14" d="M1195.37,4.53v11.45h-.24c-2.05.36-4.1-.24-6.03.48-.36-.24,0-.72-.12-1.09V5.25c0-.36.24-.6.48-.72.48-.36,1.21-.24,1.93-.36h3.86v.36h.12Z"/>
    <path class="cls-14" d="M1197.66,4.41v2.53c.6.48,2.29-.24,1.93,1.09-.48.36-1.21,0-1.81.24h-.24c-.24,2.05,0,4.1,0,5.79s0,.48.48.6c.48,0,1.33-.36,1.57.36,0,1.21-1.57.12-2.05.96,0,.84.24,1.69,0,2.53h-.24c-2.53.12-4.94.12-7.23,0v-.24l.48-.24c1.93-.24,4.1,0,6.15-.24.24,0,.48-.24.48-.6V5.49c0-.6-.72-.96-.72-1.45.36,0,.96,0,1.21.36h0Z"/>
    <path class="cls-14" d="M1181.5,4.29c-.12.48-.48.6-.72.96-.24.72,0,1.57-.12,2.41v9.77c0,.24.24.48.48.6h5.18c.24.12.6.24.84.48-.12.24-.48.24-.72.24-1.93,0-3.98.12-5.91-.12h-.24c0-.96,0-1.93-.36-2.65-.6-.24-1.33,0-1.93-.24-.24-.12-.24-.48,0-.72.6-.36,1.81.24,2.17-.72,0-1.93.12-3.74,0-5.67-.48-.72-1.69,0-2.17-.72.24-1.09,1.69,0,2.17-1.09v-2.29c.6-.36.96-.36,1.33-.24h0Z"/>
    <path class="cls-14" d="M1182.23,4.89c.12,3.38-.24,6.39,0,9.77-.24.72.36,1.93-.72,2.05-.24-3.38,0-6.99-.12-10.61-.12-.6.24-1.09.72-1.45v.24h.12Z"/>
    <path class="cls-14" d="M1196.69,5.49v11.21c-.24,0-.48-.24-.48-.36,0-1.45-.24-3.01,0-4.58v-6.75c.24,0,.6.24.6.48h-.12Z"/>
    <path class="cls-14" d="M1187.77,16.95c.24,0,.48.24.24.48l-.36.36c-1.69-.6-3.86-.24-5.67-.48.12-.24.24-.48.48-.72,1.81.24,3.62,0,5.3.36h0Z"/>
    <path class="cls-14" d="M1195.49,16.7c.24.12.48.36.48.6h-.24c-2.05.12-4.1,0-6.03.36-.24,0-.6,0-.72-.36.24-.48.72-.6,1.21-.6h5.3,0Z"/>
    <path class="cls-14" d="M1189.22,18.39c0,.36,0,.84-.48.84s-.84,0-.84-.48c.12-.36.36-.6.72-.84.36-.12.48.24.6.48h0Z"/>
    <path class="cls-14" d="M1188.25,12.24c.24-1.93,0-4.1.12-6.03,0-.6,0-1.21-.36-1.69-1.45-.6-3.26-.24-4.94-.36h-.24v11.69c1.33.24,2.41.12,3.62.12.6.12,1.21.24,1.81.36,0-1.33.12-2.29,0-3.62v-.6h0v.12Z"/>
    <path d="M1187.77,12.12c-.6-.48-.72-1.21-1.21-1.81.24-.24.48-.36.72-.6.36-.36.72-.96.6-1.45,0-.48-.24-.96-.72-1.21-.96-.36-2.29-.24-3.38,0-.24,0-.24.24-.12.48.36,0,.6.24.6.6,0,1.33,0,2.65-.24,3.98l-.48.6c.48.48,1.21.12,2.05.24.24-.36-.36-.6-.48-.96.12-.36,0-.96.24-1.21.72.6.96,1.69,1.81,2.29h1.09c0,.12,0-.48,0-.48,0,0-.36-.36-.48-.36h0v-.12ZM1186.33,9.71c-.36,0-.84.24-.96-.24,0-.6-.24-1.45,0-2.05.48-.36,1.09-.24,1.45.24.24.36.24.72.24,1.21-.24.36-.36.72-.72.84h0Z"/>
    <path class="cls-14" d="M1218.63,5.61c0-.48,0-.96-.24-1.33h-1.81c-1.21.24-2.65-.24-3.74.48-.48.6-.24,1.21-.36,1.93,0,.36.24.84.36,1.21l-.24.48-.6-.24-.24-.48c0-.24.24-.48.24-.84,0-.84.24-2.05-.84-2.41-1.57,0-3.01-.24-4.7-.24s-.24,0-.24,0v10.61c0,.48,0,.96.36,1.21,1.45-.24,2.65,0,3.98,0s.84.48,1.45.36v-4.94c0-1.69,0-.48-.24-.48v-.36h.84v.36h0v5.06c0,.12,0,.48.36.48,1.45-.84,3.38-.24,5.06-.48h.36c.24-.96,0-3.86,0-3.86v-6.63h.12l.12.12Z"/>
    <path d="M1212.97,11.04c.24.24.36.6.24.96l-.36.48.24.24c.6,0,1.33.12,1.93-.12,0-.24-.48-.36-.72-.6-.72-1.81-1.21-3.62-1.69-5.55l-.6.36c-.36,1.69-.96,3.13-1.45,4.82,0,.36-.48.36-.72.6-.36.12-.48-.24-.6-.48v-4.22c0-.24.24-.48.48-.24.36.24.36.72.48.96h.48l.24-1.45c-.24-.48-.6,0-.96,0-.72,0-1.69,0-2.41-.24-.6.24-.48.96-.48,1.57v.24c.48-.36.72-1.09,1.33-.96v4.58c-.24.24-.72.36-.6.72.84.24,1.81,0,2.65.12.48,0,.96.12,1.45,0v-.36c-.24-.12-.6-.36-.48-.72,0-.24.24-.72.6-.6l.24.12h.72v-.24ZM1211.88,10.44h-.24c0-.6,0-1.33.48-1.69.48.24.36.96.6,1.45,0,.24-.6.24-.84.24h0Z"/>
    <path d="M1217.43,7.06c0,.36.24.96,0,1.21-.36-.24-.36-.6-.96-.72-.24,0-.6,0-.6.36,0,1.09.96,1.09,1.57,1.69s.84,1.45.6,2.17c-.24.6-.48.84-1.09.84-.48.12-.84-.24-1.21,0,0,0-.24.12-.36,0v-1.93c0-.08.08-.12.24-.12.24.6,0,1.33.96,1.45.24,0,.48-.12.6-.48,0-1.69-2.17-1.33-2.17-3.13s0-.72.24-1.09c.36-.6,1.33-.24,1.93-.6,0,0,0,.24.24.36h0Z"/>
    <path d="M1193.08,6.94c-.48.24-.96.6-.84,1.33v3.62l.72.72h0c-.84.12-1.57.24-2.41.12-.36-.36.48-.6.6-.84,0-1.33.24-2.77,0-4.22-.24-.48-.96-.36-.84-.84h2.77v.12Z"/>
    <path d="M1169.45,7.9c-.48.6-.6-.48-1.09-.6h-.96c-.12.6-.24,1.21,0,1.81.24.12.6.12.84.12.24-.24.48-.72.84-.72.24.24-.12.6,0,.84-.12.36.24.84-.24.96-.24-.12-.48-.72-.84-.72h-.72c-.24.84-.12,1.69,0,2.53.36.36.84,0,1.33,0,.6-.12.48-.96.96-.96.12.36.24.84.12,1.21l-.24.24h-3.5c-.12,0-.48,0-.36-.24,1.09-.72.48-2.05.6-3.01-.12-.72.48-1.93-.6-2.41,0-.24.24-.24.36-.24.84,0,2.05.36,2.77-.36.72.24.72.96.72,1.45h0v.12Z"/>
    <path d="M1164.14,7.18c-.96.72-.96,2.17-1.45,3.26-.36.6-.24,1.57-.84,2.05-.24.12-.48,0-.48-.36-.36-1.45-.72-3.01-1.33-4.46,0-.36-1.09-.48-.48-.84h1.93c.12.48-.48.72-.36,1.21.48.6.24,1.57.84,2.29l.24-.24c0-1.09,1.33-2.17.24-3.13.24-.48.96,0,1.45-.24.12,0,.48.24.24.48h0Z"/>
    <path class="cls-14" d="M1158.24,4.89c.24,3.98,0,7.72,0,11.45s-.24.48-.48.48c-.24-1.21-.24-2.41,0-3.62v-7.72c0-2.53.36-.6.6-.6h-.12Z"/>
  </g>
</svg>