<?xml version="1.0" encoding="UTF-8"?><svg id="uuid-8a44f032-3f55-4f15-912b-0258dcb34567" xmlns="http://www.w3.org/2000/svg" xmlns:xlink="http://www.w3.org/1999/xlink" viewBox="0 0 1539.8 137.38"><defs><clipPath id="uuid-91b2ccb8-5665-40f6-9a4e-d8f7dd976fb1"><rect x="866.5" y="24.4" width="277.23" height="88.58" style="fill:none; stroke-width:0px;"/></clipPath></defs><path d="m595.43,109.28h-7.37s0,0,0,0h-17.34s-3.04-.02-3.04-.02h-14.31s0-.01,0-.01h-17.34s0-.01,0-.01h-11.24s2.57-4.44,2.57-4.44l3.96-6.85,3.96-6.85,3.96-6.85,3.32-5.74c3.4,4.37,8.29,9.86,14.61,14.93t0,0c3.66,2.94,7.81,5.74,12.41,8.1,4.58,2.34,9.24,4.06,13.74,5.31,0,0,0,0,.01,0,4.24,1.18,8.34,1.94,12.08,2.42Z" style="fill:#c32032; stroke:#fff; stroke-miterlimit:10; stroke-width:.58px;"/><path d="m601.5,93.55c-2.08-2.12-4.4-4.3-6.97-6.41-3.84-3.15-8.22-6.17-13.13-8.68-4.9-2.51-9.89-4.29-14.68-5.56-3.85-1.02-7.56-1.7-10.99-2.15-3.02-.4-5.81-.61-8.27-.72l4.56-7.88,5.88-10.16,9.85-17.02.29.51,5.57,9.66,13.98,24.26,1.57,2.73,4,6.95,4.7,8.15,3.65,6.33Z" style="fill:#c32032; stroke:#fff; stroke-miterlimit:10; stroke-width:.58px;"/><path d="m597.85,87.23l3.65,6.33c-2.08-2.12-4.4-4.3-6.97-6.41-3.84-3.15-8.22-6.17-13.13-8.68-4.9-2.51-9.89-4.29-14.68-5.56-3.85-1.02-7.56-1.7-10.99-2.15-1.52-2.74-2.76-5.62-3.71-8.6l5.88-10.16,9.85-17.02.29.51,5.57,9.66,13.98,24.26,1.57,2.73,4,6.95,4.7,8.15Z" style="fill:none; stroke:#fff; stroke-miterlimit:10; stroke-width:.63px;"/><path d="m597.85,87.23c-1.11.02-2.22,0-3.33-.08-3.84-3.15-8.22-6.17-13.13-8.68-4.9-2.51-9.89-4.29-14.68-5.56-4.95-5.99-7.99-13.29-8.82-20.91l9.85-17.02.29.51,5.57,9.66,13.98,24.26,1.57,2.73,4,6.95,4.7,8.15Z" style="fill:none; stroke:#fff; stroke-miterlimit:10; stroke-width:.63px;"/><path d="m593.16,79.08c-3.89-.5-7.75-1.73-11.39-3.76-14.21-7.93-19.91-25.19-13.73-39.84l5.57,9.66,13.98,24.26,1.57,2.73,4,6.95Z" style="fill:none; stroke:#fff; stroke-miterlimit:10; stroke-width:.63px;"/><path d="m587.58,69.41c-.67-.29-1.32-.62-1.97-.98-8.57-4.78-13.01-14.1-12.01-23.28l13.98,24.26Z" style="fill:none; stroke:#fff; stroke-miterlimit:10; stroke-width:.63px;"/><polyline points="539.24 84.25 557.17 93.44 557.18 93.44" style="fill:none; stroke:#fff; stroke-linecap:round; stroke-miterlimit:10; stroke-width:.87px;"/><polyline points="583.34 106.85 583.35 106.86 588.06 109.27 588.06 109.27" style="fill:none; stroke:#fff; stroke-linecap:round; stroke-miterlimit:10; stroke-width:.87px;"/><line x1="570.72" y1="109.26" x2="535.28" y2="91.09" style="fill:none; stroke:#fff; stroke-linecap:round; stroke-miterlimit:10; stroke-width:.87px;"/><polyline points="531.32 97.94 553.37 109.24 553.37 109.24" style="fill:none; stroke:#fff; stroke-linecap:round; stroke-miterlimit:10; stroke-width:.87px;"/><polyline points="527.36 104.79 536.03 109.23 536.03 109.23" style="fill:none; stroke:#fff; stroke-linecap:round; stroke-miterlimit:10; stroke-width:.87px;"/><text transform="translate(606.32 92.92)" style="fill:#fff; font-family:Avenir-Light, Avenir; font-size:80.24px; font-weight:300; letter-spacing:.19em;"><tspan x="0" y="0">CITE</tspan></text><text transform="translate(615.06 109.31)" style="fill:#fff; font-family:Avenir-Light, Avenir; font-size:11px; font-weight:300;"><tspan x="0" y="0">Co</tspan><tspan x="14.28" y="0" style="letter-spacing:-.02em;">r</tspan><tspan x="17.75" y="0">e for Imaging </tspan><tspan x="86.06" y="0" style="letter-spacing:-.11em;">T</tspan><tspan x="91.16" y="0">echnology &amp; Educa</tspan><tspan x="186.17" y="0" style="letter-spacing:0em;">t</tspan><tspan x="189.85" y="0">ion </tspan></text><path d="m1380.93,39.06c-.74-1.6-1.85-2.83-3.82-3.33v-.86c1.23,0,5.17.12,6.16.12.86,0,4.44-.12,5.67-.12v.99c-1.11.25-2.34.86-2.34,1.97,0,.86.49,1.85,1.48,3.94l8.87,20.08,8.38-20.08c.62-1.6,1.11-2.83,1.11-3.82,0-1.11-.99-1.85-2.34-2.09v-.99c1.11,0,3.82.12,4.68.12.74,0,3.94-.12,5.17-.12v.99c-2.09.62-3.33,1.72-4.56,4.44l-12.32,28.95h-2.59l-13.55-30.18h0Z" style="stroke-width:0px;"/><path d="m1261.92,68.01c1.6-.37,2.71-1.11,2.71-2.96v-26.37c0-1.72-1.11-2.46-2.71-2.96v-.99c.86,0,4.44.12,5.3.12.99,0,4.8-.12,5.67-.12v.99c-1.6.37-2.83,1.11-2.83,2.96v11.09h19.71v-11.09c0-1.85-.99-2.59-2.71-2.96v-.99c.86,0,4.56.12,5.67.12.86,0,4.56-.12,5.42-.12v.99c-1.6.37-2.83,1.11-2.83,2.96v26.49c0,1.72,1.11,2.46,2.83,2.96v.86c-.86,0-4.56-.12-5.42-.12-.99,0-4.8.12-5.67.12v-.86c1.6-.37,2.71-1.11,2.71-2.96v-12.57h-19.71v12.57c0,1.85,1.11,2.46,2.83,2.96v.86c-.86,0-4.68-.12-5.67-.12-.86,0-4.56.12-5.3.12v-.99h0Zm41.64,0c2.09-.49,3.33-1.85,4.19-3.82l10.96-26.24c.49-1.11.99-3.33.99-3.33h3.08s.49,2.22.99,3.33l11.58,26.37c.86,1.85,1.72,3.08,4.07,3.7v.86c-1.23,0-5.17-.12-6.04-.12s-4.56.12-5.79.12v-.86c1.72-.37,2.22-1.23,2.22-2.09,0-.74-.25-1.48-.62-2.34l-2.46-5.54h-12.81l-2.22,5.67c-.25.62-.62,1.6-.62,2.22,0,.99.49,1.72,2.46,2.22v.86c-1.11,0-4.07-.12-4.8-.12l-4.93.12-.25-.99h0Zm21.81-12.69l-5.42-12.69-5.05,12.69h10.47Zm-21.81,12.69c2.09-.49,3.33-1.85,4.19-3.82l10.96-26.24c.49-1.11.99-3.33.99-3.33h3.08s.49,2.22.99,3.33l11.58,26.37c.86,1.85,1.72,3.08,4.07,3.7v.86c-1.23,0-5.17-.12-6.04-.12s-4.56.12-5.79.12v-.86c1.72-.37,2.22-1.23,2.22-2.09,0-.74-.25-1.48-.62-2.34l-2.46-5.54h-12.81l-2.22,5.67c-.25.62-.62,1.6-.62,2.22,0,.99.49,1.72,2.46,2.22v.86c-1.11,0-4.07-.12-4.8-.12l-4.93.12-.25-.99h0Zm21.81-12.69l-5.42-12.69-5.05,12.69h10.47Zm86.49,12.69c2.09-.49,3.33-1.85,4.07-3.82l10.96-26.24c.49-1.11.99-3.33.99-3.33h3.08s.49,2.22.99,3.33l11.58,26.37c.86,1.85,1.72,3.08,4.07,3.7v.86c-1.23,0-5.17-.12-6.04-.12s-4.56.12-5.79.12v-.86c1.72-.37,2.22-1.23,2.22-2.09,0-.74-.25-1.48-.62-2.34l-2.46-5.54h-12.81l-2.22,5.67c-.25.62-.62,1.6-.62,2.22,0,.99.49,1.72,2.34,2.22v.86c-1.11,0-4.07-.12-4.68-.12l-5.05.12v-.99h0Zm21.68-12.69l-5.42-12.69-5.05,12.69h10.47Zm57.17,12.69c2.09-.37,3.2-1.23,3.2-3.08v-26.24c0-1.85-1.11-2.59-3.08-2.96v-.99c1.11,0,4.93.12,5.91.12,1.72,0,6.41-.37,9.98-.37,12.2,0,19.47,6.78,19.47,17.12s-7.64,17.49-20.2,17.49c-3.57,0-8.01-.25-9.61-.25-.99,0-4.56.12-5.67.12v-.99h0Zm8.75-1.72c1.23.25,3.57.37,5.3.37,10.23,0,15.52-6.16,15.52-14.66s-5.54-15.15-15.15-15.15c-1.97,0-4.44.12-5.67.37v29.08h0Z" style="stroke-width:0px;"/><path d="m1352.97,64.93c0,1.72,1.11,2.71,3.2,3.2v.99c-1.11,0-4.8-.12-5.91-.12-.86,0-4.56.12-5.67.12v-.99c1.85-.37,3.08-1.36,3.08-3.2v-26.24c0-1.6-.86-2.59-3.08-2.96v-.99c1.11,0,4.68.12,5.79.12,1.72,0,6.41-.25,8.25-.25,8.13,0,12.69,3.33,12.69,9.12,0,4.56-3.45,7.64-8.62,8.87,0,0,1.23.74,2.34,2.09,1.48,1.72,5.54,7.39,7.15,9.36,1.6,1.97,3.7,4.19,5.91,4.31v.74c-1.11.25-2.71.37-4.07.37-2.83,0-5.05-.99-7.15-3.57-1.85-2.22-5.17-7.02-7.15-9.49-1.23-1.48-2.59-2.71-5.3-3.08-.49-.12-.99-.12-1.6-.25v11.83h.12Zm0-13.92c1.11.12,2.71.25,4.31.25,6.41,0,8.38-3.7,8.38-6.9,0-4.56-3.08-7.52-8.62-7.52-1.11,0-2.83.12-3.94.37v13.8h-.12Z" style="stroke-width:0px;"/><path d="m1460.64,64.93c0,1.72,1.11,2.71,3.2,3.2v.99c-1.11,0-4.8-.12-5.91-.12-.86,0-4.56.12-5.67.12v-.99c1.85-.37,3.08-1.36,3.08-3.2v-26.24c0-1.6-.86-2.59-2.96-2.96v-.99c1.11,0,4.68.12,5.79.12,1.72,0,6.41-.25,8.25-.25,8.13,0,12.69,3.33,12.69,9.12,0,4.56-3.45,7.64-8.62,8.87,0,0,1.23.74,2.34,2.09,1.48,1.72,5.42,7.39,7.02,9.36,1.6,1.97,3.7,4.19,5.91,4.31v.74c-1.11.25-2.71.37-4.07.37-2.83,0-5.05-.99-7.15-3.57-1.85-2.22-5.05-7.02-6.9-9.49-1.23-1.48-2.59-2.71-5.3-3.08-.49-.12-.99-.12-1.6-.25v11.83h-.12Zm0-13.92c1.11.12,2.71.25,4.31.25,6.41,0,8.38-3.7,8.38-6.9,0-4.56-3.08-7.52-8.62-7.52-1.11,0-2.83.12-3.94.37v13.8h-.12Z" style="stroke-width:0px;"/><path d="m1406.93,98.32h.49c.25.99.86,1.85,1.6,2.46.86.62,2.09.86,3.2.86,2.34,0,3.82-1.11,3.82-2.96s-1.85-2.71-4.07-3.82c-1.72-.86-5.05-2.09-5.05-5.42,0-2.96,2.34-4.93,5.91-4.93,2.34,0,3.57.62,5.17.49v3.57h-.62c-.62-2.09-2.59-2.83-4.68-2.83-2.34,0-3.33,1.36-3.33,2.71,0,1.97,2.22,3.08,4.19,4.07,2.46,1.11,5.05,2.34,5.05,5.42s-2.22,4.93-6.41,4.93c-2.46,0-3.94-.62-5.3-.86v-3.7h0Z" style="fill:#c31230; stroke-width:0px;"/><path d="m1444.13,102.01c.86-.25,1.36-.62,1.36-1.48v-13.68c0-.86-.49-1.23-1.36-1.48v-.49c.37,0,2.34.12,2.83.12s2.46-.12,2.96-.12v.49c-.86.25-1.48.62-1.48,1.48v5.67h10.1v-5.67c0-.99-.49-1.36-1.36-1.48v-.49c.49,0,2.34.12,2.96.12.49,0,2.34-.12,2.83-.12v.49c-.86.25-1.48.62-1.48,1.48v13.68c0,.86.62,1.23,1.48,1.48v.49h-5.79v-.49c.86-.25,1.36-.62,1.36-1.48v-6.53h-10.1v6.41c0,.99.62,1.23,1.48,1.48v.49h-5.79v-.37h0Z" style="fill:#c31230; stroke-width:0px;"/><path d="m1439.21,98.07l-.25,3.94c-1.36-.12-3.2.86-6.28.86-6.53,0-9.49-3.94-9.49-9.12s3.82-9.24,9.36-9.24c2.71,0,4.44.99,6.16.86l.12,3.94h-.49c-.99-2.34-3.33-3.45-5.79-3.45-4.07,0-6.28,3.57-6.28,7.88,0,3.57,1.72,7.88,6.65,7.88,2.71,0,4.8-.99,5.67-3.57h.62Z" style="fill:#c31230; stroke-width:0px;"/><path d="m1467.3,93.76c0-5.05,3.57-9.24,9.12-9.24s9.12,4.19,9.12,9.24-3.57,9.12-9.12,9.12-9.12-4.07-9.12-9.12h0Zm15.03,0c0-4.07-1.85-8.01-5.91-8.01s-6.04,3.82-6.04,8.01,1.85,7.88,6.04,7.88,5.91-3.82,5.91-7.88h0Z" style="fill:#c31230; stroke-width:0px;"/><path d="m1489.47,93.76c0-5.05,3.57-9.24,9.12-9.24s9.12,4.19,9.12,9.24-3.57,9.12-9.12,9.12-9.12-4.07-9.12-9.12h0Zm15.03,0c0-4.07-1.85-8.01-5.91-8.01s-6.04,3.82-6.04,8.01,1.85,7.88,6.04,7.88,5.91-3.82,5.91-7.88h0Z" style="fill:#c31230; stroke-width:0px;"/><path d="m1289.52,84.89h11.09c.37,0,.99,0,1.23-.25h.49l-.12,3.57h-.49c-.37-1.11-.99-1.97-3.2-1.97h-4.68v6.41h3.82c.49,0,1.23,0,1.48-.12.86-.12,1.23-.62,1.36-1.36h.49v4.31h-.49c-.25-.74-.62-1.23-1.36-1.48-.25-.12-.99-.12-1.48-.12h-3.82v7.15h5.3c2.22,0,2.96-.99,3.45-2.34l.49.12-.49,3.7c-1.72-.12-2.71-.12-4.56-.12h-5.67c-.49,0-2.46.12-3.08.12v-.49c.99-.25,1.6-.62,1.6-1.6v-13.55c0-.86-.49-1.36-1.6-1.6v-.37h.25Z" style="fill:#c31230; stroke-width:0px;"/><path d="m1331.9,86.98c0-.86-.49-1.36-1.6-1.6v-.49c.62,0,2.59.12,3.08.12s2.46-.12,3.08-.12v.49c-1.11.25-1.6.62-1.6,1.6v13.43c0,.86.49,1.36,1.6,1.6v.49c-.62,0-2.46-.12-3.08-.12-.49,0-2.46.12-3.08.12v-.49c1.11-.25,1.6-.62,1.6-1.6v-13.43h0Z" style="fill:#c31230; stroke-width:0px;"/><path d="m1359.13,102.01c1.11-.25,1.72-.99,2.09-1.97l5.67-13.55c.25-.62.49-1.72.49-1.72h1.6s.25,1.11.49,1.72l5.91,13.55c.37.99.86,1.6,2.09,1.97v.49h-6.04v-.49c.86-.25,1.11-.62,1.11-1.11,0-.37-.12-.74-.37-1.23l-1.23-2.83h-6.53l-1.11,2.96c-.12.37-.25.86-.25,1.11,0,.49.25.86,1.23,1.11v.49h-5.05l-.12-.49h0Zm11.33-6.65l-2.83-6.53-2.59,6.53h5.42Z" style="fill:#c31230; stroke-width:0px;"/><path d="m1356.78,98.07l-.25,3.94c-1.36-.12-3.2.86-6.28.86-6.53,0-9.49-3.94-9.49-9.12s3.82-9.24,9.36-9.24c2.71,0,4.44.99,6.16.86l.12,3.94h-.49c-.99-2.34-3.33-3.45-5.79-3.45-4.07,0-6.28,3.57-6.28,7.88,0,3.57,1.72,7.88,6.65,7.88,2.71,0,4.8-.99,5.67-3.57h.62Z" style="fill:#c31230; stroke-width:0px;"/><path d="m1394.24,98.81c-.62,1.36-1.23,2.34-3.45,2.34h-5.42v-14.17c0-.99.49-1.36,1.6-1.6v-.49c-.62,0-2.59.12-3.08.12s-2.46-.12-3.08-.12v.49c1.11.25,1.6.74,1.6,1.6v13.43c0,.99-.49,1.48-1.6,1.6v.49c.62,0,2.59-.12,3.08-.12h5.67c1.85,0,2.96,0,4.56.12l.49-3.7h-.37Z" style="fill:#c31230; stroke-width:0px;"/><path d="m1525.08,98.81c-.62,1.36-1.23,2.34-3.45,2.34h-5.3v-14.17c0-.99.49-1.36,1.6-1.6v-.49c-.62,0-2.59.12-3.08.12s-2.46-.12-3.08-.12v.49c1.11.25,1.6.74,1.6,1.6v13.43c0,.99-.49,1.48-1.6,1.6v.49c.62,0,2.59-.12,3.08-.12h5.67c1.85,0,2.96,0,4.56.12l.49-3.7h-.49Z" style="fill:#c31230; stroke-width:0px;"/><path d="m1308,102.01c1.11-.25,1.6-.62,1.6-1.6v-13.55c0-.99-.62-1.36-1.6-1.48v-.49c.62,0,2.59.12,3.08.12.86,0,3.2-.25,5.05-.25,6.28,0,10.1,3.45,10.1,8.87s-3.94,8.99-10.35,8.99c-1.85,0-3.94-.12-4.8-.12-.49,0-2.34.12-2.96.12v-.62h-.12Zm4.44-.86c.62.12,1.72.12,2.59.12,5.3,0,8.01-2.96,8.01-7.64s-2.83-7.76-7.76-7.76c-.99,0-2.09.12-2.83.25v15.03h0Z" style="fill:#c31230; stroke-width:0px;"/><path d="m1282.99,100.04l-.86-13.06c-.12-.86.37-1.36,1.36-1.6v-.49h-4.19l-5.79,13.55-5.79-13.55h-4.44v.49c.99.12,1.48.74,1.48,1.6l-.99,13.06c-.12.99-.62,1.72-1.72,2.09v.49h4.93v-.49c-1.23-.37-1.48-.99-1.48-1.85l.74-11.58,6.04,13.92h.99l6.04-13.92.74,11.7c0,.74-.25,1.48-1.48,1.85v.49h6.16v-.49c-1.11-.49-1.6-1.11-1.72-2.22h0Z" style="fill:#c31230; stroke-width:0px;"/><path d="m1208.45,24.4h-36.71l-.12,29.32c0,35.97,36.1,58.89,36.47,59.14l.12.12c.12,0,.37-.12.37-.12,6.16-4.07,36.71-25.75,36.71-58.89v-29.45c-.12-.12-36.84-.12-36.84-.12h0Zm36.59,26h-72.69v-4.19h72.69v4.19h0Z" style="fill:#c31230; stroke-width:0px;"/><path d="m1184.06,27.97c2.46-.99,5.17-.25,7.88-.49.74.12,1.72-.37,2.22.37v2.34c.25.62,1.11.25,1.48.49.25.12.49.25.62.62s0,.74-.12,1.11c-.49.49-1.11.37-1.85.49l-.25.25c.12,1.48-.25,2.71,0,4.07,0,.25-.12.74.25.86.74,0,1.36,0,1.85.49.25.37.25.74.12,1.23-.25,1.48-2.59-.25-2.34,1.48,0,.62.12,1.48-.12,2.09-2.71,0-5.42-.25-7.88,0-.49.37-.99.62-1.72.74-.49-.12-.99-.37-1.36-.74-2.46-.12-4.8-.12-7.15-.12-.74-.62-.25-1.72-.49-2.59-.37-.49-.99-.12-1.48-.37-.37,0-.49-.37-.62-.62,0-.49,0-.99.37-1.36.37-.25.99-.25,1.48-.25l.25-.25c-.12-1.6.25-3.2-.12-4.93-.25-.37-.74,0-.99-.25-.37-.12-.86-.37-.99-.86-.12-.37-.12-.74.25-1.11.49-.62,1.48.12,1.97-.49l.25-2.34c.37-.74,1.23-.37,1.97-.37,1.23-.25,2.71,0,3.94,0,.99,0,1.85.25,2.59.49h0Z" style="stroke-width:0px;"/><path d="m1187.38,53.72l-.12.49c0,.25-.25.49-.49.37l-.99-.12c-.37-.12-.74-.25-1.11-.12-.12.12-.37.25-.62.49.12,0,.12.12.12.12.25.12.74.25.86.86,0,.49.25.86.49,1.11l.12.25c.12.12.12.25.12.37s0,.12-.12.25l-.49.62-.25.25s-.25.62-.37.86c.12.25.25.37.37.37.49-.12.86,0,1.23,0l.74.12h.37c.25,0,.74-.12,1.11.12,0,0,.37.62.37.74.12.25.12.37.12.62s0,.49-.12.74l-.12.37c0,.12,0,.25-.12.25-.62.99-1.48,1.72-2.59,2.22h.12v.12h0c.12.12.49.12.86,0h.25c.49,0,.86-.12,1.36-.37l1.36-.37c.25-.12.37.12.49.25.25.49.62.86.86,1.11l.25-.25c.25-.25.74-.62,1.36-.37,0,0,.12,0,.12.12.49.37.62.86.74,1.23.12.25.12.62.37.74.12.12.12.25.12.25v.12c0,.49-.49.74-.62.74h-.12l-.12.12-1.11.25c-.37,0-.74.12-.99.25,0,0,0,.12.12.12.49.25,1.23.37,1.97.49l.37.12h2.34c.25,0,.25.12.37.25.12.12,0,.37-.12.49l-.25.37-.12.12-2.34,1.6c-.12,0-1.36.49-1.36.49l-1.85.74h-.12c-1.11.25-1.72-.37-2.34-.74-.37-.37-.74-.62-1.23-.62-.37,0-.74.12-.99.37-.12.12-.12.25-.12.49v.25h.12c.25.12.74.25.74.86,0,.86-.37,1.48-.74,2.09-.25.49-.62,1.11-.62,1.6v.12c0,.12,0,.25.12.25h.25l.12-.25c.12-.25.37-.62.86-.74h.12c.99.12,1.48,0,1.85-.37.12-.12.25-.12.25-.12.25,0,.62,0,.86.25.25.25.37.49.37.74v.25c.62-.12.99-.62,1.48-1.36l.25-.37c.12-.12.25-.25.37-.25l.37-.12c.49-.12.99-.37,1.6,0,.12.12.25.25.25.37v.37c0,.49-.25.86-.37,1.23,0,0-.12.25-.12.49.86-.25,1.6-.99,2.22-1.85l.37-.49c.12-.25.37-.86,1.11-.86h.12c.37.12.49,0,.86-.62l.74-.74q.12-.12.37-.12h.25c.12,0,.25,0,.37.12q.12.12.12.25v.74h0c.12,0,.49-.25.74-.25l.99-.62c.12-.12.25-.12.49,0l3.7.99c.74.25.86.74.86,1.23v.74q0,.12.12.25c.12.12.12.25.12.37v.25c-.12.37-.49.74-1.48.74l-1.85.12c-1.48,0-2.96,0-4.07.99l-.99.99c-.12.12-.25.12-.37.12-.74,0-1.23.37-1.85.74-.49.37-1.11.74-1.85.86-.49.25-1.11.25-1.6.25s-.74,0-.86.12c.49.62,1.36.86,2.22,1.11.12,0,.49.12.49.12.37,0,.99,0,1.23.62v.25c0,.49.12.74.37.74h.12c.12-.12.62-.37,1.23,0,.12.12.86.86.86.86l.99.99c.12.12.12.37,0,.49-.37.74-1.23.62-1.72.62h-.86c-.74.12-1.85.37-2.59-.62l.12.12-1.11-.37c-.62-.49-1.11-.99-1.85-.99-.74.25-1.11.49-1.11.86h0l.12.25.37.37c.12.12.12.25.12.25v.12c0,.12-.12.25-.25.37-.62.37-1.36.99-1.36,1.72v.37c.12,0,.25-.12.25-.12.25-.12.74-.25,1.23,0,.12.12.25.25.25.37v.62c0,.62.12.86.25,1.11.12,0,.25-.12.25-.12.37-.25,1.11-.49,1.85,0,.12,0,.37,0,.74-.25l.74-.37h.12c1.23,0,1.85,1.11,2.09,1.85h0c.62.49,1.11.74,1.48.62v-.62c0-.12-.12-.37-.12-.62,0-.49.12-.99.86-1.23.12,0,1.23-.12,1.23-.12h.86c1.11.12,1.97.12,2.34-.62,0,0,.86-1.36.99-1.6,0-.12.12-.86.12-.86,0-.25.12-.37.37-.37.37-.12.86,0,1.11.12,0,0,.12,0,.25.12-.25-.62-.37-1.23-.37-1.85,0-.37,0-.62.12-.99.25-.86.62-1.6,1.11-2.22.12-.12.37-.25.62-.12l.25.12c.12.12.25.25.37.37l.25,1.23c.12.74.25,1.48.62,2.22,0,.12.12.12,0,.25l-.49,1.72-.37,1.36c-.37,1.36-1.23,2.34-2.46,2.96v.12h.99c1.36-.12,2.59-.86,3.57-1.85.12-.12.37-.25.49-.12.25.12.49,0,.86-.25s1.11-.62,1.85-.12c.25.25.74.25,1.23.12.74,0,1.97-.12,2.22,1.23v.86c.12.62.25,1.85-1.11,2.22h-.25l-1.36-.49c-1.11-.49-1.6-.62-2.09,0-.12.12-.25.37-.25.49.12.37.62,1.11,0,1.72l.12-.12-.12.12c-.37.62-.62.99-.37,1.48,0,0,.12.12.49,0,.49-.25,1.11,0,1.6.12l.62.25c.12,0,.25.12.25.12l.25.12c.49.37.86.62,1.36.74v-.12l.25-.62c.12-.12.86-.49.86-.49.49-.25.62-.25.62-.49.12-.86.74-1.72,1.6-2.22.12,0,.25-.12.37-.12.25,0,.86-.25,1.11-.49v-.12l-.25-.25c-.12-.12-.12-.25-.25-.25v-.37c0-.62.37-1.11.62-1.6.25-.37.37-.74.37-.99,0-.12,0-.25-.12-.49,0-.12-.12-.12-.12-.12l-.12-.86c-.12-.62-.12-.99-.49-1.36l-.99-.49-.37-.37c-.25-.12-.25-.25-.25-.49,0-.49.25-.74.86-.86h.12c.62-.25,1.23,0,1.72.25.49.12.62.12.74.12-.12-.37-.49-.74-.74-1.11-.62-.37-1.36-.62-2.09-.74-1.23-.25-2.46-.62-3.2-1.72-.12-.12-.12-.25-.12-.37s0-.25.12-.37l.12-.12c.12-.12.37-.12.49-.12,1.48.37,2.96,0,3.94-.86.62-.74,1.36-1.72,2.46-2.09.86-.62.99-1.72.99-3.08,0-.74.37-1.23.86-1.72l1.11-.49c.37-.12.49-.12.49-.25-.62-.25-1.36-.62-1.97-.49-.12,0-.25,0-.37-.12-.37-.12-.37-.37-.49-.62v-.12c0-.37.25-.62.49-.74l.12-.12.12-.12,1.11-.62c1.48-.86,2.46-1.36,2.46-2.59h0v-.12c-.12.12-.37.12-.49.37l-.99.49c-.74.37-1.6.62-2.34.74-.86.12-1.6.37-2.22.74-.12,0-.12.12-.25.12-.25,0-.62-.12-.62-.49v-.37c0-.25.12-.49.25-.62.25-.37.62-.62.99-.74.49-.25.74-.37.86-.74l.12-.37c.25-.62.49-1.48,1.36-1.85.12,0,.74-.37.74-.37.12,0,.25-.12.25-.12l-.12-.12c-1.23-.37-2.46.62-3.2,1.23l-.12.12-.62.12c-.86.37-1.72.74-2.22,1.36,0,.12-.12.12-.25.12-.25.12-.49,0-.74-.12-.25-.12-.37-.37-.37-.62-.25-1.97,1.36-3.45,2.59-4.56l.25-.25.25-.12.74-.37c.62-.37,1.36-.86,2.34-.37.74.37,1.36.62,1.97.49.37-.12.62-.49.99-.99.25-.37.62-.86,1.11-1.23.49-.25.99,0,1.36,0,.12,0,.49.12.49.12l.12-.12v-.12c0-.37-.25-.74-.62-1.23l-.49-.62q-.12-.12-.12-.25v-.25c.12-.37.25-.74.25-1.23,0-.99-.37-1.85-1.11-2.46-.25-.12-.74-.37-1.23-.37,0,.12.12.25.12.25l.49.99v.37c0,2.22-1.85,3.2-3.45,3.94l-1.36.74c-3.08,1.6-7.15,4.07-7.39,8.13,0,2.09.86,4.07,2.59,5.79,0,0,0,.12.12.12l.62.86c.62.99,1.36,1.97,1.36,3.33,0,.25,0,.62-.12.99-.49,1.23-1.97,1.23-2.46,1.23-3.08-.25-4.68-3.33-5.91-5.54l-.25-.37-.25-.49c-.37-.74-.74-1.48-.74-2.34,0-.12,0-.37.12-.37.12-.12.49-.49,1.11-.12.12,0,.62.86.62.86.12.12.12.25.12.37,0-.12.12-.25.12-.49,0-.49-.25-1.11-.49-1.72l-.12-.12c-.12-.25-.49-.62-.86-.86-.49-.37-.99-.86-1.23-1.48v-.25c0-.74.62-.86.86-.99h.12c-.25-.74-.37-1.6-.37-2.46,0-.37,0-.86.12-1.23h0l.74-.74q.25-.12.25-.25c-.25-.86-.25-1.85-.25-2.71v-1.11c0-.12.25-.86.25-.86.12-.37.25-.62.25-.86v-.25c-.49-.25-.62-.86-.62-1.11v-.25h.12c-1.23,0-2.34-.49-3.33-.99l-.99-.49c-.25-.12-.49,0-.86.25l-.62.25-.62.12c-.62.12-1.23.25-1.6.62-.25.25-.25.62-.25,1.11v.49c-.12.37-.37.49-.49.49-.37.12-.62,0-.86-.12h-.12c-.99-.49-1.36-1.48-1.11-2.46,0-.12-.12-.37-.12-.37-.25-.12-.74-.25-1.11-.12-.25.12-.49.37-.62.99,0,0-.12.12-.12.25v.12c0,.37.12.74.25.86.37.37.99.74,1.72,1.11l1.6.86q.12.12.12.25c0,.12.12.37.12.49,0,.62-.25.99-.49,1.36h0c.12.12.49.37.49.86v.25c0,.25-.25.37-.37.37-.99.25-1.85,0-2.59-.49l-.49-.62c-.12-.25-.25-.37-.37-.37,0,0-.12.25-.12.37l-.25.49c0-.12,0,.37,0,.37,0,.37-.12.86-.49,1.23-.12.12-.25.12-.37.12h-.49c-1.97-.62-3.7-1.6-5.67-3.08-.86-.62-1.48-1.48-2.09-2.34l-.49-.62-.12-.12-.12-.62c-.37-1.23-.62-1.97-1.48-2.22-.25-.25-.37-.25-.37-.25h0Zm1.23,7.15h0Zm-3.82-.86h.25-.25Zm17.74.74q.12-.12.12-.25h0s-.12.12-.12.25h0Zm9.49,6.53s.12,0,0,0q.12,0,0,0c.12,0,0,0,0,0h0Zm-11.7,8.13h0Zm.12.12s0-.12,0,0q0-.12,0,0h0Zm-10.47,3.08h0Zm17.49,10.47v.12-.12h0Zm.62,5.17h.12-.12Z" style="fill:#fff; stroke-width:0px;"/><path d="m1172.11,53.72v-29.32h73.3v29.45c0,37.08-36.96,58.89-36.96,58.89,0,0-36.34-22.79-36.34-59.01h0Z" style="fill:none; stroke:#000; stroke-width:1.07px;"/><path d="m1223.23,96.47h0c-.25-.25-.49-.62-.62-.74-.25-1.36,1.72-2.22.74-3.57-.25-.86,0-1.85-.86-2.46-.62-.49-1.36-.62-1.97-.99,0-.37.49-.25.62-.37,1.11-.25,1.97.99,2.83,0,.12-.74-.62-1.36-1.11-1.85-1.6-1.11-3.94-.62-5.17-2.34l.12-.12c1.48.37,3.2,0,4.31-.99.62-.86,1.36-1.72,2.34-1.97,1.11-.86,1.23-2.22,1.23-3.45,0-.49.25-.99.62-1.36.62-.49,2.09-.37,1.72-1.48-.86-.49-1.72-.86-2.59-.74-.49-.25.12-.62.25-.74,1.48-.99,3.94-1.6,3.82-3.94-.12-.25-.12-.62-.49-.62-.62.12-1.11.74-1.72.99-1.48.86-3.2.62-4.68,1.48-.25,0-.25-.37-.12-.49.49-.74,1.6-.74,1.97-1.72.25-.74.37-1.72,1.23-1.97.49-.37,1.23-.37,1.48-.99,0-.37-.49-.49-.74-.62-1.36-.37-2.71.37-3.7,1.36-.99.49-2.22.86-2.96,1.6-.12,0-.37,0-.37-.25-.25-1.97,1.48-3.33,2.83-4.44.86-.25,1.72-1.36,2.71-.86.74.37,1.48.74,2.34.49,1.11-.37,1.23-1.6,2.22-2.22.74-.25,1.72.86,2.22-.25.25-1.11-.62-1.72-1.11-2.46.62-1.48.12-3.2-1.11-4.31-.62-.37-1.36-.62-1.97-.37-.49.62.49,1.11.49,1.72.25,2.71-2.71,3.33-4.56,4.56-3.33,1.72-7.39,4.31-7.64,8.62,0,2.34,1.11,4.56,2.71,6.16.86,1.48,2.22,2.83,1.72,4.8-.37.74-1.23.86-1.97.86-2.83-.25-4.44-3.45-5.67-5.67-.37-.86-.86-1.72-.99-2.71.12-.12.25-.12.49,0,.49.49.49,1.6,1.36,1.48.74-.99.25-2.22-.25-3.2-.49-.86-1.6-1.36-2.09-2.34,0-.74.99-.25,1.11-.99-.37-1.23-.49-2.59-.25-3.7.25-.49.99-.49.99-1.11-.37-1.23-.37-2.34-.25-3.7.12-.74.74-1.6.37-2.34-.86-.25-.12-1.36-.99-1.48-1.6,0-2.83-.86-4.19-1.36-.74-.25-1.23.25-1.85.37-.86.25-1.85.25-2.46.86-.49.49-.37,1.11-.37,1.85-.12.37-.49,0-.74,0-.62-.37-.86-1.11-.74-1.85.12-.37,0-.62-.37-.86-.49-.25-1.11-.49-1.6-.25-.62.25-.86.99-1.11,1.6,0,.49,0,1.11.25,1.48.99.99,2.34,1.36,3.33,2.22.25.62-.25,1.11-.62,1.6,0,.49.74.49.62.99-.74.25-1.48,0-2.09-.49-.37-.37-.49-1.11-1.11-1.11s-.62.74-.86,1.11c-.25.49,0,1.11-.49,1.48h-.37c-1.97-.62-3.7-1.72-5.42-3.08-.99-.74-1.72-1.97-2.46-2.96-.37-1.23-.62-2.83-2.09-3.2-.37,0-.74.12-.86.49l-.12.49c-.74,0-1.48-.49-2.34-.25-.37.25-.74.49-.99.86,0,.86.99.49,1.11,1.23,0,.62.49,1.11.74,1.6-.25.37-.62.49-.74.86l-.49,1.23c.25.37.49.86.86.86.62-.25,1.23.25,1.97.12.49,0,1.11-.37,1.23.37.25.62,0,1.11,0,1.6-.62.86-1.48,1.6-2.34,1.97-.25.25-.25.62-.25.86.37.49,1.11.25,1.6.25.99,0,1.72-.62,2.71-.74.25.49.62,1.11,1.11,1.36.74.25.99-.86,1.72-.62.62.49.49,1.36.99,1.97,0,.37-.25.37-.49.49-.86.25-1.97,0-2.59.62-.12.37.25.74.49.86.74.37,1.6.49,2.46.62.74.12,1.6-.25,2.34,0l-.25.37-2.34,1.6c-1.11.49-2.22.62-3.2,1.23-1.48.37-2.09-1.48-3.45-1.36-.62,0-.99.25-1.36.49-.37.37-.37.86-.25,1.36.25.49.86.25.86.74,0,1.36-1.23,2.34-1.36,3.7,0,.37,0,.74.49.86.25.12.62,0,.86-.12.25-.25.25-.74.74-.86.86.12,1.72.12,2.22-.49.25,0,.62.25.62.49,0,.37,0,.74.37.86,1.23,0,1.72-1.23,2.34-2.09.49-.12,1.11-.49,1.6-.12.25.86-.49,1.36-.62,2.22,0,.25.25.37.49.37,1.48-.25,2.22-1.48,3.08-2.59.12-.25.25-.62.74-.62,1.11.37,1.36-.99,2.09-1.48h.25c.12.37-.12.62,0,.86.49.49.99,0,1.48-.12l.99-.62c1.23.37,2.46.62,3.7.99.99.37,0,1.48.62,2.09-.12.37-.62.49-.99.49-2.09.25-4.56-.25-6.28,1.23l-.99.99c-1.6,0-2.34,1.36-3.82,1.6-.99.62-2.46-.25-3.08.86.49.99,1.72,1.36,2.71,1.6.49.25,1.11,0,1.36.49,0,.49.12,1.11.74,1.23.37.12.62-.49,1.11-.12.49.74,1.36,1.11,1.72,1.72-.37.62-1.11.25-1.72.25h-.12c-.86.12-1.97.49-2.59-.25-.86-.62-1.6-1.72-2.96-1.72-.74.25-1.48.49-1.6,1.23-.12.49.37.62.62.99-.86.62-1.72,1.48-1.48,2.59.12.25.25.49.49.49.49,0,.74-.37,1.23-.12.12.74-.12,1.85.74,2.22.62-.12,1.11-.86,1.85-.25.74.37,1.23-.37,1.97-.49.99,0,1.36.99,1.72,1.72.62.49,1.48,1.23,2.34.74.62-.86-.49-1.85.62-2.34.62-.25,1.23,0,1.97-.12,1.11.12,2.34.25,2.96-.99l.99-1.6.25-.99c.62-.25,1.48.86,1.85-.12-.37-.99-.49-1.97-.25-2.96.25-.74.49-1.36.99-1.85l.25.12c.25,1.23.37,2.34.86,3.45-.12,1.11-.62,2.09-.86,3.2-.25,1.11-1.11,2.09-2.22,2.59-.25.25-.49.49-.25.86.25.49.99.25,1.48.37,1.48-.25,2.83-.86,3.94-1.97,1.11.25,1.6-.99,2.59-.49.99.74,2.83-.62,3.2,1.11-.12.74.62,2.09-.62,2.46-1.23-.25-2.71-1.85-3.94-.37-.25.25-.49.62-.25,1.11.25.37.49.74.12,1.11-.37.62-.86,1.36-.49,1.97.25.37.74.37,1.11.37.74-.25,1.36.37,2.09.37.62.49,1.23,1.11,2.09.99.37-.25.25-.62.49-.86.49-.49,1.6-.37,1.6-1.36.12-.74.74-1.36,1.36-1.72.25-.37,1.72-.74,2.09-1.36h0Z" style="stroke-width:0px;"/><path d="m1223.23,96.47h0c-.25-.25-.49-.62-.62-.74-.25-1.36,1.72-2.09.74-3.57-.25-.86,0-1.85-.86-2.46-.62-.49-1.36-.62-1.97-.99,0-.37.49-.25.62-.37,1.11-.25,1.97.99,2.83,0,.12-.74-.62-1.36-1.11-1.85-1.6-1.11-3.94-.62-5.17-2.34l.12-.12c1.48.37,3.2,0,4.31-.99.62-.86,1.36-1.72,2.34-1.97,1.11-.86,1.23-2.22,1.23-3.45,0-.49.25-.99.62-1.36.62-.49,2.09-.37,1.72-1.48-.86-.49-1.72-.86-2.59-.74-.37-.25.12-.62.25-.74,1.48-.99,3.94-1.6,3.82-3.94-.12-.25-.12-.62-.49-.62-.62.12-1.11.74-1.72.99-1.48.86-3.2.62-4.68,1.48-.25,0-.25-.37-.12-.49.49-.74,1.6-.74,1.97-1.72.25-.74.37-1.72,1.23-1.97.49-.37,1.23-.37,1.48-.99,0-.37-.49-.49-.74-.62-1.36-.37-2.71.37-3.7,1.36-.99.49-2.22.86-2.96,1.6-.12,0-.37,0-.37-.25-.25-1.97,1.48-3.33,2.83-4.44.86-.25,1.72-1.36,2.71-.86.74.37,1.48.74,2.34.49,1.11-.37,1.36-1.6,2.22-2.22.74-.25,1.72.86,2.22-.25.25-1.11-.62-1.72-1.11-2.46.62-1.48.12-3.2-1.11-4.31-.62-.37-1.36-.62-1.97-.37-.49.62.49,1.11.49,1.72.25,2.71-2.71,3.33-4.56,4.56-3.33,1.72-7.39,4.31-7.64,8.62,0,2.34,1.11,4.56,2.71,6.16.86,1.48,2.22,2.83,1.72,4.8-.37.74-1.23.86-1.97.86-2.83-.25-4.44-3.45-5.67-5.67-.37-.86-.86-1.72-.99-2.71.12-.12.25-.12.49,0,.49.49.49,1.6,1.36,1.48.74-.99.25-2.22-.25-3.2-.49-.86-1.6-1.36-2.09-2.34,0-.74.99-.25,1.11-.99-.37-1.23-.49-2.59-.25-3.7.25-.49.99-.49.99-1.11-.37-1.23-.37-2.34-.25-3.7.12-.74.74-1.6.37-2.34-.86-.25-.12-1.36-.99-1.48-1.6,0-2.83-.86-4.19-1.36-.74-.25-1.23.25-1.85.37-.86.25-1.85.25-2.46.86-.49.49-.37,1.11-.37,1.85-.12.37-.49,0-.74,0-.62-.37-.86-1.11-.74-1.85.12-.37,0-.62-.37-.86-.49-.25-1.11-.37-1.6-.25-.62.25-.86.99-1.11,1.6,0,.49,0,1.11.25,1.48.99.99,2.34,1.36,3.33,2.22.25.62-.25,1.11-.62,1.6,0,.49.74.49.62.99-.74.25-1.48,0-2.09-.49-.37-.37-.49-1.11-1.11-1.11s-.62.74-.86,1.11c-.25.49,0,1.11-.49,1.48h-.37c-1.97-.62-3.7-1.72-5.42-3.08-.99-.74-1.72-1.97-2.46-2.96-.37-1.23-.62-2.83-2.09-3.2-.37,0-.74.12-.86.49l-.12.49c-.74,0-1.48-.49-2.34-.25-.37.25-.74.49-.99.86,0,.86.99.49,1.11,1.23,0,.62.49,1.11.74,1.6-.25.37-.62.49-.74.86l-.49,1.23c.25.37.49.86.86.86.62-.25,1.23.25,1.97.12.49,0,1.11-.37,1.23.37.25.62,0,1.11,0,1.6-.62.86-1.48,1.6-2.34,1.97-.25.25-.25.62-.25.86.37.49,1.11.25,1.6.25.99,0,1.72-.62,2.71-.74.25.49.62,1.11,1.11,1.36.74.25.99-.86,1.72-.62.62.49.37,1.36.99,1.97,0,.37-.25.37-.49.49-.86.25-1.97,0-2.59.62-.12.37.25.74.49.86.74.37,1.6.49,2.46.62.74.12,1.6-.25,2.34,0l-.25.37-2.34,1.6c-1.11.49-2.22.62-3.2,1.23-1.48.37-2.09-1.48-3.45-1.36-.62,0-.99.25-1.36.49-.37.37-.37.86-.25,1.36.25.49.86.25.86.74,0,1.36-1.23,2.34-1.36,3.7,0,.37,0,.74.37.86.25.12.62,0,.86-.12.25-.25.25-.74.74-.86.86.12,1.72.12,2.22-.49.25,0,.62.25.62.49,0,.37,0,.74.37.86,1.23,0,1.72-1.23,2.34-2.09.49-.12,1.11-.49,1.6-.12.25.86-.49,1.36-.62,2.22,0,.25.25.37.49.37,1.48-.25,2.22-1.48,3.08-2.59.12-.25.25-.62.74-.62,1.11.37,1.36-.99,2.09-1.48h.25c.12.37-.12.62,0,.86.49.49.99,0,1.48-.12l.99-.62c1.23.37,2.46.62,3.7.99.99.37,0,1.48.62,2.09-.12.37-.62.49-.99.49-2.09.25-4.56-.25-6.28,1.23l-.99.99c-1.6,0-2.34,1.36-3.82,1.6-.99.62-2.46-.25-3.08.86.49.99,1.72,1.36,2.71,1.6.49.25,1.11,0,1.36.49,0,.49.12,1.11.74,1.23.37.12.62-.49,1.11-.12.49.74,1.36,1.11,1.72,1.72-.37.62-1.11.25-1.72.25h-.12c-.86.12-1.97.49-2.59-.25-.86-.62-1.6-1.72-2.96-1.72-.74.25-1.48.49-1.6,1.36-.12.49.37.62.62.99-.86.62-1.72,1.48-1.48,2.59.12.25.25.49.49.49.49,0,.74-.37,1.23-.12.12.74-.12,1.85.74,2.22.62-.12,1.11-.86,1.85-.25.74.37,1.36-.37,1.97-.49.99,0,1.36.99,1.72,1.72.62.49,1.48,1.23,2.34.74.62-.86-.49-1.85.62-2.34.62-.25,1.23,0,1.97-.12,1.11.12,2.34.25,2.96-.99l.99-1.6.25-.99c.62-.25,1.48.86,1.85-.12-.37-.99-.49-1.97-.25-2.96.25-.74.49-1.36.99-1.85l.25.12c.25,1.23.37,2.34.86,3.45-.12,1.11-.62,2.09-.86,3.2-.25,1.11-1.11,2.09-2.22,2.59-.25.25-.49.49-.25.86.25.49.99.25,1.48.37,1.48-.25,2.83-.86,3.94-1.97,1.11.25,1.6-.99,2.59-.49.99.74,2.83-.62,3.2,1.11-.12.74.62,2.09-.62,2.46-1.23-.25-2.71-1.85-3.94-.37-.25.25-.49.62-.25,1.11.25.37.49.74.12,1.11-.37.62-.86,1.36-.49,1.97.25.37.74.37,1.11.37.74-.25,1.36.37,2.09.37.62.49,1.23,1.11,2.09.99.37-.25.25-.62.49-.86.49-.49,1.6-.37,1.6-1.36.12-.74.74-1.36,1.36-1.72.37-.49,1.85-.86,2.22-1.48h0Z" style="fill:none; stroke:#000; stroke-width:.22px;"/><path d="m1201.31,54.46c-.12.62-.12,1.23.25,1.72.99,1.11,2.59,1.48,3.2,2.71h-.37c-1.23-.74-2.34-1.72-3.57-2.22-.49-.37-.86-.86-.74-1.48.12-.37.25-.86.74-.99.25-.12.49,0,.49.25h0Z" style="fill:#fff; stroke-width:0px;"/><path d="m1211.53,55.57c.25.25,0,.86.62.99.12,0,.25.12.25.25,0,.49-.12.99-.25,1.48-.12.37-.62.49-.62,1.11,0,.25.37.37.49.74v1.97c-1.23.37-.62,1.85-.74,2.59-.12.62,0,1.23,0,1.85-.25.12-.86.12-.99.49,0,.74.37,1.36.62,1.85.49.62,1.36.74,1.36,1.6-.62,0-1.23-.37-1.72-.62-.86-.49-1.48-1.48-2.09-2.34-.12-.12-.37-.12-.49,0-.12.62-.12,1.36-.62,1.72-.62-.37-.62-1.97-1.6-1.48-.37,2.09-1.72,3.7-2.96,5.42-.25.12-.37.49-.74.49.62-1.6,1.11-3.45.49-5.3-.12-.37-.49-.25-.74-.12-.25.25-.49.62-.86.49-.37-.49.37-1.36-.49-1.72-.62.12-1.11.74-1.6.99-1.48.86-3.2,1.23-4.93,1.23-.37,0-.62-.12-.86-.25.37-.49,1.11-.49,1.6-.86,1.97-1.23,3.33-3.45,4.93-5.05-.12-.74-.74-1.6-.12-2.22.49,0,.74.62,1.11.74.74.37,1.6.62,2.34.25.62-.12,1.11-.74,1.23-1.36,0-.25-.12-.49-.37-.49s-.37,0-.49-.25c0-.37.25-.62.49-.62.86,0,1.6,1.72,2.22.37.37-1.11-.74-1.97-1.48-2.71-.25-.25-.37-.49-.25-.86.62-.37-.12-.86.37-1.36.86-.62,2.09-.25,2.96-.86,1.48.49,2.59,1.6,3.94,1.85h0Z" style="fill:#fff; stroke-width:0px;"/><path d="m1188.74,55.2c0,.25.12.49,0,.62-.25.25-.49,0-.62-.12-.25-.25-.37-.62-.37-.86.12-.99.99,0,.99.37h0Z" style="fill:#fff; stroke-width:0px;"/><path d="m1188,56.55c1.36.62,2.22,1.97,3.2,3.08,2.09,1.72,4.31,3.2,6.78,3.94.12.37-.25.74-.49.99-.86.86-1.48,1.85-2.34,2.59h-.49c-.86-.86-.74-2.46-2.22-2.59-.49,0-.86.62-1.36.25s.12-1.23-.62-1.48c-.86.37-1.48,1.23-2.46,1.11.62-1.11,1.72-2.22,1.11-3.57-.12-.62-.49-1.36-1.11-1.48-.62,0-.86.62-1.48.37-.25-.49-1.36-.25-.86-.99.37-.62,1.72-.62,1.23-1.6-.37-.49-1.36-.25-1.36-.99.12-.37-.25-.99,0-1.23,1.11-.25,1.85.99,2.46,1.6h0Z" style="fill:#fff; stroke-width:0px;"/><path d="m1230.13,57.17c.12.74-.62,1.23-.37,1.97.25.37.86.49.74.86-1.85,0-2.22,2.46-3.94,2.34-.74-.12-1.36-.99-2.22-.62-2.34,1.11-4.93,2.71-5.54,5.54-.25,1.11-.25,2.22.62,3.08.25.12.49.12.62,0,.49-.86.86-1.97,1.97-2.22.62-.25,1.36-.49,1.97-.86.12,0,.25-.12.25.12-.25.86-.62,1.85-1.6,2.09-.62.62-1.36,1.23-1.36,2.09,0,.37-.12.99.25,1.36.37.25.74-.12.99-.25,1.23-1.48,3.08-1.72,4.93-1.85.12.12-.12.49-.37.49-1.6.49-3.08,1.85-3.57,3.45,0,.25.25.49.37.49.74-.12,1.36-.62,2.22-.49.25.49-.62.49-.86.99-1.48,1.36,0,4.19-2.46,4.68-.74.25-.62,1.11-1.11,1.48-.86,1.11-2.22,1.36-3.45,1.23-.99.12-1.72-1.23-2.59-.37.12.99.86,1.48,1.36,2.34,1.23,1.11,2.83,1.23,4.44,1.72.25,0,.37.25.49.37,0,.37-.49.25-.74.25-.99.12-2.09.25-3.08-.12-.12,0-.25.12-.37.25.12,1.11,1.36,1.48,2.09,1.97.74.37,1.72.25,1.97,1.11v1.11c.37.49.49,1.23.37,1.85-.62.74-1.11,1.72-.62,2.83-.25.25-.74,0-.99.25-.37.74-1.23.86-1.48,1.48,0,.62-.37,1.11-.99,1.23-.49,0-.86.25-1.23.12-.25-.37.12-.86-.37-1.11-.62-.12-.86.86-1.6.49-.37-.25-.62-.37-.86-.62,0-.49.37-.62.62-.74,1.6-.25,3.7-.49,4.19-2.22.12-.86-.25-1.48-.12-2.22-.25-.86-1.11-1.48-2.09-1.6-.86-.25-1.85.12-2.46-.49-.25-.25-.49-.37-.86-.25-.25,0-.37.37-.62.25-.25-.25-.62-.62-.86-.25-.62,1.11-1.48,2.34-2.83,2.59-.25-.37.25-.74.37-1.11.37-.86.74-1.97.99-2.96.37-.49.86-1.23.49-1.97-.62-1.6-1.23-3.45-.74-5.3.37-2.22-.25-4.31-1.85-5.79-.86-.49-1.72-1.48-2.83-1.6-.74-.25-1.72,0-2.22-.62.12-.74.86-1.23,1.23-1.85l1.23-1.97c.49-.12.37.62.86.62.99,0,.99-1.72,1.97-1.11.49.62,1.23.86,1.72,1.48.62,2.71,1.72,5.42,3.57,7.52,1.48,1.85,3.7,3.2,5.91,2.59.62-.49,1.48-1.11,1.6-1.97.62-4.31-4.93-6.53-4.56-10.84.37-4.07,4.56-6.28,7.88-7.88,1.85-.99,4.07-2.22,4.31-4.56,0-.25,0-.37.12-.62,1.11.25.99,1.11,1.11,1.72h0Z" style="fill:#fff; stroke-width:0px;"/><path d="m1200.32,70.1c.49.12,1.11-.62,1.36.12-.12.99-.12,2.22-.62,3.08-.49.49-1.23.12-1.72.37-.74.25-.86,1.97-1.72.86-.37-.12-.62.25-.86.49-.37.86-.74,1.85-1.48,2.59-.12.12-.37.25-.49,0-.12-.62.37-1.72-.49-1.97-.37,0-.74.25-1.11.37-.74,0-1.72,0-2.09.62-.12.37-.12.86-.62.86-.49-.25-.99-.37-1.23-.86-.25-.12-.49-.37-.74-.12-.37.37-.49,1.11-1.11,1.11-.49,0-.86-.12-1.36-.37.12-1.11,1.36-1.23,2.09-1.72,1.48-.37,2.71-1.36,4.19-1.6,2.34-.86,4.31-2.71,6.16-4.56.25-.12.62-.25.86-.25.49.37.49.86.99.99h0Z" style="fill:#fff; stroke-width:0px;"/><path d="m1188.62,74.54c-.49.25-1.11.49-1.6.25-.25-.25-.12-.86-.25-1.23.12-.37.62-.25.86-.12.37.37.99.49.99,1.11h0Z" style="fill:#fff; stroke-width:0px;"/><path d="m1209.19,80.7c0,.74-.12,1.23-.49,1.85-.86.74-1.6,1.72-1.85,2.96,0,.86-.12,1.6-.12,2.34-.25.25-.49-.12-.62-.25-.37-.62-.25-1.85-1.23-1.72-.49.62-1.11,1.48-.74,2.22.49.62,1.36,1.11.86,1.97-.74.37-.49,1.48-1.48,1.6-1.48.25-2.96-.49-4.07.62-.37.37-.62.86-.86,1.36-.62.12-.49-.86-.86-1.23-.25-.37-.74-.12-1.11-.37-.49-.25-1.11-.74-1.72-.37-.49.25-1.11.99-1.72.49l-.86-.25c0-.25.25-.62,0-.99l-1.6-.86c-.12-.12,0-.37.12-.49,1.36-.86,2.96.12,4.56-.12,1.11-.37,2.09-.25,3.2-.12.62,0,1.36.25,1.72-.37.25-.37.37-.86.12-1.23-.49-1.11-1.97-1.23-2.22-2.59-.12-.25-.25-.49-.49-.62-.37-.12-.62.25-.99.12-.12-.37-.25-.74-.62-.86-.74,0-1.6.37-2.22-.12.12-.37.62-.25.86-.49.99-.25,1.85-.86,2.83-1.36l1.36-.25c1.36-2.22,4.19-2.09,6.65-2.22l2.34-.74c.86.49,1.11,1.48,1.23,2.09h0Z" style="fill:#fff; stroke-width:0px;"/><path d="m1193.91,88.46c-.49.25-.99.12-1.48,0-.25-.25-.37-.74-.37-1.11.74-.25,1.48.49,1.85,1.11h0Z" style="fill:#fff; stroke-width:0px;"/><path d="m1215.35,96.22c0,.25-.25.25-.37.25-.25,0-.25-.12-.25-.25,0-.37.49-.12.62,0h0Z" style="fill:#fff; stroke-width:0px;"/><path d="m1209.07,56.43c.12.37-.12.62-.49.62-.62,0-1.11,0-1.48-.49-.49-.37-.25-.86-.12-1.36.25-.25.49-.25.74-.12.49.37.99.86,1.36,1.36h0Z" style="stroke-width:0px;"/><path d="m1211.78,57.17c0,.37-.25.74-.49,1.11-.25.12-.49,0-.49-.25-.12-.37.12-.86.37-1.11.25-.12.62,0,.62.25h0Z" style="stroke-width:0px;"/><path d="m1208.7,60.62v.86c-.86.86-.86,2.34-2.09,2.83-.37,0-.62-.12-.62-.49,0-.49-.12-1.23,0-1.72.49-.25.62.74,1.11.25.25-.74.86-1.36,1.23-1.97.12,0,.37.12.37.25h0Z" style="stroke-width:0px;"/><polygon points="1172.11 45.71 1245.29 45.71 1245.29 50.76 1172.11 50.76 1172.11 45.71" style="stroke-width:0px;"/><polygon points="1172.11 45.71 1245.29 45.71 1245.29 50.76 1172.11 50.76 1172.11 45.71" style="fill:none; stroke:#000; stroke-width:.22px;"/><polygon points="1226.56 46.57 1234.82 46.57 1234.82 49.9 1226.56 49.9 1226.56 46.57" style="fill:#fff; stroke-width:0px;"/><polygon points="1208.45 46.57 1216.71 46.57 1216.71 49.9 1208.45 49.9 1208.45 46.57" style="fill:#fff; stroke-width:0px;"/><polygon points="1190.22 46.57 1198.59 46.57 1198.59 49.9 1190.22 49.9 1190.22 46.57" style="fill:#fff; stroke-width:0px;"/><polygon points="1172.97 46.57 1180.48 46.57 1180.48 49.9 1172.97 49.9 1172.97 46.57" style="fill:#fff; stroke-width:0px;"/><path d="m1241.96,27.6c.62.74.25,1.85.37,2.71.62.49,2.09,0,2.22,1.23.12.49-.25.86-.49,1.11-.49.49-1.23,0-1.6.49-.12,1.48,0,3.08,0,4.8.49.25.99.25,1.48.49.25.25.49.62.49.99s-.25.74-.74.86c-.37.25-1.11,0-1.23.49-.25.74,0,1.72-.12,2.59-.49.25-1.23.25-1.85.25h-5.91c-.49.25-1.11.86-1.85.49-1.23-.74-2.96-.49-4.31-.62h-4.31c-.74-.74-.25-1.85-.49-2.71-.25-.49-1.11-.25-1.6-.49-.49-.25-.49-.74-.49-1.11,0-.49.49-.74.99-.86.37-.25.99.12,1.11-.37,0-1.48-.12-3.08,0-4.44-.12-.86-1.23-.37-1.72-.74-.49-.25-.49-.86-.37-1.36.37-.86,1.36-.62,2.09-.86l.12-.25.12-2.59.12-.25,6.78.12c.74,0,1.48.37,2.22.62,1.48-1.11,3.57-.49,5.3-.86,1.23.25,2.46,0,3.7.25h0Z" style="stroke-width:0px;"/><path d="m1241.96,27.6c.62.74.25,1.85.37,2.71.62.49,2.09,0,2.22,1.23.12.49-.25.86-.49,1.11-.49.49-1.23,0-1.6.49-.12,1.48,0,3.08,0,4.8.49.25.99.25,1.48.49.25.25.49.62.49.99s-.25.74-.74.86c-.37.25-1.11,0-1.23.49-.25.74,0,1.72-.12,2.59-.49.25-1.23.25-1.85.25h-5.91c-.49.25-1.11.86-1.85.49-1.23-.74-2.96-.49-4.31-.62h-4.31c-.74-.74-.25-1.85-.49-2.71-.25-.49-1.11-.25-1.6-.49-.49-.25-.49-.74-.49-1.11,0-.49.49-.74.99-.86.37-.25.99.12,1.11-.37,0-1.48-.12-3.08,0-4.44-.12-.86-1.23-.37-1.72-.74-.49-.25-.49-.86-.37-1.36.37-.86,1.36-.62,2.09-.86l.12-.25.12-2.59.12-.25,6.78.12c.74,0,1.48.37,2.22.62,1.48-1.11,3.57-.49,5.3-.86,1.23.25,2.46,0,3.7.25h0Z" style="fill:none; stroke:#000; stroke-width:.22px;"/><path d="m1217.57,27.48c.25,0,.62.25.86.37.25.99,0,1.72.25,2.59.62.25,1.6,0,1.97.86.12.37.12.99-.12,1.23-.49.62-1.6,0-1.97.74-.12,1.72-.12,3.08,0,4.68.49.49,1.36.12,1.85.74.25.25.37.62.25.99-.37.62-1.23.62-1.97.74-.25.25,0,.74-.12.99-.25.62.37,1.48-.37,1.85-2.09.25-3.94-.12-6.04,0h-1.97c-.49.37-1.23.86-1.85.49l-1.23-.49h-4.31c-.99,0-2.34.37-3.08-.49,0-.74.12-1.6,0-2.34-.74-.25-1.97.12-2.34-.86-.12-.25,0-.74.12-.99.49-.74,1.85-.12,2.34-.74v-2.22c.12-.99,0-1.85,0-2.83-.74-.25-2.09.12-2.22-.99-.12-.62.25-1.11.74-1.23s1.23.12,1.48-.37l.12-2.34c.62-.99,2.09-.37,2.96-.49h4.56c.74.12,1.36.74,2.09.37,2.22-.86,5.3,0,8.01-.25h0Z" style="stroke-width:0px;"/><path d="m1217.57,27.48c.25,0,.62.25.86.37.25.99,0,1.72.25,2.59.62.25,1.6,0,1.97.86.12.37.12.99-.12,1.23-.49.62-1.6,0-1.97.74-.12,1.72-.12,3.08,0,4.68.49.49,1.36.12,1.85.74.25.25.37.62.25.99-.37.62-1.23.62-1.97.74-.25.25,0,.74-.12.99-.25.62.37,1.48-.37,1.85-2.09.25-3.94-.12-6.04,0h-1.97c-.49.37-1.23.86-1.85.49l-1.23-.49h-4.31c-.99,0-2.34.37-3.08-.49,0-.74.12-1.6,0-2.34-.74-.25-1.97.12-2.34-.86-.12-.25,0-.74.12-.99.49-.74,1.85-.12,2.34-.74v-2.22c.12-.99,0-1.85,0-2.83-.74-.25-2.09.12-2.22-.99-.12-.62.25-1.11.74-1.23s1.23.12,1.48-.37l.12-2.34c.62-.99,2.09-.37,2.96-.49h4.56c.74.12,1.36.74,2.09.37,2.22-.86,5.3,0,8.01-.25h0Zm-33.51.49c2.46-.99,5.17-.25,7.88-.49.74.12,1.72-.37,2.22.37v2.34c.25.62,1.11.25,1.48.49.25.12.49.25.62.62s0,.74-.12,1.11c-.49.49-1.11.37-1.72.49l-.25.25c.12,1.48-.25,2.71,0,4.07,0,.25-.12.74.25.86.74,0,1.36,0,1.85.49.25.37.25.74.12,1.23-.25,1.48-2.59-.25-2.34,1.48,0,.62.12,1.48-.12,2.09-2.71,0-5.42-.25-7.88,0-.49.37-.99.62-1.72.74-.49-.12-.99-.37-1.36-.74-2.46-.12-4.8-.12-7.15-.12-.74-.62-.25-1.72-.49-2.59-.37-.49-.99-.12-1.48-.37-.37,0-.49-.37-.62-.62,0-.49,0-.99.37-1.36.37-.25.99-.25,1.48-.25l.25-.25c-.12-1.6.25-3.2-.12-4.93-.25-.37-.74,0-.99-.25-.49-.12-.99-.37-1.11-.86-.12-.37-.12-.74.25-1.11.49-.62,1.48.12,1.97-.49l.25-2.34c.37-.74,1.23-.37,1.97-.37,1.23-.25,2.71,0,3.94,0,.99,0,1.85.25,2.59.49h0Z" style="fill:none; stroke:#000; stroke-width:.22px;"/><path d="m1183.69,28.59l.25.49c.12,3.33.12,6.65.12,10.23l-.12,1.23c-.86,0-1.72-.37-2.59-.25-.99-.12-1.97.12-2.83-.12-.49-1.11-.12-2.34-.25-3.57,0-2.46.12-5.54.12-8.13,0-.25.25-.25.37-.37,1.72.12,3.57-.37,4.93.49h0Z" style="fill:#fff; stroke-width:0px;"/><path d="m1177.16,28.34c-.49.37-1.11.99-.86,1.6.25,4.19,0,7.88.25,11.83l.37.37c1.97,0,4.07-.25,5.91.12.12,0,.12.25,0,.25-.49.25-1.11.12-1.6.12l-5.05-.12c-.37-.25-.25-.86-.25-1.36s.12-1.11-.37-1.36c-.74-.12-1.36,0-1.85-.49.37-.99,1.97-.25,2.22-1.23.12-1.85-.12-3.7,0-5.42-.25-.99-1.23-.74-1.97-.86-.12-.12-.25-.25-.25-.49.62-.62,1.85.12,2.22-.74.25-.74,0-1.48.12-2.34.25-.12.74-.12,1.11-.12v.25h0Z" style="fill:#fff; stroke-width:0px;"/><path d="m1191.08,28.34v11.7c-1.97.25-4.19-.12-6.16.37-.49-.37-.12-.99-.25-1.6-.12-1.23,0-2.71,0-4.07,0-1.97-.12-4.07,0-6.04.25-.62.99-.74,1.6-.74h4.68l.12.37h0Z" style="fill:#fff; stroke-width:0px;"/><path d="m1193.42,28.34c.12.74-.25,1.85.25,2.59.49.25,1.23.12,1.72.25.25.25.12.49,0,.74-.49.49-1.72-.12-1.97.74,0,1.97-.12,3.82,0,5.79l.25.25c.62.12,1.48-.12,1.85.37,0,.25,0,.62-.25.74-.62.12-1.6-.25-1.97.49-.12.74.12,1.6-.12,2.34l-.37.12-7.02-.12c-.12-.12,0-.25,0-.25l.74-.25h5.67c.62-.12.62-.86.62-1.36v-7.88c0-1.36.25-2.59-.12-3.94,0-.25-.49-.49-.49-.86.49,0,.99,0,1.23.25h0Z" style="fill:#fff; stroke-width:0px;"/><path d="m1225.33,28.34c-.12.37-.62.74-.74,1.11,0,4.07,0,8.5.12,12.69l.37.25c2.22,0,4.56-.49,6.41.49.12,0,0,0,0,.12-2.34,0-4.8.12-7.15,0l-.25-.25c-.12-.86.12-1.72-.25-2.59-.49-.49-2.09.12-1.72-.99.62-.49,1.48.12,1.85-.62,0-2.09.12-3.94,0-5.91-.49-.62-1.23-.25-1.85-.37-.25-.25-.37-.49-.12-.74.62-.49,2.59.12,2.22-1.36.25-.62-.25-1.85.62-1.97.12-.12.37-.12.49.12h0Z" style="fill:#fff; stroke-width:0px;"/><path d="m1241.59,28.34c.25.99-.25,1.85.37,2.71.49.25,1.48-.12,1.72.49,0,1.23-1.72.25-2.09,1.23.12,1.85-.12,3.45,0,5.42-.25.12-.25.37-.12.49.49.49,1.23-.25,1.85.25.37.12.12.37.12.62-.49.62-1.48-.12-1.85.74l-.12,2.46-.37.12h-6.65c-.12-.12,0-.12,0-.25l.74-.25h5.05c.25,0,.62-.25.62-.62,0-3.94-.12-8.01-.12-12.2l-.62-1.23c.62-.25,1.36-.37,1.48,0h0Z" style="fill:#fff; stroke-width:0px;"/><path d="m1226.07,29.94v10.72c-.12.25-.49.49-.62.62l-.25-.12v-11.7c.25-.25.37-.62.62-.74.25.49.25.74.25,1.23h0Z" style="fill:#fff; stroke-width:0px;"/><path d="m1240.61,29.45c-.12,2.83,0,5.42,0,8.01v3.45q0,.12-.12.25c-.86-.37-.49-1.23-.62-2.09,0-.99-.12-2.22.12-3.33l-.12-.37v-6.53c.25-.37.62.25.74.62h0Z" style="fill:#fff; stroke-width:0px;"/><path d="m1192.43,29.2c0,4.07,0,8.01-.12,11.58-.12.25-.25,0-.49-.12-.25-.62,0-1.36,0-1.97-.12-3.2,0-6.53,0-9.73.25-.25.49.12.62.25h0Z" style="fill:#fff; stroke-width:0px;"/><path d="m1233.34,34.25c-.12.25-.49.25-.74.12l-.25-.12c.12-.49,0-1.23.49-1.6.37.37.25,1.11.49,1.6h0Z" style="fill:#fff; stroke-width:0px;"/><path d="m1191.94,41.4c-.12.25-.62.12-.86.25h-1.6c-1.23,0-2.59-.12-3.7.12-.25,0-.37-.25-.37-.49.12-.49.74-.25,1.11-.49h4.8c.12.12.37.37.62.62h0Z" style="fill:#fff; stroke-width:0px;"/><path d="m1183.56,41.15c0,.25-.25.49-.49.62-1.6-.49-3.33-.12-5.05-.37h0c.12-.25.37-.49.74-.49,1.6,0,3.33,0,4.8.25h0Z" style="fill:#fff; stroke-width:0px;"/><path d="m1232.23,41.4c.12.12.12.37,0,.37-.62.74-1.36-.12-2.09,0-1.23-.12-2.71,0-4.07-.12.37-1.11,1.85-.49,2.71-.62,1.23.12,2.46-.25,3.45.37h0Z" style="fill:#fff; stroke-width:0px;"/><path d="m1239.62,41.15c.25.12.49.37.49.62-2.09.25-4.07-.25-5.91.25-.25,0-.37-.37-.25-.62.37-.49.99-.37,1.6-.49l4.07.25h0Z" style="fill:#fff; stroke-width:0px;"/><path d="m1185.17,42.14c.12.37,0,.86-.25,1.11-.25.25-.62.25-.86.12-.25,0-.37-.37-.37-.62-.12-.49.49-.74.74-1.11.37,0,.62.25.74.49h0Z" style="fill:#fff; stroke-width:0px;"/><path d="m1233.71,42.38c0,.49,0,1.11-.49,1.11-.37,0-.74-.12-.86-.49-.12-.49.25-.99.49-1.11.49,0,.74.25.86.49h0Z" style="fill:#fff; stroke-width:0px;"/><path d="m1215.6,28.46v11.7l-.25.12c-2.09.25-4.19-.37-6.16.37-.37-.25,0-.74-.12-1.11v-10.35c0-.37.25-.62.49-.74.49-.37,1.23-.25,1.97-.37l3.94.12.12.25h0Z" style="fill:#fff; stroke-width:0px;"/><path d="m1217.94,28.34c0,.86,0,1.72.12,2.59.62.49,2.34-.25,1.97,1.11-.49.37-1.23.12-1.85.25l-.25.12c-.25,1.97.12,4.07,0,5.79,0,.25.12.49.49.62.49,0,1.36-.37,1.6.37-.12,1.23-1.6.12-2.09.99-.12.86.25,1.72-.12,2.59l-.25.12c-2.59,0-5.05,0-7.39-.12-.12,0,0-.25,0-.25l.49-.25c1.97-.25,4.19,0,6.28-.25.25,0,.49-.25.49-.62v-11.95c-.12-.62-.74-.99-.74-1.48.37.12.99,0,1.23.37h0Z" style="fill:#fff; stroke-width:0px;"/><path d="m1201.43,28.22c-.12.49-.49.62-.74.99-.25.74,0,1.6-.12,2.46v9.98c0,.25.25.49.49.62l5.3.12c.25,0,.62.12.86.37-.12.25-.49.25-.74.25-1.97,0-4.07.12-6.04-.12l-.25-.12c0-.86,0-1.85-.37-2.59-.62-.25-1.36,0-1.97-.25-.25-.12-.25-.49,0-.74.62-.37,1.85.25,2.22-.74,0-1.97.12-3.82,0-5.79-.49-.74-1.72,0-2.22-.74.25-1.11,1.72-.12,2.22-1.11l.12-2.34c.49-.37.86-.37,1.23-.25h0Z" style="fill:#fff; stroke-width:0px;"/><path d="m1202.17,28.83c.12,3.45-.25,6.53,0,9.98-.25.74.37,1.97-.74,2.09-.25-3.45,0-7.15-.12-10.84-.12-.62.25-1.11.74-1.48l.12.25h0Z" style="fill:#fff; stroke-width:0px;"/><path d="m1216.95,29.45c0,3.82.12,7.88-.12,11.46-.25,0-.49-.25-.49-.37,0-1.48-.25-3.08-.12-4.68.12-2.09-.12-4.68.12-6.9.25-.12.62.25.62.49h0Z" style="fill:#fff; stroke-width:0px;"/><path d="m1207.83,41.15c.25,0,.49.25.25.49l-.37.37c-1.72-.62-3.94-.25-5.79-.49.12-.25.25-.49.49-.74,1.85.25,3.7,0,5.42.37h0Z" style="fill:#fff; stroke-width:0px;"/><path d="m1215.72,40.91c.25.12.49.37.49.62l-.25.12c-2.09,0-4.19-.25-6.16.25-.25,0-.62,0-.74-.37.25-.49.74-.62,1.23-.62,1.97-.12,3.7,0,5.42,0h0Z" style="fill:#fff; stroke-width:0px;"/><path d="m1209.31,42.63c0,.37,0,.86-.49.86-.37,0-.86,0-.86-.49.12-.37.37-.62.74-.86.37-.12.49.25.62.49h0Z" style="fill:#fff; stroke-width:0px;"/><path d="m1208.33,36.35c.25-1.97,0-4.19.12-6.16,0-.62,0-1.23-.37-1.72-1.48-.62-3.33-.25-5.05-.37-.12,0-.25,0-.25.12v11.46l.12.49c1.23.25,2.34.12,3.57.12.62.12,1.23.25,1.85.37,0-1.36.12-2.34,0-3.7v-.62h0Z" style="fill:#fff; stroke-width:0px;"/><path d="m1207.83,36.22c-.62-.49-.74-1.23-1.23-1.85.25-.25.49-.37.74-.62.37-.37.74-.99.62-1.48,0-.49-.25-.99-.74-1.23-.99-.37-2.34-.25-3.45-.12-.25.12-.25.25-.12.49.37,0,.62.25.62.62,0,1.36,0,2.71-.25,4.07l-.49.62c.49.49,1.23.12,2.09.25.25-.37-.37-.62-.49-.99.12-.37,0-.99.25-1.23.74.62.99,1.72,1.85,2.34l1.11.12v-.62c0-.12-.37-.37-.49-.37h0Zm-1.48-2.46c-.37,0-.86.25-.99-.25,0-.62-.25-1.48,0-2.09.49-.37,1.11-.25,1.48.25.25.37.25.74.25,1.23-.25.37-.37.74-.74.86h0Z" style="stroke-width:0px;"/><path d="m1239.37,29.57c0-.49,0-.99-.25-1.36h-1.85c-1.23.25-2.71-.25-3.82.49-.49.62-.25,1.23-.37,1.97.12.37.25.86.37,1.23l-.25.49-.62-.25-.25-.49c.12-.25.25-.49.25-.86,0-.86.25-2.09-.86-2.46-1.6-.12-3.08-.25-4.8-.25-.12,0-.25,0-.25.12v10.84c0,.49-.12.99.37,1.23,1.48-.25,2.71,0,4.07,0,.49,0,.86.49,1.48.37.12-1.48.12-3.33.12-5.05,0-.12,0-.49-.25-.49v-.37l.86.12.12.25-.12.12-.12,5.05c0,.12,0,.49.37.49,1.48-.86,3.45-.25,5.17-.49l.37-.12c.25-.86.12-3.82.12-3.82.12-2.22.12-4.44.12-6.78h0Z" style="fill:#fff; stroke-width:0px;"/><path d="m1233.58,35.12c.25.25.37.62.25.99l-.37.49.25.25c.62,0,1.36.12,1.97-.12-.12-.25-.49-.37-.74-.62-.74-1.85-1.23-3.7-1.72-5.67l-.62.37c-.37,1.72-.99,3.2-1.48,4.93-.12.37-.49.37-.74.62-.37.12-.49-.25-.62-.49,0-1.48.12-2.71,0-4.31,0-.25.25-.49.49-.25.37.25.37.74.49.99.25.12.49.12.49-.12l.25-1.48c-.25-.49-.62,0-.99,0-.74,0-1.72.12-2.46-.25-.62.25-.49.99-.49,1.6v.25c.49-.37.74-1.11,1.36-.99v4.68c-.25.25-.74.37-.62.74.86.25,1.85,0,2.71.12.49,0,.99.12,1.48,0,.12-.12,0-.25,0-.37-.25-.12-.62-.37-.49-.74.12-.25.25-.74.62-.62q.12,0,.25.12l.74.12h0c-.12-.12-.12-.25,0-.25h0Zm-1.11-.62l-.25-.12c.12-.49,0-1.23.49-1.6.49.25.37.99.62,1.48-.12.25-.62.25-.86.25h0Z" style="stroke-width:0px;"/><path d="m1238.14,31.05c0,.37.25.99,0,1.23-.37-.25-.37-.62-.99-.74-.25,0-.62,0-.62.37-.12,1.11.99,1.11,1.6,1.72s.86,1.48.62,2.22c-.25.62-.49.86-1.11.86-.49.12-.86-.25-1.23,0-.12,0-.25.12-.37,0v-1.97c0-.12.12-.12.25-.12.25.62.12,1.36.99,1.48.25,0,.49-.12.62-.49.12-1.72-2.22-1.36-2.22-3.2,0-.37.12-.74.25-1.11.37-.62,1.36-.25,1.97-.62.12-.12.12.25.25.37h0Z" style="stroke-width:0px;"/><path d="m1213.26,30.93c-.49.25-.99.62-.86,1.36-.12,1.23-.12,2.46,0,3.7l.74.74v.12c-.86,0-1.6.12-2.46,0-.37-.37.49-.62.62-.86.12-1.36.25-2.83.12-4.31-.25-.49-.99-.37-.86-.86.74-.12,1.72-.12,2.46,0l.25.12h0Z" style="stroke-width:0px;"/><path d="m1189.11,31.91c-.49.62-.62-.49-1.11-.62-.25,0-.74-.12-.99.12-.12.62-.25,1.23,0,1.85.25.12.62.12.86.12.25-.25.49-.74.86-.74.25.25-.12.62,0,.86-.12.37.25.86-.25.99-.25-.12-.49-.74-.86-.74h-.74c-.25.86-.12,1.72,0,2.59.37.37.86,0,1.36,0,.62-.12.49-.99.99-.99.12.37.25.86.12,1.23l-.25.25h-3.57c-.12,0-.49,0-.37-.25,1.11-.74.49-2.09.62-3.08-.12-.74.49-1.97-.62-2.46,0-.25.25-.25.37-.25.86,0,2.09.37,2.83-.37.74.25.74.99.74,1.48h0Z" style="stroke-width:0px;"/><path d="m1183.69,31.17c-.99.74-.99,2.22-1.48,3.33-.37.62-.25,1.6-.86,2.09-.25.12-.49-.12-.49-.37-.37-1.48-.74-3.08-1.36-4.56,0-.37-1.11-.49-.49-.86.74-.12,1.23.12,1.97,0,.12.49-.49.74-.37,1.23.49.62.25,1.6.86,2.34l.25-.25c0-1.11,1.36-2.22.25-3.2.25-.49.99-.12,1.48-.25.12.12.49.25.25.49h0Z" style="stroke-width:0px;"/><path d="m1177.65,28.83c.25,4.07,0,7.88,0,11.7,0,.25-.25.49-.49.49-.25-1.23-.25-2.46-.12-3.7-.12-2.59,0-5.3,0-7.88,0-.37.37-.62.62-.62h0Z" style="fill:#fff; stroke-width:0px;"/><path d="m13.61,31.37h18.52c10.21,0,15.58,5.8,15.58,13.85,0,6.68-3.71,11.03-8.09,12.32,3.78,1.13,9.98,5.07,9.98,13.93,0,11.19-7.86,16.26-17.16,16.26H13.61V31.37Zm17.16,24.23c9.07,0,12.48-3.62,12.48-10.06,0-5.56-3.55-9.98-10.89-9.98h-14.59v20.05h13Zm-13,28.02h14.74c6.96,0,12.7-3.7,12.7-11.91,0-7.17-4.23-12-14.82-12h-12.63v23.91Z" style="fill:#fff; stroke-width:0px;"/><path d="m91.1,67.51c0,11.19-5.82,21.17-17.09,21.17-10.28,0-16.63-8.94-16.63-21.09s5.97-21.09,17.01-21.09c10.06,0,16.71,8.37,16.71,21.01Zm-29.56.08c0,9.5,4.76,17.23,12.78,17.23s12.63-7.16,12.63-17.23c0-9.5-4.46-17.23-12.78-17.23s-12.63,7.57-12.63,17.23Z" style="fill:#fff; stroke-width:0px;"/><path d="m189.48,31.37h18.52c10.21,0,15.58,5.8,15.58,13.85,0,6.68-3.71,11.03-8.09,12.32,3.78,1.13,9.98,5.07,9.98,13.93,0,11.19-7.86,16.26-17.16,16.26h-18.83V31.37Zm17.16,24.23c9.07,0,12.48-3.62,12.48-10.06,0-5.56-3.55-9.98-10.89-9.98h-14.59v20.05h13Zm-13,28.02h14.74c6.96,0,12.7-3.7,12.7-11.91,0-7.17-4.23-12-14.82-12h-12.63v23.91Z" style="fill:#fff; stroke-width:0px;"/><path d="m262.13,68.4l-6.65,19.32h-4.31l19.36-56.35h5.07l20.19,56.35h-4.61l-6.8-19.32h-22.23Zm20.87-4.19c-5.9-16.58-8.85-24.63-9.98-28.5h-.08c-1.29,4.35-4.61,14.25-9.38,28.5h19.43Z" style="fill:#fff; stroke-width:0px;"/><path d="m344.31,72.59c-2.5,9.02-8.7,15.78-19.96,15.78-15.2,0-23.21-12.88-23.21-28.74s7.86-29.06,23.29-29.06c11.49,0,18.22,6.84,19.96,16.26h-4.23c-2.42-7.25-6.8-12.08-15.95-12.08-13.08,0-18.52,12.72-18.52,24.8s5.37,24.71,18.83,24.71c8.62,0,12.93-4.83,15.58-11.67h4.23Z" style="fill:#fff; stroke-width:0px;"/><path d="m13.87,94.7h4.65c2.57,0,3.91,1.37,3.91,3.27,0,1.58-.93,2.6-2.03,2.91.95.27,2.51,1.2,2.51,3.29,0,2.64-1.98,3.84-4.31,3.84h-4.73v-13.3Zm4.31,5.72c2.28,0,3.13-.85,3.13-2.37,0-1.31-.89-2.36-2.74-2.36h-3.67v4.73h3.27Zm-3.27,6.61h3.71c1.75,0,3.19-.87,3.19-2.81,0-1.69-1.06-2.83-3.72-2.83h-3.17v5.64Z" style="fill:#fff; stroke-width:0px;"/><path d="m33.49,103.23c0,2.64-1.46,5-4.29,5-2.58,0-4.18-2.11-4.18-4.98s1.5-4.98,4.27-4.98c2.53,0,4.2,1.98,4.2,4.96Zm-7.43.02c0,2.24,1.2,4.07,3.21,4.07s3.17-1.69,3.17-4.07c0-2.24-1.12-4.07-3.21-4.07s-3.17,1.79-3.17,4.07Z" style="fill:#fff; stroke-width:0px;"/><path d="m36.23,105.38c.32,1.22,1.2,1.96,2.68,1.96,1.67,0,2.36-.78,2.36-1.82s-.46-1.6-2.56-2.11c-2.47-.59-3.08-1.35-3.08-2.6s.99-2.53,3.15-2.53,3.19,1.31,3.34,2.66h-.99c-.17-.8-.8-1.77-2.39-1.77s-2.11.8-2.11,1.56c0,.85.46,1.29,2.32,1.75,2.7.65,3.36,1.54,3.36,2.96,0,1.71-1.41,2.79-3.42,2.79-2.19,0-3.4-1.14-3.67-2.85h1.01Z" style="fill:#fff; stroke-width:0px;"/><path d="m43.33,98.5h1.77v-2.96h.99v2.96h2.26v.91h-2.26v6.14c0,1.06.23,1.67,1.14,1.67.29,0,.68-.02.97-.11v.85c-.32.13-.78.17-1.18.17-1.23,0-1.92-.63-1.92-2.15v-6.57h-1.77v-.91Z" style="fill:#fff; stroke-width:0px;"/><path d="m58.04,103.23c0,2.64-1.46,5-4.29,5-2.58,0-4.18-2.11-4.18-4.98s1.5-4.98,4.27-4.98c2.53,0,4.2,1.98,4.2,4.96Zm-7.43.02c0,2.24,1.2,4.07,3.21,4.07s3.17-1.69,3.17-4.07c0-2.24-1.12-4.07-3.21-4.07s-3.17,1.79-3.17,4.07Z" style="fill:#fff; stroke-width:0px;"/><path d="m60.55,100.9c0-.84,0-1.63-.02-2.39h.97c.04.3.06,1.52.04,1.79.42-.97,1.2-2.01,3.13-2.01,1.71,0,3.19.95,3.19,3.57v6.16h-.99v-6c0-1.67-.68-2.77-2.34-2.77-2.22,0-3,1.86-3,3.91v4.86h-.99v-7.1Z" style="fill:#fff; stroke-width:0px;"/><path d="m76.53,94.7h4.65c2.57,0,3.91,1.37,3.91,3.27,0,1.58-.93,2.6-2.03,2.91.95.27,2.51,1.2,2.51,3.29,0,2.64-1.98,3.84-4.31,3.84h-4.73v-13.3Zm4.31,5.72c2.28,0,3.13-.85,3.13-2.37,0-1.31-.89-2.36-2.74-2.36h-3.67v4.73h3.27Zm-3.27,6.61h3.71c1.75,0,3.19-.87,3.19-2.81,0-1.69-1.06-2.83-3.72-2.83h-3.17v5.64Z" style="fill:#fff; stroke-width:0px;"/><path d="m101.11,103.23c0,2.64-1.46,5-4.29,5-2.58,0-4.18-2.11-4.18-4.98s1.5-4.98,4.27-4.98c2.53,0,4.2,1.98,4.2,4.96Zm-7.43.02c0,2.24,1.2,4.07,3.21,4.07s3.17-1.69,3.17-4.07c0-2.24-1.12-4.07-3.21-4.07s-3.17,1.79-3.17,4.07Z" style="fill:#fff; stroke-width:0px;"/><path d="m108.71,100.95c0-.82,0-1.71-.02-2.45h.97c.02.3.06,1.12.04,1.67.4-.95,1.27-1.9,2.85-1.9,1.33,0,2.36.67,2.74,1.86.47-.99,1.42-1.86,3.1-1.86,1.48,0,2.98.84,2.98,3.48v6.25h-.99v-6.14c0-1.27-.46-2.64-2.2-2.64s-2.64,1.46-2.64,3.31v5.47h-.99v-6.12c0-1.37-.4-2.66-2.15-2.66s-2.7,1.61-2.7,3.55v5.22h-.99v-7.05Z" style="fill:#fff; stroke-width:0px;"/><path d="m131.07,106.18c0,.84.08,1.52.13,1.82h-.95c-.08-.23-.13-.65-.17-1.44-.32.68-1.16,1.67-3.12,1.67-2.2,0-3.15-1.42-3.15-2.85,0-2.09,1.62-3.06,4.46-3.06h1.8v-.95c0-.95-.29-2.2-2.43-2.2-1.9,0-2.18.99-2.39,1.77h-.99c.11-1.06.76-2.66,3.4-2.66,2.17,0,3.4.91,3.4,3v4.9Zm-.97-3.02h-1.86c-2.09,0-3.38.55-3.38,2.18,0,1.18.84,1.99,2.17,1.99,2.7,0,3.08-1.8,3.08-3.84v-.34Z" style="fill:#fff; stroke-width:0px;"/><path d="m141.64,107.34c0,3.04-1.35,4.65-4.12,4.65-2.51,0-3.51-1.41-3.74-2.83h1.01c.34,1.29,1.41,1.92,2.77,1.92,2.45,0,3.13-1.6,3.13-3.99v-.99c-.51,1.23-1.44,1.9-3.17,1.9-2.22,0-3.93-1.82-3.93-4.75,0-3.19,1.82-4.98,4.07-4.98,1.94,0,2.77.89,3.04,1.65.02-.55.04-1.2.06-1.42h.93c0,.34-.04,1.84-.04,2.75v6.08Zm-4.01-.27c2.36,0,3.08-1.56,3.08-4.01s-.76-3.88-3.02-3.88-3.06,1.86-3.06,4.03,1.2,3.86,3,3.86Z" style="fill:#fff; stroke-width:0px;"/><path d="m145.14,103.37c.02,2.43,1.23,3.95,3.06,3.95s2.38-1.01,2.7-1.79h1.03c-.4,1.25-1.42,2.7-3.76,2.7-2.91,0-4.03-2.49-4.03-4.9,0-2.74,1.35-5.05,4.14-5.05s3.86,2.51,3.86,4.31c0,.27,0,.53-.02.78h-6.97Zm5.96-.85c-.02-1.86-1.03-3.32-2.87-3.32-1.96,0-2.83,1.35-3.04,3.32h5.91Z" style="fill:#fff; stroke-width:0px;"/><path d="m161.38,103.44l-1.67,4.56h-1.08l4.86-13.3h1.27l5.07,13.3h-1.16l-1.71-4.56h-5.59Zm5.24-.99c-1.48-3.91-2.22-5.81-2.51-6.72h-.02c-.32,1.03-1.16,3.36-2.36,6.72h4.88Z" style="fill:#fff; stroke-width:0px;"/><path d="m172.04,100.9c0-.84,0-1.63-.02-2.39h.97c.04.3.06,1.52.04,1.79.42-.97,1.2-2.01,3.13-2.01,1.71,0,3.19.95,3.19,3.57v6.16h-.99v-6c0-1.67-.68-2.77-2.34-2.77-2.22,0-3,1.86-3,3.91v4.86h-.99v-7.1Z" style="fill:#fff; stroke-width:0px;"/><path d="m189.06,106.18c0,.84.08,1.52.13,1.82h-.95c-.08-.23-.13-.65-.17-1.44-.32.68-1.16,1.67-3.12,1.67-2.2,0-3.15-1.42-3.15-2.85,0-2.09,1.62-3.06,4.46-3.06h1.8v-.95c0-.95-.29-2.2-2.43-2.2-1.9,0-2.18.99-2.39,1.77h-.99c.11-1.06.76-2.66,3.4-2.66,2.17,0,3.4.91,3.4,3v4.9Zm-.97-3.02h-1.86c-2.09,0-3.38.55-3.38,2.18,0,1.18.84,1.99,2.17,1.99,2.7,0,3.08-1.8,3.08-3.84v-.34Z" style="fill:#fff; stroke-width:0px;"/><path d="m192.33,108v-14h.99v14h-.99Z" style="fill:#fff; stroke-width:0px;"/><path d="m196.55,98.5c1.9,5.38,2.74,7.64,3.06,8.66h.02c.38-1.16,1.12-3.36,2.96-8.66h1.03l-3.57,10.05c-1.01,2.81-1.69,3.44-3.42,3.44-.34,0-.57-.02-.87-.06v-.99c.29.04.55.06.86.06,1.35,0,1.79-.65,2.49-2.58l-3.63-9.92h1.08Z" style="fill:#fff; stroke-width:0px;"/><path d="m205.88,105.38c.32,1.22,1.2,1.96,2.68,1.96,1.67,0,2.36-.78,2.36-1.82s-.46-1.6-2.56-2.11c-2.47-.59-3.08-1.35-3.08-2.6s.99-2.53,3.15-2.53,3.19,1.31,3.34,2.66h-.99c-.17-.8-.8-1.77-2.39-1.77s-2.11.8-2.11,1.56c0,.85.46,1.29,2.32,1.75,2.7.65,3.36,1.54,3.36,2.96,0,1.71-1.41,2.79-3.42,2.79-2.19,0-3.4-1.14-3.67-2.85h1.01Z" style="fill:#fff; stroke-width:0px;"/><path d="m219.6,105.38c.32,1.22,1.2,1.96,2.68,1.96,1.67,0,2.36-.78,2.36-1.82s-.46-1.6-2.56-2.11c-2.47-.59-3.08-1.35-3.08-2.6s.99-2.53,3.15-2.53,3.19,1.31,3.34,2.66h-.99c-.17-.8-.8-1.77-2.39-1.77s-2.11.8-2.11,1.56c0,.85.46,1.29,2.32,1.75,2.7.65,3.36,1.54,3.36,2.96,0,1.71-1.41,2.79-3.42,2.79-2.18,0-3.4-1.14-3.67-2.85h1.01Z" style="fill:#fff; stroke-width:0px;"/><path d="m243.63,104.43c-.63,2.13-2.18,3.72-5.02,3.72-3.82,0-5.83-3.04-5.83-6.78s1.98-6.86,5.85-6.86c2.89,0,4.58,1.61,5.02,3.84h-1.06c-.61-1.71-1.71-2.85-4.01-2.85-3.29,0-4.65,3-4.65,5.85s1.35,5.83,4.73,5.83c2.17,0,3.25-1.14,3.91-2.75h1.06Z" style="fill:#fff; stroke-width:0px;"/><path d="m254,103.23c0,2.64-1.46,5-4.29,5-2.58,0-4.18-2.11-4.18-4.98s1.5-4.98,4.27-4.98c2.53,0,4.2,1.98,4.2,4.96Zm-7.43.02c0,2.24,1.2,4.07,3.21,4.07s3.17-1.69,3.17-4.07c0-2.24-1.12-4.07-3.21-4.07s-3.17,1.79-3.17,4.07Z" style="fill:#fff; stroke-width:0px;"/><path d="m263.64,105.23c0,.93.02,2.39.02,2.77h-.95c-.04-.25-.06-.87-.06-1.63-.4,1.1-1.37,1.86-3.04,1.86-1.39,0-3.12-.55-3.12-3.44v-6.29h.97v6.04c0,1.39.44,2.72,2.3,2.72,2.11,0,2.89-1.18,2.89-3.88v-4.88h.99v6.73Z" style="fill:#fff; stroke-width:0px;"/><path d="m266.9,101.09c0-1.6-.02-2.28-.02-2.58h.97c.02.28.04.91.04,2.11.55-1.42,1.75-2.26,3.31-2.34v1.04c-1.98.13-3.31,1.48-3.31,3.76v4.92h-.99v-6.92Z" style="fill:#fff; stroke-width:0px;"/><path d="m273.36,105.38c.32,1.22,1.2,1.96,2.68,1.96,1.67,0,2.36-.78,2.36-1.82s-.46-1.6-2.56-2.11c-2.47-.59-3.08-1.35-3.08-2.6s.99-2.53,3.15-2.53,3.19,1.31,3.34,2.66h-.99c-.17-.8-.8-1.77-2.39-1.77s-2.11.8-2.11,1.56c0,.85.46,1.29,2.32,1.75,2.7.65,3.36,1.54,3.36,2.96,0,1.71-1.41,2.79-3.42,2.79-2.18,0-3.4-1.14-3.67-2.85h1.01Z" style="fill:#fff; stroke-width:0px;"/><path d="m282.2,103.37c.02,2.43,1.23,3.95,3.06,3.95s2.38-1.01,2.7-1.79h1.03c-.4,1.25-1.42,2.7-3.76,2.7-2.91,0-4.03-2.49-4.03-4.9,0-2.74,1.35-5.05,4.14-5.05s3.86,2.51,3.86,4.31c0,.27,0,.53-.02.78h-6.97Zm5.96-.85c-.02-1.86-1.03-3.32-2.87-3.32-1.96,0-2.83,1.35-3.04,3.32h5.91Z" style="fill:#fff; stroke-width:0px;"/><path d="m298.2,93.16v19.81h-.97v-19.81h.97Z" style="fill:#fff; stroke-width:0px;"/><path d="m306.37,108v-.06c0-1.58,1.31-3.51,3.82-5.45,2.15-1.67,2.7-2.18,2.7-3.76,0-1.35-.74-2.53-2.55-2.53-1.69,0-2.56.82-2.89,2.62h-1.01c.25-2.09,1.56-3.55,3.89-3.55,2.55,0,3.63,1.73,3.63,3.4,0,1.94-.82,2.6-3.13,4.48-1.82,1.5-2.94,2.68-3.33,3.88h6.97l-.17.97h-7.94Z" style="fill:#fff; stroke-width:0px;"/><path d="m324.59,101.66c0,2.89-.74,6.57-4.08,6.57s-4.08-3.4-4.08-6.48.87-6.48,4.14-6.48,4.03,3.4,4.03,6.38Zm-7.07.11c0,2.43.51,5.51,2.98,5.51s3-2.94,3-5.62c0-2.39-.47-5.45-2.92-5.45s-3.06,2.79-3.06,5.57Z" style="fill:#fff; stroke-width:0px;"/><path d="m326.68,108v-.06c0-1.58,1.31-3.51,3.82-5.45,2.15-1.67,2.7-2.18,2.7-3.76,0-1.35-.74-2.53-2.55-2.53-1.69,0-2.56.82-2.89,2.62h-1.01c.25-2.09,1.56-3.55,3.89-3.55,2.55,0,3.63,1.73,3.63,3.4,0,1.94-.82,2.6-3.13,4.48-1.82,1.5-2.94,2.68-3.33,3.88h6.97l-.17.97h-7.94Z" style="fill:#fff; stroke-width:0px;"/><path d="m344,96.47h-5.38c-.13,1.22-.49,3.53-.65,4.31.57-.7,1.44-1.22,2.85-1.22,2.17,0,3.7,1.46,3.7,4.14,0,2.45-1.25,4.52-4.07,4.52-2.07,0-3.55-1.22-3.91-3.27h1.04c.32,1.31,1.27,2.34,2.92,2.34,1.98,0,2.95-1.39,2.95-3.53,0-1.8-.78-3.25-2.72-3.25-1.73,0-2.45.72-3,1.9l-.97-.29c.4-1.65.84-5.15,1.01-6.63h6.35l-.13.97Z" style="fill:#fff; stroke-width:0px;"/><path d="m237.19,31.33v7.89h3.93v-7.89h-3.93Z" style="fill:#fff; stroke-width:0px;"/><polygon points="241.12 47.41 241.12 87.66 237.19 87.66 237.19 51.34 233.24 51.34 233.24 47.41 241.12 47.41" style="fill:#fff; stroke-width:0px;"/><rect x="241.12" y="47.41" width=".01" height="3.93" style="fill:#fff; stroke-width:0px;"/><path d="m169.72,29.41v34.84c0,1.02-.32,1.2-1.28,1.2h-62.53c-.98,0-1.27-.2-1.27-1.21V29.4c0-.98.32-1.14,1.23-1.14h62.64c.91,0,1.22.19,1.22,1.14Z" style="fill:#231f20; stroke-width:0px;"/><path d="m181.64,86.9l-7.62-15.27c-.34-.7-.75-.94-1.53-.94h-70.95c-.79,0-1.18.27-1.52.96l-7.52,15.05c-1.15,2.3-.32,3.66,2.22,3.66h84.74c2.33,0,3.21-1.38,2.18-3.46Zm-35.85.98h-18.18c-.38,0-.67-.35-.61-.72l.45-2.77c.05-.3.31-.52.61-.52h17.44c.32,0,.58.24.62.56l.29,2.76c.03.37-.25.69-.62.69Zm28.97-6.28h-75.4c-1.44,0-1.48-.06-.85-1.33,1.14-2.29,2.32-4.55,3.4-6.85.36-.78.82-.97,1.62-.97,22.31.02,44.61.02,66.92-.01.94,0,1.38.31,1.76,1.13,1.07,2.27,2.23,4.5,3.35,6.74.61,1.21.56,1.29-.8,1.29Z" style="fill:#fff; stroke-width:0px;"/><path d="m173.54,27.79c0-2.34-1.03-3.39-3.35-3.39h-66.33c-2.31,0-3.36,1.05-3.36,3.39,0,13.42-.02,40.26-.02,40.26,0,1.06.28,1.3,1.31,1.3,11.7-.04,70.46,0,70.46,0,1.01,0,1.32-.22,1.32-1.29l-.03-40.27Zm-2.79,37.47c0,1.08-.34,1.27-1.33,1.27h-64.8c-1.02,0-1.33-.22-1.32-1.28V28.4c0-1.03.34-1.21,1.27-1.2h64.92c.95-.01,1.26.19,1.26,1.21v36.85Z" style="fill:#fff; stroke-width:0px;"/><path d="m170.68,79.8l-67.81.21c-.79,0-1.3-.83-.94-1.53l1.98-3.89c.18-.35.54-.57.94-.57h64.38c.43,0,.82.26.98.66l1.46,3.68c.27.69-.23,1.44-.97,1.44Z" style="fill:#fff; stroke-width:0px;"/><text transform="translate(106.32 32.03)" style="font-family:CourierNewPSMT, &apos;Courier New&apos;; font-size:2.44px;"><tspan x="0" y="0" style="fill:#5bb95e;">In [1]: from</tspan><tspan x="17.55" y="0" style="fill:#99ce89;"> </tspan><tspan x="19.02" y="0" style="fill:#9e74b1;">microscopy</tspan><tspan x="33.65" y="0" style="fill:#99ce89;"> </tspan><tspan x="35.11" y="0" style="fill:#5bb95e;">import</tspan><tspan x="43.89" y="0" style="fill:#99ce89;"> </tspan><tspan x="45.35" y="0" style="fill:#fff;">analysis</tspan></text><text transform="translate(106.32 36.68)" style="font-family:CourierNewPSMT, &apos;Courier New&apos;; font-size:2.44px;"><tspan x="0" y="0" style="fill:#5bb95e;">In [2]:</tspan><tspan x="10.24" y="0" style="fill:#99ce89;"> </tspan><tspan x="11.7" y="0" style="fill:#fff;">img =</tspan><tspan x="19.02" y="0" style="fill:#99ce89;"> </tspan><tspan x="20.48" y="0" style="fill:#fff;">analysis.</tspan><tspan x="33.65" y="0" style="fill:#61bbc5;">imread</tspan><tspan x="42.42" y="0" style="fill:#fff;">(</tspan><tspan x="43.89" y="0" style="fill:#fcb216;">bobiac.tif</tspan><tspan x="61.44" y="0" style="fill:#fff;">)</tspan></text><rect x="118.19" y="59.8" width="1.18" height="2.44" style="fill:#424142; stroke-width:0px;"/><text transform="translate(106.32 61.64)" style="fill:#5bb95e; font-family:CourierNewPSMT, &apos;Courier New&apos;; font-size:2.44px;"><tspan x="0" y="0">In [4]:</tspan></text><text transform="translate(106.32 41.34)" style="font-family:CourierNewPSMT, &apos;Courier New&apos;; font-size:2.44px;"><tspan x="0" y="0" style="fill:#5bb95e;">In [3]:</tspan><tspan x="10.24" y="0" style="fill:#99ce89;"> </tspan><tspan x="11.7" y="0" style="fill:#fff;">analysis.</tspan><tspan x="24.87" y="0" style="fill:#61bbc5;">imshow</tspan><tspan x="33.65" y="0" style="fill:#fff;">(img)</tspan></text><polygon points="137.3 57.11 137.3 57.12 137.15 57.12 136.47 57.11 136.47 57.1 137.15 57.11 137.3 57.11" style="fill:#5bb95e; stroke:#fff; stroke-miterlimit:10; stroke-width:.1px;"/><polygon points="137.25 46.8 137.25 50.87 137.2 50.87 137.2 46.81 137.25 46.8" style="fill:#5bb95e; stroke:#fff; stroke-miterlimit:10; stroke-width:.1px;"/><rect x="137.2" y="46.79" width=".05" height="4.08" style="fill:#5bb95e; stroke:#fff; stroke-miterlimit:10; stroke-width:.1px;"/><rect x="137.15" y="57.11" width=".16" height=".01" style="fill:#5bb95e; stroke:#fff; stroke-miterlimit:10; stroke-width:.1px;"/><path d="m160.3,56.91c0,.16,0,.32,0,.48l-23-.27h0s-.16-.01-.16-.01h-.68s-22.7-.09-22.7-.09c0-.18,0-1.32,0-1.5,0-.08.01-.13.1-.15.09-.03.18-.08.27-.11.1-.03.14-.08.13-.18,0-.29,0-.57,0-.86,0-.09.03-.12.12-.12h.66c.08,0,.11.03.11.11,0,.08,0,.15,0,.23,0,.09.03.12.12.12.17,0,.34,0,.5,0,.12,0,.14.02.14.14v.33c0,.08-.02.17.03.25.04,0,.08,0,.12,0h.78c.13,0,.14.01.14.14v1.5c0,.07.03.1.1.1.08,0,.16.01.24-.01.05-.12.03-.25.04-.37.02-.45.06-.89.09-1.34.02-.33.02-.66.05-.99,0-.14,0-.27.02-.41.01-.32.05-.64.06-.96.02-.33.03-.65.05-.98.03-.38.06-.75.06-1.12,0-.28.13-.48.33-.65,0,0,.19.18.25.3.09.11.07.25.07.37.03.5.06,1.01.09,1.51.01.17.02.34.03.5.02.35.03.7.06,1.05,0,.14,0,.28.02.42.02.32.03.64.05.96.02.32.06.64.06.96,0,.18.03.37.02.55,0,.07,0,.13.04.2.02,0,.04.01.06.01.12,0,.17.01.16-.15,0-.12,0-.24,0-.36,0-.08.02-.13.1-.14.11-.01.14-.08.13-.18,0-.14.01-1.5.01-1.79,0-.05-.03-.12,0-.15.04-.05.11-.07.18-.09.47-.18.94-.36,1.42-.54.08-.03.1-.07.1-.14-.01-.12.01-.25-.03-.37,0-.01-.01-.02-.01-.03.08-.21.04-.43.04-.64,0-.17.26-.44.39-.52,0,0,.2.11.27.2.04.05.07.08.09.13.03.07.05.12.04.2-.02.18-.01.37,0,.56,0,.03.02.06.04.09l-.02.1c0,.11,0,.22,0,.32,0,.07.02.1.09.12.26.1.52.19.77.29.26.1.51.2.76.29.08.03.1.08.1.15s-.04.14-.05.21c0,.29,0,.57,0,.86,0,.07.06.12.04.19-.04.16-.02.32-.02.48,0,.24,0,.21.23.22.09,0,.12-.04.12-.12,0-.18,0-.36,0-.54,0-.09.04-.13.12-.12.18.01.16-.05.16-.17v-6.26c0-.12.07-.19.17-.23.04-.01.07-.01.1-.02.05-.02.11-.04.09-.11-.02-.1,0-.2-.04-.3-.06-.16,0-.24.17-.28.12-.03.22-.08.32-.15.16-.12.32-.22.48-.33.06-.05.12-.06.19,0,.11.09.24.16.35.24.15.1.29.21.47.25.06.01.15,0,.16.1,0,.06.01.13-.01.19-.1.23-.04.34.18.41.02,0,.03.01.04.01.06,0,.08.05.08.1.01.46-.04.92.04,1.37v5.18h.51c0-1.86.01-3.87.01-5.73v-.06c0-.07.03-.1.1-.1h.37c.07,0,.1.03.1.1v.09c0,.16.02.17.17.17h1.73c.05,0,.1,0,.15-.02.02-.08.01-.15.01-.23,0-.08.03-.11.11-.11.11,0,.22,0,.33,0,.13,0,.15.01.15.15,0,.83,0,1.66,0,2.49v2.13c0,.14,0,.28,0,.42v.31c.14.05.24.12.24.25v.25c0,.19.04.23.22.25.03,0,.06,0,.1,0,.03-.05.03-.11.03-.16,0-.1,0-.2,0-.3,0-.07.03-.12.09-.13.21,0,.27-.12.24-.3,0-.05.02-.1.07-.1.14.01.13-.08.13-.18v-7.49c0-.23-.04-.25.23-.24.06,0,.1-.03.12-.09.02-.06.01-.09.01-.14h0s-.05-.03-.08-.03c-.12,0-.13-.03-.13-.14,0-.11,0-.22-.02-.33.08-.04.87-.03,1.03-.03.16,0,.33.05.47-.09.07.02.12-.03.17-.07v-2.47h.1v2.49s.1.07.17.05c.02,0,.05,0,.06.01.04.1.14.08.22.08.35,0,.71,0,1.06-.01.02,0,.06,0,.09,0,.06.01.11.03.09.12-.02.09-.01.18,0,.27,0,.08-.03.11-.11.12-.04,0-.07.02-.11.03v.08c.01.11.05.15.16.15.22,0,.21,0,.21.2v6.83c0,.15.01.17.16.17h1.04s.09-7.19.09-7.19c.01-.03.04-.04.12-.06l.56-.15.06-.02-.08,9.1h.05l.08-9.11h.04s.02-.01.02-.01l3.22.2c.16,0,.18.03.18.19v8.59c0,.05,0,.11.02.15.06.02.13.01.19.01.06,0,.1-.04.1-.1v-.19c0-.08.07-.14.14-.14h1.73c.08,0,.14.06.14.14v.46c.08.04.14.04.21,0,0-.02.01-.04.01-.06v-.85c0-.06-.01-.11,0-.16.03-.16.02-.31,0-.46,0-.04-.01-.06,0-.1.05-.12-.01-.26.09-.37.01-.01,0-.04,0-.06,0-.08,0-.16,0-.24,0-.1.02-.19-.01-.28-.04-.1-.02-.17.06-.21,0-.06-.01-.1.01-.14.08-.15.09-.32.14-.48.01-.04.04-.09.05-.13.02-.07.11-.08.14-.01.04.07.05.16.06.2.04.14.05.28.12.41.03.05.01.1.02.15,0,0,.12.06.06.2-.02.03-.02.06-.02.09v.42s0,.1.03.13c.06.08.05.16.06.25.02.1,0,.19,0,.29-.02.18.02.36,0,.54-.02.49,0,.97,0,1.46,0,.1.04.13.15.12.13-.02.26-.02.39,0,.11.02.16-.02.15-.12,0-.48,0-.96,0-1.45-.02-.73-.01-1.46-.02-2.19,0-.04,0-.08.04-.1.1-.04.08-.12.09-.2,0-.05-.02-.11.03-.14.08-.04.08-.09.08-.16,0-.06-.01-.12.01-.15.04-.04.07-.03.1-.03q.14,0,.18-.14c.03-.14.09-.26.19-.37.13-.15.34-.19.46-.33,0,0,.06.12.19.16.27.1.4.3.45.56.02.1.06.12.15.12.13,0,.14.01.14.13,0,.07.04.16.08.21.04.06.03.13.03.19,0,.06,0,.12.07.14.05.02.05.06.05.1,0,.54,0,1.08,0,1.62-.02.73,0,1.45-.02,2.17,0,.09.04.12.12.12.16,0,.32,0,.47,0,.08,0,.14-.07.14-.14v-1.31c0-.06.01-.11.05-.15.1-.11.19-.23.28-.33.11-.12.2-.26.33-.37.19.18.38.35.57.52.04.03.02.06.02.1v.6c.09.04.17.04.26,0,0-.16,0-.31,0-.47,0-.1.04-.13.13-.12.21,0,.41,0,.62,0,.07,0,.14,0,.21.04.01.12.04.25.03.37-.02.31.08.59.16.88.02.09.07.11.15.11h.69c.1,0,.17-.08.17-.17v-2.39c0-.14.02-.17.15-.2.04,0,.08-.01.11-.01.23.02.41-.11.61-.19.05-.02.07-.06.05-.1-.08-.15.05-.23.12-.31.08-.06.14-.07.21-.04.05.02.1.06.12.11.04.07.08.17.06.21-.03.07,0,.11.06.13.14.06.27.12.41.17.05.03.12,0,.17,0,.03,0,.07,0,.1,0,.17.03.19.05.19.22,0,.7,0,1.39,0,2.09,0,.09.01.17.08.24.02.02.04.04.05.06.06.22.23.19.39.19.05,0,.07-.03.09-.06.04-.08.1-.15.16-.22.04-.06.06-.12.05-.19-.01-.18.02-.35-.04-.53-.03-.08.05-.15.16-.15.3,0,.59,0,.88,0,.17,0,.23-.03.26-.22.04-.02.09-.03.13-.02.14,0,.28,0,.42,0,.1,0,.19-.08.17-.17-.03-.2.06-.3.23-.36.07-.03.1-.08.13-.14.06-.16.14-.32.31-.41.1-.06.18-.16.13-.3-.02-.05.07-.14.13-.14.06,0,.13.08.11.14-.04.14.02.22.12.28.18.1.28.26.33.44.03.09.1.13.17.16.14.06.19.14.18.29-.02.17.04.22.22.23.16,0,.32-.03.48.02,0,0,.08.22.28.22.28,0,.55,0,.82,0,.11,0,.19.01.22.12-.02.09-.05.18-.04.28,0,.21.02.43,0,.64,0,.05,0,.1.04.14.05.05.06.11.06.17Z" style="fill:#5bb95e; stroke:#fff; stroke-miterlimit:10; stroke-width:.1px;"/><path d="m215.27,94v1.86h.99v-1.86h-.99Z" style="fill:#fff; stroke-width:0px;"/><polygon points="216.26 98.5 216.26 108 215.27 108 215.27 99.49 214.39 99.49 214.39 98.5 216.26 98.5" style="fill:#fff; stroke-width:0px;"/><path d="m104.12,94v1.86h.99v-1.86h-.99Z" style="fill:#fff; stroke-width:0px;"/><polygon points="105.11 98.5 105.11 108 104.12 108 104.12 99.49 103.24 99.49 103.24 98.5 105.11 98.5" style="fill:#fff; stroke-width:0px;"/><path d="m88.69,94v1.86h.99v-1.86h-.99Z" style="fill:#fff; stroke-width:0px;"/><polygon points="89.68 98.5 89.68 108 88.69 108 88.69 99.49 87.81 99.49 87.81 98.5 89.68 98.5" style="fill:#fff; stroke-width:0px;"/><path d="m404.39,86.61c-.87-.35-1.8-.51-2.62-1.06-1.39-.94-2.06-2.21-2.17-3.84,0-.12,0-.24,0-.36-.02-1.65.25-1.99,1.9-2.21,2.69-.35,5.39-.15,8.09-.19.58,0,.9.41,1.09.76,1.06,1.94.03,4.83-1.89,5.8-1.12.56-2.31.81-3.5,1.1h-.89Z" style="fill:#c32032; stroke:#fff; stroke-miterlimit:10; stroke-width:.09px;"/><path d="m393.86,81.61c-.82-.13-.84-.77-1.09-1.15-1.71-2.55-3.61-4.99-5.08-7.69-.64-1.17-1.12-2.46-1.49-3.75-.64-2.22-1.77-4.13-3.4-5.7-1.08-1.04-2.45-1.74-3.74-2.52-.74-.45-1.62-.81-2.01-1.86.88.3,1.73.27,2.58.45,1.38.29,2.83.31,4.23-.04.32-.08.63-.14.95-.18,1.59-.16,3.06-.75,4.56-1.28,1.77-.62,3.38-1.86,5.42-1.6,1.11.14,2.1.58,3.07,1.06.99.5,1.89,1.17,2.86,1.7.52.29.71.77.69,1.23-.08,1.56-.75,2.93-1.47,4.3-1.46,2.77-3.51,5.17-4.93,7.96-.96,1.9-1.16,3.98-1.16,6.08,0,.97,0,1.95,0,2.98Z" style="fill:#c32032; stroke:#fff; stroke-miterlimit:10; stroke-width:.09px;"/><path d="m416.89,81.47c-.33-.7.21-1.18.27-1.79.15-1.52.28-3.05-.11-4.51-.38-1.44-.98-2.84-1.79-4.11-.93-1.46-1.84-2.95-2.87-4.34-.77-1.05-1.39-2.15-1.9-3.35-.42-.99-.76-2.01-.86-3.06-.08-.89.76-1.25,1.38-1.6,1.03-.58,2.14-1.03,3.2-1.57,1.81-.94,3.53-1,5.43-.04,1.39.7,2.9,1.22,4.44,1.64,2.61.71,5.19.61,7.81.3.71-.08,1.36-.51,2.1-.52.19,0,.44-.14.53.14.07.21-.06.34-.22.51-.66.71-1.5,1.16-2.3,1.64-1.86,1.1-3.69,2.26-5.03,3.96-.74.93-1.33,2.01-1.68,3.19-.66,2.21-1.57,4.32-2.8,6.25-1.27,1.99-2.69,3.86-4.25,5.65-.45.52-1.1.92-1.35,1.64Z" style="fill:#c32032; stroke:#fff; stroke-miterlimit:10; stroke-width:.09px;"/><path d="m396.12,36c-.91-1.57-1.7-3.03-2.57-4.42-1.49-2.37-3.78-3.02-6.43-2.98-2.02.03-3.65.82-4.77,2.44-1,1.45-1.82,3.04-1.62,4.91.1.89.67,1.55,1.47,1.86.61.24,1.25.46,1.96.44,1.69-.06,3.39-.02,5.09,0,.19,0,.44-.11.55.14.1.24-.13.34-.25.5-1.24,1.62-2.76,2.71-4.89,2.69-.57,0-1.13.01-1.7,0-2.19-.08-2.84-.75-3.61-2.65-.56-1.37-.56-2.83-.28-4.16.35-1.65,1.06-3.23,1.9-4.74.61-1.1,1.26-2.18,2.06-3.13,1.1-1.31,2.26-2.37,4.23-2.47,3.06-.15,4.95,1.58,6.85,3.51,1.36,1.39,2.2,3.06,2.65,4.91.12.48.16,1.03-.12,1.55-.23.43-.31.94-.51,1.6Z" style="fill:#c32032; stroke:#fff; stroke-miterlimit:10; stroke-width:.09px;"/><path d="m421.27,38.53c1.03-.22,1.91-.32,2.79-.24,1.72.15,3.29-.53,4.88-.98.62-.17,1.04-.77,1.27-1.6.3-1.14.1-2.14-.1-3.2-.25-1.3-1.11-2.18-2.08-2.98-1.48-1.23-3.23-1.55-5.03-1.27-2.17.33-4.2,1.2-5.69,2.87-.76.85-1.3,1.94-1.17,3.2.04.38.05.78,0,1.16-.04.31.26.9-.19.86-.34-.03-.99-.19-1.07-.84-.21-1.77-.29-3.53.53-5.17.68-1.37,1.49-2.66,2.73-3.61,1.34-1.02,2.63-2.02,4.44-2.25,3-.38,4.23.82,5.75,3.04,1.21,1.76,2.15,3.65,2.91,5.61.47,1.21,1.13,2.4,1.21,3.79.03.58.3,1.15.32,1.78.05,1.47-1.48,2.65-2.69,2.76-1.51.14-3.01.23-4.54.05-1.44-.17-2.45-.97-3.3-2-.26-.31-.52-.6-.97-.95Z" style="fill:#c32032; stroke:#fff; stroke-miterlimit:10; stroke-width:.09px;"/><path d="m435.36,36.04h49.88c6.44,0,11.67,5.22,11.67,11.67v53.6c0,6.44-5.22,11.67-11.67,11.67h-101.15c-6.44,0-11.67-5.22-11.67-11.67v-53.6c0-3.8,1.82-7.17,4.63-9.3" style="fill:none; stroke:#fff; stroke-miterlimit:10; stroke-width:.48px;"/><text transform="translate(445.66 56.88)" style="fill:#fff; font-family:RobotoSlab-Bold, &apos;Roboto Slab&apos;; font-size:13.58px; font-weight:700;"><tspan x="0" y="0">Image</tspan></text><text transform="translate(428.92 78.93)" style="fill:#fff; font-family:RobotoSlab-Bold, &apos;Roboto Slab&apos;; font-size:13.58px; font-weight:700;"><tspan x="0" y="0">Analysis</tspan></text><text transform="translate(398.99 100.5)" style="fill:#fff; font-family:RobotoSlab-Bold, &apos;Roboto Slab&apos;; font-size:13.58px; font-weight:700;"><tspan x="0" y="0">C</tspan><tspan x="8.8" y="0" style="letter-spacing:0em;">o</tspan><tspan x="16.27" y="0">ll</tspan><tspan x="24.93" y="0" style="letter-spacing:-.02em;">a</tspan><tspan x="32.18" y="0">bo</tspan><tspan x="47.62" y="0" style="letter-spacing:0em;">r</tspan><tspan x="53.2" y="0" style="letter-spacing:-.04em;">a</tspan><tspan x="60.13" y="0" style="letter-spacing:-.01em;">t</tspan><tspan x="64.99" y="0">o</tspan><tspan x="72.6" y="0" style="letter-spacing:0em;">r</tspan><tspan x="78.44" y="0">y</tspan></text><g style="clip-path:url(#uuid-91b2ccb8-5665-40f6-9a4e-d8f7dd976fb1);"><path d="m868.44,40.37l24.12,13.92v-27.85l-24.12,13.92Z" style="fill:#ce6dff; stroke-width:0px;"/><path d="m868.44,68.21v-27.85l24.12,13.92-24.12,13.92Z" style="fill:#2454ff; stroke-width:0px;"/><path d="m868.44,96.06v-27.85l24.12,13.92-24.12,13.92Z" style="fill:#06eeb6; stroke-width:0px;"/><path d="m892.56,82.14v-27.85l24.12,13.92-24.12,13.92Z" style="fill:#f91c6b; stroke-width:0px;"/><path d="m892.56,109.98v-27.85l24.12,13.92-24.12,13.92Z" style="fill:#fbde33; stroke-width:0px;"/><path d="m868.44,68.21l24.12,13.92v-27.85l-24.12,13.92Z" style="fill:#00b2ff; stroke-width:0px;"/><path d="m868.44,96.06l24.12,13.92v-27.85l-24.12,13.92Z" style="fill:#1cc239; stroke-width:0px;"/><path d="m892.56,82.14l24.12,13.92v-27.85l-24.12,13.92Z" style="fill:#fea802; stroke-width:0px;"/><path d="m943.62,66.22v-2.46l2.18-.42v-14.68l-2.18-.42v-2.47h9.09c2.41,0,4.29.47,5.63,1.41,1.35.94,2.02,2.34,2.02,4.2,0,.95-.25,1.79-.76,2.54-.5.74-1.22,1.3-2.18,1.67,1.23.26,2.15.82,2.75,1.69.62.86.93,1.86.93,2.99,0,1.96-.65,3.44-1.94,4.45-1.29,1-3.12,1.5-5.49,1.5h-10.06Zm6.28-11.89h2.95c1.1,0,1.94-.22,2.53-.67.59-.45.89-1.11.89-1.97,0-1.85-1.19-2.77-3.55-2.77h-2.81v5.41Zm0,8.74h3.78c2.23,0,3.34-.94,3.34-2.81,0-1-.24-1.77-.73-2.29-.49-.53-1.26-.8-2.3-.8h-4.09v5.9Z" style="fill:#fff; stroke-width:0px;"/><path d="m962.47,66.22v-2.46l1.98-.42v-9.43l-2.19-.42v-2.47h6.3v12.32l1.97.42v2.46h-8.05Zm1.84-18.42v-3.5h4.24v3.5h-4.24Z" style="fill:#fff; stroke-width:0px;"/><path d="m979.15,66.51c-1.51,0-2.8-.33-3.88-.98-1.07-.66-1.89-1.56-2.46-2.73-.57-1.17-.86-2.52-.86-4.03v-.29c0-1.51.29-2.84.86-4,.57-1.17,1.39-2.08,2.46-2.74,1.08-.67,2.36-1,3.85-1s2.78.33,3.85.98c1.08.66,1.9,1.57,2.47,2.74.57,1.16.86,2.5.86,4.02v.29c0,1.52-.29,2.86-.86,4.03-.57,1.16-1.39,2.07-2.46,2.73s-2.35.98-3.84.98Zm0-3.15c1.06,0,1.83-.42,2.32-1.26.5-.84.74-1.95.74-3.33v-.29c0-1.35-.25-2.45-.74-3.3-.5-.85-1.28-1.28-2.35-1.28s-1.85.43-2.33,1.28c-.49.85-.73,1.95-.73,3.3v.29c0,1.39.24,2.5.73,3.34.49.83,1.27,1.25,2.36,1.25Z" style="fill:#fff; stroke-width:0px;"/><path d="m988.05,66.22v-2.46l2.18-.42v-14.68l-2.18-.42v-2.47h8.46v2.47l-2.18.42v14.68l2.18.42v2.46h-8.46Z" style="fill:#fff; stroke-width:0px;"/><path d="m998.02,66.22v-2.46l1.98-.42v-9.43l-2.19-.42v-2.47h6l.17,2.01c.49-.73,1.1-1.29,1.83-1.69.74-.4,1.59-.6,2.56-.6s1.81.22,2.5.65c.69.43,1.22,1.08,1.57,1.95.47-.81,1.08-1.45,1.83-1.91.75-.46,1.63-.69,2.64-.69,1.5,0,2.68.51,3.54,1.53.87,1.02,1.31,2.58,1.31,4.66v6.41l1.98.42v2.46h-7.85v-2.46l1.77-.42v-6.42c0-1.11-.19-1.89-.56-2.33-.37-.44-.9-.66-1.6-.66-.64,0-1.18.18-1.62.55-.44.36-.76.83-.96,1.42v7.45l1.66.42v2.46h-7.41v-2.46l1.66-.42v-6.42c0-1.1-.19-1.87-.56-2.32-.37-.45-.91-.67-1.63-.67-1.13,0-1.98.45-2.54,1.36v8.05l1.77.42v2.46h-7.84Z" style="fill:#fff; stroke-width:0px;"/><path d="m1030.21,66.51c-1.51,0-2.71-.4-3.6-1.21-.89-.81-1.33-1.92-1.33-3.32s.58-2.59,1.73-3.48c1.16-.9,2.87-1.35,5.11-1.35h2.01v-1.12c0-.73-.21-1.32-.65-1.77-.42-.46-1.06-.69-1.91-.69-.44,0-.84.06-1.19.17-.35.1-.66.25-.94.45l-.32,2.01h-2.95l-.06-3.95c.8-.45,1.66-.81,2.59-1.1.93-.28,1.96-.42,3.11-.42,1.99,0,3.55.46,4.71,1.39,1.15.93,1.73,2.24,1.73,3.95v6.87c0,.2.03.39.06.59l1.59.22v2.46h-5.09c-.1-.26-.21-.54-.31-.84-.1-.3-.18-.6-.22-.9-.49.62-1.06,1.11-1.73,1.49-.65.37-1.43.55-2.32.55Zm1.1-3.04c.57,0,1.11-.13,1.62-.38.52-.26.92-.6,1.21-1.03v-2.4h-2.02c-.9,0-1.58.21-2.05.62-.46.41-.69.91-.69,1.49,0,.54.17.96.51,1.26.35.29.83.44,1.43.44Z" style="fill:#fff; stroke-width:0px;"/><path d="m1048.05,72.36c-.77,0-1.63-.1-2.59-.31-.96-.2-1.8-.47-2.53-.83l.76-2.92c.65.28,1.35.5,2.08.66.74.17,1.43.25,2.07.25,1.1,0,1.9-.3,2.4-.91.52-.61.77-1.46.77-2.54v-1c-.93,1.17-2.15,1.76-3.68,1.76-1.25,0-2.31-.31-3.19-.93-.88-.63-1.56-1.5-2.04-2.63-.47-1.12-.7-2.43-.7-3.92v-.3c0-1.6.23-3,.7-4.2.47-1.2,1.14-2.13,2.01-2.8.87-.67,1.91-1.01,3.13-1.01.91,0,1.69.19,2.35.58.66.37,1.21.91,1.67,1.62l.3-1.91h5.35v2.47l-1.78.38v11.9c0,2-.63,3.6-1.9,4.79-1.25,1.2-2.98,1.8-5.19,1.8Zm.44-9.03c1.15,0,1.99-.45,2.53-1.35v-6.6c-.55-.96-1.39-1.45-2.51-1.45-1.05,0-1.81.45-2.29,1.33-.47.89-.7,2.05-.7,3.48v.3c0,1.33.23,2.38.69,3.15.46.76,1.22,1.14,2.29,1.14Z" style="fill:#fff; stroke-width:0px;"/><path d="m1058.05,66.22v-2.46l1.98-.42v-9.43l-2.19-.42v-2.47h6.3v12.32l1.97.42v2.46h-8.05Zm1.84-18.42v-3.5h4.24v3.5h-4.24Z" style="fill:#fff; stroke-width:0px;"/><path d="m1067.32,66.22v-2.46l1.97-.42v-9.43l-2.18-.42v-2.47h6l.18,2.18c.51-.78,1.13-1.38,1.87-1.81.75-.43,1.6-.65,2.56-.65,1.5,0,2.67.48,3.53,1.45.86.96,1.29,2.48,1.29,4.54v6.62l1.97.42v2.46h-7.84v-2.46l1.76-.42v-6.6c0-1.02-.21-1.74-.62-2.16-.4-.43-1-.65-1.78-.65-1.14,0-2.02.48-2.63,1.43v7.98l1.66.42v2.46h-7.73Z" style="fill:#fff; stroke-width:0px;"/><path d="m1092.39,72.36c-.77,0-1.63-.1-2.59-.31-.96-.2-1.8-.47-2.53-.83l.76-2.92c.66.28,1.35.5,2.08.66.74.17,1.43.25,2.07.25,1.1,0,1.9-.3,2.4-.91.52-.61.77-1.46.77-2.54v-1c-.93,1.17-2.15,1.76-3.68,1.76-1.25,0-2.31-.31-3.19-.93-.88-.63-1.56-1.5-2.04-2.63-.47-1.12-.7-2.43-.7-3.92v-.3c0-1.6.23-3,.7-4.2.47-1.2,1.14-2.13,2.01-2.8.87-.67,1.92-1.01,3.13-1.01.91,0,1.69.19,2.35.58.66.37,1.21.91,1.67,1.62l.3-1.91h5.35v2.47l-1.78.38v11.9c0,2-.63,3.6-1.9,4.79-1.25,1.2-2.98,1.8-5.18,1.8Zm.43-9.03c1.15,0,2-.45,2.53-1.35v-6.6c-.55-.96-1.39-1.45-2.51-1.45-1.05,0-1.81.45-2.29,1.33-.47.89-.7,2.05-.7,3.48v.3c0,1.33.23,2.38.69,3.15.46.76,1.22,1.14,2.29,1.14Z" style="fill:#fff; stroke-width:0px;"/><path d="m943.62,96.06v-2.46l2.18-.42v-14.68l-2.18-.42v-2.47h6.34l8.91,14.19h.08v-11.3l-2.61-.42v-2.47h8.47v2.47l-2.19.42v17.56h-3.96l-9.11-14.05h-.08v11.17l2.63.42v2.46h-8.47Z" style="fill:#fff; stroke-width:0px;"/><path d="m973.5,96.36c-1.51,0-2.8-.33-3.88-.98-1.07-.66-1.89-1.56-2.46-2.73-.57-1.17-.86-2.52-.86-4.03v-.3c0-1.51.29-2.84.86-4,.57-1.17,1.39-2.08,2.46-2.74,1.08-.67,2.36-1,3.85-1s2.78.33,3.85.98c1.08.66,1.9,1.57,2.47,2.74.57,1.16.86,2.5.86,4.02v.3c0,1.52-.29,2.86-.86,4.03-.57,1.16-1.39,2.07-2.46,2.73-1.07.66-2.35.98-3.84.98Zm0-3.15c1.06,0,1.83-.42,2.32-1.26.5-.84.74-1.95.74-3.33v-.3c0-1.35-.25-2.45-.74-3.3-.5-.85-1.28-1.28-2.35-1.28s-1.85.43-2.33,1.28c-.49.85-.73,1.95-.73,3.3v.3c0,1.39.24,2.5.73,3.34.49.83,1.27,1.25,2.36,1.25Z" style="fill:#fff; stroke-width:0px;"/><path d="m982.81,96.06v-2.46l1.97-.42v-9.43l-2.18-.42v-2.47h6l.15,1.88.03.34c.75-1.67,1.87-2.5,3.37-2.5.24,0,.51.02.79.06.29.04.55.09.79.17l-.44,3.78-2.04-.11c-.58-.03-1.05.07-1.42.3-.36.22-.67.55-.96.97v7.45l1.97.42v2.46h-8.04Z" style="fill:#fff; stroke-width:0px;"/><path d="m1001.26,96.36c-1.41,0-2.51-.39-3.27-1.17-.76-.78-1.14-2.01-1.14-3.7v-7.76h-2.09v-2.88h2.09v-3.72h4.09v3.72h2.8v2.88h-2.8v7.74c0,.59.12,1.01.37,1.26.25.25.59.38,1.03.38.22,0,.47-.01.73-.04.26-.04.49-.07.67-.11l.35,2.96c-.41.12-.87.22-1.36.3-.5.08-.98.13-1.46.13Z" style="fill:#fff; stroke-width:0px;"/><path d="m1005.4,96.06v-2.46l1.98-.42v-16.14l-2.19-.42v-2.47h6.28v8.66c.48-.7,1.07-1.25,1.77-1.63.71-.39,1.52-.59,2.42-.59,1.53,0,2.74.51,3.63,1.53.9,1.01,1.35,2.58,1.35,4.71v6.37l1.97.42v2.46h-7.84v-2.46l1.77-.42v-6.39c0-1.1-.21-1.87-.62-2.33-.41-.46-1.02-.69-1.81-.69-1.15,0-2.03.45-2.63,1.35v8.07l1.77.42v2.46h-7.84Z" style="fill:#fff; stroke-width:0px;"/><path d="m1028.36,96.06v-2.46l1.46-.21,6.51-17.79h4.2l6.46,17.79,1.46.21v2.46h-6.97v-2.46l1.42-.25-.9-2.81h-7.19l-.9,2.81,1.42.25v2.46h-6.97Zm7.42-8.54h5.25l-2.39-7.01-.2-.62h-.08l-.21.66-2.37,6.97Z" style="fill:#fff; stroke-width:0px;"/><path d="m1049.48,96.06v-2.46l1.98-.42v-9.43l-2.19-.42v-2.47h6l.17,2.01c.49-.73,1.1-1.29,1.83-1.69.74-.4,1.59-.6,2.56-.6s1.81.22,2.5.65c.69.43,1.22,1.08,1.57,1.95.47-.82,1.08-1.45,1.83-1.91s1.63-.69,2.64-.69c1.5,0,2.68.51,3.54,1.53.87,1.02,1.31,2.58,1.31,4.66v6.41l1.98.42v2.46h-7.86v-2.46l1.77-.42v-6.42c0-1.11-.19-1.89-.56-2.33-.37-.44-.9-.66-1.6-.66-.64,0-1.17.18-1.62.55-.44.36-.76.83-.95,1.42v7.45l1.66.42v2.46h-7.41v-2.46l1.66-.42v-6.42c0-1.1-.19-1.87-.56-2.32-.37-.45-.91-.67-1.63-.67-1.13,0-1.98.45-2.54,1.36v8.05l1.77.42v2.46h-7.84Z" style="fill:#fff; stroke-width:0px;"/><path d="m1083.72,96.36c-1.46,0-2.73-.32-3.82-.96-1.08-.65-1.92-1.53-2.51-2.66-.59-1.12-.89-2.41-.89-3.85v-.56c0-1.51.28-2.84.84-4,.56-1.17,1.35-2.09,2.38-2.75,1.03-.67,2.24-1.01,3.64-1,2.05,0,3.62.6,4.71,1.81,1.09,1.2,1.63,2.89,1.63,5.06v2.23h-8.94l-.03.08c.08,1,.41,1.83,1,2.47.59.65,1.43.97,2.51.97.75,0,1.45-.09,2.09-.28.66-.2,1.29-.48,1.91-.86l1.11,2.53c-.63.51-1.42.93-2.38,1.26-.95.33-2.03.49-3.26.49Zm-2.94-9.39h5.07v-.37c0-.92-.19-1.64-.58-2.18-.38-.54-.99-.81-1.86-.81s-1.45.31-1.88.94c-.43.62-.7,1.4-.8,2.35l.04.07Z" style="fill:#fff; stroke-width:0px;"/><path d="m1091.9,96.06v-2.46l1.97-.42v-9.43l-2.18-.42v-2.47h6l.16,1.88.03.34c.75-1.67,1.87-2.5,3.37-2.5.24,0,.51.02.79.06.29.04.55.09.79.17l-.44,3.78-2.04-.11c-.58-.03-1.05.07-1.42.3-.36.22-.67.55-.95.97v7.45l1.97.42v2.46h-8.04Z" style="fill:#fff; stroke-width:0px;"/><path d="m1104.11,96.06v-2.46l1.98-.42v-9.43l-2.19-.42v-2.47h6.3v12.32l1.97.42v2.46h-8.05Zm1.84-18.42v-3.5h4.24v3.5h-4.24Z" style="fill:#fff; stroke-width:0px;"/><path d="m1120.69,96.36c-1.46,0-2.73-.33-3.79-.98-1.06-.66-1.87-1.56-2.45-2.71-.57-1.15-.86-2.48-.86-3.98v-.42c0-1.49.29-2.81.87-3.96.58-1.16,1.4-2.07,2.46-2.73,1.06-.67,2.3-1,3.74-1,1.36,0,2.53.22,3.53.65.99.42,1.8.91,2.42,1.48l-.03,4.36h-3.09l-.55-2.71c-.22-.22-.51-.41-.86-.55-.35-.14-.7-.21-1.05-.21-1.12,0-1.96.42-2.51,1.25-.54.82-.82,1.97-.82,3.43v.42c0,1.56.3,2.71.89,3.44.59.72,1.3,1.08,2.14,1.08.72,0,1.3-.19,1.73-.56.44-.38.74-.92.91-1.62h3.5l.04.08c-.24,1.62-.84,2.9-1.8,3.84-.95.94-2.43,1.41-4.41,1.41Z" style="fill:#fff; stroke-width:0px;"/><path d="m1133.83,96.36c-1.51,0-2.71-.4-3.6-1.21-.89-.81-1.34-1.92-1.34-3.32s.58-2.59,1.73-3.48c1.16-.9,2.87-1.35,5.11-1.35h2.01v-1.12c0-.73-.21-1.32-.65-1.77-.42-.46-1.06-.69-1.91-.69-.44,0-.84.06-1.19.17-.35.1-.66.25-.94.45l-.32,2.01h-2.95l-.06-3.95c.8-.45,1.66-.81,2.59-1.1.93-.28,1.96-.42,3.11-.42,1.98,0,3.55.46,4.71,1.39,1.15.93,1.73,2.24,1.73,3.95v6.87c0,.2.03.39.06.59l1.59.22v2.46h-5.09c-.1-.26-.21-.54-.31-.84-.1-.3-.18-.6-.22-.9-.49.62-1.06,1.11-1.73,1.49-.66.37-1.43.55-2.32.55Zm1.1-3.04c.57,0,1.11-.13,1.62-.38.52-.26.92-.6,1.21-1.03v-2.4h-2.02c-.9,0-1.58.21-2.05.62-.46.41-.69.91-.69,1.49,0,.54.17.96.51,1.26.35.29.83.44,1.43.44Z" style="fill:#fff; stroke-width:0px;"/></g></svg>