<?xml version="1.0" encoding="UTF-8"?><svg id="uuid-49db05cb-d439-4feb-b20d-244f7219ea21" xmlns="http://www.w3.org/2000/svg" viewBox="0 0 999.75 137.38"><path d="m624.54,109.28h-7.37s0,0,0,0h-17.34s-3.04-.02-3.04-.02h-14.31s0-.01,0-.01h-17.34s0-.01,0-.01h-11.24s2.57-4.44,2.57-4.44l3.96-6.85,3.96-6.85,3.96-6.85,3.32-5.74c3.4,4.37,8.29,9.86,14.61,14.93t0,0c3.66,2.94,7.81,5.74,12.41,8.1,4.58,2.34,9.24,4.06,13.74,5.31,0,0,0,0,.01,0,4.24,1.18,8.34,1.94,12.08,2.42Z" style="fill:#c32032; stroke:#fff; stroke-miterlimit:10; stroke-width:.58px;"/><path d="m630.61,93.55c-2.08-2.12-4.4-4.3-6.97-6.41-3.84-3.15-8.22-6.17-13.13-8.68-4.9-2.51-9.89-4.29-14.68-5.56-3.85-1.02-7.56-1.7-10.99-2.15-3.02-.4-5.81-.61-8.27-.72l4.56-7.88,5.88-10.16,9.85-17.02.29.51,5.57,9.66,13.98,24.26,1.57,2.73,4,6.95,4.7,8.15,3.65,6.33Z" style="fill:#c32032; stroke:#fff; stroke-miterlimit:10; stroke-width:.58px;"/><path d="m626.96,87.23l3.65,6.33c-2.08-2.12-4.4-4.3-6.97-6.41-3.84-3.15-8.22-6.17-13.13-8.68-4.9-2.51-9.89-4.29-14.68-5.56-3.85-1.02-7.56-1.7-10.99-2.15-1.52-2.74-2.76-5.62-3.71-8.6l5.88-10.16,9.85-17.02.29.51,5.57,9.66,13.98,24.26,1.57,2.73,4,6.95,4.7,8.15Z" style="fill:none; stroke:#fff; stroke-miterlimit:10; stroke-width:.63px;"/><path d="m626.96,87.23c-1.11.02-2.22,0-3.33-.08-3.84-3.15-8.22-6.17-13.13-8.68-4.9-2.51-9.89-4.29-14.68-5.56-4.95-5.99-7.99-13.29-8.82-20.91l9.85-17.02.29.51,5.57,9.66,13.98,24.26,1.57,2.73,4,6.95,4.7,8.15Z" style="fill:none; stroke:#fff; stroke-miterlimit:10; stroke-width:.63px;"/><path d="m622.26,79.08c-3.89-.5-7.75-1.73-11.39-3.76-14.21-7.93-19.91-25.19-13.73-39.84l5.57,9.66,13.98,24.26,1.57,2.73,4,6.95Z" style="fill:none; stroke:#fff; stroke-miterlimit:10; stroke-width:.63px;"/><path d="m616.69,69.41c-.67-.29-1.32-.62-1.97-.98-8.57-4.78-13.01-14.1-12.01-23.28l13.98,24.26Z" style="fill:none; stroke:#fff; stroke-miterlimit:10; stroke-width:.63px;"/><polyline points="568.35 84.25 586.28 93.44 586.29 93.44" style="fill:none; stroke:#fff; stroke-linecap:round; stroke-miterlimit:10; stroke-width:.87px;"/><polyline points="612.45 106.85 612.46 106.86 617.17 109.27 617.17 109.27" style="fill:none; stroke:#fff; stroke-linecap:round; stroke-miterlimit:10; stroke-width:.87px;"/><line x1="599.83" y1="109.26" x2="564.39" y2="91.09" style="fill:none; stroke:#fff; stroke-linecap:round; stroke-miterlimit:10; stroke-width:.87px;"/><polyline points="560.43 97.94 582.48 109.24 582.48 109.24" style="fill:none; stroke:#fff; stroke-linecap:round; stroke-miterlimit:10; stroke-width:.87px;"/><polyline points="556.47 104.79 565.14 109.23 565.14 109.23" style="fill:none; stroke:#fff; stroke-linecap:round; stroke-miterlimit:10; stroke-width:.87px;"/><path d="m689.99,84.01c-2.73,3.69-5.88,6.34-9.47,7.94-3.58,1.6-7.46,2.41-11.63,2.41s-8.3-.74-11.92-2.21-6.7-3.53-9.27-6.18c-2.57-2.65-4.57-5.8-6.02-9.47-1.44-3.66-2.17-7.66-2.17-12s.72-8.32,2.17-11.96c1.44-3.64,3.45-6.78,6.02-9.43s5.66-4.72,9.27-6.22c3.61-1.5,7.58-2.25,11.92-2.25,3.85,0,7.45.68,10.79,2.05,3.34,1.36,6.27,3.65,8.79,6.86l-4.33,3.61c-1.76-2.67-4.03-4.63-6.78-5.86-2.75-1.23-5.58-1.85-8.46-1.85-3.69,0-7.02.64-9.99,1.93s-5.5,3.05-7.58,5.3c-2.09,2.25-3.69,4.89-4.81,7.94-1.12,3.05-1.69,6.34-1.69,9.87s.56,6.82,1.69,9.87c1.12,3.05,2.73,5.7,4.81,7.94,2.09,2.25,4.61,4.01,7.58,5.3,2.97,1.28,6.3,1.93,9.99,1.93,1.44,0,2.94-.17,4.49-.52,1.55-.35,3.06-.88,4.53-1.6,1.47-.72,2.87-1.63,4.21-2.73,1.34-1.1,2.51-2.42,3.53-3.97l4.33,3.29Z" style="fill:#fff; stroke-width:0px;"/><path d="m715.03,36.11h5.3v56.81h-5.3v-56.81Z" style="fill:#fff; stroke-width:0px;"/><path d="m763.81,40.92h-19.42v-4.81h44.13v4.81h-19.42v51.99h-5.29v-51.99Z" style="fill:#fff; stroke-width:0px;"/><path d="m812.6,36.11h34.74v4.81h-29.45v20.22h27.6v4.81h-27.6v22.15h30.73v4.81h-36.03v-56.81Z" style="fill:#fff; stroke-width:0px;"/><path d="m651.65,108.09c-.37.51-.81.87-1.3,1.09-.49.22-1.02.33-1.6.33s-1.14-.1-1.63-.3c-.5-.2-.92-.48-1.27-.85-.35-.36-.63-.8-.83-1.3-.2-.5-.3-1.05-.3-1.65s.1-1.14.3-1.64c.2-.5.47-.93.83-1.29.35-.36.78-.65,1.27-.85.5-.21,1.04-.31,1.63-.31.53,0,1.02.09,1.48.28.46.19.86.5,1.21.94l-.59.5c-.24-.37-.55-.63-.93-.8-.38-.17-.77-.25-1.16-.25-.51,0-.96.09-1.37.26-.41.18-.75.42-1.04.73s-.51.67-.66,1.09c-.15.42-.23.87-.23,1.35s.08.94.23,1.35.37.78.66,1.09.63.55,1.04.73c.41.18.86.26,1.37.26.2,0,.4-.02.62-.07s.42-.12.62-.22c.2-.1.39-.22.58-.37s.34-.33.48-.54l.59.45Z" style="fill:#fff; stroke-width:0px;"/><path d="m652.5,106.77c0-.39.07-.75.2-1.07.13-.33.32-.61.55-.85.23-.24.52-.42.85-.56.33-.13.69-.2,1.08-.2s.75.07,1.07.2c.33.13.61.32.85.56.24.24.42.52.56.85s.2.68.2,1.07-.07.75-.2,1.07c-.13.33-.32.61-.56.85s-.52.42-.85.56c-.33.13-.68.2-1.07.2s-.75-.07-1.08-.2c-.33-.13-.61-.32-.85-.56-.24-.24-.42-.52-.55-.85-.13-.33-.2-.68-.2-1.07Zm.66,0c0,.29.04.56.14.81.09.25.23.47.4.66.18.19.39.34.64.45.25.11.53.17.84.17s.59-.05.84-.17c.25-.11.46-.26.64-.45.18-.19.31-.41.4-.66.09-.25.14-.52.14-.81s-.05-.56-.14-.81c-.09-.25-.23-.47-.4-.66-.18-.19-.39-.34-.64-.45-.25-.11-.53-.17-.84-.17s-.59.05-.84.17c-.25.11-.46.26-.64.45-.18.19-.31.41-.4.66-.09.25-.14.52-.14.81Z" style="fill:#fff; stroke-width:0px;"/><path d="m659.33,105.66c0-.1,0-.21-.01-.35,0-.14-.01-.27-.02-.41,0-.14,0-.27-.02-.39,0-.12-.01-.21-.01-.28h.66c0,.19.01.37.02.55s.01.29.03.34c.17-.3.39-.55.65-.74.26-.19.59-.29.97-.29.07,0,.13,0,.19.02.06.01.13.02.19.04l-.08.65c-.09-.03-.17-.04-.25-.04-.29,0-.53.05-.74.14-.21.09-.38.22-.52.38-.14.16-.24.35-.3.57s-.1.45-.1.7v2.77h-.66v-3.65Z" style="fill:#fff; stroke-width:0px;"/><path d="m667.28,108.35c-.26.39-.57.67-.95.84-.38.17-.79.25-1.25.25-.39,0-.74-.07-1.06-.2-.32-.13-.59-.32-.81-.56-.23-.24-.4-.52-.52-.85-.12-.33-.18-.69-.18-1.08s.06-.73.19-1.06.3-.6.53-.84.5-.43.8-.56c.31-.14.65-.2,1.02-.2s.73.07,1.03.2.55.32.75.54c.2.22.35.48.46.76s.15.58.15.87v.46h-4.27c0,.14.03.32.08.53.05.22.16.43.3.63.15.21.34.38.59.53.25.15.56.22.95.22.34,0,.66-.08.98-.24.32-.16.56-.38.73-.66l.48.41Zm-.51-2.01c0-.23-.05-.44-.14-.64s-.22-.37-.37-.52c-.16-.15-.35-.27-.56-.36-.22-.09-.45-.13-.69-.13-.36,0-.66.07-.9.22-.24.15-.43.32-.57.51-.14.19-.24.38-.3.56-.06.18-.09.3-.09.37h3.61Z" style="fill:#fff; stroke-width:0px;"/><path d="m672.15,104.82h-1.06v-.59h1.06v-1.66c0-.33.05-.6.15-.82.1-.22.22-.39.37-.52.15-.13.31-.23.49-.28.18-.06.35-.08.51-.08.31,0,.56.04.76.13l-.13.57c-.15-.07-.34-.11-.59-.11-.59,0-.89.45-.89,1.35v1.42h1.19v.59h-1.19v4.49h-.66v-4.49Z" style="fill:#fff; stroke-width:0px;"/><path d="m674.74,106.77c0-.39.07-.75.2-1.07.13-.33.32-.61.55-.85.23-.24.52-.42.85-.56.33-.13.69-.2,1.08-.2s.75.07,1.07.2c.33.13.61.32.85.56.24.24.42.52.56.85s.2.68.2,1.07-.07.75-.2,1.07c-.13.33-.32.61-.56.85s-.52.42-.85.56c-.33.13-.68.2-1.07.2s-.75-.07-1.08-.2c-.33-.13-.61-.32-.85-.56-.24-.24-.42-.52-.55-.85-.13-.33-.2-.68-.2-1.07Zm.66,0c0,.29.04.56.14.81.09.25.23.47.4.66.18.19.39.34.64.45.25.11.53.17.84.17s.59-.05.84-.17c.25-.11.46-.26.64-.45.18-.19.31-.41.4-.66.09-.25.14-.52.14-.81s-.05-.56-.14-.81c-.09-.25-.23-.47-.4-.66-.18-.19-.39-.34-.64-.45-.25-.11-.53-.17-.84-.17s-.59.05-.84.17c-.25.11-.46.26-.64.45-.18.19-.31.41-.4.66-.09.25-.14.52-.14.81Z" style="fill:#fff; stroke-width:0px;"/><path d="m681.57,105.66c0-.1,0-.21-.01-.35,0-.14-.01-.27-.02-.41,0-.14,0-.27-.02-.39,0-.12-.01-.21-.01-.28h.66c0,.19.01.37.02.55s.01.29.03.34c.17-.3.39-.55.65-.74.26-.19.59-.29.97-.29.07,0,.13,0,.19.02.06.01.13.02.19.04l-.08.65c-.09-.03-.17-.04-.25-.04-.29,0-.53.05-.74.14-.21.09-.38.22-.52.38-.14.16-.24.35-.3.57s-.1.45-.1.7v2.77h-.66v-3.65Z" style="fill:#fff; stroke-width:0px;"/><path d="m688.28,101.52h.73v7.79h-.73v-7.79Z" style="fill:#fff; stroke-width:0px;"/><path d="m690.95,105.66c0-.1,0-.21-.01-.35,0-.14-.01-.27-.02-.41,0-.14,0-.27-.02-.39,0-.12-.01-.21-.01-.28h.66c0,.19.01.37.02.55s.01.29.03.34h.03c.13-.28.35-.52.66-.72.31-.2.67-.3,1.08-.3.34,0,.65.09.92.26.28.17.48.45.61.84.16-.38.4-.66.72-.84.32-.18.65-.26,1.01-.26.4,0,.72.06.97.19s.45.29.59.49c.14.2.24.43.3.7.06.26.08.54.08.81v3.03h-.66v-2.99c0-.21-.02-.41-.05-.6-.04-.19-.1-.37-.19-.52-.09-.15-.22-.28-.38-.37-.17-.09-.38-.14-.64-.14-.31,0-.56.06-.76.17s-.35.26-.47.43c-.11.18-.19.37-.24.57-.05.21-.07.4-.07.58v2.86h-.66v-3.06c0-.47-.09-.85-.26-1.13-.17-.29-.44-.43-.8-.43-.24,0-.47.04-.69.13-.22.08-.4.21-.56.39-.16.17-.28.39-.38.65-.09.26-.14.57-.14.92v2.54h-.66v-3.65Z" style="fill:#fff; stroke-width:0px;"/><path d="m704.28,107.18c0,.25,0,.47,0,.67,0,.2,0,.38.02.55,0,.17.02.33.03.47.01.15.03.29.05.44h-.62c-.04-.25-.07-.52-.07-.83h-.02c-.19.33-.43.57-.71.73-.28.15-.64.23-1.07.23-.22,0-.44-.03-.65-.08-.21-.05-.4-.14-.57-.26-.17-.12-.31-.28-.41-.47s-.16-.42-.16-.69c0-.39.1-.7.3-.92s.44-.4.73-.51c.29-.11.6-.19.92-.22.33-.03.61-.05.86-.05h.77v-.31c0-.44-.14-.76-.41-.95s-.61-.29-1.02-.29c-.59,0-1.1.19-1.55.57l-.39-.45c.24-.23.54-.41.9-.53s.7-.18,1.03-.18c.62,0,1.11.15,1.47.43.37.29.55.76.55,1.4v1.24Zm-1.32-.42c-.28,0-.55.02-.81.05-.26.04-.5.1-.7.19-.21.09-.38.21-.5.35-.12.15-.19.33-.19.55,0,.15.03.29.1.41.07.12.16.22.27.3s.23.14.37.18c.13.04.27.06.41.06.35,0,.64-.05.87-.15.23-.1.41-.24.54-.4s.23-.35.28-.56c.05-.21.08-.42.08-.63v-.34h-.73Z" style="fill:#fff; stroke-width:0px;"/><path d="m711.15,108.98c0,.63-.09,1.14-.28,1.53-.18.39-.41.69-.69.9s-.57.36-.89.43-.6.11-.86.11-.51-.02-.75-.07-.48-.12-.7-.21c-.22-.09-.42-.2-.6-.34-.18-.13-.33-.28-.47-.45l.52-.48c.23.33.53.57.88.73.35.15.73.23,1.12.23.34,0,.62-.04.85-.13.23-.09.42-.2.57-.35s.27-.3.35-.47c.08-.17.15-.34.19-.52s.06-.34.07-.49c0-.15.01-.28.01-.37v-.7h-.02c-.19.31-.45.55-.78.73-.33.18-.71.26-1.15.26-.37,0-.73-.07-1.06-.2s-.62-.32-.86-.56-.44-.52-.58-.83c-.14-.32-.21-.65-.21-1.01s.07-.7.21-1.01c.14-.32.34-.59.58-.83.25-.23.53-.42.86-.56.33-.14.68-.21,1.06-.21.44,0,.82.09,1.15.26.33.18.58.42.78.73h.02v-.86h.66v4.75Zm-.64-2.28c0-.28-.05-.54-.16-.79-.11-.25-.25-.46-.43-.64-.18-.18-.39-.32-.64-.43s-.51-.16-.79-.16-.54.05-.79.16c-.25.11-.46.25-.64.43-.18.18-.32.39-.43.64-.11.25-.16.51-.16.79s.05.54.16.79c.11.25.25.46.43.64.18.18.39.32.64.43.25.11.51.16.79.16s.54-.05.79-.16c.25-.11.46-.25.64-.43.18-.18.32-.39.43-.64.11-.25.16-.51.16-.79Z" style="fill:#fff; stroke-width:0px;"/><path d="m712.71,102.21c0-.14.05-.26.14-.35.09-.1.21-.14.35-.14s.26.05.35.14c.09.1.14.21.14.35s-.05.26-.14.35c-.1.1-.21.14-.35.14s-.26-.05-.35-.14c-.1-.1-.14-.21-.14-.35Zm.17,2.01h.66v5.08h-.66v-5.08Z" style="fill:#fff; stroke-width:0px;"/><path d="m715.4,105.66c0-.1,0-.21-.01-.35,0-.14-.01-.27-.02-.41,0-.14,0-.27-.02-.39,0-.12-.01-.21-.01-.28h.66c0,.19.01.37.02.55s.01.29.03.34h.03c.13-.28.35-.52.66-.72.31-.2.67-.3,1.08-.3s.72.06.97.19c.25.12.45.29.59.49.14.2.24.43.3.7s.08.54.08.81v3.03h-.66v-2.99c0-.21-.02-.41-.06-.6-.04-.19-.1-.37-.19-.52-.09-.15-.22-.28-.38-.37-.17-.09-.38-.14-.64-.14-.24,0-.47.04-.69.13-.22.08-.4.21-.56.39-.16.17-.28.39-.38.65-.09.26-.14.57-.14.92v2.54h-.66v-3.65Z" style="fill:#fff; stroke-width:0px;"/><path d="m726.63,108.98c0,.63-.09,1.14-.28,1.53-.18.39-.41.69-.69.9s-.57.36-.89.43-.6.11-.86.11-.51-.02-.75-.07-.48-.12-.7-.21c-.22-.09-.42-.2-.6-.34-.18-.13-.33-.28-.47-.45l.52-.48c.23.33.53.57.88.73.35.15.73.23,1.12.23.34,0,.62-.04.85-.13.23-.09.42-.2.57-.35s.27-.3.35-.47c.08-.17.15-.34.19-.52s.06-.34.07-.49c0-.15.01-.28.01-.37v-.7h-.02c-.19.31-.45.55-.78.73-.33.18-.71.26-1.15.26-.37,0-.73-.07-1.06-.2s-.62-.32-.86-.56-.44-.52-.58-.83c-.14-.32-.21-.65-.21-1.01s.07-.7.21-1.01c.14-.32.34-.59.58-.83.25-.23.53-.42.86-.56.33-.14.68-.21,1.06-.21.44,0,.82.09,1.15.26.33.18.58.42.78.73h.02v-.86h.66v4.75Zm-.64-2.28c0-.28-.05-.54-.16-.79-.11-.25-.25-.46-.43-.64-.18-.18-.39-.32-.64-.43s-.51-.16-.79-.16-.54.05-.79.16c-.25.11-.46.25-.64.43-.18.18-.32.39-.43.64-.11.25-.16.51-.16.79s.05.54.16.79c.11.25.25.46.43.64.18.18.39.32.64.43.25.11.51.16.79.16s.54-.05.79-.16c.25-.11.46-.25.64-.43.18-.18.32-.39.43-.64.11-.25.16-.51.16-.79Z" style="fill:#fff; stroke-width:0px;"/><path d="m733.02,102.18h-2.66v-.66h6.05v.66h-2.66v7.13h-.73v-7.13Z" style="fill:#fff; stroke-width:0px;"/><path d="m740.69,108.35c-.26.39-.57.67-.95.84-.38.17-.79.25-1.25.25-.39,0-.74-.07-1.06-.2-.32-.13-.59-.32-.81-.56-.23-.24-.4-.52-.52-.85-.12-.33-.18-.69-.18-1.08s.06-.73.19-1.06.3-.6.53-.84.5-.43.8-.56c.31-.14.65-.2,1.02-.2s.73.07,1.03.2.55.32.75.54c.2.22.35.48.46.76s.15.58.15.87v.46h-4.27c0,.14.03.32.08.53.05.22.16.43.3.63.15.21.34.38.59.53.25.15.56.22.95.22.34,0,.66-.08.98-.24.32-.16.56-.38.73-.66l.48.41Zm-.51-2.01c0-.23-.05-.44-.14-.64s-.22-.37-.37-.52c-.16-.15-.35-.27-.56-.36-.22-.09-.45-.13-.69-.13-.36,0-.66.07-.9.22-.24.15-.43.32-.57.51-.14.19-.24.38-.3.56-.06.18-.09.3-.09.37h3.61Z" style="fill:#fff; stroke-width:0px;"/><path d="m746.58,108.56c-.25.3-.53.52-.85.67-.32.14-.66.21-1.02.21-.39,0-.75-.07-1.08-.2-.33-.13-.61-.32-.85-.56-.24-.24-.42-.52-.55-.85-.13-.33-.2-.68-.2-1.07s.07-.75.2-1.07c.13-.33.32-.61.55-.85.23-.24.52-.42.85-.56.33-.13.69-.2,1.08-.2s.72.08,1.04.23c.32.15.6.37.85.65l-.53.4c-.19-.21-.4-.38-.63-.5-.23-.12-.47-.18-.74-.18-.31,0-.59.05-.84.17-.25.11-.46.26-.64.45-.18.19-.31.41-.4.66-.09.25-.14.52-.14.81s.04.56.14.81c.09.25.23.47.4.66.18.19.39.34.64.45.25.11.53.17.84.17.28,0,.53-.06.76-.19.23-.13.43-.3.6-.51l.51.42Z" style="fill:#fff; stroke-width:0px;"/><path d="m747.61,100.99h.66v4.13h.02c.13-.28.35-.52.66-.72.31-.2.67-.3,1.08-.3s.72.06.97.19c.25.12.45.29.59.49.14.2.24.43.3.7s.08.54.08.81v3.03h-.66v-2.99c0-.21-.02-.41-.06-.6-.04-.19-.1-.37-.19-.52-.09-.15-.22-.28-.38-.37-.17-.09-.38-.14-.64-.14-.24,0-.47.04-.69.13-.22.08-.4.21-.56.39-.16.17-.28.39-.38.65-.09.26-.14.57-.14.92v2.54h-.66v-8.32Z" style="fill:#fff; stroke-width:0px;"/><path d="m753.73,105.66c0-.1,0-.21-.01-.35,0-.14-.01-.27-.02-.41,0-.14,0-.27-.02-.39,0-.12-.01-.21-.01-.28h.66c0,.19.01.37.02.55s.01.29.03.34h.03c.13-.28.35-.52.66-.72.31-.2.67-.3,1.08-.3s.72.06.97.19c.25.12.45.29.59.49.14.2.24.43.3.7s.08.54.08.81v3.03h-.66v-2.99c0-.21-.02-.41-.06-.6-.04-.19-.1-.37-.19-.52-.09-.15-.22-.28-.38-.37-.17-.09-.38-.14-.64-.14-.24,0-.47.04-.69.13-.22.08-.4.21-.56.39-.16.17-.28.39-.38.65-.09.26-.14.57-.14.92v2.54h-.66v-3.65Z" style="fill:#fff; stroke-width:0px;"/><path d="m759.56,106.77c0-.39.07-.75.2-1.07.13-.33.32-.61.55-.85.23-.24.52-.42.85-.56.33-.13.69-.2,1.08-.2s.75.07,1.07.2c.33.13.61.32.85.56.24.24.42.52.56.85s.2.68.2,1.07-.07.75-.2,1.07c-.13.33-.32.61-.56.85s-.52.42-.85.56c-.33.13-.68.2-1.07.2s-.75-.07-1.08-.2c-.33-.13-.61-.32-.85-.56-.24-.24-.42-.52-.55-.85-.13-.33-.2-.68-.2-1.07Zm.66,0c0,.29.04.56.14.81.09.25.23.47.4.66.18.19.39.34.64.45.25.11.53.17.84.17s.59-.05.84-.17c.25-.11.46-.26.64-.45.18-.19.31-.41.4-.66.09-.25.14-.52.14-.81s-.05-.56-.14-.81c-.09-.25-.23-.47-.4-.66-.18-.19-.39-.34-.64-.45-.25-.11-.53-.17-.84-.17s-.59.05-.84.17c-.25.11-.46.26-.64.45-.18.19-.31.41-.4.66-.09.25-.14.52-.14.81Z" style="fill:#fff; stroke-width:0px;"/><path d="m766.49,100.99h.66v8.32h-.66v-8.32Z" style="fill:#fff; stroke-width:0px;"/><path d="m768.74,106.77c0-.39.07-.75.2-1.07.13-.33.32-.61.55-.85.23-.24.52-.42.85-.56.33-.13.69-.2,1.08-.2s.75.07,1.07.2c.33.13.61.32.85.56.24.24.42.52.56.85s.2.68.2,1.07-.07.75-.2,1.07c-.13.33-.32.61-.56.85s-.52.42-.85.56c-.33.13-.68.2-1.07.2s-.75-.07-1.08-.2c-.33-.13-.61-.32-.85-.56-.24-.24-.42-.52-.55-.85-.13-.33-.2-.68-.2-1.07Zm.66,0c0,.29.04.56.14.81.09.25.23.47.4.66.18.19.39.34.64.45.25.11.53.17.84.17s.59-.05.84-.17c.25-.11.46-.26.64-.45.18-.19.31-.41.4-.66.09-.25.14-.52.14-.81s-.05-.56-.14-.81c-.09-.25-.23-.47-.4-.66-.18-.19-.39-.34-.64-.45-.25-.11-.53-.17-.84-.17s-.59.05-.84.17c-.25.11-.46.26-.64.45-.18.19-.31.41-.4.66-.09.25-.14.52-.14.81Z" style="fill:#fff; stroke-width:0px;"/><path d="m780.67,108.98c0,.63-.09,1.14-.28,1.53-.18.39-.41.69-.69.9s-.57.36-.89.43-.6.11-.86.11-.51-.02-.75-.07-.48-.12-.7-.21c-.22-.09-.42-.2-.6-.34-.18-.13-.33-.28-.47-.45l.52-.48c.23.33.53.57.88.73.35.15.73.23,1.12.23.34,0,.62-.04.85-.13.23-.09.42-.2.57-.35s.27-.3.35-.47c.08-.17.15-.34.19-.52s.06-.34.07-.49c0-.15.01-.28.01-.37v-.7h-.02c-.19.31-.45.55-.78.73-.33.18-.71.26-1.15.26-.37,0-.73-.07-1.06-.2s-.62-.32-.86-.56-.44-.52-.58-.83c-.14-.32-.21-.65-.21-1.01s.07-.7.21-1.01c.14-.32.34-.59.58-.83.25-.23.53-.42.86-.56.33-.14.68-.21,1.06-.21.44,0,.82.09,1.15.26.33.18.58.42.78.73h.02v-.86h.66v4.75Zm-.64-2.28c0-.28-.05-.54-.16-.79-.11-.25-.25-.46-.43-.64-.18-.18-.39-.32-.64-.43s-.51-.16-.79-.16-.54.05-.79.16c-.25.11-.46.25-.64.43-.18.18-.32.39-.43.64-.11.25-.16.51-.16.79s.05.54.16.79c.11.25.25.46.43.64.18.18.39.32.64.43.25.11.51.16.79.16s.54-.05.79-.16c.25-.11.46-.25.64-.43.18-.18.32-.39.43-.64.11-.25.16-.51.16-.79Z" style="fill:#fff; stroke-width:0px;"/><path d="m783.71,110.88c-.12.33-.3.59-.52.78-.22.19-.51.29-.88.29-.11,0-.22,0-.33-.03-.11-.02-.22-.04-.32-.07l.07-.62c.1.03.19.06.29.08.1.03.2.04.3.04.12,0,.22-.03.31-.08s.17-.12.24-.2.12-.17.17-.27c.05-.1.09-.2.13-.3l.46-1.18-2.07-5.11h.74l1.68,4.28,1.64-4.28h.7l-2.62,6.66Z" style="fill:#fff; stroke-width:0px;"/><path d="m794.72,107.04l1.12-2.02h.75l-1.41,2.49,1.77,1.86h-.98l-1.17-1.25c-.32.43-.66.76-1.04,1.02s-.84.38-1.38.38c-.33,0-.64-.05-.93-.16-.29-.11-.54-.26-.75-.46-.21-.2-.38-.44-.51-.72-.12-.28-.19-.59-.19-.94,0-.3.05-.56.15-.79.1-.23.24-.43.4-.61s.35-.34.57-.48.43-.28.66-.42c-.11-.13-.22-.27-.33-.41-.11-.14-.21-.29-.3-.45-.09-.15-.16-.31-.22-.48s-.09-.34-.09-.51c0-.28.05-.53.16-.75.11-.22.25-.41.43-.56.18-.15.39-.27.63-.35.24-.08.49-.12.74-.12.23,0,.45.04.66.12.21.08.4.19.57.34s.3.32.39.52c.1.2.14.43.14.68,0,.28-.05.52-.15.73-.1.21-.23.39-.4.55-.17.16-.35.3-.56.43-.21.12-.42.25-.64.36l1.89,2Zm-2.51-1.64c-.18.1-.35.21-.52.33-.17.12-.33.25-.47.39-.14.14-.26.3-.35.48-.09.18-.13.38-.13.61,0,.25.04.47.14.67.09.2.22.37.37.51.16.14.34.25.56.33s.45.12.69.12c.21,0,.4-.03.58-.1.18-.07.35-.15.5-.26.15-.11.3-.24.43-.38s.25-.29.36-.46l-2.16-2.24Zm.54-3.42c-.33,0-.61.1-.84.3s-.34.47-.34.8c0,.13.03.27.08.41.06.14.12.28.21.41.08.13.18.26.27.37.1.12.19.22.27.32.15-.08.32-.17.48-.26s.32-.21.46-.33c.14-.12.25-.27.35-.42.09-.16.14-.34.14-.54,0-.31-.1-.56-.31-.75-.21-.19-.47-.29-.78-.29Z" style="fill:#fff; stroke-width:0px;"/><path d="m801.04,101.52h4.76v.66h-4.04v2.77h3.79v.66h-3.79v3.04h4.21v.66h-4.94v-7.79Z" style="fill:#fff; stroke-width:0px;"/><path d="m811.82,108.42h-.02c-.1.18-.23.33-.38.46s-.32.23-.5.32c-.18.08-.37.15-.57.19-.2.04-.39.06-.58.06-.39,0-.75-.07-1.08-.2-.33-.13-.61-.32-.85-.56-.24-.24-.42-.52-.55-.85-.13-.33-.2-.68-.2-1.07s.07-.75.2-1.07c.13-.33.32-.61.55-.85.23-.24.52-.42.85-.56.33-.13.69-.2,1.08-.2.19,0,.38.02.58.06s.39.1.57.19.35.19.5.32c.15.13.28.28.38.46h.02v-4.13h.66v8.32h-.66v-.89Zm.07-1.65c0-.29-.05-.56-.17-.81-.11-.25-.26-.47-.45-.66-.19-.19-.41-.34-.67-.45-.26-.11-.54-.17-.84-.17s-.59.05-.84.17c-.25.11-.46.26-.64.45-.18.19-.31.41-.4.66-.09.25-.14.52-.14.81s.04.56.14.81c.09.25.23.47.4.66.18.19.39.34.64.45.25.11.53.17.84.17s.58-.05.84-.17c.26-.11.48-.26.67-.45.19-.19.34-.41.45-.66.11-.25.17-.52.17-.81Z" style="fill:#fff; stroke-width:0px;"/><path d="m818.4,107.88c0,.1,0,.21.01.35,0,.14.01.27.02.41,0,.14,0,.27.02.39,0,.12.01.21.01.28h-.66c0-.19-.01-.37-.02-.55,0-.18-.01-.29-.03-.34h-.03c-.13.28-.35.52-.66.72-.31.2-.67.3-1.08.3s-.72-.06-.97-.19c-.25-.12-.45-.29-.59-.49-.14-.2-.24-.43-.29-.7-.05-.26-.08-.54-.08-.81v-3.03h.66v2.99c0,.21.02.41.06.6.04.19.1.37.19.52.09.15.22.28.38.37s.38.14.64.14c.24,0,.47-.04.69-.13.22-.08.4-.21.56-.38.16-.17.28-.39.37-.65s.14-.57.14-.92v-2.54h.66v3.65Z" style="fill:#fff; stroke-width:0px;"/><path d="m824.47,108.56c-.25.3-.53.52-.85.67-.32.14-.66.21-1.02.21-.39,0-.75-.07-1.08-.2-.33-.13-.61-.32-.85-.56-.24-.24-.42-.52-.55-.85-.13-.33-.2-.68-.2-1.07s.07-.75.2-1.07c.13-.33.32-.61.55-.85.23-.24.52-.42.85-.56.33-.13.69-.2,1.08-.2s.72.08,1.04.23c.32.15.6.37.85.65l-.53.4c-.19-.21-.4-.38-.63-.5-.23-.12-.47-.18-.74-.18-.31,0-.59.05-.84.17-.25.11-.46.26-.64.45-.18.19-.31.41-.4.66-.09.25-.14.52-.14.81s.04.56.14.81c.09.25.23.47.4.66.18.19.39.34.64.45.25.11.53.17.84.17.28,0,.53-.06.76-.19.23-.13.43-.3.6-.51l.51.42Z" style="fill:#fff; stroke-width:0px;"/><path d="m829.46,107.18c0,.25,0,.47,0,.67,0,.2,0,.38.02.55,0,.17.02.33.03.47.01.15.03.29.05.44h-.62c-.04-.25-.07-.52-.07-.83h-.02c-.19.33-.43.57-.71.73-.28.15-.64.23-1.07.23-.22,0-.44-.03-.65-.08-.21-.05-.4-.14-.57-.26-.17-.12-.31-.28-.41-.47s-.16-.42-.16-.69c0-.39.1-.7.3-.92s.44-.4.73-.51c.29-.11.6-.19.92-.22.33-.03.61-.05.86-.05h.77v-.31c0-.44-.14-.76-.41-.95s-.61-.29-1.02-.29c-.59,0-1.1.19-1.55.57l-.39-.45c.24-.23.54-.41.9-.53s.7-.18,1.03-.18c.62,0,1.11.15,1.47.43.37.29.55.76.55,1.4v1.24Zm-1.32-.42c-.28,0-.55.02-.81.05-.26.04-.5.1-.7.19-.21.09-.38.21-.5.35-.12.15-.19.33-.19.55,0,.15.03.29.1.41.07.12.16.22.27.3s.23.14.37.18c.13.04.27.06.41.06.35,0,.64-.05.87-.15.23-.1.41-.24.54-.4s.23-.35.28-.56c.05-.21.08-.42.08-.63v-.34h-.73Z" style="fill:#fff; stroke-width:0px;"/><path d="m833.71,104.82h-1.45v3.31c0,.23.06.4.19.53.12.12.3.19.52.19.12,0,.25-.02.38-.05.13-.03.25-.08.37-.13l.05.59c-.12.04-.27.08-.43.12-.16.04-.3.05-.43.05-.23,0-.44-.03-.6-.1-.17-.07-.3-.16-.41-.28s-.18-.25-.23-.41-.07-.33-.07-.51v-3.31h-1.1v-.59h1.1v-1.46h.66v1.46h1.45v.59Z" style="fill:#fff; stroke-width:0px;"/><path d="m834.84,102.21c0-.14.05-.26.14-.35.09-.1.21-.14.35-.14s.26.05.35.14c.09.1.14.21.14.35s-.05.26-.14.35c-.1.1-.21.14-.35.14s-.26-.05-.35-.14c-.1-.1-.14-.21-.14-.35Zm.17,2.01h.66v5.08h-.66v-5.08Z" style="fill:#fff; stroke-width:0px;"/><path d="m837.25,106.77c0-.39.07-.75.2-1.07.13-.33.32-.61.55-.85.23-.24.52-.42.85-.56.33-.13.69-.2,1.08-.2s.75.07,1.07.2c.33.13.61.32.85.56.24.24.42.52.56.85s.2.68.2,1.07-.07.75-.2,1.07c-.13.33-.32.61-.56.85s-.52.42-.85.56c-.33.13-.68.2-1.07.2s-.75-.07-1.08-.2c-.33-.13-.61-.32-.85-.56-.24-.24-.42-.52-.55-.85-.13-.33-.2-.68-.2-1.07Zm.66,0c0,.29.04.56.14.81.09.25.23.47.4.66.18.19.39.34.64.45.25.11.53.17.84.17s.59-.05.84-.17c.25-.11.46-.26.64-.45.18-.19.31-.41.4-.66.09-.25.14-.52.14-.81s-.05-.56-.14-.81c-.09-.25-.23-.47-.4-.66-.18-.19-.39-.34-.64-.45-.25-.11-.53-.17-.84-.17s-.59.05-.84.17c-.25.11-.46.26-.64.45-.18.19-.31.41-.4.66-.09.25-.14.52-.14.81Z" style="fill:#fff; stroke-width:0px;"/><path d="m844.07,105.66c0-.1,0-.21-.01-.35,0-.14-.01-.27-.02-.41,0-.14,0-.27-.02-.39,0-.12-.01-.21-.01-.28h.66c0,.19.01.37.02.55s.01.29.03.34h.03c.13-.28.35-.52.66-.72.31-.2.67-.3,1.08-.3s.72.06.97.19c.25.12.45.29.59.49.14.2.24.43.3.7s.08.54.08.81v3.03h-.66v-2.99c0-.21-.02-.41-.06-.6-.04-.19-.1-.37-.19-.52-.09-.15-.22-.28-.38-.37-.17-.09-.38-.14-.64-.14-.24,0-.47.04-.69.13-.22.08-.4.21-.56.39-.16.17-.28.39-.38.65-.09.26-.14.57-.14.92v2.54h-.66v-3.65Z" style="fill:#fff; stroke-width:0px;"/><path d="m944.82,24.4h-36.71l-.12,29.32c0,35.97,36.1,58.89,36.47,59.14l.12.12c.12,0,.37-.12.37-.12,6.16-4.07,36.71-25.75,36.71-58.89v-29.45c-.12-.12-36.84-.12-36.84-.12h0Zm36.59,26h-72.69v-4.19h72.69v4.19h0Z" style="fill:#c31230; stroke-width:0px;"/><path d="m920.42,27.97c2.46-.99,5.17-.25,7.88-.49.74.12,1.72-.37,2.22.37v2.34c.25.62,1.11.25,1.48.49.25.12.49.25.62.62s0,.74-.12,1.11c-.49.49-1.11.37-1.85.49l-.25.25c.12,1.48-.25,2.71,0,4.07,0,.25-.12.74.25.86.74,0,1.36,0,1.85.49.25.37.25.74.12,1.23-.25,1.48-2.59-.25-2.34,1.48,0,.62.12,1.48-.12,2.09-2.71,0-5.42-.25-7.88,0-.49.37-.99.62-1.72.74-.49-.12-.99-.37-1.36-.74-2.46-.12-4.8-.12-7.15-.12-.74-.62-.25-1.72-.49-2.59-.37-.49-.99-.12-1.48-.37-.37,0-.49-.37-.62-.62,0-.49,0-.99.37-1.36.37-.25.99-.25,1.48-.25l.25-.25c-.12-1.6.25-3.2-.12-4.93-.25-.37-.74,0-.99-.25-.37-.12-.86-.37-.99-.86-.12-.37-.12-.74.25-1.11.49-.62,1.48.12,1.97-.49l.25-2.34c.37-.74,1.23-.37,1.97-.37,1.23-.25,2.71,0,3.94,0,.99,0,1.85.25,2.59.49h0Z" style="stroke-width:0px;"/><path d="m923.75,53.72l-.12.49c0,.25-.25.49-.49.37l-.99-.12c-.37-.12-.74-.25-1.11-.12-.12.12-.37.25-.62.49.12,0,.12.12.12.12.25.12.74.25.86.86,0,.49.25.86.49,1.11l.12.25c.12.12.12.25.12.37s0,.12-.12.25l-.49.62-.25.25s-.25.62-.37.86c.12.25.25.37.37.37.49-.12.86,0,1.23,0l.74.12h.37c.25,0,.74-.12,1.11.12,0,0,.37.62.37.74.12.25.12.37.12.62s0,.49-.12.74l-.12.37c0,.12,0,.25-.12.25-.62.99-1.48,1.72-2.59,2.22h.12v.12h0c.12.12.49.12.86,0h.25c.49,0,.86-.12,1.36-.37l1.36-.37c.25-.12.37.12.49.25.25.49.62.86.86,1.11l.25-.25c.25-.25.74-.62,1.36-.37,0,0,.12,0,.12.12.49.37.62.86.74,1.23.12.25.12.62.37.74.12.12.12.25.12.25v.12c0,.49-.49.74-.62.74h-.12l-.12.12-1.11.25c-.37,0-.74.12-.99.25,0,0,0,.12.12.12.49.25,1.23.37,1.97.49l.37.12h2.34c.25,0,.25.12.37.25.12.12,0,.37-.12.49l-.25.37-.12.12-2.34,1.6c-.12,0-1.36.49-1.36.49l-1.85.74h-.12c-1.11.25-1.72-.37-2.34-.74-.37-.37-.74-.62-1.23-.62-.37,0-.74.12-.99.37-.12.12-.12.25-.12.49v.25h.12c.25.12.74.25.74.86,0,.86-.37,1.48-.74,2.09-.25.49-.62,1.11-.62,1.6v.12c0,.12,0,.25.12.25h.25l.12-.25c.12-.25.37-.62.86-.74h.12c.99.12,1.48,0,1.85-.37.12-.12.25-.12.25-.12.25,0,.62,0,.86.25.25.25.37.49.37.74v.25c.62-.12.99-.62,1.48-1.36l.25-.37c.12-.12.25-.25.37-.25l.37-.12c.49-.12.99-.37,1.6,0,.12.12.25.25.25.37v.37c0,.49-.25.86-.37,1.23,0,0-.12.25-.12.49.86-.25,1.6-.99,2.22-1.85l.37-.49c.12-.25.37-.86,1.11-.86h.12c.37.12.49,0,.86-.62l.74-.74q.12-.12.37-.12h.25c.12,0,.25,0,.37.12q.12.12.12.25v.74h0c.12,0,.49-.25.74-.25l.99-.62c.12-.12.25-.12.49,0l3.7.99c.74.25.86.74.86,1.23v.74q0,.12.12.25c.12.12.12.25.12.37v.25c-.12.37-.49.74-1.48.74l-1.85.12c-1.48,0-2.96,0-4.07.99l-.99.99c-.12.12-.25.12-.37.12-.74,0-1.23.37-1.85.74-.49.37-1.11.74-1.85.86-.49.25-1.11.25-1.6.25s-.74,0-.86.12c.49.62,1.36.86,2.22,1.11.12,0,.49.12.49.12.37,0,.99,0,1.23.62v.25c0,.49.12.74.37.74h.12c.12-.12.62-.37,1.23,0,.12.12.86.86.86.86l.99.99c.12.12.12.37,0,.49-.37.74-1.23.62-1.72.62h-.86c-.74.12-1.85.37-2.59-.62l.12.12-1.11-.37c-.62-.49-1.11-.99-1.85-.99-.74.25-1.11.49-1.11.86h0l.12.25.37.37c.12.12.12.25.12.25v.12c0,.12-.12.25-.25.37-.62.37-1.36.99-1.36,1.72v.37c.12,0,.25-.12.25-.12.25-.12.74-.25,1.23,0,.12.12.25.25.25.37v.62c0,.62.12.86.25,1.11.12,0,.25-.12.25-.12.37-.25,1.11-.49,1.85,0,.12,0,.37,0,.74-.25l.74-.37h.12c1.23,0,1.85,1.11,2.09,1.85h0c.62.49,1.11.74,1.48.62v-.62c0-.12-.12-.37-.12-.62,0-.49.12-.99.86-1.23.12,0,1.23-.12,1.23-.12h.86c1.11.12,1.97.12,2.34-.62,0,0,.86-1.36.99-1.6,0-.12.12-.86.12-.86,0-.25.12-.37.37-.37.37-.12.86,0,1.11.12,0,0,.12,0,.25.12-.25-.62-.37-1.23-.37-1.85,0-.37,0-.62.12-.99.25-.86.62-1.6,1.11-2.22.12-.12.37-.25.62-.12l.25.12c.12.12.25.25.37.37l.25,1.23c.12.74.25,1.48.62,2.22,0,.12.12.12,0,.25l-.49,1.72-.37,1.36c-.37,1.36-1.23,2.34-2.46,2.96v.12h.99c1.36-.12,2.59-.86,3.57-1.85.12-.12.37-.25.49-.12.25.12.49,0,.86-.25s1.11-.62,1.85-.12c.25.25.74.25,1.23.12.74,0,1.97-.12,2.22,1.23v.86c.12.62.25,1.85-1.11,2.22h-.25l-1.36-.49c-1.11-.49-1.6-.62-2.09,0-.12.12-.25.37-.25.49.12.37.62,1.11,0,1.72l.12-.12-.12.12c-.37.62-.62.99-.37,1.48,0,0,.12.12.49,0,.49-.25,1.11,0,1.6.12l.62.25c.12,0,.25.12.25.12l.25.12c.49.37.86.62,1.36.74v-.12l.25-.62c.12-.12.86-.49.86-.49.49-.25.62-.25.62-.49.12-.86.74-1.72,1.6-2.22.12,0,.25-.12.37-.12.25,0,.86-.25,1.11-.49v-.12l-.25-.25c-.12-.12-.12-.25-.25-.25v-.37c0-.62.37-1.11.62-1.6.25-.37.37-.74.37-.99,0-.12,0-.25-.12-.49,0-.12-.12-.12-.12-.12l-.12-.86c-.12-.62-.12-.99-.49-1.36l-.99-.49-.37-.37c-.25-.12-.25-.25-.25-.49,0-.49.25-.74.86-.86h.12c.62-.25,1.23,0,1.72.25.49.12.62.12.74.12-.12-.37-.49-.74-.74-1.11-.62-.37-1.36-.62-2.09-.74-1.23-.25-2.46-.62-3.2-1.72-.12-.12-.12-.25-.12-.37s0-.25.12-.37l.12-.12c.12-.12.37-.12.49-.12,1.48.37,2.96,0,3.94-.86.62-.74,1.36-1.72,2.46-2.09.86-.62.99-1.72.99-3.08,0-.74.37-1.23.86-1.72l1.11-.49c.37-.12.49-.12.49-.25-.62-.25-1.36-.62-1.97-.49-.12,0-.25,0-.37-.12-.37-.12-.37-.37-.49-.62v-.12c0-.37.25-.62.49-.74l.12-.12.12-.12,1.11-.62c1.48-.86,2.46-1.36,2.46-2.59h0v-.12c-.12.12-.37.12-.49.37l-.99.49c-.74.37-1.6.62-2.34.74-.86.12-1.6.37-2.22.74-.12,0-.12.12-.25.12-.25,0-.62-.12-.62-.49v-.37c0-.25.12-.49.25-.62.25-.37.62-.62.99-.74.49-.25.74-.37.86-.74l.12-.37c.25-.62.49-1.48,1.36-1.85.12,0,.74-.37.74-.37.12,0,.25-.12.25-.12l-.12-.12c-1.23-.37-2.46.62-3.2,1.23l-.12.12-.62.12c-.86.37-1.72.74-2.22,1.36,0,.12-.12.12-.25.12-.25.12-.49,0-.74-.12-.25-.12-.37-.37-.37-.62-.25-1.97,1.36-3.45,2.59-4.56l.25-.25.25-.12.74-.37c.62-.37,1.36-.86,2.34-.37.74.37,1.36.62,1.97.49.37-.12.62-.49.99-.99.25-.37.62-.86,1.11-1.23.49-.25.99,0,1.36,0,.12,0,.49.12.49.12l.12-.12v-.12c0-.37-.25-.74-.62-1.23l-.49-.62q-.12-.12-.12-.25v-.25c.12-.37.25-.74.25-1.23,0-.99-.37-1.85-1.11-2.46-.25-.12-.74-.37-1.23-.37,0,.12.12.25.12.25l.49.99v.37c0,2.22-1.85,3.2-3.45,3.94l-1.36.74c-3.08,1.6-7.15,4.07-7.39,8.13,0,2.09.86,4.07,2.59,5.79,0,0,0,.12.12.12l.62.86c.62.99,1.36,1.97,1.36,3.33,0,.25,0,.62-.12.99-.49,1.23-1.97,1.23-2.46,1.23-3.08-.25-4.68-3.33-5.91-5.54l-.25-.37-.25-.49c-.37-.74-.74-1.48-.74-2.34,0-.12,0-.37.12-.37.12-.12.49-.49,1.11-.12.12,0,.62.86.62.86.12.12.12.25.12.37,0-.12.12-.25.12-.49,0-.49-.25-1.11-.49-1.72l-.12-.12c-.12-.25-.49-.62-.86-.86-.49-.37-.99-.86-1.23-1.48v-.25c0-.74.62-.86.86-.99h.12c-.25-.74-.37-1.6-.37-2.46,0-.37,0-.86.12-1.23h0l.74-.74q.25-.12.25-.25c-.25-.86-.25-1.85-.25-2.71v-1.11c0-.12.25-.86.25-.86.12-.37.25-.62.25-.86v-.25c-.49-.25-.62-.86-.62-1.11v-.25h.12c-1.23,0-2.34-.49-3.33-.99l-.99-.49c-.25-.12-.49,0-.86.25l-.62.25-.62.12c-.62.12-1.23.25-1.6.62-.25.25-.25.62-.25,1.11v.49c-.12.37-.37.49-.49.49-.37.12-.62,0-.86-.12h-.12c-.99-.49-1.36-1.48-1.11-2.46,0-.12-.12-.37-.12-.37-.25-.12-.74-.25-1.11-.12-.25.12-.49.37-.62.99,0,0-.12.12-.12.25v.12c0,.37.12.74.25.86.37.37.99.74,1.72,1.11l1.6.86q.12.12.12.25c0,.12.12.37.12.49,0,.62-.25.99-.49,1.36h0c.12.12.49.37.49.86v.25c0,.25-.25.37-.37.37-.99.25-1.85,0-2.59-.49l-.49-.62c-.12-.25-.25-.37-.37-.37,0,0-.12.25-.12.37l-.25.49c0-.12,0,.37,0,.37,0,.37-.12.86-.49,1.23-.12.12-.25.12-.37.12h-.49c-1.97-.62-3.7-1.6-5.67-3.08-.86-.62-1.48-1.48-2.09-2.34l-.49-.62-.12-.12-.12-.62c-.37-1.23-.62-1.97-1.48-2.22-.25-.25-.37-.25-.37-.25h0Zm1.23,7.15h0Zm-3.82-.86h.25-.25Zm17.74.74q.12-.12.12-.25h0s-.12.12-.12.25h0Zm9.49,6.53s.12,0,0,0q.12,0,0,0c.12,0,0,0,0,0h0Zm-11.7,8.13h0Zm.12.12s0-.12,0,0q0-.12,0,0h0Zm-10.47,3.08h0Zm17.49,10.47v.12-.12h0Zm.62,5.17h.12-.12Z" style="fill:#fff; stroke-width:0px;"/><path d="m908.47,53.72v-29.32h73.3v29.45c0,37.08-36.96,58.89-36.96,58.89,0,0-36.34-22.79-36.34-59.01h0Z" style="fill:none; stroke:#000; stroke-width:1.07px;"/><path d="m959.6,96.47h0c-.25-.25-.49-.62-.62-.74-.25-1.36,1.72-2.22.74-3.57-.25-.86,0-1.85-.86-2.46-.62-.49-1.36-.62-1.97-.99,0-.37.49-.25.62-.37,1.11-.25,1.97.99,2.83,0,.12-.74-.62-1.36-1.11-1.85-1.6-1.11-3.94-.62-5.17-2.34l.12-.12c1.48.37,3.2,0,4.31-.99.62-.86,1.36-1.72,2.34-1.97,1.11-.86,1.23-2.22,1.23-3.45,0-.49.25-.99.62-1.36.62-.49,2.09-.37,1.72-1.48-.86-.49-1.72-.86-2.59-.74-.49-.25.12-.62.25-.74,1.48-.99,3.94-1.6,3.82-3.94-.12-.25-.12-.62-.49-.62-.62.12-1.11.74-1.72.99-1.48.86-3.2.62-4.68,1.48-.25,0-.25-.37-.12-.49.49-.74,1.6-.74,1.97-1.72.25-.74.37-1.72,1.23-1.97.49-.37,1.23-.37,1.48-.99,0-.37-.49-.49-.74-.62-1.36-.37-2.71.37-3.7,1.36-.99.49-2.22.86-2.96,1.6-.12,0-.37,0-.37-.25-.25-1.97,1.48-3.33,2.83-4.44.86-.25,1.72-1.36,2.71-.86.74.37,1.48.74,2.34.49,1.11-.37,1.23-1.6,2.22-2.22.74-.25,1.72.86,2.22-.25.25-1.11-.62-1.72-1.11-2.46.62-1.48.12-3.2-1.11-4.31-.62-.37-1.36-.62-1.97-.37-.49.62.49,1.11.49,1.72.25,2.71-2.71,3.33-4.56,4.56-3.33,1.72-7.39,4.31-7.64,8.62,0,2.34,1.11,4.56,2.71,6.16.86,1.48,2.22,2.83,1.72,4.8-.37.74-1.23.86-1.97.86-2.83-.25-4.44-3.45-5.67-5.67-.37-.86-.86-1.72-.99-2.71.12-.12.25-.12.49,0,.49.49.49,1.6,1.36,1.48.74-.99.25-2.22-.25-3.2-.49-.86-1.6-1.36-2.09-2.34,0-.74.99-.25,1.11-.99-.37-1.23-.49-2.59-.25-3.7.25-.49.99-.49.99-1.11-.37-1.23-.37-2.34-.25-3.7.12-.74.74-1.6.37-2.34-.86-.25-.12-1.36-.99-1.48-1.6,0-2.83-.86-4.19-1.36-.74-.25-1.23.25-1.85.37-.86.25-1.85.25-2.46.86-.49.49-.37,1.11-.37,1.85-.12.37-.49,0-.74,0-.62-.37-.86-1.11-.74-1.85.12-.37,0-.62-.37-.86-.49-.25-1.11-.49-1.6-.25-.62.25-.86.99-1.11,1.6,0,.49,0,1.11.25,1.48.99.99,2.34,1.36,3.33,2.22.25.62-.25,1.11-.62,1.6,0,.49.74.49.62.99-.74.25-1.48,0-2.09-.49-.37-.37-.49-1.11-1.11-1.11s-.62.74-.86,1.11c-.25.49,0,1.11-.49,1.48h-.37c-1.97-.62-3.7-1.72-5.42-3.08-.99-.74-1.72-1.97-2.46-2.96-.37-1.23-.62-2.83-2.09-3.2-.37,0-.74.12-.86.49l-.12.49c-.74,0-1.48-.49-2.34-.25-.37.25-.74.49-.99.86,0,.86.99.49,1.11,1.23,0,.62.49,1.11.74,1.6-.25.37-.62.49-.74.86l-.49,1.23c.25.37.49.86.86.86.62-.25,1.23.25,1.97.12.49,0,1.11-.37,1.23.37.25.62,0,1.11,0,1.6-.62.86-1.48,1.6-2.34,1.97-.25.25-.25.62-.25.86.37.49,1.11.25,1.6.25.99,0,1.72-.62,2.71-.74.25.49.62,1.11,1.11,1.36.74.25.99-.86,1.72-.62.62.49.49,1.36.99,1.97,0,.37-.25.37-.49.49-.86.25-1.97,0-2.59.62-.12.37.25.74.49.86.74.37,1.6.49,2.46.62.74.12,1.6-.25,2.34,0l-.25.37-2.34,1.6c-1.11.49-2.22.62-3.2,1.23-1.48.37-2.09-1.48-3.45-1.36-.62,0-.99.25-1.36.49-.37.37-.37.86-.25,1.36.25.49.86.25.86.74,0,1.36-1.23,2.34-1.36,3.7,0,.37,0,.74.49.86.25.12.62,0,.86-.12.25-.25.25-.74.74-.86.86.12,1.72.12,2.22-.49.25,0,.62.25.62.49,0,.37,0,.74.37.86,1.23,0,1.72-1.23,2.34-2.09.49-.12,1.11-.49,1.6-.12.25.86-.49,1.36-.62,2.22,0,.25.25.37.49.37,1.48-.25,2.22-1.48,3.08-2.59.12-.25.25-.62.74-.62,1.11.37,1.36-.99,2.09-1.48h.25c.12.37-.12.62,0,.86.49.49.99,0,1.48-.12l.99-.62c1.23.37,2.46.62,3.7.99.99.37,0,1.48.62,2.09-.12.37-.62.49-.99.49-2.09.25-4.56-.25-6.28,1.23l-.99.99c-1.6,0-2.34,1.36-3.82,1.6-.99.62-2.46-.25-3.08.86.49.99,1.72,1.36,2.71,1.6.49.25,1.11,0,1.36.49,0,.49.12,1.11.74,1.23.37.12.62-.49,1.11-.12.49.74,1.36,1.11,1.72,1.72-.37.62-1.11.25-1.72.25h-.12c-.86.12-1.97.49-2.59-.25-.86-.62-1.6-1.72-2.96-1.72-.74.25-1.48.49-1.6,1.23-.12.49.37.62.62.99-.86.62-1.72,1.48-1.48,2.59.12.25.25.49.49.49.49,0,.74-.37,1.23-.12.12.74-.12,1.85.74,2.22.62-.12,1.11-.86,1.85-.25.74.37,1.23-.37,1.97-.49.99,0,1.36.99,1.72,1.72.62.49,1.48,1.23,2.34.74.62-.86-.49-1.85.62-2.34.62-.25,1.23,0,1.97-.12,1.11.12,2.34.25,2.96-.99l.99-1.6.25-.99c.62-.25,1.48.86,1.85-.12-.37-.99-.49-1.97-.25-2.96.25-.74.49-1.36.99-1.85l.25.12c.25,1.23.37,2.34.86,3.45-.12,1.11-.62,2.09-.86,3.2-.25,1.11-1.11,2.09-2.22,2.59-.25.25-.49.49-.25.86.25.49.99.25,1.48.37,1.48-.25,2.83-.86,3.94-1.97,1.11.25,1.6-.99,2.59-.49.99.74,2.83-.62,3.2,1.11-.12.74.62,2.09-.62,2.46-1.23-.25-2.71-1.85-3.94-.37-.25.25-.49.62-.25,1.11.25.37.49.74.12,1.11-.37.62-.86,1.36-.49,1.97.25.37.74.37,1.11.37.74-.25,1.36.37,2.09.37.62.49,1.23,1.11,2.09.99.37-.25.25-.62.49-.86.49-.49,1.6-.37,1.6-1.36.12-.74.74-1.36,1.36-1.72.25-.37,1.72-.74,2.09-1.36h0Z" style="stroke-width:0px;"/><path d="m959.6,96.47h0c-.25-.25-.49-.62-.62-.74-.25-1.36,1.72-2.09.74-3.57-.25-.86,0-1.85-.86-2.46-.62-.49-1.36-.62-1.97-.99,0-.37.49-.25.62-.37,1.11-.25,1.97.99,2.83,0,.12-.74-.62-1.36-1.11-1.85-1.6-1.11-3.94-.62-5.17-2.34l.12-.12c1.48.37,3.2,0,4.31-.99.62-.86,1.36-1.72,2.34-1.97,1.11-.86,1.23-2.22,1.23-3.45,0-.49.25-.99.62-1.36.62-.49,2.09-.37,1.72-1.48-.86-.49-1.72-.86-2.59-.74-.37-.25.12-.62.25-.74,1.48-.99,3.94-1.6,3.82-3.94-.12-.25-.12-.62-.49-.62-.62.12-1.11.74-1.72.99-1.48.86-3.2.62-4.68,1.48-.25,0-.25-.37-.12-.49.49-.74,1.6-.74,1.97-1.72.25-.74.37-1.72,1.23-1.97.49-.37,1.23-.37,1.48-.99,0-.37-.49-.49-.74-.62-1.36-.37-2.71.37-3.7,1.36-.99.49-2.22.86-2.96,1.6-.12,0-.37,0-.37-.25-.25-1.97,1.48-3.33,2.83-4.44.86-.25,1.72-1.36,2.71-.86.74.37,1.48.74,2.34.49,1.11-.37,1.36-1.6,2.22-2.22.74-.25,1.72.86,2.22-.25.25-1.11-.62-1.72-1.11-2.46.62-1.48.12-3.2-1.11-4.31-.62-.37-1.36-.62-1.97-.37-.49.62.49,1.11.49,1.72.25,2.71-2.71,3.33-4.56,4.56-3.33,1.72-7.39,4.31-7.64,8.62,0,2.34,1.11,4.56,2.71,6.16.86,1.48,2.22,2.83,1.72,4.8-.37.74-1.23.86-1.97.86-2.83-.25-4.44-3.45-5.67-5.67-.37-.86-.86-1.72-.99-2.71.12-.12.25-.12.49,0,.49.49.49,1.6,1.36,1.48.74-.99.25-2.22-.25-3.2-.49-.86-1.6-1.36-2.09-2.34,0-.74.99-.25,1.11-.99-.37-1.23-.49-2.59-.25-3.7.25-.49.99-.49.99-1.11-.37-1.23-.37-2.34-.25-3.7.12-.74.74-1.6.37-2.34-.86-.25-.12-1.36-.99-1.48-1.6,0-2.83-.86-4.19-1.36-.74-.25-1.23.25-1.85.37-.86.25-1.85.25-2.46.86-.49.49-.37,1.11-.37,1.85-.12.37-.49,0-.74,0-.62-.37-.86-1.11-.74-1.85.12-.37,0-.62-.37-.86-.49-.25-1.11-.37-1.6-.25-.62.25-.86.99-1.11,1.6,0,.49,0,1.11.25,1.48.99.99,2.34,1.36,3.33,2.22.25.62-.25,1.11-.62,1.6,0,.49.74.49.62.99-.74.25-1.48,0-2.09-.49-.37-.37-.49-1.11-1.11-1.11s-.62.74-.86,1.11c-.25.49,0,1.11-.49,1.48h-.37c-1.97-.62-3.7-1.72-5.42-3.08-.99-.74-1.72-1.97-2.46-2.96-.37-1.23-.62-2.83-2.09-3.2-.37,0-.74.12-.86.49l-.12.49c-.74,0-1.48-.49-2.34-.25-.37.25-.74.49-.99.86,0,.86.99.49,1.11,1.23,0,.62.49,1.11.74,1.6-.25.37-.62.49-.74.86l-.49,1.23c.25.37.49.86.86.86.62-.25,1.23.25,1.97.12.49,0,1.11-.37,1.23.37.25.62,0,1.11,0,1.6-.62.86-1.48,1.6-2.34,1.97-.25.25-.25.62-.25.86.37.49,1.11.25,1.6.25.99,0,1.72-.62,2.71-.74.25.49.62,1.11,1.11,1.36.74.25.99-.86,1.72-.62.62.49.37,1.36.99,1.97,0,.37-.25.37-.49.49-.86.25-1.97,0-2.59.62-.12.37.25.74.49.86.74.37,1.6.49,2.46.62.74.12,1.6-.25,2.34,0l-.25.37-2.34,1.6c-1.11.49-2.22.62-3.2,1.23-1.48.37-2.09-1.48-3.45-1.36-.62,0-.99.25-1.36.49-.37.37-.37.86-.25,1.36.25.49.86.25.86.74,0,1.36-1.23,2.34-1.36,3.7,0,.37,0,.74.37.86.25.12.62,0,.86-.12.25-.25.25-.74.74-.86.86.12,1.72.12,2.22-.49.25,0,.62.25.62.49,0,.37,0,.74.37.86,1.23,0,1.72-1.23,2.34-2.09.49-.12,1.11-.49,1.6-.12.25.86-.49,1.36-.62,2.22,0,.25.25.37.49.37,1.48-.25,2.22-1.48,3.08-2.59.12-.25.25-.62.74-.62,1.11.37,1.36-.99,2.09-1.48h.25c.12.37-.12.62,0,.86.49.49.99,0,1.48-.12l.99-.62c1.23.37,2.46.62,3.7.99.99.37,0,1.48.62,2.09-.12.37-.62.49-.99.49-2.09.25-4.56-.25-6.28,1.23l-.99.99c-1.6,0-2.34,1.36-3.82,1.6-.99.62-2.46-.25-3.08.86.49.99,1.72,1.36,2.71,1.6.49.25,1.11,0,1.36.49,0,.49.12,1.11.74,1.23.37.12.62-.49,1.11-.12.49.74,1.36,1.11,1.72,1.72-.37.62-1.11.25-1.72.25h-.12c-.86.12-1.97.49-2.59-.25-.86-.62-1.6-1.72-2.96-1.72-.74.25-1.48.49-1.6,1.36-.12.49.37.62.62.99-.86.62-1.72,1.48-1.48,2.59.12.25.25.49.49.49.49,0,.74-.37,1.23-.12.12.74-.12,1.85.74,2.22.62-.12,1.11-.86,1.85-.25.74.37,1.36-.37,1.97-.49.99,0,1.36.99,1.72,1.72.62.49,1.48,1.23,2.34.74.62-.86-.49-1.85.62-2.34.62-.25,1.23,0,1.97-.12,1.11.12,2.34.25,2.96-.99l.99-1.6.25-.99c.62-.25,1.48.86,1.85-.12-.37-.99-.49-1.97-.25-2.96.25-.74.49-1.36.99-1.85l.25.12c.25,1.23.37,2.34.86,3.45-.12,1.11-.62,2.09-.86,3.2-.25,1.11-1.11,2.09-2.22,2.59-.25.25-.49.49-.25.86.25.49.99.25,1.48.37,1.48-.25,2.83-.86,3.94-1.97,1.11.25,1.6-.99,2.59-.49.99.74,2.83-.62,3.2,1.11-.12.74.62,2.09-.62,2.46-1.23-.25-2.71-1.85-3.94-.37-.25.25-.49.62-.25,1.11.25.37.49.74.12,1.11-.37.62-.86,1.36-.49,1.97.25.37.74.37,1.11.37.74-.25,1.36.37,2.09.37.62.49,1.23,1.11,2.09.99.37-.25.25-.62.49-.86.49-.49,1.6-.37,1.6-1.36.12-.74.74-1.36,1.36-1.72.37-.49,1.85-.86,2.22-1.48h0Z" style="fill:none; stroke:#000; stroke-width:.22px;"/><path d="m937.67,54.46c-.12.62-.12,1.23.25,1.72.99,1.11,2.59,1.48,3.2,2.71h-.37c-1.23-.74-2.34-1.72-3.57-2.22-.49-.37-.86-.86-.74-1.48.12-.37.25-.86.74-.99.25-.12.49,0,.49.25h0Z" style="fill:#fff; stroke-width:0px;"/><path d="m947.9,55.57c.25.25,0,.86.62.99.12,0,.25.12.25.25,0,.49-.12.99-.25,1.48-.12.37-.62.49-.62,1.11,0,.25.37.37.49.74v1.97c-1.23.37-.62,1.85-.74,2.59-.12.62,0,1.23,0,1.85-.25.12-.86.12-.99.49,0,.74.37,1.36.62,1.85.49.62,1.36.74,1.36,1.6-.62,0-1.23-.37-1.72-.62-.86-.49-1.48-1.48-2.09-2.34-.12-.12-.37-.12-.49,0-.12.62-.12,1.36-.62,1.72-.62-.37-.62-1.97-1.6-1.48-.37,2.09-1.72,3.7-2.96,5.42-.25.12-.37.49-.74.49.62-1.6,1.11-3.45.49-5.3-.12-.37-.49-.25-.74-.12-.25.25-.49.62-.86.49-.37-.49.37-1.36-.49-1.72-.62.12-1.11.74-1.6.99-1.48.86-3.2,1.23-4.93,1.23-.37,0-.62-.12-.86-.25.37-.49,1.11-.49,1.6-.86,1.97-1.23,3.33-3.45,4.93-5.05-.12-.74-.74-1.6-.12-2.22.49,0,.74.62,1.11.74.74.37,1.6.62,2.34.25.62-.12,1.11-.74,1.23-1.36,0-.25-.12-.49-.37-.49s-.37,0-.49-.25c0-.37.25-.62.49-.62.86,0,1.6,1.72,2.22.37.37-1.11-.74-1.97-1.48-2.71-.25-.25-.37-.49-.25-.86.62-.37-.12-.86.37-1.36.86-.62,2.09-.25,2.96-.86,1.48.49,2.59,1.6,3.94,1.85h0Z" style="fill:#fff; stroke-width:0px;"/><path d="m925.1,55.2c0,.25.12.49,0,.62-.25.25-.49,0-.62-.12-.25-.25-.37-.62-.37-.86.12-.99.99,0,.99.37h0Z" style="fill:#fff; stroke-width:0px;"/><path d="m924.36,56.55c1.36.62,2.22,1.97,3.2,3.08,2.09,1.72,4.31,3.2,6.78,3.94.12.37-.25.74-.49.99-.86.86-1.48,1.85-2.34,2.59h-.49c-.86-.86-.74-2.46-2.22-2.59-.49,0-.86.62-1.36.25s.12-1.23-.62-1.48c-.86.37-1.48,1.23-2.46,1.11.62-1.11,1.72-2.22,1.11-3.57-.12-.62-.49-1.36-1.11-1.48-.62,0-.86.62-1.48.37-.25-.49-1.36-.25-.86-.99.37-.62,1.72-.62,1.23-1.6-.37-.49-1.36-.25-1.36-.99.12-.37-.25-.99,0-1.23,1.11-.25,1.85.99,2.46,1.6h0Z" style="fill:#fff; stroke-width:0px;"/><path d="m966.5,57.17c.12.74-.62,1.23-.37,1.97.25.37.86.49.74.86-1.85,0-2.22,2.46-3.94,2.34-.74-.12-1.36-.99-2.22-.62-2.34,1.11-4.93,2.71-5.54,5.54-.25,1.11-.25,2.22.62,3.08.25.12.49.12.62,0,.49-.86.86-1.97,1.97-2.22.62-.25,1.36-.49,1.97-.86.12,0,.25-.12.25.12-.25.86-.62,1.85-1.6,2.09-.62.62-1.36,1.23-1.36,2.09,0,.37-.12.99.25,1.36.37.25.74-.12.99-.25,1.23-1.48,3.08-1.72,4.93-1.85.12.12-.12.49-.37.49-1.6.49-3.08,1.85-3.57,3.45,0,.25.25.49.37.49.74-.12,1.36-.62,2.22-.49.25.49-.62.49-.86.99-1.48,1.36,0,4.19-2.46,4.68-.74.25-.62,1.11-1.11,1.48-.86,1.11-2.22,1.36-3.45,1.23-.99.12-1.72-1.23-2.59-.37.12.99.86,1.48,1.36,2.34,1.23,1.11,2.83,1.23,4.44,1.72.25,0,.37.25.49.37,0,.37-.49.25-.74.25-.99.12-2.09.25-3.08-.12-.12,0-.25.12-.37.25.12,1.11,1.36,1.48,2.09,1.97.74.37,1.72.25,1.97,1.11v1.11c.37.49.49,1.23.37,1.85-.62.74-1.11,1.72-.62,2.83-.25.25-.74,0-.99.25-.37.74-1.23.86-1.48,1.48,0,.62-.37,1.11-.99,1.23-.49,0-.86.25-1.23.12-.25-.37.12-.86-.37-1.11-.62-.12-.86.86-1.6.49-.37-.25-.62-.37-.86-.62,0-.49.37-.62.62-.74,1.6-.25,3.7-.49,4.19-2.22.12-.86-.25-1.48-.12-2.22-.25-.86-1.11-1.48-2.09-1.6-.86-.25-1.85.12-2.46-.49-.25-.25-.49-.37-.86-.25-.25,0-.37.37-.62.25-.25-.25-.62-.62-.86-.25-.62,1.11-1.48,2.34-2.83,2.59-.25-.37.25-.74.37-1.11.37-.86.74-1.97.99-2.96.37-.49.86-1.23.49-1.97-.62-1.6-1.23-3.45-.74-5.3.37-2.22-.25-4.31-1.85-5.79-.86-.49-1.72-1.48-2.83-1.6-.74-.25-1.72,0-2.22-.62.12-.74.86-1.23,1.23-1.85l1.23-1.97c.49-.12.37.62.86.62.99,0,.99-1.72,1.97-1.11.49.62,1.23.86,1.72,1.48.62,2.71,1.72,5.42,3.57,7.52,1.48,1.85,3.7,3.2,5.91,2.59.62-.49,1.48-1.11,1.6-1.97.62-4.31-4.93-6.53-4.56-10.84.37-4.07,4.56-6.28,7.88-7.88,1.85-.99,4.07-2.22,4.31-4.56,0-.25,0-.37.12-.62,1.11.25.99,1.11,1.11,1.72h0Z" style="fill:#fff; stroke-width:0px;"/><path d="m936.68,70.1c.49.12,1.11-.62,1.36.12-.12.99-.12,2.22-.62,3.08-.49.49-1.23.12-1.72.37-.74.25-.86,1.97-1.72.86-.37-.12-.62.25-.86.49-.37.86-.74,1.85-1.48,2.59-.12.12-.37.25-.49,0-.12-.62.37-1.72-.49-1.97-.37,0-.74.25-1.11.37-.74,0-1.72,0-2.09.62-.12.37-.12.86-.62.86-.49-.25-.99-.37-1.23-.86-.25-.12-.49-.37-.74-.12-.37.37-.49,1.11-1.11,1.11-.49,0-.86-.12-1.36-.37.12-1.11,1.36-1.23,2.09-1.72,1.48-.37,2.71-1.36,4.19-1.6,2.34-.86,4.31-2.71,6.16-4.56.25-.12.62-.25.86-.25.49.37.49.86.99.99h0Z" style="fill:#fff; stroke-width:0px;"/><path d="m924.98,74.54c-.49.25-1.11.49-1.6.25-.25-.25-.12-.86-.25-1.23.12-.37.62-.25.86-.12.37.37.99.49.99,1.11h0Z" style="fill:#fff; stroke-width:0px;"/><path d="m945.55,80.7c0,.74-.12,1.23-.49,1.85-.86.74-1.6,1.72-1.85,2.96,0,.86-.12,1.6-.12,2.34-.25.25-.49-.12-.62-.25-.37-.62-.25-1.85-1.23-1.72-.49.62-1.11,1.48-.74,2.22.49.62,1.36,1.11.86,1.97-.74.37-.49,1.48-1.48,1.6-1.48.25-2.96-.49-4.07.62-.37.37-.62.86-.86,1.36-.62.12-.49-.86-.86-1.23-.25-.37-.74-.12-1.11-.37-.49-.25-1.11-.74-1.72-.37-.49.25-1.11.99-1.72.49l-.86-.25c0-.25.25-.62,0-.99l-1.6-.86c-.12-.12,0-.37.12-.49,1.36-.86,2.96.12,4.56-.12,1.11-.37,2.09-.25,3.2-.12.62,0,1.36.25,1.72-.37.25-.37.37-.86.12-1.23-.49-1.11-1.97-1.23-2.22-2.59-.12-.25-.25-.49-.49-.62-.37-.12-.62.25-.99.12-.12-.37-.25-.74-.62-.86-.74,0-1.6.37-2.22-.12.12-.37.62-.25.86-.49.99-.25,1.85-.86,2.83-1.36l1.36-.25c1.36-2.22,4.19-2.09,6.65-2.22l2.34-.74c.86.49,1.11,1.48,1.23,2.09h0Z" style="fill:#fff; stroke-width:0px;"/><path d="m930.28,88.46c-.49.25-.99.12-1.48,0-.25-.25-.37-.74-.37-1.11.74-.25,1.48.49,1.85,1.11h0Z" style="fill:#fff; stroke-width:0px;"/><path d="m951.71,96.22c0,.25-.25.25-.37.25-.25,0-.25-.12-.25-.25,0-.37.49-.12.62,0h0Z" style="fill:#fff; stroke-width:0px;"/><path d="m945.43,56.43c.12.37-.12.62-.49.62-.62,0-1.11,0-1.48-.49-.49-.37-.25-.86-.12-1.36.25-.25.49-.25.74-.12.49.37.99.86,1.36,1.36h0Z" style="stroke-width:0px;"/><path d="m948.14,57.17c0,.37-.25.74-.49,1.11-.25.12-.49,0-.49-.25-.12-.37.12-.86.37-1.11.25-.12.62,0,.62.25h0Z" style="stroke-width:0px;"/><path d="m945.06,60.62v.86c-.86.86-.86,2.34-2.09,2.83-.37,0-.62-.12-.62-.49,0-.49-.12-1.23,0-1.72.49-.25.62.74,1.11.25.25-.74.86-1.36,1.23-1.97.12,0,.37.12.37.25h0Z" style="stroke-width:0px;"/><polygon points="908.47 45.71 981.65 45.71 981.65 50.76 908.47 50.76 908.47 45.71" style="stroke-width:0px;"/><polygon points="908.47 45.71 981.65 45.71 981.65 50.76 908.47 50.76 908.47 45.71" style="fill:none; stroke:#000; stroke-width:.22px;"/><polygon points="962.93 46.57 971.18 46.57 971.18 49.9 962.93 49.9 962.93 46.57" style="fill:#fff; stroke-width:0px;"/><polygon points="944.82 46.57 953.07 46.57 953.07 49.9 944.82 49.9 944.82 46.57" style="fill:#fff; stroke-width:0px;"/><polygon points="926.58 46.57 934.96 46.57 934.96 49.9 926.58 49.9 926.58 46.57" style="fill:#fff; stroke-width:0px;"/><polygon points="909.33 46.57 916.85 46.57 916.85 49.9 909.33 49.9 909.33 46.57" style="fill:#fff; stroke-width:0px;"/><path d="m978.33,27.6c.62.74.25,1.85.37,2.71.62.49,2.09,0,2.22,1.23.12.49-.25.86-.49,1.11-.49.49-1.23,0-1.6.49-.12,1.48,0,3.08,0,4.8.49.25.99.25,1.48.49.25.25.49.62.49.99s-.25.74-.74.86c-.37.25-1.11,0-1.23.49-.25.74,0,1.72-.12,2.59-.49.25-1.23.25-1.85.25h-5.91c-.49.25-1.11.86-1.85.49-1.23-.74-2.96-.49-4.31-.62h-4.31c-.74-.74-.25-1.85-.49-2.71-.25-.49-1.11-.25-1.6-.49-.49-.25-.49-.74-.49-1.11,0-.49.49-.74.99-.86.37-.25.99.12,1.11-.37,0-1.48-.12-3.08,0-4.44-.12-.86-1.23-.37-1.72-.74-.49-.25-.49-.86-.37-1.36.37-.86,1.36-.62,2.09-.86l.12-.25.12-2.59.12-.25,6.78.12c.74,0,1.48.37,2.22.62,1.48-1.11,3.57-.49,5.3-.86,1.23.25,2.46,0,3.7.25h0Z" style="stroke-width:0px;"/><path d="m978.33,27.6c.62.74.25,1.85.37,2.71.62.49,2.09,0,2.22,1.23.12.49-.25.86-.49,1.11-.49.49-1.23,0-1.6.49-.12,1.48,0,3.08,0,4.8.49.25.99.25,1.48.49.25.25.49.62.49.99s-.25.74-.74.86c-.37.25-1.11,0-1.23.49-.25.74,0,1.72-.12,2.59-.49.25-1.23.25-1.85.25h-5.91c-.49.25-1.11.86-1.85.49-1.23-.74-2.96-.49-4.31-.62h-4.31c-.74-.74-.25-1.85-.49-2.71-.25-.49-1.11-.25-1.6-.49-.49-.25-.49-.74-.49-1.11,0-.49.49-.74.99-.86.37-.25.99.12,1.11-.37,0-1.48-.12-3.08,0-4.44-.12-.86-1.23-.37-1.72-.74-.49-.25-.49-.86-.37-1.36.37-.86,1.36-.62,2.09-.86l.12-.25.12-2.59.12-.25,6.78.12c.74,0,1.48.37,2.22.62,1.48-1.11,3.57-.49,5.3-.86,1.23.25,2.46,0,3.7.25h0Z" style="fill:none; stroke:#000; stroke-width:.22px;"/><path d="m953.93,27.48c.25,0,.62.25.86.37.25.99,0,1.72.25,2.59.62.25,1.6,0,1.97.86.12.37.12.99-.12,1.23-.49.62-1.6,0-1.97.74-.12,1.72-.12,3.08,0,4.68.49.49,1.36.12,1.85.74.25.25.37.62.25.99-.37.62-1.23.62-1.97.74-.25.25,0,.74-.12.99-.25.62.37,1.48-.37,1.85-2.09.25-3.94-.12-6.04,0h-1.97c-.49.37-1.23.86-1.85.49l-1.23-.49h-4.31c-.99,0-2.34.37-3.08-.49,0-.74.12-1.6,0-2.34-.74-.25-1.97.12-2.34-.86-.12-.25,0-.74.12-.99.49-.74,1.85-.12,2.34-.74v-2.22c.12-.99,0-1.85,0-2.83-.74-.25-2.09.12-2.22-.99-.12-.62.25-1.11.74-1.23s1.23.12,1.48-.37l.12-2.34c.62-.99,2.09-.37,2.96-.49h4.56c.74.12,1.36.74,2.09.37,2.22-.86,5.3,0,8.01-.25h0Z" style="stroke-width:0px;"/><path d="m953.93,27.48c.25,0,.62.25.86.37.25.99,0,1.72.25,2.59.62.25,1.6,0,1.97.86.12.37.12.99-.12,1.23-.49.62-1.6,0-1.97.74-.12,1.72-.12,3.08,0,4.68.49.49,1.36.12,1.85.74.25.25.37.62.25.99-.37.62-1.23.62-1.97.74-.25.25,0,.74-.12.99-.25.62.37,1.48-.37,1.85-2.09.25-3.94-.12-6.04,0h-1.97c-.49.37-1.23.86-1.85.49l-1.23-.49h-4.31c-.99,0-2.34.37-3.08-.49,0-.74.12-1.6,0-2.34-.74-.25-1.97.12-2.34-.86-.12-.25,0-.74.12-.99.49-.74,1.85-.12,2.34-.74v-2.22c.12-.99,0-1.85,0-2.83-.74-.25-2.09.12-2.22-.99-.12-.62.25-1.11.74-1.23s1.23.12,1.48-.37l.12-2.34c.62-.99,2.09-.37,2.96-.49h4.56c.74.12,1.36.74,2.09.37,2.22-.86,5.3,0,8.01-.25h0Zm-33.51.49c2.46-.99,5.17-.25,7.88-.49.74.12,1.72-.37,2.22.37v2.34c.25.62,1.11.25,1.48.49.25.12.49.25.62.62s0,.74-.12,1.11c-.49.49-1.11.37-1.72.49l-.25.25c.12,1.48-.25,2.71,0,4.07,0,.25-.12.74.25.86.74,0,1.36,0,1.85.49.25.37.25.74.12,1.23-.25,1.48-2.59-.25-2.34,1.48,0,.62.12,1.48-.12,2.09-2.71,0-5.42-.25-7.88,0-.49.37-.99.62-1.72.74-.49-.12-.99-.37-1.36-.74-2.46-.12-4.8-.12-7.15-.12-.74-.62-.25-1.72-.49-2.59-.37-.49-.99-.12-1.48-.37-.37,0-.49-.37-.62-.62,0-.49,0-.99.37-1.36.37-.25.99-.25,1.48-.25l.25-.25c-.12-1.6.25-3.2-.12-4.93-.25-.37-.74,0-.99-.25-.49-.12-.99-.37-1.11-.86-.12-.37-.12-.74.25-1.11.49-.62,1.48.12,1.97-.49l.25-2.34c.37-.74,1.23-.37,1.97-.37,1.23-.25,2.71,0,3.94,0,.99,0,1.85.25,2.59.49h0Z" style="fill:none; stroke:#000; stroke-width:.22px;"/><path d="m920.05,28.59l.25.49c.12,3.33.12,6.65.12,10.23l-.12,1.23c-.86,0-1.72-.37-2.59-.25-.99-.12-1.97.12-2.83-.12-.49-1.11-.12-2.34-.25-3.57,0-2.46.12-5.54.12-8.13,0-.25.25-.25.37-.37,1.72.12,3.57-.37,4.93.49h0Z" style="fill:#fff; stroke-width:0px;"/><path d="m913.52,28.34c-.49.37-1.11.99-.86,1.6.25,4.19,0,7.88.25,11.83l.37.37c1.97,0,4.07-.25,5.91.12.12,0,.12.25,0,.25-.49.25-1.11.12-1.6.12l-5.05-.12c-.37-.25-.25-.86-.25-1.36s.12-1.11-.37-1.36c-.74-.12-1.36,0-1.85-.49.37-.99,1.97-.25,2.22-1.23.12-1.85-.12-3.7,0-5.42-.25-.99-1.23-.74-1.97-.86-.12-.12-.25-.25-.25-.49.62-.62,1.85.12,2.22-.74.25-.74,0-1.48.12-2.34.25-.12.74-.12,1.11-.12v.25h0Z" style="fill:#fff; stroke-width:0px;"/><path d="m927.44,28.34v11.7c-1.97.25-4.19-.12-6.16.37-.49-.37-.12-.99-.25-1.6-.12-1.23,0-2.71,0-4.07,0-1.97-.12-4.07,0-6.04.25-.62.99-.74,1.6-.74h4.68l.12.37h0Z" style="fill:#fff; stroke-width:0px;"/><path d="m929.79,28.34c.12.74-.25,1.85.25,2.59.49.25,1.23.12,1.72.25.25.25.12.49,0,.74-.49.49-1.72-.12-1.97.74,0,1.97-.12,3.82,0,5.79l.25.25c.62.12,1.48-.12,1.85.37,0,.25,0,.62-.25.74-.62.12-1.6-.25-1.97.49-.12.74.12,1.6-.12,2.34l-.37.12-7.02-.12c-.12-.12,0-.25,0-.25l.74-.25h5.67c.62-.12.62-.86.62-1.36v-7.88c0-1.36.25-2.59-.12-3.94,0-.25-.49-.49-.49-.86.49,0,.99,0,1.23.25h0Z" style="fill:#fff; stroke-width:0px;"/><path d="m961.69,28.34c-.12.37-.62.74-.74,1.11,0,4.07,0,8.5.12,12.69l.37.25c2.22,0,4.56-.49,6.41.49.12,0,0,0,0,.12-2.34,0-4.8.12-7.15,0l-.25-.25c-.12-.86.12-1.72-.25-2.59-.49-.49-2.09.12-1.72-.99.62-.49,1.48.12,1.85-.62,0-2.09.12-3.94,0-5.91-.49-.62-1.23-.25-1.85-.37-.25-.25-.37-.49-.12-.74.62-.49,2.59.12,2.22-1.36.25-.62-.25-1.85.62-1.97.12-.12.37-.12.49.12h0Z" style="fill:#fff; stroke-width:0px;"/><path d="m977.96,28.34c.25.99-.25,1.85.37,2.71.49.25,1.48-.12,1.72.49,0,1.23-1.72.25-2.09,1.23.12,1.85-.12,3.45,0,5.42-.25.12-.25.37-.12.49.49.49,1.23-.25,1.85.25.37.12.12.37.12.62-.49.62-1.48-.12-1.85.74l-.12,2.46-.37.12h-6.65c-.12-.12,0-.12,0-.25l.74-.25h5.05c.25,0,.62-.25.62-.62,0-3.94-.12-8.01-.12-12.2l-.62-1.23c.62-.25,1.36-.37,1.48,0h0Z" style="fill:#fff; stroke-width:0px;"/><path d="m962.43,29.94v10.72c-.12.25-.49.49-.62.62l-.25-.12v-11.7c.25-.25.37-.62.62-.74.25.49.25.74.25,1.23h0Z" style="fill:#fff; stroke-width:0px;"/><path d="m976.97,29.45c-.12,2.83,0,5.42,0,8.01v3.45q0,.12-.12.25c-.86-.37-.49-1.23-.62-2.09,0-.99-.12-2.22.12-3.33l-.12-.37v-6.53c.25-.37.62.25.74.62h0Z" style="fill:#fff; stroke-width:0px;"/><path d="m928.8,29.2c0,4.07,0,8.01-.12,11.58-.12.25-.25,0-.49-.12-.25-.62,0-1.36,0-1.97-.12-3.2,0-6.53,0-9.73.25-.25.49.12.62.25h0Z" style="fill:#fff; stroke-width:0px;"/><path d="m969.7,34.25c-.12.25-.49.25-.74.12l-.25-.12c.12-.49,0-1.23.49-1.6.37.37.25,1.11.49,1.6h0Z" style="fill:#fff; stroke-width:0px;"/><path d="m928.31,41.4c-.12.25-.62.12-.86.25h-1.6c-1.23,0-2.59-.12-3.7.12-.25,0-.37-.25-.37-.49.12-.49.74-.25,1.11-.49h4.8c.12.12.37.37.62.62h0Z" style="fill:#fff; stroke-width:0px;"/><path d="m919.93,41.15c0,.25-.25.49-.49.62-1.6-.49-3.33-.12-5.05-.37h0c.12-.25.37-.49.74-.49,1.6,0,3.33,0,4.8.25h0Z" style="fill:#fff; stroke-width:0px;"/><path d="m968.59,41.4c.12.12.12.37,0,.37-.62.74-1.36-.12-2.09,0-1.23-.12-2.71,0-4.07-.12.37-1.11,1.85-.49,2.71-.62,1.23.12,2.46-.25,3.45.37h0Z" style="fill:#fff; stroke-width:0px;"/><path d="m975.99,41.15c.25.12.49.37.49.62-2.09.25-4.07-.25-5.91.25-.25,0-.37-.37-.25-.62.37-.49.99-.37,1.6-.49l4.07.25h0Z" style="fill:#fff; stroke-width:0px;"/><path d="m921.53,42.14c.12.37,0,.86-.25,1.11-.25.25-.62.25-.86.12-.25,0-.37-.37-.37-.62-.12-.49.49-.74.74-1.11.37,0,.62.25.74.49h0Z" style="fill:#fff; stroke-width:0px;"/><path d="m970.07,42.38c0,.49,0,1.11-.49,1.11-.37,0-.74-.12-.86-.49-.12-.49.25-.99.49-1.11.49,0,.74.25.86.49h0Z" style="fill:#fff; stroke-width:0px;"/><path d="m951.96,28.46v11.7l-.25.12c-2.09.25-4.19-.37-6.16.37-.37-.25,0-.74-.12-1.11v-10.35c0-.37.25-.62.49-.74.49-.37,1.23-.25,1.97-.37l3.94.12.12.25h0Z" style="fill:#fff; stroke-width:0px;"/><path d="m954.3,28.34c0,.86,0,1.72.12,2.59.62.49,2.34-.25,1.97,1.11-.49.37-1.23.12-1.85.25l-.25.12c-.25,1.97.12,4.07,0,5.79,0,.25.12.49.49.62.49,0,1.36-.37,1.6.37-.12,1.23-1.6.12-2.09.99-.12.86.25,1.72-.12,2.59l-.25.12c-2.59,0-5.05,0-7.39-.12-.12,0,0-.25,0-.25l.49-.25c1.97-.25,4.19,0,6.28-.25.25,0,.49-.25.49-.62v-11.95c-.12-.62-.74-.99-.74-1.48.37.12.99,0,1.23.37h0Z" style="fill:#fff; stroke-width:0px;"/><path d="m937.79,28.22c-.12.49-.49.62-.74.99-.25.74,0,1.6-.12,2.46v9.98c0,.25.25.49.49.62l5.3.12c.25,0,.62.12.86.37-.12.25-.49.25-.74.25-1.97,0-4.07.12-6.04-.12l-.25-.12c0-.86,0-1.85-.37-2.59-.62-.25-1.36,0-1.97-.25-.25-.12-.25-.49,0-.74.62-.37,1.85.25,2.22-.74,0-1.97.12-3.82,0-5.79-.49-.74-1.72,0-2.22-.74.25-1.11,1.72-.12,2.22-1.11l.12-2.34c.49-.37.86-.37,1.23-.25h0Z" style="fill:#fff; stroke-width:0px;"/><path d="m938.53,28.83c.12,3.45-.25,6.53,0,9.98-.25.74.37,1.97-.74,2.09-.25-3.45,0-7.15-.12-10.84-.12-.62.25-1.11.74-1.48l.12.25h0Z" style="fill:#fff; stroke-width:0px;"/><path d="m953.32,29.45c0,3.82.12,7.88-.12,11.46-.25,0-.49-.25-.49-.37,0-1.48-.25-3.08-.12-4.68.12-2.09-.12-4.68.12-6.9.25-.12.62.25.62.49h0Z" style="fill:#fff; stroke-width:0px;"/><path d="m944.2,41.15c.25,0,.49.25.25.49l-.37.37c-1.72-.62-3.94-.25-5.79-.49.12-.25.25-.49.49-.74,1.85.25,3.7,0,5.42.37h0Z" style="fill:#fff; stroke-width:0px;"/><path d="m952.08,40.91c.25.12.49.37.49.62l-.25.12c-2.09,0-4.19-.25-6.16.25-.25,0-.62,0-.74-.37.25-.49.74-.62,1.23-.62,1.97-.12,3.7,0,5.42,0h0Z" style="fill:#fff; stroke-width:0px;"/><path d="m945.68,42.63c0,.37,0,.86-.49.86-.37,0-.86,0-.86-.49.12-.37.37-.62.74-.86.37-.12.49.25.62.49h0Z" style="fill:#fff; stroke-width:0px;"/><path d="m944.69,36.35c.25-1.97,0-4.19.12-6.16,0-.62,0-1.23-.37-1.72-1.48-.62-3.33-.25-5.05-.37-.12,0-.25,0-.25.12v11.46l.12.49c1.23.25,2.34.12,3.57.12.62.12,1.23.25,1.85.37,0-1.36.12-2.34,0-3.7v-.62h0Z" style="fill:#fff; stroke-width:0px;"/><path d="m944.2,36.22c-.62-.49-.74-1.23-1.23-1.85.25-.25.49-.37.74-.62.37-.37.74-.99.62-1.48,0-.49-.25-.99-.74-1.23-.99-.37-2.34-.25-3.45-.12-.25.12-.25.25-.12.49.37,0,.62.25.62.62,0,1.36,0,2.71-.25,4.07l-.49.62c.49.49,1.23.12,2.09.25.25-.37-.37-.62-.49-.99.12-.37,0-.99.25-1.23.74.62.99,1.72,1.85,2.34l1.11.12v-.62c0-.12-.37-.37-.49-.37h0Zm-1.48-2.46c-.37,0-.86.25-.99-.25,0-.62-.25-1.48,0-2.09.49-.37,1.11-.25,1.48.25.25.37.25.74.25,1.23-.25.37-.37.74-.74.86h0Z" style="stroke-width:0px;"/><path d="m975.74,29.57c0-.49,0-.99-.25-1.36h-1.85c-1.23.25-2.71-.25-3.82.49-.49.62-.25,1.23-.37,1.97.12.37.25.86.37,1.23l-.25.49-.62-.25-.25-.49c.12-.25.25-.49.25-.86,0-.86.25-2.09-.86-2.46-1.6-.12-3.08-.25-4.8-.25-.12,0-.25,0-.25.12v10.84c0,.49-.12.99.37,1.23,1.48-.25,2.71,0,4.07,0,.49,0,.86.49,1.48.37.12-1.48.12-3.33.12-5.05,0-.12,0-.49-.25-.49v-.37l.86.12.12.25-.12.12-.12,5.05c0,.12,0,.49.37.49,1.48-.86,3.45-.25,5.17-.49l.37-.12c.25-.86.12-3.82.12-3.82.12-2.22.12-4.44.12-6.78h0Z" style="fill:#fff; stroke-width:0px;"/><path d="m969.95,35.12c.25.25.37.62.25.99l-.37.49.25.25c.62,0,1.36.12,1.97-.12-.12-.25-.49-.37-.74-.62-.74-1.85-1.23-3.7-1.72-5.67l-.62.37c-.37,1.72-.99,3.2-1.48,4.93-.12.37-.49.37-.74.62-.37.12-.49-.25-.62-.49,0-1.48.12-2.71,0-4.31,0-.25.25-.49.49-.25.37.25.37.74.49.99.25.12.49.12.49-.12l.25-1.48c-.25-.49-.62,0-.99,0-.74,0-1.72.12-2.46-.25-.62.25-.49.99-.49,1.6v.25c.49-.37.74-1.11,1.36-.99v4.68c-.25.25-.74.37-.62.74.86.25,1.85,0,2.71.12.49,0,.99.12,1.48,0,.12-.12,0-.25,0-.37-.25-.12-.62-.37-.49-.74.12-.25.25-.74.62-.62q.12,0,.25.12l.74.12h0c-.12-.12-.12-.25,0-.25h0Zm-1.11-.62l-.25-.12c.12-.49,0-1.23.49-1.6.49.25.37.99.62,1.48-.12.25-.62.25-.86.25h0Z" style="stroke-width:0px;"/><path d="m974.51,31.05c0,.37.25.99,0,1.23-.37-.25-.37-.62-.99-.74-.25,0-.62,0-.62.37-.12,1.11.99,1.11,1.6,1.72s.86,1.48.62,2.22c-.25.62-.49.86-1.11.86-.49.12-.86-.25-1.23,0-.12,0-.25.12-.37,0v-1.97c0-.12.12-.12.25-.12.25.62.12,1.36.99,1.48.25,0,.49-.12.62-.49.12-1.72-2.22-1.36-2.22-3.2,0-.37.12-.74.25-1.11.37-.62,1.36-.25,1.97-.62.12-.12.12.25.25.37h0Z" style="stroke-width:0px;"/><path d="m949.62,30.93c-.49.25-.99.62-.86,1.36-.12,1.23-.12,2.46,0,3.7l.74.74v.12c-.86,0-1.6.12-2.46,0-.37-.37.49-.62.62-.86.12-1.36.25-2.83.12-4.31-.25-.49-.99-.37-.86-.86.74-.12,1.72-.12,2.46,0l.25.12h0Z" style="stroke-width:0px;"/><path d="m925.47,31.91c-.49.62-.62-.49-1.11-.62-.25,0-.74-.12-.99.12-.12.62-.25,1.23,0,1.85.25.12.62.12.86.12.25-.25.49-.74.86-.74.25.25-.12.62,0,.86-.12.37.25.86-.25.99-.25-.12-.49-.74-.86-.74h-.74c-.25.86-.12,1.72,0,2.59.37.37.86,0,1.36,0,.62-.12.49-.99.99-.99.12.37.25.86.12,1.23l-.25.25h-3.57c-.12,0-.49,0-.37-.25,1.11-.74.49-2.09.62-3.08-.12-.74.49-1.97-.62-2.46,0-.25.25-.25.37-.25.86,0,2.09.37,2.83-.37.74.25.74.99.74,1.48h0Z" style="stroke-width:0px;"/><path d="m920.05,31.17c-.99.74-.99,2.22-1.48,3.33-.37.62-.25,1.6-.86,2.09-.25.12-.49-.12-.49-.37-.37-1.48-.74-3.08-1.36-4.56,0-.37-1.11-.49-.49-.86.74-.12,1.23.12,1.97,0,.12.49-.49.74-.37,1.23.49.62.25,1.6.86,2.34l.25-.25c0-1.11,1.36-2.22.25-3.2.25-.49.99-.12,1.48-.25.12.12.49.25.25.49h0Z" style="stroke-width:0px;"/><path d="m914.02,28.83c.25,4.07,0,7.88,0,11.7,0,.25-.25.49-.49.49-.25-1.23-.25-2.46-.12-3.7-.12-2.59,0-5.3,0-7.88,0-.37.37-.62.62-.62h0Z" style="fill:#fff; stroke-width:0px;"/><path d="m17.97,31.37h18.52c10.21,0,15.58,5.8,15.58,13.85,0,6.68-3.71,11.03-8.09,12.32,3.78,1.13,9.98,5.07,9.98,13.93,0,11.19-7.86,16.26-17.16,16.26h-18.83V31.37Zm17.16,24.23c9.07,0,12.48-3.62,12.48-10.06,0-5.56-3.55-9.98-10.89-9.98h-14.59v20.05h13Zm-13,28.02h14.74c6.96,0,12.7-3.7,12.7-11.91,0-7.17-4.23-12-14.82-12h-12.63v23.91Z" style="fill:#fff; stroke-width:0px;"/><path d="m95.47,67.51c0,11.19-5.82,21.17-17.09,21.17-10.28,0-16.63-8.94-16.63-21.09s5.97-21.09,17.01-21.09c10.06,0,16.71,8.37,16.71,21.01Zm-29.56.08c0,9.5,4.76,17.23,12.78,17.23s12.63-7.16,12.63-17.23c0-9.5-4.46-17.23-12.78-17.23s-12.63,7.57-12.63,17.23Z" style="fill:#fff; stroke-width:0px;"/><path d="m193.84,31.37h18.52c10.21,0,15.58,5.8,15.58,13.85,0,6.68-3.71,11.03-8.09,12.32,3.78,1.13,9.98,5.07,9.98,13.93,0,11.19-7.86,16.26-17.16,16.26h-18.83V31.37Zm17.16,24.23c9.07,0,12.48-3.62,12.48-10.06,0-5.56-3.55-9.98-10.89-9.98h-14.59v20.05h13Zm-13,28.02h14.74c6.96,0,12.7-3.7,12.7-11.91,0-7.17-4.23-12-14.82-12h-12.63v23.91Z" style="fill:#fff; stroke-width:0px;"/><path d="m266.49,68.4l-6.65,19.32h-4.31l19.36-56.35h5.07l20.19,56.35h-4.61l-6.8-19.32h-22.23Zm20.87-4.19c-5.9-16.58-8.85-24.63-9.98-28.5h-.08c-1.29,4.35-4.61,14.25-9.38,28.5h19.43Z" style="fill:#fff; stroke-width:0px;"/><path d="m348.67,72.59c-2.5,9.02-8.7,15.78-19.96,15.78-15.2,0-23.21-12.88-23.21-28.74s7.86-29.06,23.29-29.06c11.49,0,18.22,6.84,19.96,16.26h-4.23c-2.42-7.25-6.8-12.08-15.95-12.08-13.08,0-18.52,12.72-18.52,24.8s5.37,24.71,18.83,24.71c8.62,0,12.93-4.83,15.58-11.67h4.23Z" style="fill:#fff; stroke-width:0px;"/><path d="m18.23,94.7h4.65c2.57,0,3.91,1.37,3.91,3.27,0,1.58-.93,2.6-2.03,2.91.95.27,2.51,1.2,2.51,3.29,0,2.64-1.98,3.84-4.31,3.84h-4.73v-13.3Zm4.31,5.72c2.28,0,3.13-.85,3.13-2.37,0-1.31-.89-2.36-2.74-2.36h-3.67v4.73h3.27Zm-3.27,6.61h3.71c1.75,0,3.19-.87,3.19-2.81,0-1.69-1.06-2.83-3.72-2.83h-3.17v5.64Z" style="fill:#fff; stroke-width:0px;"/><path d="m37.86,103.23c0,2.64-1.46,5-4.29,5-2.58,0-4.18-2.11-4.18-4.98s1.5-4.98,4.27-4.98c2.53,0,4.2,1.98,4.2,4.96Zm-7.43.02c0,2.24,1.2,4.07,3.21,4.07s3.17-1.69,3.17-4.07c0-2.24-1.12-4.07-3.21-4.07s-3.17,1.79-3.17,4.07Z" style="fill:#fff; stroke-width:0px;"/><path d="m40.59,105.38c.32,1.22,1.2,1.96,2.68,1.96,1.67,0,2.36-.78,2.36-1.82s-.46-1.6-2.56-2.11c-2.47-.59-3.08-1.35-3.08-2.6s.99-2.53,3.15-2.53,3.19,1.31,3.34,2.66h-.99c-.17-.8-.8-1.77-2.39-1.77s-2.11.8-2.11,1.56c0,.85.46,1.29,2.32,1.75,2.7.65,3.36,1.54,3.36,2.96,0,1.71-1.41,2.79-3.42,2.79-2.19,0-3.4-1.14-3.67-2.85h1.01Z" style="fill:#fff; stroke-width:0px;"/><path d="m47.7,98.5h1.77v-2.96h.99v2.96h2.26v.91h-2.26v6.14c0,1.06.23,1.67,1.14,1.67.29,0,.68-.02.97-.11v.85c-.32.13-.78.17-1.18.17-1.23,0-1.92-.63-1.92-2.15v-6.57h-1.77v-.91Z" style="fill:#fff; stroke-width:0px;"/><path d="m62.4,103.23c0,2.64-1.46,5-4.29,5-2.58,0-4.18-2.11-4.18-4.98s1.5-4.98,4.27-4.98c2.53,0,4.2,1.98,4.2,4.96Zm-7.43.02c0,2.24,1.2,4.07,3.21,4.07s3.17-1.69,3.17-4.07c0-2.24-1.12-4.07-3.21-4.07s-3.17,1.79-3.17,4.07Z" style="fill:#fff; stroke-width:0px;"/><path d="m64.91,100.9c0-.84,0-1.63-.02-2.39h.97c.04.3.06,1.52.04,1.79.42-.97,1.2-2.01,3.13-2.01,1.71,0,3.19.95,3.19,3.57v6.16h-.99v-6c0-1.67-.68-2.77-2.34-2.77-2.22,0-3,1.86-3,3.91v4.86h-.99v-7.1Z" style="fill:#fff; stroke-width:0px;"/><path d="m80.89,94.7h4.65c2.57,0,3.91,1.37,3.91,3.27,0,1.58-.93,2.6-2.03,2.91.95.27,2.51,1.2,2.51,3.29,0,2.64-1.98,3.84-4.31,3.84h-4.73v-13.3Zm4.31,5.72c2.28,0,3.13-.85,3.13-2.37,0-1.31-.89-2.36-2.74-2.36h-3.67v4.73h3.27Zm-3.27,6.61h3.71c1.75,0,3.19-.87,3.19-2.81,0-1.69-1.06-2.83-3.72-2.83h-3.17v5.64Z" style="fill:#fff; stroke-width:0px;"/><path d="m105.48,103.23c0,2.64-1.46,5-4.29,5-2.58,0-4.18-2.11-4.18-4.98s1.5-4.98,4.27-4.98c2.53,0,4.2,1.98,4.2,4.96Zm-7.43.02c0,2.24,1.2,4.07,3.21,4.07s3.17-1.69,3.17-4.07c0-2.24-1.12-4.07-3.21-4.07s-3.17,1.79-3.17,4.07Z" style="fill:#fff; stroke-width:0px;"/><path d="m113.08,100.95c0-.82,0-1.71-.02-2.45h.97c.02.3.06,1.12.04,1.67.4-.95,1.27-1.9,2.85-1.9,1.33,0,2.36.67,2.74,1.86.47-.99,1.42-1.86,3.1-1.86,1.48,0,2.98.84,2.98,3.48v6.25h-.99v-6.14c0-1.27-.46-2.64-2.2-2.64s-2.64,1.46-2.64,3.31v5.47h-.99v-6.12c0-1.37-.4-2.66-2.15-2.66s-2.7,1.61-2.7,3.55v5.22h-.99v-7.05Z" style="fill:#fff; stroke-width:0px;"/><path d="m135.44,106.18c0,.84.08,1.52.13,1.82h-.95c-.08-.23-.13-.65-.17-1.44-.32.68-1.16,1.67-3.12,1.67-2.2,0-3.15-1.42-3.15-2.85,0-2.09,1.62-3.06,4.46-3.06h1.8v-.95c0-.95-.29-2.2-2.43-2.2-1.9,0-2.18.99-2.39,1.77h-.99c.11-1.06.76-2.66,3.4-2.66,2.17,0,3.4.91,3.4,3v4.9Zm-.97-3.02h-1.86c-2.09,0-3.38.55-3.38,2.18,0,1.18.84,1.99,2.17,1.99,2.7,0,3.08-1.8,3.08-3.84v-.34Z" style="fill:#fff; stroke-width:0px;"/><path d="m146,107.34c0,3.04-1.35,4.65-4.12,4.65-2.51,0-3.51-1.41-3.74-2.83h1.01c.34,1.29,1.41,1.92,2.77,1.92,2.45,0,3.13-1.6,3.13-3.99v-.99c-.51,1.23-1.44,1.9-3.17,1.9-2.22,0-3.93-1.82-3.93-4.75,0-3.19,1.82-4.98,4.07-4.98,1.94,0,2.77.89,3.04,1.65.02-.55.04-1.2.06-1.42h.93c0,.34-.04,1.84-.04,2.75v6.08Zm-4.01-.27c2.36,0,3.08-1.56,3.08-4.01s-.76-3.88-3.02-3.88-3.06,1.86-3.06,4.03,1.2,3.86,3,3.86Z" style="fill:#fff; stroke-width:0px;"/><path d="m149.5,103.37c.02,2.43,1.23,3.95,3.06,3.95s2.37-1.01,2.7-1.79h1.03c-.4,1.25-1.42,2.7-3.76,2.7-2.91,0-4.03-2.49-4.03-4.9,0-2.74,1.35-5.05,4.14-5.05s3.86,2.51,3.86,4.31c0,.27,0,.53-.02.78h-6.97Zm5.96-.85c-.02-1.86-1.03-3.32-2.87-3.32-1.96,0-2.83,1.35-3.04,3.32h5.91Z" style="fill:#fff; stroke-width:0px;"/><path d="m165.74,103.44l-1.67,4.56h-1.08l4.86-13.3h1.27l5.07,13.3h-1.16l-1.71-4.56h-5.59Zm5.24-.99c-1.48-3.91-2.22-5.81-2.51-6.72h-.02c-.32,1.03-1.16,3.36-2.36,6.72h4.88Z" style="fill:#fff; stroke-width:0px;"/><path d="m176.4,100.9c0-.84,0-1.63-.02-2.39h.97c.04.3.06,1.52.04,1.79.42-.97,1.2-2.01,3.13-2.01,1.71,0,3.19.95,3.19,3.57v6.16h-.99v-6c0-1.67-.68-2.77-2.34-2.77-2.22,0-3,1.86-3,3.91v4.86h-.99v-7.1Z" style="fill:#fff; stroke-width:0px;"/><path d="m193.43,106.18c0,.84.08,1.52.13,1.82h-.95c-.08-.23-.13-.65-.17-1.44-.32.68-1.16,1.67-3.12,1.67-2.2,0-3.15-1.42-3.15-2.85,0-2.09,1.62-3.06,4.46-3.06h1.8v-.95c0-.95-.29-2.2-2.43-2.2-1.9,0-2.18.99-2.39,1.77h-.99c.11-1.06.76-2.66,3.4-2.66,2.17,0,3.4.91,3.4,3v4.9Zm-.97-3.02h-1.86c-2.09,0-3.38.55-3.38,2.18,0,1.18.84,1.99,2.17,1.99,2.7,0,3.08-1.8,3.08-3.84v-.34Z" style="fill:#fff; stroke-width:0px;"/><path d="m196.7,108v-14h.99v14h-.99Z" style="fill:#fff; stroke-width:0px;"/><path d="m200.91,98.5c1.9,5.38,2.74,7.64,3.06,8.66h.02c.38-1.16,1.12-3.36,2.96-8.66h1.03l-3.57,10.05c-1.01,2.81-1.69,3.44-3.42,3.44-.34,0-.57-.02-.87-.06v-.99c.29.04.55.06.86.06,1.35,0,1.79-.65,2.49-2.58l-3.63-9.92h1.08Z" style="fill:#fff; stroke-width:0px;"/><path d="m210.24,105.38c.32,1.22,1.2,1.96,2.68,1.96,1.67,0,2.36-.78,2.36-1.82s-.46-1.6-2.56-2.11c-2.47-.59-3.08-1.35-3.08-2.6s.99-2.53,3.15-2.53,3.19,1.31,3.34,2.66h-.99c-.17-.8-.8-1.77-2.39-1.77s-2.11.8-2.11,1.56c0,.85.46,1.29,2.32,1.75,2.7.65,3.36,1.54,3.36,2.96,0,1.71-1.41,2.79-3.42,2.79-2.19,0-3.4-1.14-3.67-2.85h1.01Z" style="fill:#fff; stroke-width:0px;"/><path d="m223.96,105.38c.32,1.22,1.2,1.96,2.68,1.96,1.67,0,2.36-.78,2.36-1.82s-.46-1.6-2.56-2.11c-2.47-.59-3.08-1.35-3.08-2.6s.99-2.53,3.15-2.53,3.19,1.31,3.34,2.66h-.99c-.17-.8-.8-1.77-2.39-1.77s-2.11.8-2.11,1.56c0,.85.46,1.29,2.32,1.75,2.7.65,3.36,1.54,3.36,2.96,0,1.71-1.41,2.79-3.42,2.79-2.18,0-3.4-1.14-3.67-2.85h1.01Z" style="fill:#fff; stroke-width:0px;"/><path d="m247.99,104.43c-.63,2.13-2.18,3.72-5.02,3.72-3.82,0-5.83-3.04-5.83-6.78s1.98-6.86,5.85-6.86c2.89,0,4.58,1.61,5.02,3.84h-1.06c-.61-1.71-1.71-2.85-4.01-2.85-3.29,0-4.65,3-4.65,5.85s1.35,5.83,4.73,5.83c2.17,0,3.25-1.14,3.91-2.75h1.06Z" style="fill:#fff; stroke-width:0px;"/><path d="m258.37,103.23c0,2.64-1.46,5-4.29,5-2.58,0-4.18-2.11-4.18-4.98s1.5-4.98,4.27-4.98c2.53,0,4.2,1.98,4.2,4.96Zm-7.43.02c0,2.24,1.2,4.07,3.21,4.07s3.17-1.69,3.17-4.07c0-2.24-1.12-4.07-3.21-4.07s-3.17,1.79-3.17,4.07Z" style="fill:#fff; stroke-width:0px;"/><path d="m268,105.23c0,.93.02,2.39.02,2.77h-.95c-.04-.25-.06-.87-.06-1.63-.4,1.1-1.37,1.86-3.04,1.86-1.39,0-3.12-.55-3.12-3.44v-6.29h.97v6.04c0,1.39.44,2.72,2.3,2.72,2.11,0,2.89-1.18,2.89-3.88v-4.88h.99v6.73Z" style="fill:#fff; stroke-width:0px;"/><path d="m271.27,101.09c0-1.6-.02-2.28-.02-2.58h.97c.02.28.04.91.04,2.11.55-1.42,1.75-2.26,3.31-2.34v1.04c-1.98.13-3.31,1.48-3.31,3.76v4.92h-.99v-6.92Z" style="fill:#fff; stroke-width:0px;"/><path d="m277.73,105.38c.32,1.22,1.2,1.96,2.68,1.96,1.67,0,2.36-.78,2.36-1.82s-.46-1.6-2.56-2.11c-2.47-.59-3.08-1.35-3.08-2.6s.99-2.53,3.15-2.53,3.19,1.31,3.34,2.66h-.99c-.17-.8-.8-1.77-2.39-1.77s-2.11.8-2.11,1.56c0,.85.46,1.29,2.32,1.75,2.7.65,3.36,1.54,3.36,2.96,0,1.71-1.41,2.79-3.42,2.79-2.18,0-3.4-1.14-3.67-2.85h1.01Z" style="fill:#fff; stroke-width:0px;"/><path d="m286.56,103.37c.02,2.43,1.23,3.95,3.06,3.95s2.38-1.01,2.7-1.79h1.03c-.4,1.25-1.42,2.7-3.76,2.7-2.91,0-4.03-2.49-4.03-4.9,0-2.74,1.35-5.05,4.14-5.05s3.86,2.51,3.86,4.31c0,.27,0,.53-.02.78h-6.97Zm5.96-.85c-.02-1.86-1.03-3.32-2.87-3.32-1.96,0-2.83,1.35-3.04,3.32h5.91Z" style="fill:#fff; stroke-width:0px;"/><path d="m302.56,93.16v19.81h-.97v-19.81h.97Z" style="fill:#fff; stroke-width:0px;"/><path d="m310.73,108v-.06c0-1.58,1.31-3.51,3.82-5.45,2.15-1.67,2.7-2.18,2.7-3.76,0-1.35-.74-2.53-2.55-2.53-1.69,0-2.56.82-2.89,2.62h-1.01c.25-2.09,1.56-3.55,3.89-3.55,2.55,0,3.63,1.73,3.63,3.4,0,1.94-.82,2.6-3.13,4.48-1.82,1.5-2.94,2.68-3.33,3.88h6.97l-.17.97h-7.94Z" style="fill:#fff; stroke-width:0px;"/><path d="m328.95,101.66c0,2.89-.74,6.57-4.08,6.57s-4.08-3.4-4.08-6.48.87-6.48,4.14-6.48,4.03,3.4,4.03,6.38Zm-7.07.11c0,2.43.51,5.51,2.98,5.51s3-2.94,3-5.62c0-2.39-.47-5.45-2.92-5.45s-3.06,2.79-3.06,5.57Z" style="fill:#fff; stroke-width:0px;"/><path d="m331.04,108v-.06c0-1.58,1.31-3.51,3.82-5.45,2.15-1.67,2.7-2.18,2.7-3.76,0-1.35-.74-2.53-2.55-2.53-1.69,0-2.56.82-2.89,2.62h-1.01c.25-2.09,1.56-3.55,3.89-3.55,2.55,0,3.63,1.73,3.63,3.4,0,1.94-.82,2.6-3.13,4.48-1.82,1.5-2.94,2.68-3.33,3.88h6.97l-.17.97h-7.94Z" style="fill:#fff; stroke-width:0px;"/><path d="m348.37,96.47h-5.38c-.13,1.22-.49,3.53-.65,4.31.57-.7,1.44-1.22,2.85-1.22,2.17,0,3.7,1.46,3.7,4.14,0,2.45-1.25,4.52-4.07,4.52-2.07,0-3.55-1.22-3.91-3.27h1.04c.32,1.31,1.27,2.34,2.92,2.34,1.98,0,2.95-1.39,2.95-3.53,0-1.8-.78-3.25-2.72-3.25-1.73,0-2.45.72-3,1.9l-.97-.29c.4-1.65.84-5.15,1.01-6.63h6.35l-.13.97Z" style="fill:#fff; stroke-width:0px;"/><path d="m241.56,31.33v7.89h3.93v-7.89h-3.93Z" style="fill:#fff; stroke-width:0px;"/><polygon points="245.49 47.41 245.49 87.66 241.56 87.66 241.56 51.34 237.61 51.34 237.61 47.41 245.49 47.41" style="fill:#fff; stroke-width:0px;"/><rect x="245.49" y="47.41" width=".01" height="3.93" style="fill:#fff; stroke-width:0px;"/><path d="m174.09,29.41v34.84c0,1.02-.32,1.2-1.28,1.2h-62.53c-.98,0-1.27-.2-1.27-1.21V29.4c0-.98.32-1.14,1.23-1.14h62.64c.91,0,1.22.19,1.22,1.14Z" style="fill:#231f20; stroke-width:0px;"/><path d="m186.01,86.9l-7.62-15.27c-.34-.7-.75-.94-1.53-.94h-70.95c-.79,0-1.18.27-1.52.96l-7.52,15.05c-1.15,2.3-.32,3.66,2.22,3.66h84.74c2.33,0,3.21-1.38,2.18-3.46Zm-35.85.98h-18.18c-.38,0-.67-.35-.61-.72l.45-2.77c.05-.3.31-.52.61-.52h17.44c.32,0,.58.24.62.56l.29,2.76c.03.37-.25.69-.62.69Zm28.97-6.28h-75.4c-1.44,0-1.48-.06-.85-1.33,1.14-2.29,2.32-4.55,3.4-6.85.36-.78.82-.97,1.62-.97,22.31.02,44.61.02,66.92-.01.94,0,1.38.31,1.76,1.13,1.07,2.27,2.23,4.5,3.35,6.74.61,1.21.56,1.29-.8,1.29Z" style="fill:#fff; stroke-width:0px;"/><path d="m177.91,27.79c0-2.34-1.03-3.39-3.35-3.39h-66.33c-2.31,0-3.36,1.05-3.36,3.39,0,13.42-.02,40.26-.02,40.26,0,1.06.28,1.3,1.31,1.3,11.7-.04,70.46,0,70.46,0,1.01,0,1.32-.22,1.32-1.29l-.03-40.27Zm-2.79,37.47c0,1.08-.34,1.27-1.33,1.27h-64.8c-1.02,0-1.33-.22-1.32-1.28V28.4c0-1.03.34-1.21,1.27-1.2h64.92c.95-.01,1.26.19,1.26,1.21v36.85Z" style="fill:#fff; stroke-width:0px;"/><path d="m175.05,79.8l-67.81.21c-.79,0-1.3-.83-.94-1.53l1.98-3.89c.18-.35.54-.57.94-.57h64.38c.43,0,.82.26.98.66l1.46,3.68c.27.69-.23,1.44-.97,1.44Z" style="fill:#fff; stroke-width:0px;"/><text transform="translate(110.68 32.03)" style="font-family:CourierNewPSMT, &apos;Courier New&apos;; font-size:2.44px;"><tspan x="0" y="0" style="fill:#5bb95e;">In [1]: from</tspan><tspan x="17.55" y="0" style="fill:#99ce89;"> </tspan><tspan x="19.02" y="0" style="fill:#9e74b1;">microscopy</tspan><tspan x="33.65" y="0" style="fill:#99ce89;"> </tspan><tspan x="35.11" y="0" style="fill:#5bb95e;">import</tspan><tspan x="43.89" y="0" style="fill:#99ce89;"> </tspan><tspan x="45.35" y="0" style="fill:#fff;">analysis</tspan></text><text transform="translate(110.68 36.69)" style="font-family:CourierNewPSMT, &apos;Courier New&apos;; font-size:2.44px;"><tspan x="0" y="0" style="fill:#5bb95e;">In [2]:</tspan><tspan x="10.24" y="0" style="fill:#99ce89;"> </tspan><tspan x="11.7" y="0" style="fill:#fff;">img =</tspan><tspan x="19.02" y="0" style="fill:#99ce89;"> </tspan><tspan x="20.48" y="0" style="fill:#fff;">analysis.</tspan><tspan x="33.65" y="0" style="fill:#61bbc5;">imread</tspan><tspan x="42.42" y="0" style="fill:#fff;">(</tspan><tspan x="43.89" y="0" style="fill:#fcb216;">bobiac.tif</tspan><tspan x="61.44" y="0" style="fill:#fff;">)</tspan></text><rect x="122.56" y="59.8" width="1.18" height="2.44" style="fill:#424142; stroke-width:0px;"/><text transform="translate(110.68 61.64)" style="fill:#5bb95e; font-family:CourierNewPSMT, &apos;Courier New&apos;; font-size:2.44px;"><tspan x="0" y="0">In [4]:</tspan></text><text transform="translate(110.68 41.34)" style="font-family:CourierNewPSMT, &apos;Courier New&apos;; font-size:2.44px;"><tspan x="0" y="0" style="fill:#5bb95e;">In [3]:</tspan><tspan x="10.24" y="0" style="fill:#99ce89;"> </tspan><tspan x="11.7" y="0" style="fill:#fff;">analysis.</tspan><tspan x="24.87" y="0" style="fill:#61bbc5;">imshow</tspan><tspan x="33.65" y="0" style="fill:#fff;">(img)</tspan></text><polygon points="141.67 57.11 141.67 57.12 141.51 57.12 140.83 57.11 140.83 57.1 141.51 57.11 141.67 57.11" style="fill:#5bb95e; stroke:#fff; stroke-miterlimit:10; stroke-width:.1px;"/><polygon points="141.61 46.8 141.61 50.87 141.57 50.87 141.57 46.81 141.61 46.8" style="fill:#5bb95e; stroke:#fff; stroke-miterlimit:10; stroke-width:.1px;"/><rect x="141.57" y="46.79" width=".05" height="4.08" style="fill:#5bb95e; stroke:#fff; stroke-miterlimit:10; stroke-width:.1px;"/><rect x="141.51" y="57.11" width=".16" height=".01" style="fill:#5bb95e; stroke:#fff; stroke-miterlimit:10; stroke-width:.1px;"/><path d="m164.66,56.91c0,.16,0,.32,0,.48l-23-.27h0s-.16-.01-.16-.01h-.68s-22.7-.09-22.7-.09c0-.18,0-1.32,0-1.5,0-.08.01-.13.1-.15.09-.03.18-.08.27-.11.1-.03.14-.08.13-.18,0-.29,0-.57,0-.86,0-.09.03-.12.12-.12h.66c.08,0,.11.03.11.11,0,.08,0,.15,0,.23,0,.09.03.12.12.12.17,0,.34,0,.5,0,.12,0,.14.02.14.14v.33c0,.08-.02.17.03.25.04,0,.08,0,.12,0h.78c.13,0,.14.01.14.14v1.5c0,.07.03.1.1.1.08,0,.16.01.24-.01.05-.12.03-.25.04-.37.02-.45.06-.89.09-1.34.02-.33.02-.66.05-.99,0-.14,0-.27.02-.41.01-.32.05-.64.06-.96.02-.33.03-.65.05-.98.03-.38.06-.75.06-1.12,0-.28.13-.48.33-.65,0,0,.19.18.25.3.09.11.07.25.07.37.03.5.06,1.01.09,1.51.01.17.02.34.03.5.02.35.03.7.06,1.05,0,.14,0,.28.02.42.02.32.03.64.05.96.02.32.06.64.06.96,0,.18.03.37.02.55,0,.07,0,.13.04.2.02,0,.04.01.06.01.12,0,.17.01.16-.15,0-.12,0-.24,0-.36,0-.08.02-.13.1-.14.11-.01.14-.08.13-.18,0-.14.01-1.5.01-1.79,0-.05-.03-.12,0-.15.04-.05.11-.07.18-.09.47-.18.94-.36,1.42-.54.08-.03.1-.07.1-.14-.01-.12.01-.25-.03-.37,0-.01-.01-.02-.01-.03.08-.21.04-.43.04-.64,0-.17.26-.44.39-.52,0,0,.2.11.27.2.04.05.07.08.09.13.03.07.05.12.04.2-.02.18-.01.37,0,.56,0,.03.02.06.04.09l-.02.1c0,.11,0,.22,0,.32,0,.07.02.1.09.12.26.1.52.19.77.29.26.1.51.2.76.29.08.03.1.08.1.15s-.04.14-.05.21c0,.29,0,.57,0,.86,0,.07.06.12.04.19-.04.16-.02.32-.02.48,0,.24,0,.21.23.22.09,0,.12-.04.12-.12,0-.18,0-.36,0-.54,0-.09.04-.13.12-.12.18.01.16-.05.16-.17v-6.26c0-.12.07-.19.17-.23.04-.01.07-.01.1-.02.05-.02.11-.04.09-.11-.02-.1,0-.2-.04-.3-.06-.16,0-.24.17-.28.12-.03.22-.08.32-.15.16-.12.32-.22.48-.33.06-.05.12-.06.19,0,.11.09.24.16.35.24.15.1.29.21.47.25.06.01.15,0,.16.1,0,.06.01.13-.01.19-.1.23-.04.34.18.41.02,0,.03.01.04.01.06,0,.08.05.08.1.01.46-.04.92.04,1.37v5.18h.51c0-1.86.01-3.87.01-5.73v-.06c0-.07.03-.1.1-.1h.37c.07,0,.1.03.1.1v.09c0,.16.02.17.17.17h1.73c.05,0,.1,0,.15-.02.02-.08.01-.15.01-.23,0-.08.03-.11.11-.11.11,0,.22,0,.33,0,.13,0,.15.01.15.15,0,.83,0,1.66,0,2.49v2.13c0,.14,0,.28,0,.42v.31c.14.05.24.12.24.25v.25c0,.19.04.23.22.25.03,0,.06,0,.1,0,.03-.05.03-.11.03-.16,0-.1,0-.2,0-.3,0-.07.03-.12.09-.13.21,0,.27-.12.24-.3,0-.05.02-.1.07-.1.14.01.13-.08.13-.18v-7.49c0-.23-.04-.25.23-.24.06,0,.1-.03.12-.09.02-.06.01-.09.01-.14h0s-.05-.03-.08-.03c-.12,0-.13-.03-.13-.14,0-.11,0-.22-.02-.33.08-.04.87-.03,1.03-.03.16,0,.33.05.47-.09.07.02.12-.03.17-.07v-2.47h.1v2.49s.1.07.17.05c.02,0,.05,0,.06.01.04.1.14.08.22.08.35,0,.71,0,1.06-.01.02,0,.06,0,.09,0,.06.01.11.03.09.12-.02.09-.01.18,0,.27,0,.08-.03.11-.11.12-.04,0-.07.02-.11.03v.08c.01.11.05.15.16.15.22,0,.21,0,.21.2v6.83c0,.15.01.17.16.17h1.04s.09-7.19.09-7.19c.01-.03.04-.04.12-.06l.56-.15.06-.02-.08,9.1h.05l.08-9.11h.04s.02-.01.02-.01l3.22.2c.16,0,.18.03.18.19v8.59c0,.05,0,.11.02.15.06.02.13.01.19.01.06,0,.1-.04.1-.1v-.19c0-.08.07-.14.14-.14h1.73c.08,0,.14.06.14.14v.46c.08.04.14.04.21,0,0-.02.01-.04.01-.06v-.85c0-.06-.01-.11,0-.16.03-.16.02-.31,0-.46,0-.04-.01-.06,0-.1.05-.12-.01-.26.09-.37.01-.01,0-.04,0-.06,0-.08,0-.16,0-.24,0-.1.02-.19-.01-.28-.04-.1-.02-.17.06-.21,0-.06-.01-.1.01-.14.08-.15.09-.32.14-.48.01-.04.04-.09.05-.13.02-.07.11-.08.14-.01.04.07.05.16.06.2.04.14.05.28.12.41.03.05.01.1.02.15,0,0,.12.06.06.2-.02.03-.02.06-.02.09v.42s0,.1.03.13c.06.08.05.16.06.25.02.1,0,.19,0,.29-.02.18.02.36,0,.54-.02.49,0,.97,0,1.46,0,.1.04.13.15.12.13-.02.26-.02.39,0,.11.02.16-.02.15-.12,0-.48,0-.96,0-1.45-.02-.73-.01-1.46-.02-2.19,0-.04,0-.08.04-.1.1-.04.08-.12.09-.2,0-.05-.02-.11.03-.14.08-.04.08-.09.08-.16,0-.06-.01-.12.01-.15.04-.04.07-.03.1-.03q.14,0,.18-.14c.03-.14.09-.26.19-.37.13-.15.34-.19.46-.33,0,0,.06.12.19.16.27.1.4.3.45.56.02.1.06.12.15.12.13,0,.14.01.14.13,0,.07.04.16.08.21.04.06.03.13.03.19,0,.06,0,.12.07.14.05.02.05.06.05.1,0,.54,0,1.08,0,1.62-.02.73,0,1.45-.02,2.17,0,.09.04.12.12.12.16,0,.32,0,.47,0,.08,0,.14-.07.14-.14v-1.31c0-.06.01-.11.05-.15.1-.11.19-.23.28-.33.11-.12.2-.26.33-.37.19.18.38.35.57.52.04.03.02.06.02.1v.6c.09.04.17.04.26,0,0-.16,0-.31,0-.47,0-.1.04-.13.13-.12.21,0,.41,0,.62,0,.07,0,.14,0,.21.04.01.12.04.25.03.37-.02.31.08.59.16.88.02.09.07.11.15.11h.69c.1,0,.17-.08.17-.17v-2.39c0-.14.02-.17.15-.2.04,0,.08-.01.11-.01.23.02.41-.11.61-.19.05-.02.07-.06.05-.1-.08-.15.05-.23.12-.31.08-.06.14-.07.21-.04.05.02.1.06.12.11.04.07.08.17.06.21-.03.07,0,.11.06.13.14.06.27.12.41.17.05.03.12,0,.17,0,.03,0,.07,0,.1,0,.17.03.19.05.19.22,0,.7,0,1.39,0,2.09,0,.09.01.17.08.24.02.02.04.04.05.06.06.22.23.19.39.19.05,0,.07-.03.09-.06.04-.08.1-.15.16-.22.04-.06.06-.12.05-.19-.01-.18.02-.35-.04-.53-.03-.08.05-.15.16-.15.3,0,.59,0,.88,0,.17,0,.23-.03.26-.22.04-.02.09-.03.13-.02.14,0,.28,0,.42,0,.1,0,.19-.08.17-.17-.03-.2.06-.3.23-.36.07-.03.1-.08.13-.14.06-.16.14-.32.31-.41.1-.06.18-.16.13-.3-.02-.05.07-.14.13-.14.06,0,.13.08.11.14-.04.14.02.22.12.28.18.1.28.26.33.44.03.09.1.13.17.16.14.06.19.14.18.29-.02.17.04.22.22.23.16,0,.32-.03.48.02,0,0,.08.22.28.22.28,0,.55,0,.82,0,.11,0,.19.01.22.12-.02.09-.05.18-.04.28,0,.21.02.43,0,.64,0,.05,0,.1.04.14.05.05.06.11.06.17Z" style="fill:#5bb95e; stroke:#fff; stroke-miterlimit:10; stroke-width:.1px;"/><path d="m219.64,94v1.86h.99v-1.86h-.99Z" style="fill:#fff; stroke-width:0px;"/><polygon points="220.63 98.5 220.63 108 219.64 108 219.64 99.49 218.76 99.49 218.76 98.5 220.63 98.5" style="fill:#fff; stroke-width:0px;"/><path d="m108.49,94v1.86h.99v-1.86h-.99Z" style="fill:#fff; stroke-width:0px;"/><polygon points="109.48 98.5 109.48 108 108.49 108 108.49 99.49 107.61 99.49 107.61 98.5 109.48 98.5" style="fill:#fff; stroke-width:0px;"/><path d="m93.06,94v1.86h.99v-1.86h-.99Z" style="fill:#fff; stroke-width:0px;"/><polygon points="94.05 98.5 94.05 108 93.06 108 93.06 99.49 92.18 99.49 92.18 98.5 94.05 98.5" style="fill:#fff; stroke-width:0px;"/><path d="m421.13,86.61c-.87-.35-1.8-.51-2.62-1.06-1.39-.94-2.06-2.21-2.17-3.84,0-.12,0-.24,0-.36-.02-1.65.25-1.99,1.9-2.21,2.69-.35,5.39-.15,8.09-.19.58,0,.9.41,1.09.76,1.06,1.94.03,4.83-1.89,5.8-1.12.56-2.31.81-3.5,1.1h-.89Z" style="fill:#c32032; stroke:#fff; stroke-miterlimit:10; stroke-width:.09px;"/><path d="m410.59,81.61c-.82-.13-.84-.77-1.09-1.15-1.71-2.55-3.61-4.99-5.08-7.69-.64-1.17-1.12-2.46-1.49-3.75-.64-2.22-1.77-4.13-3.4-5.7-1.08-1.04-2.45-1.74-3.74-2.52-.74-.45-1.62-.81-2.01-1.86.88.3,1.73.27,2.58.45,1.38.29,2.83.31,4.23-.04.32-.08.63-.14.95-.18,1.59-.16,3.06-.75,4.56-1.28,1.77-.62,3.38-1.86,5.42-1.6,1.11.14,2.1.58,3.07,1.06.99.5,1.89,1.17,2.86,1.7.52.29.71.77.69,1.23-.08,1.56-.75,2.93-1.47,4.3-1.46,2.77-3.51,5.17-4.93,7.96-.96,1.9-1.16,3.98-1.16,6.08,0,.97,0,1.95,0,2.98Z" style="fill:#c32032; stroke:#fff; stroke-miterlimit:10; stroke-width:.09px;"/><path d="m433.63,81.47c-.33-.7.21-1.18.27-1.79.15-1.52.28-3.05-.11-4.51-.38-1.44-.98-2.84-1.79-4.11-.93-1.46-1.84-2.95-2.87-4.34-.77-1.05-1.39-2.15-1.9-3.35-.42-.99-.76-2.01-.86-3.06-.08-.89.76-1.25,1.38-1.6,1.03-.58,2.14-1.03,3.2-1.57,1.81-.94,3.53-1,5.43-.04,1.39.7,2.9,1.22,4.44,1.64,2.61.71,5.19.61,7.81.3.71-.08,1.36-.51,2.1-.52.19,0,.44-.14.53.14.07.21-.06.34-.22.51-.66.71-1.5,1.16-2.3,1.64-1.86,1.1-3.69,2.26-5.03,3.96-.74.93-1.33,2.01-1.68,3.19-.66,2.21-1.57,4.32-2.8,6.25-1.27,1.99-2.69,3.86-4.25,5.65-.45.52-1.1.92-1.35,1.64Z" style="fill:#c32032; stroke:#fff; stroke-miterlimit:10; stroke-width:.09px;"/><path d="m412.86,36c-.91-1.57-1.7-3.03-2.57-4.42-1.49-2.37-3.78-3.02-6.43-2.98-2.02.03-3.65.82-4.77,2.44-1,1.45-1.82,3.04-1.62,4.91.1.89.67,1.55,1.47,1.86.61.24,1.25.46,1.96.44,1.69-.06,3.39-.02,5.09,0,.19,0,.44-.11.55.14.1.24-.13.34-.25.5-1.24,1.62-2.76,2.71-4.89,2.69-.57,0-1.13.01-1.7,0-2.19-.08-2.84-.75-3.61-2.65-.56-1.37-.56-2.83-.28-4.16.35-1.65,1.06-3.23,1.9-4.74.61-1.1,1.26-2.18,2.06-3.13,1.1-1.31,2.26-2.37,4.23-2.47,3.06-.15,4.95,1.58,6.85,3.51,1.36,1.39,2.2,3.06,2.65,4.91.12.48.16,1.03-.12,1.55-.23.43-.31.94-.51,1.6Z" style="fill:#c32032; stroke:#fff; stroke-miterlimit:10; stroke-width:.09px;"/><path d="m438.01,38.53c1.03-.22,1.91-.32,2.79-.24,1.72.15,3.29-.53,4.88-.98.62-.17,1.04-.77,1.27-1.6.3-1.14.1-2.14-.1-3.2-.25-1.3-1.11-2.18-2.08-2.98-1.48-1.23-3.23-1.55-5.03-1.27-2.17.33-4.2,1.2-5.69,2.87-.76.85-1.3,1.94-1.17,3.2.04.38.05.78,0,1.16-.04.31.26.9-.19.86-.34-.03-.99-.19-1.07-.84-.21-1.77-.29-3.53.53-5.17.68-1.37,1.49-2.66,2.73-3.61,1.34-1.02,2.63-2.02,4.44-2.25,3-.38,4.23.82,5.75,3.04,1.21,1.76,2.15,3.65,2.91,5.61.47,1.21,1.13,2.4,1.21,3.79.03.58.3,1.15.32,1.78.05,1.47-1.48,2.65-2.69,2.76-1.51.14-3.01.23-4.54.05-1.44-.17-2.45-.97-3.3-2-.26-.31-.52-.6-.97-.95Z" style="fill:#c32032; stroke:#fff; stroke-miterlimit:10; stroke-width:.09px;"/><path d="m452.09,36.04h49.88c6.44,0,11.67,5.22,11.67,11.67v53.6c0,6.44-5.22,11.67-11.67,11.67h-101.15c-6.44,0-11.67-5.22-11.67-11.67v-53.6c0-3.8,1.82-7.17,4.63-9.3" style="fill:none; stroke:#fff; stroke-miterlimit:10; stroke-width:.48px;"/><path d="m462.76,48.39v-1.17h4v1.17l-1.03.2v6.93l1.03.2v1.16h-4v-1.16l1.03-.2v-6.93l-1.03-.2Z" style="fill:#fff; stroke-width:0px;"/><path d="m467.31,50.87v-1.17h2.83l.08.95c.23-.34.52-.61.87-.8.35-.19.75-.28,1.2-.28s.85.1,1.18.31.58.51.74.92c.22-.38.51-.69.86-.9.35-.22.77-.32,1.25-.32.71,0,1.27.24,1.67.73.41.49.61,1.23.61,2.23v2.98l.94.2v1.16h-3.71v-1.16l.83-.2v-2.99c0-.54-.09-.92-.26-1.13-.18-.21-.44-.32-.79-.32-.27,0-.51.06-.71.18s-.36.29-.48.51c0,.08,0,.16,0,.22,0,.06,0,.12,0,.18v3.35l.78.2v1.16h-3.49v-1.16l.78-.2v-2.99c0-.53-.09-.91-.27-1.12s-.44-.33-.79-.33c-.26,0-.49.05-.69.15-.2.1-.36.24-.49.42v3.87l.84.2v1.16h-3.7v-1.16l.93-.2v-4.45l-1.03-.2Z" style="fill:#fff; stroke-width:0px;"/><path d="m484.73,56.88c-.05-.12-.1-.24-.14-.37-.04-.13-.07-.25-.09-.38-.23.27-.51.48-.84.64-.33.16-.71.25-1.13.25-.7,0-1.26-.19-1.67-.57s-.62-.9-.62-1.56.27-1.19.81-1.56c.54-.37,1.33-.55,2.37-.55h.99v-.7c0-.34-.1-.61-.3-.8-.2-.19-.49-.29-.88-.29-.22,0-.42.03-.59.08-.17.05-.31.11-.42.18l-.13.77h-1.46v-1.59c.36-.24.77-.44,1.22-.6.46-.16.96-.25,1.5-.25.89,0,1.61.22,2.16.65.55.44.83,1.06.83,1.86v2.96c0,.11,0,.21,0,.31,0,.1,0,.19.02.28l.59.08v1.16h-2.23Zm-1.68-1.29c.29,0,.56-.06.8-.19s.42-.28.56-.47v-1.09h-.99c-.41,0-.72.1-.93.29-.21.19-.32.42-.32.69,0,.24.08.43.24.57.16.14.37.21.65.21Z" style="fill:#fff; stroke-width:0px;"/><path d="m487.74,53.35c0-1.13.25-2.04.74-2.74.49-.69,1.18-1.04,2.07-1.04.4,0,.76.09,1.06.27.31.18.57.43.78.77l.14-.9h1.68v6.96c0,.95-.3,1.7-.89,2.26s-1.41.85-2.45.85c-.36,0-.75-.05-1.15-.15-.41-.1-.78-.24-1.13-.41l.36-1.36c.31.13.62.24.93.31.31.08.64.12.98.12.47,0,.83-.14,1.06-.43.23-.29.35-.69.35-1.2v-.47c-.21.27-.46.48-.75.62-.29.14-.62.21-.99.21-.88,0-1.57-.32-2.06-.97-.49-.65-.74-1.5-.74-2.56v-.14Zm1.94.14c0,.63.11,1.12.32,1.48.21.36.56.54,1.03.54.3,0,.55-.05.75-.16.21-.11.37-.27.49-.47v-3.12c-.12-.22-.29-.38-.49-.5-.21-.12-.45-.18-.74-.18-.47,0-.82.21-1.04.63s-.33.97-.33,1.64v.14Z" style="fill:#fff; stroke-width:0px;"/><path d="m498.82,57.02c-1.03,0-1.86-.33-2.48-.99-.62-.66-.93-1.5-.93-2.53v-.27c0-1.07.29-1.94.88-2.63.59-.69,1.37-1.03,2.36-1.03.97,0,1.72.29,2.25.88.53.58.8,1.37.8,2.37v1.05h-4.28v.04c.02.47.18.86.46,1.17.28.31.66.46,1.14.46.43,0,.78-.04,1.07-.13.28-.09.59-.22.93-.41l.52,1.19c-.3.23-.68.43-1.15.59s-1,.24-1.57.24Zm-.17-5.95c-.36,0-.64.14-.85.41-.21.27-.34.63-.38,1.08l.02.03h2.37v-.17c0-.41-.1-.74-.29-.98-.19-.25-.48-.37-.87-.37Z" style="fill:#fff; stroke-width:0px;"/><path d="m445.93,77.77l.69-.1,2.94-8.39h1.98l2.92,8.39.69.1v1.16h-3.29v-1.16l.67-.12-.42-1.33h-3.13l-.42,1.33.67.12v1.16h-3.29v-1.16Zm3.5-2.87h2.21l-1.09-3.4h-.04l-1.09,3.4Z" style="fill:#fff; stroke-width:0px;"/><path d="m455.72,77.77l.93-.2v-4.45l-1.03-.2v-1.17h2.83l.09,1.03c.24-.37.53-.65.88-.85.35-.2.74-.31,1.17-.31.72,0,1.29.23,1.7.68.41.46.61,1.17.61,2.14v3.12l.93.2v1.16h-3.7v-1.16l.83-.2v-3.12c0-.48-.1-.82-.29-1.02s-.49-.3-.88-.3c-.26,0-.49.05-.69.16-.2.1-.37.25-.51.44v3.85l.78.2v1.16h-3.65v-1.16Z" style="fill:#fff; stroke-width:0px;"/><path d="m469.01,78.93c-.05-.12-.1-.24-.14-.37-.04-.13-.07-.25-.09-.38-.23.27-.51.48-.84.64-.33.16-.71.25-1.13.25-.7,0-1.26-.19-1.67-.57s-.62-.9-.62-1.56.27-1.19.81-1.56c.54-.37,1.33-.55,2.37-.55h.99v-.7c0-.34-.1-.61-.3-.8-.2-.19-.49-.29-.88-.29-.22,0-.42.03-.59.08-.17.05-.31.11-.42.18l-.13.77h-1.46v-1.59c.36-.24.77-.44,1.22-.6.46-.16.96-.25,1.5-.25.89,0,1.61.22,2.16.65.55.44.83,1.06.83,1.86v2.96c0,.11,0,.21,0,.31,0,.1,0,.19.02.28l.59.08v1.16h-2.23Zm-1.68-1.29c.29,0,.56-.06.8-.19s.42-.28.56-.47v-1.09h-.99c-.41,0-.72.1-.93.29-.21.19-.32.42-.32.69,0,.24.08.43.24.57.16.14.37.21.65.21Z" style="fill:#fff; stroke-width:0px;"/><path d="m471.69,69.76v-1.17h2.97v8.98l.94.2v1.16h-3.81v-1.16l.93-.2v-7.62l-1.03-.2Z" style="fill:#fff; stroke-width:0px;"/><path d="m483.65,72.93l-.67.1-2.64,6.98c-.21.52-.48.95-.83,1.3-.35.35-.87.52-1.57.52-.16,0-.32-.01-.46-.04-.14-.03-.31-.06-.51-.11l.23-1.41c.06,0,.13.02.19.03.07,0,.12.01.17.01.32,0,.57-.08.74-.24.17-.16.31-.35.4-.59l.22-.54-2.27-5.91-.67-.11v-1.17h3.51v1.17l-.8.13.98,2.86.1.52h.04s1.13-3.38,1.13-3.38l-.81-.13v-1.17h3.51v1.17Z" style="fill:#fff; stroke-width:0px;"/><path d="m490.12,74.23h-1.3l-.21-.9c-.13-.11-.3-.19-.5-.27-.2-.07-.42-.11-.67-.11-.34,0-.61.08-.81.23-.2.15-.3.34-.3.57,0,.22.1.4.29.54.19.14.57.27,1.14.38.89.18,1.55.44,1.98.78.43.34.64.81.64,1.42,0,.65-.28,1.17-.83,1.58-.55.41-1.28.61-2.19.61-.55,0-1.06-.08-1.52-.24-.46-.16-.87-.39-1.23-.69l-.02-1.61h1.35l.27.93c.11.1.27.17.47.22.2.05.41.07.62.07.39,0,.69-.07.9-.21.21-.14.31-.33.31-.58,0-.21-.1-.4-.31-.55s-.59-.29-1.15-.41c-.84-.17-1.48-.43-1.91-.77-.43-.34-.65-.8-.65-1.38s.25-1.12.74-1.55c.5-.44,1.2-.65,2.11-.65.56,0,1.08.08,1.58.23.5.15.89.34,1.17.58l.02,1.78Z" style="fill:#fff; stroke-width:0px;"/><path d="m491.19,77.77l.93-.2v-4.45l-1.03-.2v-1.17h2.97v5.81l.93.2v1.16h-3.8v-1.16Zm2.87-7.73h-1.94v-1.45h1.94v1.45Z" style="fill:#fff; stroke-width:0px;"/><path d="m501.48,74.23h-1.3l-.21-.9c-.13-.11-.3-.19-.5-.27-.2-.07-.42-.11-.67-.11-.34,0-.61.08-.81.23-.2.15-.3.34-.3.57,0,.22.1.4.29.54.19.14.57.27,1.14.38.89.18,1.55.44,1.98.78.43.34.64.81.64,1.42,0,.65-.28,1.17-.83,1.58-.55.41-1.28.61-2.19.61-.55,0-1.06-.08-1.52-.24-.46-.16-.87-.39-1.23-.69l-.02-1.61h1.35l.27.93c.11.1.27.17.47.22.2.05.41.07.62.07.39,0,.69-.07.9-.21.21-.14.31-.33.31-.58,0-.21-.1-.4-.31-.55s-.59-.29-1.15-.41c-.84-.17-1.48-.43-1.91-.77-.43-.34-.65-.8-.65-1.38s.25-1.12.74-1.55c.5-.44,1.2-.65,2.11-.65.56,0,1.08.08,1.58.23.5.15.89.34,1.17.58l.02,1.78Z" style="fill:#fff; stroke-width:0px;"/><path d="m424,94.1h-1.44l-.2-1.29c-.19-.19-.43-.34-.72-.45-.29-.11-.63-.17-1.02-.17-.84,0-1.49.3-1.94.91s-.68,1.41-.68,2.39v.34c0,.98.23,1.78.68,2.39.45.61,1.09.92,1.91.92.38,0,.73-.06,1.04-.17.32-.11.56-.26.73-.45l.2-1.29h1.44v1.91c-.39.45-.88.81-1.49,1.08-.6.27-1.28.4-2.03.4-1.29,0-2.36-.45-3.18-1.35-.83-.9-1.24-2.05-1.24-3.45v-.32c0-1.4.41-2.55,1.23-3.45.82-.9,1.88-1.35,3.19-1.35.75,0,1.42.14,2.02.41.6.27,1.1.63,1.49,1.08v1.91Z" style="fill:#fff; stroke-width:0px;"/><path d="m424.94,96.85c0-1.07.3-1.95.9-2.63.6-.68,1.43-1.02,2.48-1.02s1.89.34,2.49,1.02.9,1.56.9,2.63v.14c0,1.08-.3,1.96-.9,2.64-.6.68-1.42,1.02-2.48,1.02s-1.9-.34-2.5-1.02c-.6-.68-.9-1.56-.9-2.64v-.14Zm1.94.14c0,.65.12,1.18.34,1.57s.6.59,1.11.59.87-.2,1.1-.6c.23-.4.35-.92.35-1.57v-.14c0-.64-.12-1.16-.35-1.56-.23-.4-.6-.6-1.11-.6s-.87.2-1.1.6c-.23.4-.34.92-.34,1.56v.14Z" style="fill:#fff; stroke-width:0px;"/><path d="m432.21,91.33v-1.17h2.97v8.98l.94.2v1.16h-3.81v-1.16l.93-.2v-7.62l-1.03-.2Z" style="fill:#fff; stroke-width:0px;"/><path d="m436.54,91.33v-1.17h2.97v8.98l.94.2v1.16h-3.81v-1.16l.93-.2v-7.62l-1.03-.2Z" style="fill:#fff; stroke-width:0px;"/><path d="m445.64,100.5c-.05-.12-.1-.24-.14-.37-.04-.13-.07-.25-.09-.38-.23.27-.51.48-.84.64-.33.16-.71.25-1.13.25-.7,0-1.26-.19-1.67-.57s-.62-.9-.62-1.56.27-1.19.81-1.56c.54-.37,1.33-.55,2.37-.55h.99v-.7c0-.34-.1-.61-.3-.8-.2-.19-.49-.29-.88-.29-.22,0-.42.03-.59.08-.17.05-.31.11-.42.18l-.13.77h-1.46v-1.59c.36-.24.77-.44,1.22-.6.46-.16.96-.25,1.5-.25.89,0,1.61.22,2.16.65.55.44.83,1.06.83,1.86v2.96c0,.11,0,.21,0,.31,0,.1,0,.19.02.28l.59.08v1.16h-2.23Zm-1.68-1.29c.29,0,.56-.06.8-.19s.42-.28.56-.47v-1.09h-.99c-.41,0-.72.1-.93.29-.21.19-.32.42-.32.69,0,.24.08.43.24.57.16.14.37.21.65.21Z" style="fill:#fff; stroke-width:0px;"/><path d="m455.25,97.11c0,1.07-.24,1.92-.72,2.57-.48.64-1.17.96-2.07.96-.42,0-.78-.09-1.09-.26-.31-.17-.57-.43-.78-.76l-.14.88h-1.67v-8.98l-1.03-.2v-1.17h2.96v3.93c.21-.29.46-.51.75-.66.29-.15.62-.23,1-.23.91,0,1.6.34,2.08,1.03.48.69.72,1.6.72,2.75v.14Zm-1.93-.14c0-.7-.1-1.25-.31-1.66-.21-.41-.56-.61-1.05-.61-.3,0-.55.06-.76.19-.21.13-.37.31-.49.54v3.03c.12.22.28.39.49.5.21.12.47.17.77.17.5,0,.85-.18,1.05-.53.2-.35.3-.85.3-1.5v-.14Z" style="fill:#fff; stroke-width:0px;"/><path d="m456.15,96.85c0-1.07.3-1.95.9-2.63.6-.68,1.43-1.02,2.48-1.02s1.89.34,2.49,1.02.9,1.56.9,2.63v.14c0,1.08-.3,1.96-.9,2.64-.6.68-1.42,1.02-2.48,1.02s-1.9-.34-2.5-1.02c-.6-.68-.9-1.56-.9-2.64v-.14Zm1.94.14c0,.65.12,1.18.34,1.57s.6.59,1.11.59.87-.2,1.1-.6c.23-.4.35-.92.35-1.57v-.14c0-.64-.12-1.16-.35-1.56-.23-.4-.6-.6-1.11-.6s-.87.2-1.1.6c-.23.4-.34.92-.34,1.56v.14Z" style="fill:#fff; stroke-width:0px;"/><path d="m463.91,99.34l.93-.2v-4.45l-1.03-.2v-1.17h2.83l.09,1.05c.17-.37.38-.66.65-.87.27-.21.57-.31.92-.31.1,0,.21,0,.32.02.11.02.21.03.28.06l-.21,1.76-.79-.02c-.28,0-.52.06-.7.17-.19.11-.33.27-.42.47v3.49l.93.2v1.16h-3.79v-1.16Z" style="fill:#fff; stroke-width:0px;"/><path d="m473.91,100.5c-.05-.12-.1-.24-.14-.37-.04-.13-.07-.25-.09-.38-.23.27-.51.48-.84.64-.33.16-.71.25-1.13.25-.7,0-1.26-.19-1.67-.57s-.62-.9-.62-1.56.27-1.19.81-1.56c.54-.37,1.33-.55,2.37-.55h.99v-.7c0-.34-.1-.61-.3-.8-.2-.19-.49-.29-.88-.29-.22,0-.42.03-.59.08-.17.05-.31.11-.42.18l-.13.77h-1.46v-1.59c.36-.24.77-.44,1.22-.6.46-.16.96-.25,1.5-.25.89,0,1.61.22,2.16.65.55.44.83,1.06.83,1.86v2.96c0,.11,0,.21,0,.31,0,.1,0,.19.02.28l.59.08v1.16h-2.23Zm-1.68-1.29c.29,0,.56-.06.8-.19s.42-.28.56-.47v-1.09h-.99c-.41,0-.72.1-.93.29-.21.19-.32.42-.32.69,0,.24.08.43.24.57.16.14.37.21.65.21Z" style="fill:#fff; stroke-width:0px;"/><path d="m479.13,91.57v1.76h1.26v1.36h-1.26v3.65c0,.28.06.48.17.6.12.12.27.18.46.18.13,0,.25,0,.35-.02.1-.01.21-.03.33-.06l.17,1.4c-.22.07-.43.12-.64.15-.21.03-.44.05-.69.05-.67,0-1.18-.18-1.54-.55-.36-.37-.54-.95-.54-1.74v-3.66h-1.05v-1.36h1.05v-1.76h1.93Z" style="fill:#fff; stroke-width:0px;"/><path d="m481.13,96.85c0-1.07.3-1.95.9-2.63.6-.68,1.43-1.02,2.48-1.02s1.89.34,2.49,1.02.9,1.56.9,2.63v.14c0,1.08-.3,1.96-.9,2.64-.6.68-1.42,1.02-2.48,1.02s-1.9-.34-2.5-1.02c-.6-.68-.9-1.56-.9-2.64v-.14Zm1.94.14c0,.65.12,1.18.34,1.57s.6.59,1.11.59.87-.2,1.1-.6c.23-.4.35-.92.35-1.57v-.14c0-.64-.12-1.16-.35-1.56-.23-.4-.6-.6-1.11-.6s-.87.2-1.1.6c-.23.4-.34.92-.34,1.56v.14Z" style="fill:#fff; stroke-width:0px;"/><path d="m488.89,99.34l.93-.2v-4.45l-1.03-.2v-1.17h2.83l.09,1.05c.17-.37.38-.66.65-.87.27-.21.57-.31.92-.31.1,0,.21,0,.32.02.11.02.21.03.28.06l-.21,1.76-.79-.02c-.28,0-.52.06-.7.17-.19.11-.33.27-.42.47v3.49l.93.2v1.16h-3.79v-1.16Z" style="fill:#fff; stroke-width:0px;"/><path d="m502,94.49l-.67.1-2.64,6.98c-.21.52-.48.95-.83,1.3-.35.35-.87.52-1.57.52-.16,0-.32-.01-.46-.04-.14-.03-.31-.06-.51-.11l.23-1.41c.06,0,.13.02.19.03.07,0,.12.01.17.01.32,0,.57-.08.74-.24.17-.16.31-.35.4-.59l.22-.54-2.27-5.91-.67-.11v-1.17h3.51v1.17l-.8.13.98,2.86.1.52h.04s1.13-3.38,1.13-3.38l-.81-.13v-1.17h3.51v1.17Z" style="fill:#fff; stroke-width:0px;"/></svg>