<?xml version="1.0" encoding="UTF-8"?>
<svg id="Layer_1" data-name="Layer 1" xmlns="http://www.w3.org/2000/svg" version="1.1" viewBox="0 0 290.7 75">
  <defs>
    <style>
      .cls-1 {
        fill: #c41230;
      }

      .cls-1, .cls-2, .cls-3 {
        stroke-width: 0px;
      }

      .cls-4 {
        stroke-width: 1.1px;
      }

      .cls-4, .cls-5 {
        fill: none;
        stroke: #000;
      }

      .cls-2 {
        fill: #000;
      }

      .cls-5 {
        stroke-width: .2px;
      }

      .cls-3 {
        fill: #fff;
      }
    </style>
  </defs>
  <path class="cls-3" d="M171.4,13.4c-.6-1.3-1.5-2.3-3.1-2.7v-.7c1,0,4.2.1,5,.1s3.6-.1,4.6-.1v.8c-.9.2-1.9.7-1.9,1.6s.4,1.5,1.2,3.2l7.2,16.3,6.8-16.3c.5-1.3.9-2.3.9-3.1s-.8-1.5-1.9-1.7v-.8c.9,0,3.1.1,3.8.1s3.2-.1,4.2-.1v.8c-1.7.5-2.7,1.4-3.7,3.6l-10,23.5h-2.1l-11-24.5h0Z"/>
  <path class="cls-3" d="M74.8,36.9c1.3-.3,2.2-.9,2.2-2.4V13.1c0-1.4-.9-2-2.2-2.4v-.8c.7,0,3.6.1,4.3.1s3.9-.1,4.6-.1v.8c-1.3.3-2.3.9-2.3,2.4v9h16v-9c0-1.5-.8-2.1-2.2-2.4v-.8c.7,0,3.7.1,4.6.1s3.7-.1,4.4-.1v.8c-1.3.3-2.3.9-2.3,2.4v21.5c0,1.4.9,2,2.3,2.4v.7h-9v-.7c1.3-.3,2.2-.9,2.2-2.4v-10.2h-16v10.2c0,1.5.9,2,2.3,2.4v.7h-8.9v-.8h0ZM108.6,36.9c1.7-.4,2.7-1.5,3.4-3.1l8.9-21.3c.4-.9.8-2.7.8-2.7h2.5s.4,1.8.8,2.7l9.4,21.4c.7,1.5,1.4,2.5,3.3,3v.7h-9.6v-.7c1.4-.3,1.8-1,1.8-1.7s-.2-1.2-.5-1.9l-2-4.5h-10.4l-1.8,4.6c-.2.5-.5,1.3-.5,1.8,0,.8.4,1.4,2,1.8v.7h-7.9l-.2-.7h0ZM126.3,26.6l-4.4-10.3-4.1,10.3s8.5,0,8.5,0ZM108.6,36.9c1.7-.4,2.7-1.5,3.4-3.1l8.9-21.3c.4-.9.8-2.7.8-2.7h2.5s.4,1.8.8,2.7l9.4,21.4c.7,1.5,1.4,2.5,3.3,3v.7h-9.6v-.7c1.4-.3,1.8-1,1.8-1.7s-.2-1.2-.5-1.9l-2-4.5h-10.4l-1.8,4.6c-.2.5-.5,1.3-.5,1.8,0,.8.4,1.4,2,1.8v.7h-7.9l-.2-.7h0ZM126.3,26.6l-4.4-10.3-4.1,10.3s8.5,0,8.5,0ZM196.5,36.9c1.7-.4,2.7-1.5,3.3-3.1l8.9-21.3c.4-.9.8-2.7.8-2.7h2.5s.4,1.8.8,2.7l9.4,21.4c.7,1.5,1.4,2.5,3.3,3v.7h-9.6v-.7c1.4-.3,1.8-1,1.8-1.7s-.2-1.2-.5-1.9l-2-4.5h-10.4l-1.8,4.6c-.2.5-.5,1.3-.5,1.8,0,.8.4,1.4,1.9,1.8v.7h-7.9v-.7h0ZM214.1,26.6l-4.4-10.3-4.1,10.3s8.5,0,8.5,0ZM260.5,36.9c1.7-.3,2.6-1,2.6-2.5V13.1c0-1.5-.9-2.1-2.5-2.4v-.8c.9,0,4,.1,4.8.1,1.4,0,5.2-.3,8.1-.3,9.9,0,15.8,5.5,15.8,13.9s-6.2,14.2-16.4,14.2-6.5-.2-7.8-.2h-4.6v-.8h0ZM267.6,35.5c1,.2,2.9.3,4.3.3,8.3,0,12.6-5,12.6-11.9s-4.5-12.3-12.3-12.3-3.6.1-4.6.3v23.6h0Z"/>
  <path class="cls-3" d="M148.7,34.4c0,1.4.9,2.2,2.6,2.6v.8h-9.4v-.8c1.5-.3,2.5-1.1,2.5-2.6V13.1c0-1.3-.7-2.1-2.5-2.4v-.8c.9,0,3.8.1,4.7.1,1.4,0,5.2-.2,6.7-.2,6.6,0,10.3,2.7,10.3,7.4s-2.8,6.2-7,7.2c0,0,1,.6,1.9,1.7,1.2,1.4,4.5,6,5.8,7.6s3,3.4,4.8,3.5v.6c-.9.2-2.2.3-3.3.3-2.3,0-4.1-.8-5.8-2.9-1.5-1.8-4.2-5.7-5.8-7.7-1-1.2-2.1-2.2-4.3-2.5-.4-.1-.8-.1-1.3-.2v9.6h.1ZM148.7,23.1c.9.1,2.2.2,3.5.2,5.2,0,6.8-3,6.8-5.6,0-3.7-2.5-6.1-7-6.1s-2.3.1-3.2.3v11.2h-.1Z"/>
  <path class="cls-3" d="M236.1,34.4c0,1.4.9,2.2,2.6,2.6v.8h-9.4v-.8c1.5-.3,2.5-1.1,2.5-2.6V13.1c0-1.3-.7-2.1-2.4-2.4v-.8c.9,0,3.8.1,4.7.1,1.4,0,5.2-.2,6.7-.2,6.6,0,10.3,2.7,10.3,7.4s-2.8,6.2-7,7.2c0,0,1,.6,1.9,1.7,1.2,1.4,4.4,6,5.7,7.6s3,3.4,4.8,3.5v.6c-.9.2-2.2.3-3.3.3-2.3,0-4.1-.8-5.8-2.9-1.5-1.8-4.1-5.7-5.6-7.7-1-1.2-2.1-2.2-4.3-2.5-.4-.1-.8-.1-1.3-.2v9.6h0ZM236.1,23.1c.9.1,2.2.2,3.5.2,5.2,0,6.8-3,6.8-5.6,0-3.7-2.5-6.1-7-6.1s-2.3.1-3.2.3v11.2h-.1Z"/>
  <path class="cls-3" d="M192.5,61.5h.4c.2.8.7,1.5,1.3,2,.7.5,1.7.7,2.6.7,1.9,0,3.1-.9,3.1-2.4s-1.5-2.2-3.3-3.1c-1.4-.7-4.1-1.7-4.1-4.4s1.9-4,4.8-4,2.9.5,4.2.4v2.9h-.5c-.5-1.7-2.1-2.3-3.8-2.3s-2.7,1.1-2.7,2.2c0,1.6,1.8,2.5,3.4,3.3,2,.9,4.1,1.9,4.1,4.4s-1.8,4-5.2,4-3.2-.5-4.3-.7v-3h0Z"/>
  <path class="cls-3" d="M222.7,64.5c.7-.2,1.1-.5,1.1-1.2v-11.1c0-.7-.4-1-1.1-1.2v-.4h4.7v.4c-.7.2-1.2.5-1.2,1.2v4.6h8.2v-4.6c0-.8-.4-1.1-1.1-1.2v-.4h4.7v.4c-.7.2-1.2.5-1.2,1.2v11.1c0,.7.5,1,1.2,1.2v.4h-4.7v-.4c.7-.2,1.1-.5,1.1-1.2v-5.3h-8.2v5.2c0,.8.5,1,1.2,1.2v.4h-4.7v-.3h0Z"/>
  <path class="cls-3" d="M218.7,61.3l-.2,3.2c-1.1,0-2.6.7-5.1.7-5.3,0-7.7-3.2-7.7-7.4s3.1-7.5,7.6-7.5,3.6.8,5,.7v3.2c.1,0-.3,0-.3,0-.8-1.9-2.7-2.8-4.7-2.8-3.3,0-5.1,2.9-5.1,6.4s1.4,6.4,5.4,6.4,3.9-.8,4.6-2.9c0,0,.5,0,.5,0Z"/>
  <path class="cls-3" d="M241.5,57.8c0-4.1,2.9-7.5,7.4-7.5s7.4,3.4,7.4,7.5-2.9,7.4-7.4,7.4-7.4-3.3-7.4-7.4h0ZM253.7,57.8c0-3.3-1.5-6.5-4.8-6.5s-4.9,3.1-4.9,6.5,1.5,6.4,4.9,6.4,4.8-3.1,4.8-6.4h0Z"/>
  <path class="cls-3" d="M259.5,57.8c0-4.1,2.9-7.5,7.4-7.5s7.4,3.4,7.4,7.5-2.9,7.4-7.4,7.4-7.4-3.3-7.4-7.4h0ZM271.7,57.8c0-3.3-1.5-6.5-4.8-6.5s-4.9,3.1-4.9,6.5,1.5,6.4,4.9,6.4,4.8-3.1,4.8-6.4h0Z"/>
  <path class="cls-3" d="M97.2,50.6h9c.3,0,.8,0,1-.2h.4v2.9h-.5c-.3-.9-.8-1.6-2.6-1.6h-3.8v5.2h4.3c.7,0,1-.5,1.1-1.1h.4v3.5h-.4c-.2-.6-.5-1-1.1-1.2h-4.3v5.8h4.3c1.8,0,2.4-.8,2.8-1.9h.4l-.4,3.1h-10.8v-.4c.8-.2,1.3-.5,1.3-1.3v-11c0-.7-.4-1.1-1.3-1.3v-.3h.2v-.2Z"/>
  <path class="cls-3" d="M131.6,52.3c0-.7-.4-1.1-1.3-1.3v-.4h5v.4c-.9.2-1.3.5-1.3,1.3v10.9c0,.7.4,1.1,1.3,1.3v.4h-5v-.4c.9-.2,1.3-.5,1.3-1.3v-10.9h0Z"/>
  <path class="cls-3" d="M153.7,64.5c.9-.2,1.4-.8,1.7-1.6l4.6-11c.2-.5.4-1.4.4-1.4h1.3s.2.9.4,1.4l4.8,11c.3.8.7,1.3,1.7,1.6v.4h-4.9v-.4c.7-.2.9-.5.9-.9s-.1-.6-.3-1l-1-2.3h-5.3l-.9,2.4c-.1.3-.2.7-.2.9,0,.4.2.7,1,.9v.4h-4.1v-.4h-.1,0ZM162.9,59.1l-2.3-5.3-2.1,5.3h4.4Z"/>
  <path class="cls-3" d="M151.8,61.3l-.2,3.2c-1.1,0-2.6.7-5.1.7-5.3,0-7.7-3.2-7.7-7.4s3.1-7.5,7.6-7.5,3.6.8,5,.7v3.2c.1,0-.3,0-.3,0-.8-1.9-2.7-2.8-4.7-2.8-3.3,0-5.1,2.9-5.1,6.4s1.4,6.4,5.4,6.4,3.9-.8,4.6-2.9c0,0,.5,0,.5,0Z"/>
  <path class="cls-3" d="M182.2,61.9c-.5,1.1-1,1.9-2.8,1.9h-4.4v-11.5c0-.8.4-1.1,1.3-1.3v-.4h-5v.4c.9.2,1.3.6,1.3,1.3v10.9c0,.8-.4,1.2-1.3,1.3v.4h10.8l.4-3s-.3,0-.3,0Z"/>
  <path class="cls-3" d="M288.4,61.9c-.5,1.1-1,1.9-2.8,1.9h-4.3v-11.5c0-.8.4-1.1,1.3-1.3v-.4h-5v.4c.9.2,1.3.6,1.3,1.3v10.9c0,.8-.4,1.2-1.3,1.3v.4h10.8l.4-3h-.4Z"/>
  <path class="cls-3" d="M112.2,64.5c.9-.2,1.3-.5,1.3-1.3v-11c0-.8-.5-1.1-1.3-1.2v-.4h2.5c.7,0,2.6-.2,4.1-.2,5.1,0,8.2,2.8,8.2,7.2s-3.2,7.3-8.4,7.3-3.2,0-3.9,0h-2.4v-.5h0ZM115.8,63.8h2.1c4.3,0,6.5-2.4,6.5-6.2s-2.3-6.3-6.3-6.3-1.7,0-2.3.2v12.2h0Z"/>
  <path class="cls-3" d="M91.9,62.9l-.7-10.6c0-.7.3-1.1,1.1-1.3v-.4h-3.4l-4.7,11-4.7-11h-3.6v.4c.8,0,1.2.6,1.2,1.3l-.8,10.6c0,.8-.5,1.4-1.4,1.7v.4h4v-.4c-1-.3-1.2-.8-1.2-1.5l.6-9.4,4.9,11.3h.8l4.9-11.3.6,9.5c0,.6-.2,1.2-1.2,1.5v.4h5v-.4c-.9-.4-1.3-.9-1.4-1.8h0Z"/>
  <path class="cls-1" d="M31.4,1.5H1.6v23.8c-.1,29.2,29.2,47.8,29.5,48h.4c5-3.3,29.8-20.9,29.8-47.8V1.6c0-.1-29.9-.1-29.9-.1h0ZM61.1,22.6H2.1v-3.4h59v3.4h0Z"/>
  <path class="cls-2" d="M11.6,4.4c2-.8,4.2-.2,6.4-.4.6,0,1.4-.3,1.8.3v1.9c.2.5.9.2,1.2.4.2,0,.4.2.5.5s0,.6-.1.9c-.4.4-.9.3-1.5.4l-.2.2c.1,1.2-.2,2.2,0,3.3,0,.2-.1.6.2.7.6,0,1.1,0,1.5.4.2.3.2.6.1,1-.2,1.2-2.1-.2-1.9,1.2,0,.5.1,1.2-.1,1.7-2.2,0-4.4-.2-6.4,0-.4.3-.8.5-1.4.6-.4-.1-.8-.3-1.1-.6-2-.1-3.9-.1-5.8-.1-.6-.5-.2-1.4-.4-2.1-.3-.4-.8-.1-1.2-.3-.3,0-.4-.3-.5-.5,0-.4,0-.8.3-1.1.3-.2.8-.2,1.2-.2l.2-.2c0-1.3.2-2.6,0-4-.2-.3-.6,0-.8-.2-.3,0-.7-.3-.8-.7,0-.3,0-.6.2-.9.4-.5,1.2,0,1.6-.4l.2-1.9c.3-.6,1-.3,1.6-.3,1-.2,2.2,0,3.2,0s1.5.2,2.1.4h0Z"/>
  <path class="cls-3" d="M14.3,25.3v.4c-.1.2-.3.4-.5.3h-.8c-.3-.2-.6-.3-.9-.2-.1.1-.3.2-.5.4.1,0,.1.1.1.1.2.1.6.2.7.7,0,.4.2.7.4.9v.2c.2.1.2.2.2.3s0,.1-.1.2l-.4.5-.2.2s-.2.5-.3.7c.1.2.2.3.3.3.4-.1.7,0,1,0h.6c0,.1.1.1.1.1h.2c.2,0,.6-.1.9.1,0,0,.3.5.3.6.1.2.1.3.1.5s0,.4-.1.6v.3c-.1,0-.1.2-.2.2-.5.8-1.2,1.4-2.1,1.8h.1c.1.2.4.2.7,0h.2c.4,0,.7,0,1.1-.3l1.1-.3c.2,0,.3,0,.4.2.2.4.5.7.7.9l.2-.2c.2-.2.6-.5,1.1-.3h.1c.4.3.5.7.6,1,.1.2.1.5.3.6.1,0,.1.2.1.2h0c0,.5-.4.7-.5.7h-.2l-.9.3c-.3,0-.6,0-.8.2h.1c.4.2,1,.3,1.6.4h2.2q.2,0,.3.2c.1,0,0,.3-.1.4l-.2.3h-.1l-1.9,1.4c-.1,0-1.1.4-1.1.4l-1.5.6h-.1c-.9.2-1.4-.3-1.9-.6-.3-.3-.6-.5-1-.5s-.6,0-.8.3c-.1,0-.1.2-.1.4v.2h.1c.2,0,.6.2.6.7s-.3,1.2-.6,1.7c-.2.4-.5.9-.5,1.3h0c0,.2,0,.3.1.3h.2v-.2c.2-.2.4-.5.8-.6h.1c.8,0,1.2,0,1.5-.3h.2c.2,0,.5,0,.7.2s.3.4.3.6v.2c.5,0,.8-.5,1.2-1.1l.2-.3c.1,0,.2-.2.3-.2h.3c.4-.2.8-.4,1.3,0,.1,0,.2.2.2.3v.3c0,.4-.2.7-.3,1,0,0-.1.2-.1.4.7-.2,1.3-.8,1.8-1.5l.3-.4c.1-.2.3-.7.9-.7h.1c.3,0,.4,0,.7-.5l.6-.6h.8c0,0,.1,0,.1.2v.6h0c.1,0,.4-.2.6-.2l.8-.5h.4l3,.8c.6.2.7.6.7,1v.6s0,0,.1.2c.1,0,.1.2.1.3v.2c-.1.3-.4.6-1.2.6h-1.5c-1.2,0-2.4,0-3.3.9l-.8.8h-.3c-.6,0-1,.3-1.5.6-.4.3-.9.6-1.5.7-.4.2-.9.2-1.3.2h-.7c.4.5,1.1.7,1.8.9h.4c.3,0,.8,0,1,.5v.2c0,.4.1.6.3.6h.1c.1,0,.5-.3,1,0,.1,0,.7.7.7.7l.8.8c.1,0,.1.3,0,.4-.3.6-1,.5-1.4.5h-.7c-.6,0-1.5.3-2.1-.5h.1l-.9-.2c-.5-.4-.9-.8-1.5-.8-.6.2-.9.4-.9.7h0v.2c.1,0,.4.3.4.3.1,0,.1.2.1.2h0c0,.2-.1.3-.2.4-.5.3-1.1.8-1.1,1.4v.2h.2c.2,0,.6-.2,1,0,.1,0,.2.2.2.3v.5c0,.5.1.7.2.9h.2c.3-.2.9-.4,1.5,0,.1,0,.3,0,.6-.2l.6-.3h.1c1,0,1.5.9,1.7,1.5h0c.5.4.9.6,1.2.5h0v-.5s-.1-.3-.1-.5c0-.4.1-.8.7-1h1.7c.9,0,1.6,0,1.9-.5,0,0,.7-1.1.8-1.3v-.7c.1-.2.2-.3.4-.3h1.1c-.2-.5-.3-1-.3-1.5s0-.5.1-.8c.2-.7.5-1.3.9-1.8.1,0,.3-.2.5,0h.2c.1.2.2.3.3.4l.2,1c0,.6.2,1.2.5,1.8v.2l-.4,1.4-.3,1.1c-.3,1.1-1,1.9-2,2.4h.8c1.1,0,2.1-.7,2.9-1.5,0,0,.3-.2.4,0,.2,0,.4,0,.7-.2s.9-.5,1.5,0c.2.2.6.2,1,0,.6,0,1.6,0,1.8,1v.7c0,.5.2,1.5-.9,1.8h-.2l-1.1-.4c-.9-.4-1.3-.5-1.7,0,0,0-.2.3-.2.4,0,.3.5.9,0,1.4h0c-.3.5-.5.8-.3,1.2h.4c.4-.2.9,0,1.3,0l.5.2h.4c.4.4.7.6,1.1.7h0l.2-.6.7-.4c.4-.2.5-.2.5-.4,0-.7.6-1.4,1.3-1.8h.3c.2,0,.7-.2.9-.4h0l-.2-.3s0-.2-.2-.2v-.3c0-.5.3-.9.5-1.3.2-.3.3-.6.3-.8v-.4h0v-.7c-.2-.5-.2-.8-.5-1.1l-.8-.4-.3-.3c-.2,0-.2-.2-.2-.4,0-.4.2-.6.7-.7h0c.5-.2,1,0,1.4.2h.6c0-.3-.4-.6-.6-.9-.5-.3-1.1-.5-1.7-.6-1-.2-2-.5-2.6-1.4v-.6h0c0-.2.3-.2.4-.2,1.2.3,2.4,0,3.2-.7.5-.6,1.1-1.4,2-1.7.7-.5.8-1.4.8-2.5s.3-1,.7-1.4l.9-.4c.3,0,.4,0,.4-.2-.5-.2-1.1-.5-1.6-.4h-.3c-.3,0-.3-.3-.4-.5h0c0-.4.2-.6.4-.7h0v-.2l.9-.5c1.2-.7,2-1.1,2-2.1h0s-.3,0-.4.2l-.8.4c-.6.3-1.3.5-1.9.6-.7,0-1.3.3-1.8.6h-.2c-.2,0-.5,0-.5-.4v-.3c0-.2,0-.4.2-.5.2-.3.5-.5.8-.6.4-.2.6-.3.7-.6v-.3c.3-.5.5-1.2,1.2-1.5l.6-.3h.2c-1-.4-2,.4-2.6.9h0l-.5.2c-.7.3-1.4.6-1.8,1.1h-.8c-.2,0-.3-.3-.3-.5-.2-1.6,1.1-2.8,2.1-3.7l.2-.2h.2l.6-.4c.5-.3,1.1-.7,1.9-.3s1.1.5,1.6.4c.3,0,.5-.4.8-.8.2-.3.5-.7.9-1,.4-.2.8,0,1.1,0s.4.1.4.1h0v-.2c0-.3-.2-.6-.5-1l-.4-.5c0,0,0-.1,0-.2v-.2c0-.3.2-.6.2-1,0-.8-.3-1.5-.9-2-.2-.1-.6-.3-1-.3v.2l.4.8v.3c0,1.8-1.5,2.6-2.8,3.2l-1.1.6c-2.5,1.3-5.8,3.3-6,6.6,0,1.7.7,3.3,2.1,4.7h0l.5.7c.5.8,1.1,1.6,1.1,2.7s0,.5,0,.8c-.4,1-1.6,1-2,1-2.5-.2-3.8-2.7-4.8-4.5l-.2-.3-.2-.4c-.3-.6-.6-1.2-.6-1.9s0-.3,0-.3c0,0,.4-.4.9,0l.5.7v.3-.4c0-.4-.2-.9-.4-1.4h0c0-.3-.4-.6-.7-.8-.4-.3-.8-.7-1-1.2h0v-.2c0-.6.5-.7.7-.8h0c-.2-.6-.3-1.3-.3-2v-1h0l.6-.6c.1,0,.2,0,.2-.2-.2-.7-.2-1.5-.2-2.2v-.9c0-.1.2-.7.2-.7,0-.3.2-.5.2-.7v-.2c-.4-.2-.5-.7-.5-.9v-.2h0c-1,0-1.9-.4-2.7-.8l-.8-.4c-.2-.1-.4,0-.7.2l-.5.2h-.5c-.5.2-1,.3-1.3.6s-.2.5-.2.9v.3h0c-.1.4-.3.5-.4.5-.3.1-.5,0-.7-.1h-.1c-.8-.4-1.1-1.2-.9-2,0-.1-.1-.3-.1-.3-.2-.1-.6-.2-.9-.1-.2.1-.4.3-.5.8,0,0-.1.1-.1.2h0c0,.4.1.7.2.8.3.3.8.6,1.4.9l1.3.7c0,0,.1.1.1.2,0,.1.1.3.1.4,0,.5-.2.8-.4,1.1h0c.1.1.4.3.4.7v.2c0,.2-.2.3-.3.3-.8.2-1.5,0-2.1-.4l-.4-.5c-.1-.2-.2-.3-.3-.3,0,0-.1.2-.1.3l-.2.4c0-.1,0,.3,0,.3,0,.3-.1.7-.4,1h-.7c-1.6-.5-3-1.3-4.6-2.5-.7-.5-1.2-1.2-1.7-1.9l-.4-.5h-.1c0-.1-.1-.6-.1-.6-.3-1-.5-1.6-1.2-1.8-.2-.2-.3-.2-.3-.2h0l.6.5ZM15.3,31.1h0ZM12.2,30.4h.2-.2ZM26.6,31c0,0,.1-.1.1-.2h0s-.1.1-.1.2h0ZM34.3,36.3s0,0,0,0q0,0,0,0c0,0,0,0,0,0h0ZM24.8,42.9h0ZM24.9,43h0ZM16.4,45.5h0ZM30.6,54h0ZM31.1,58.2h.1-.1Z"/>
  <path class="cls-4" d="M1.9,25.3V1.5h59.5v23.9c0,30.1-30,47.8-30,47.8,0,0-29.5-18.5-29.5-47.9h0Z"/>
  <path class="cls-2" d="M43.4,60h0c-.2-.2-.4-.5-.5-.6-.2-1.1,1.4-1.8.6-2.9-.2-.7,0-1.5-.7-2-.5-.4-1.1-.5-1.6-.8,0-.3.4-.2.5-.3.9-.2,1.6.8,2.3,0,0-.6-.5-1.1-.9-1.5-1.3-.9-3.2-.5-4.2-1.9h0c1.2.2,2.6,0,3.5-.9.5-.7,1.1-1.4,1.9-1.6.9-.7,1-1.8,1-2.8s.2-.8.5-1.1c.5-.4,1.7-.3,1.4-1.2-.7-.4-1.4-.7-2.1-.6-.4-.2,0-.5.2-.6,1.2-.8,3.2-1.3,3.1-3.2,0-.2,0-.5-.4-.5s-.9.6-1.4.8c-1.2.7-2.6.5-3.8,1.2-.2,0-.2-.3,0-.4.4-.6,1.3-.6,1.6-1.4.2-.6.3-1.4,1-1.6.4-.3,1-.3,1.2-.8,0-.3-.4-.4-.6-.5-1.1-.3-2.2.3-3,1.1-.8.4-1.8.7-2.4,1.3,0,0-.3,0-.3-.2-.2-1.6,1.2-2.7,2.3-3.6.7-.2,1.4-1.1,2.2-.7.6.3,1.2.6,1.9.4.9-.3,1-1.3,1.8-1.8.6-.2,1.4.7,1.8-.2.2-.9-.5-1.4-.9-2,.5-1.2,0-2.6-.9-3.5-.5-.3-1.1-.5-1.6-.3-.4.5.4.9.4,1.4.2,2.2-2.2,2.7-3.7,3.7-2.7,1.4-6,3.5-6.2,7,0,1.9.9,3.7,2.2,5,.7,1.2,1.8,2.3,1.4,3.9-.3.6-1,.7-1.6.7-2.3-.2-3.6-2.8-4.6-4.6-.3-.7-.7-1.4-.8-2.2h.4c.4.4.4,1.3,1.1,1.2.6-.8.2-1.8-.2-2.6-.4-.7-1.3-1.1-1.7-1.9,0-.6.8-.2.9-.8-.3-1-.4-2.1-.2-3,.2-.4.8-.4.8-.9-.3-1-.3-1.9-.2-3,0-.6.6-1.3.3-1.9-.7-.2,0-1.1-.8-1.2-1.3,0-2.3-.7-3.4-1.1-.6-.2-1,.2-1.5.3-.7.2-1.5.2-2,.7s-.3.9-.3,1.5c-.1.3-.4,0-.6,0-.5-.3-.7-.9-.6-1.5.1-.3,0-.5-.3-.7-.4-.2-.9-.4-1.3-.2-.5.2-.7.8-.9,1.3,0,.4,0,.9.2,1.2.8.8,1.9,1.1,2.7,1.8.2.5-.2.9-.5,1.3,0,.4.6.4.5.8-.6.2-1.2,0-1.7-.4-.3-.3-.4-.9-.9-.9s-.5.6-.7.9c-.2.4,0,.9-.4,1.2h-.3c-1.6-.5-3-1.4-4.4-2.5-.8-.6-1.4-1.6-2-2.4-.3-1-.5-2.3-1.7-2.6-.3,0-.6.1-.7.4v.4c-.7,0-1.3-.4-2-.2-.3.2-.6.4-.8.7,0,.7.8.4.9,1,0,.5.4.9.6,1.3-.2.3-.5.4-.6.7l-.4,1c.2.3.4.7.7.7.5-.2,1,.2,1.6.1.4,0,.9-.3,1,.3.2.5,0,.9,0,1.3-.5.7-1.2,1.3-1.9,1.6-.2.2-.2.5-.2.7.3.4.9.2,1.3.2.8,0,1.4-.5,2.2-.6.2.4.5.9.9,1.1.6.2.8-.7,1.4-.5.5.4.4,1.1.8,1.6,0,.3-.2.3-.4.4-.7.2-1.6,0-2.1.5-.1.3.2.6.4.7.6.3,1.3.4,2,.5.6,0,1.3-.2,1.9,0l-.2.3-1.9,1.3c-.9.4-1.8.5-2.6,1-1.2.3-1.7-1.2-2.8-1.1-.5,0-.8.2-1.1.4-.3.3-.3.7-.2,1.1.2.4.7.2.7.6,0,1.1-1,1.9-1.1,3,0,.3,0,.6.4.7h.7c.2-.2.2-.6.6-.7.7,0,1.4,0,1.8-.4.2,0,.5.2.5.4,0,.3,0,.6.3.7,1,0,1.4-1,1.9-1.7.4,0,.9-.4,1.3,0,.2.7-.4,1.1-.5,1.8,0,.2.2.3.4.3,1.2-.2,1.8-1.2,2.5-2.1.1-.2.2-.5.6-.5.9.3,1.1-.8,1.7-1.2h.2c.1.3-.1.5,0,.7.4.4.8,0,1.2,0l.8-.5c1,.3,2,.5,3,.8.8.3,0,1.2.5,1.7-.1.3-.5.4-.8.4-1.7.2-3.7-.2-5.1,1l-.8.8c-1.3,0-1.9,1.1-3.1,1.3-.8.5-2-.2-2.5.7.4.8,1.4,1.1,2.2,1.3.4.2.9,0,1.1.4,0,.4.1.9.6,1,.3,0,.5-.4.9,0,.4.6,1.1.9,1.4,1.4-.3.5-.9.2-1.4.2h-.1c-.7,0-1.6.4-2.1-.2-.7-.5-1.3-1.4-2.4-1.4-.6.2-1.2.4-1.3,1-.1.4.3.5.5.8-.7.5-1.4,1.2-1.2,2.1.1.2.2.4.4.4.4,0,.6-.3,1,0,.1.6-.1,1.5.6,1.8.5,0,.9-.7,1.5-.2.6.3,1-.3,1.6-.4.8,0,1.1.8,1.4,1.4.5.4,1.2,1,1.9.6.5-.7-.4-1.5.5-1.9.5-.2,1,0,1.6,0,.9,0,1.9.2,2.4-.8l.8-1.3.2-.8c.5-.2,1.2.7,1.5,0-.3-.8-.4-1.6-.2-2.4.2-.6.4-1.1.8-1.5h.2c.2,1.1.3,2,.7,2.9,0,.9-.5,1.7-.7,2.6-.2.9-.9,1.7-1.8,2.1-.2.2-.4.4-.2.7.2.4.8.2,1.2.3,1.2-.2,2.3-.7,3.2-1.6.9.2,1.3-.8,2.1-.4.8.6,2.3-.5,2.6.9,0,.6.5,1.7-.5,2-1-.2-2.2-1.5-3.2-.3-.2.2-.4.5-.2.9.2.3.4.6,0,.9-.3.5-.7,1.1-.4,1.6.2.3.6.3.9.3.6-.2,1.1.3,1.7.3.5.4,1,.9,1.7.8.3-.2.2-.5.4-.7.4-.4,1.3-.3,1.3-1.1s.6-1.1,1.1-1.4c.2-.3,1.4-.6,1.7-1.1h0v-.7Z"/>
  <path class="cls-5" d="M43.4,60h0c-.2-.2-.4-.5-.5-.6-.2-1.1,1.4-1.7.6-2.9-.2-.7,0-1.5-.7-2-.5-.4-1.1-.5-1.6-.8,0-.3.4-.2.5-.3.9-.2,1.6.8,2.3,0,0-.6-.5-1.1-.9-1.5-1.3-.9-3.2-.5-4.2-1.9h0c1.2.2,2.6,0,3.5-.9.5-.7,1.1-1.4,1.9-1.6.9-.7,1-1.8,1-2.8s.2-.8.5-1.1c.5-.4,1.7-.3,1.4-1.2-.7-.4-1.4-.7-2.1-.6-.3-.2,0-.5.2-.6,1.2-.8,3.2-1.3,3.1-3.2,0-.2,0-.5-.4-.5s-.9.6-1.4.8c-1.2.7-2.6.5-3.8,1.2-.2,0-.2-.3,0-.4.4-.6,1.3-.6,1.6-1.4.2-.6.3-1.4,1-1.6.4-.3,1-.3,1.2-.8,0-.3-.4-.4-.6-.5-1.1-.3-2.2.3-3,1.1-.8.4-1.8.7-2.4,1.3,0,0-.3,0-.3-.2-.2-1.6,1.2-2.7,2.3-3.6.7-.2,1.4-1.1,2.2-.7.6.3,1.2.6,1.9.4.9-.3,1.1-1.3,1.8-1.8.6-.2,1.4.7,1.8-.2.2-.9-.5-1.4-.9-2,.5-1.2,0-2.6-.9-3.5-.5-.3-1.1-.5-1.6-.3-.4.5.4.9.4,1.4.2,2.2-2.2,2.7-3.7,3.7-2.7,1.4-6,3.5-6.2,7,0,1.9.9,3.7,2.2,5,.7,1.2,1.8,2.3,1.4,3.9-.3.6-1,.7-1.6.7-2.3-.2-3.6-2.8-4.6-4.6-.3-.7-.7-1.4-.8-2.2h.4c.4.4.4,1.3,1.1,1.2.6-.8.2-1.8-.2-2.6-.4-.7-1.3-1.1-1.7-1.9,0-.6.8-.2.9-.8-.3-1-.4-2.1-.2-3,.2-.4.8-.4.8-.9-.3-1-.3-1.9-.2-3,0-.6.6-1.3.3-1.9-.7-.2,0-1.1-.8-1.2-1.3,0-2.3-.7-3.4-1.1-.6-.2-1,.2-1.5.3-.7.2-1.5.2-2,.7s-.3.9-.3,1.5c-.1.3-.4,0-.6,0-.5-.3-.7-.9-.6-1.5.1-.3,0-.5-.3-.7-.4-.2-.9-.3-1.3-.2-.5.2-.7.8-.9,1.3,0,.4,0,.9.2,1.2.8.8,1.9,1.1,2.7,1.8.2.5-.2.9-.5,1.3,0,.4.6.4.5.8-.6.2-1.2,0-1.7-.4-.3-.3-.4-.9-.9-.9s-.5.6-.7.9c-.2.4,0,.9-.4,1.2h-.3c-1.6-.5-3-1.4-4.4-2.5-.8-.6-1.4-1.6-2-2.4-.3-1-.5-2.3-1.7-2.6-.3,0-.6.1-.7.4v.4c-.7,0-1.3-.4-2-.2-.3.2-.6.4-.8.7,0,.7.8.4.9,1,0,.5.4.9.6,1.3-.2.3-.5.4-.6.7l-.4,1c.2.3.4.7.7.7.5-.2,1,.2,1.6.1.4,0,.9-.3,1,.3.2.5,0,.9,0,1.3-.5.7-1.2,1.3-1.9,1.6-.2.2-.2.5-.2.7.3.4.9.2,1.3.2.8,0,1.4-.5,2.2-.6.2.4.5.9.9,1.1.6.2.8-.7,1.4-.5.5.4.3,1.1.8,1.6,0,.3-.2.3-.4.4-.7.2-1.6,0-2.1.5-.1.3.2.6.4.7.6.3,1.3.4,2,.5.6,0,1.3-.2,1.9,0l-.2.3-1.9,1.3c-.9.4-1.8.5-2.6,1-1.2.3-1.7-1.2-2.8-1.1-.5,0-.8.2-1.1.4-.3.3-.3.7-.2,1.1.2.4.7.2.7.6,0,1.1-1,1.9-1.1,3,0,.3,0,.6.3.7h.7c.2-.2.2-.6.6-.7.7,0,1.4,0,1.8-.4.2,0,.5.2.5.4,0,.3,0,.6.3.7,1,0,1.4-1,1.9-1.7.4,0,.9-.4,1.3,0,.2.7-.4,1.1-.5,1.8,0,.2.2.3.4.3,1.2-.2,1.8-1.2,2.5-2.1.1-.2.2-.5.6-.5.9.3,1.1-.8,1.7-1.2h.2c.1.3-.1.5,0,.7.4.4.8,0,1.2,0l.8-.5c1,.3,2,.5,3,.8.8.3,0,1.2.5,1.7-.1.3-.5.4-.8.4-1.7.2-3.7-.2-5.1,1l-.8.8c-1.3,0-1.9,1.1-3.1,1.3-.8.5-2-.2-2.5.7.4.8,1.4,1.1,2.2,1.3.4.2.9,0,1.1.4,0,.4.1.9.6,1,.3,0,.5-.4.9,0,.4.6,1.1.9,1.4,1.4-.3.5-.9.2-1.4.2h-.1c-.7,0-1.6.4-2.1-.2-.7-.5-1.3-1.4-2.4-1.4-.6.2-1.2.4-1.3,1.1-.1.4.3.5.5.8-.7.5-1.4,1.2-1.2,2.1.1.2.2.4.4.4.4,0,.6-.3,1,0,.1.6-.1,1.5.6,1.8.5,0,.9-.7,1.5-.2.6.3,1.1-.3,1.6-.4.8,0,1.1.8,1.4,1.4.5.4,1.2,1,1.9.6.5-.7-.4-1.5.5-1.9.5-.2,1,0,1.6,0,.9,0,1.9.2,2.4-.8l.8-1.3.2-.8c.5-.2,1.2.7,1.5,0-.3-.8-.4-1.6-.2-2.4.2-.6.4-1.1.8-1.5h.2c.2,1.1.3,2,.7,2.9,0,.9-.5,1.7-.7,2.6-.2.9-.9,1.7-1.8,2.1-.2.2-.4.4-.2.7.2.4.8.2,1.2.3,1.2-.2,2.3-.7,3.2-1.6.9.2,1.3-.8,2.1-.4.8.6,2.3-.5,2.6.9,0,.6.5,1.7-.5,2-1-.2-2.2-1.5-3.2-.3-.2.2-.4.5-.2.9.2.3.4.6,0,.9-.3.5-.7,1.1-.4,1.6.2.3.6.3.9.3.6-.2,1.1.3,1.7.3.5.4,1,.9,1.7.8.3-.2.2-.5.4-.7.4-.4,1.3-.3,1.3-1.1s.6-1.1,1.1-1.4c.3-.4,1.5-.7,1.8-1.2h0v-.7Z"/>
  <path class="cls-3" d="M25.6,25.9c-.1.5-.1,1,.2,1.4.8.9,2.1,1.2,2.6,2.2h-.3c-1-.6-1.9-1.4-2.9-1.8-.4-.3-.7-.7-.6-1.2.1-.3.2-.7.6-.8.2-.1.4,0,.4.2h0Z"/>
  <path class="cls-3" d="M33.9,26.8c.2.2,0,.7.5.8,0,0,.2.1.2.2,0,.4,0,.8-.2,1.2,0,.3-.5.4-.5.9s.3.3.4.6v1.6c-1,.3-.5,1.5-.6,2.1v1.5c-.2,0-.7,0-.8.4,0,.6.3,1.1.5,1.5.4.5,1.1.6,1.1,1.3-.5,0-1-.3-1.4-.5-.7-.4-1.2-1.2-1.7-1.9h-.4c-.1.5-.1,1.1-.5,1.4-.5-.3-.5-1.6-1.3-1.2-.3,1.7-1.4,3-2.4,4.4-.2,0-.3.4-.6.4.5-1.3.9-2.8.4-4.3-.1-.3-.4-.2-.6,0s-.4.5-.7.4c-.3-.4.3-1.1-.4-1.4-.5,0-.9.6-1.3.8-1.2.7-2.6,1-4,1s-.5,0-.7-.2c.3-.4.9-.4,1.3-.7,1.6-1,2.7-2.8,4-4.1-.1-.6-.6-1.3-.1-1.8.4,0,.6.5.9.6.6.3,1.3.5,1.9.2.5-.1.9-.6,1-1.1,0-.2-.1-.4-.3-.4s-.3,0-.4-.2c0-.3.2-.5.4-.5.7,0,1.3,1.4,1.8.3.3-.9-.6-1.6-1.2-2.2s-.3-.4-.2-.7c.5-.3-.1-.7.3-1.1.7-.5,1.7-.2,2.4-.7,1.2.4,2.1,1.3,3.2,1.5h0Z"/>
  <path class="cls-3" d="M15.4,26.5c0,.2.1.4,0,.5-.2.2-.4,0-.5-.1-.2-.2-.3-.5-.3-.7.1-.8.8,0,.8.3h0Z"/>
  <path class="cls-3" d="M14.8,27.6c1.1.5,1.8,1.6,2.6,2.5,1.7,1.4,3.5,2.6,5.5,3.2.1.3-.2.6-.4.8-.7.7-1.2,1.5-1.9,2.1h-.4c-.7-.7-.6-2-1.8-2.1-.4,0-.7.5-1.1.2s.1-1-.5-1.2c-.7.3-1.2,1-2,.9.5-.9,1.4-1.8.9-2.9-.1-.5-.4-1.1-.9-1.2-.5,0-.7.5-1.2.3-.2-.4-1.1-.2-.7-.8.3-.5,1.4-.5,1-1.3-.3-.4-1.1-.2-1.1-.8.1-.3-.2-.8,0-1,.9-.2,1.5.8,2,1.3h0Z"/>
  <path class="cls-3" d="M49,28.1c0,.6-.5,1-.3,1.6.2.3.7.4.6.7-1.5,0-1.8,2-3.2,1.9-.6,0-1.1-.8-1.8-.5-1.9.9-4,2.2-4.5,4.5-.2.9-.2,1.8.5,2.5h.5c.4-.7.7-1.6,1.6-1.8.5-.2,1.1-.4,1.6-.7h.2c-.2.7-.5,1.5-1.3,1.7-.5.5-1.1,1-1.1,1.7s0,.8.2,1.1c.3.2.6,0,.8-.2,1-1.2,2.5-1.4,4-1.5,0,0,0,.4-.3.4-1.3.4-2.5,1.5-2.9,2.8,0,.2.2.4.3.4.6,0,1.1-.5,1.8-.4.2.4-.5.4-.7.8-1.2,1.1,0,3.4-2,3.8-.6.2-.5.9-.9,1.2-.7.9-1.8,1.1-2.8,1-.8,0-1.4-1-2.1-.3,0,.8.7,1.2,1.1,1.9,1,.9,2.3,1,3.6,1.4.2,0,.3.2.4.3,0,.3-.4.2-.6.2-.8,0-1.7.2-2.5,0,0,0-.2,0-.3.2,0,.9,1.1,1.2,1.7,1.6.6.3,1.4.2,1.6.9v.9c.3.4.4,1,.3,1.5-.5.6-.9,1.4-.5,2.3-.2.2-.6,0-.8.2-.3.6-1,.7-1.2,1.2,0,.5-.3.9-.8,1-.4,0-.7.2-1,0-.2-.3,0-.7-.3-.9-.5,0-.7.7-1.3.4-.3-.2-.5-.3-.7-.5,0-.4.3-.5.5-.6,1.3-.2,3-.4,3.4-1.8,0-.7-.2-1.2,0-1.8-.2-.7-.9-1.2-1.7-1.3-.7-.2-1.5,0-2-.4s-.4-.3-.7-.2c-.2,0-.3.3-.5.2-.2-.2-.5-.5-.7-.2-.5.9-1.2,1.9-2.3,2.1-.2-.3.2-.6.3-.9.3-.7.6-1.6.8-2.4.3-.4.7-1,.4-1.6-.5-1.3-1-2.8-.6-4.3.3-1.8-.2-3.5-1.5-4.7-.7-.4-1.4-1.2-2.3-1.3-.6-.2-1.4,0-1.8-.5.1-.6.7-1,1-1.5l1-1.6c.4,0,.3.5.7.5.8,0,.8-1.4,1.6-.9.4.5,1,.7,1.4,1.2.5,2.2,1.4,4.4,2.9,6.1,1.2,1.5,3,2.6,4.8,2.1.5-.4,1.2-.9,1.3-1.6.5-3.5-4-5.3-3.7-8.8.3-3.3,3.7-5.1,6.4-6.4,1.5-.8,3.3-1.8,3.5-3.7v-.5c.9.2.8.9.9,1.4h0Z"/>
  <path class="cls-3" d="M24.8,38.6c.4,0,.9-.5,1.1,0-.1.8-.1,1.8-.5,2.5-.4.4-1,0-1.4.3-.6.2-.7,1.6-1.4.7-.3,0-.5.2-.7.4-.3.7-.6,1.5-1.2,2.1-.1,0-.3.2-.4,0-.1-.5.3-1.4-.4-1.6-.3,0-.6.2-.9.3-.6,0-1.4,0-1.7.5-.1.3-.1.7-.5.7-.4-.2-.8-.3-1-.7-.2,0-.4-.3-.6,0-.3.3-.4.9-.9.9s-.7,0-1.1-.3c.1-.9,1.1-1,1.7-1.4,1.2-.3,2.2-1.1,3.4-1.3,1.9-.7,3.5-2.2,5-3.7.2,0,.5-.2.7-.2.4.3.4.7.8.8h0Z"/>
  <path class="cls-3" d="M15.3,42.2c-.4.2-.9.4-1.3.2-.2-.2-.1-.7-.2-1,.1-.3.5-.2.7,0,.3.3.8.4.8.9h0Z"/>
  <path class="cls-3" d="M32,47.2c0,.6-.1,1-.4,1.5-.7.6-1.3,1.4-1.5,2.4,0,.7-.1,1.3-.1,1.9-.2.2-.4,0-.5-.2-.3-.5-.2-1.5-1-1.4-.4.5-.9,1.2-.6,1.8.4.5,1.1.9.7,1.6-.6.3-.4,1.2-1.2,1.3-1.2.2-2.4-.4-3.3.5-.3.3-.5.7-.7,1.1-.5,0-.4-.7-.7-1-.2-.3-.6,0-.9-.3-.4-.2-.9-.6-1.4-.3-.4.2-.9.8-1.4.4l-.7-.2c0-.2.2-.5,0-.8l-1.3-.7c-.1,0,0-.3.1-.4,1.1-.7,2.4,0,3.7,0,.9-.3,1.7-.2,2.6,0,.5,0,1.1.2,1.4-.3.2-.3.3-.7.1-1-.4-.9-1.6-1-1.8-2.1-.1-.2-.2-.4-.4-.5-.3,0-.5.2-.8,0-.1-.3-.2-.6-.5-.7-.6,0-1.3.3-1.8,0,.1-.3.5-.2.7-.4.8-.2,1.5-.7,2.3-1.1l1.1-.2c1.1-1.8,3.4-1.7,5.4-1.8l1.9-.6c.7.4.9,1.2,1,1.7h0v-.2Z"/>
  <path class="cls-3" d="M19.6,53.5c-.4.2-.8,0-1.2,0-.2-.2-.3-.6-.3-.9.6-.2,1.2.4,1.5.9h0Z"/>
  <path class="cls-3" d="M37,59.8c0,.2-.2.2-.3.2q-.2,0-.2-.2c0-.3.4,0,.5,0h0Z"/>
  <path class="cls-2" d="M31.9,27.5c.1.3-.1.5-.4.5-.5,0-.9,0-1.2-.4-.4-.3-.2-.7-.1-1.1.2-.2.4-.2.6-.1.4.3.8.7,1.1,1.1h0Z"/>
  <path class="cls-2" d="M34.1,28.1c0,.3-.2.6-.4.9-.2.1-.4,0-.4-.2,0-.3,0-.7.3-.9.2-.1.5,0,.5.2h0Z"/>
  <path class="cls-2" d="M31.6,30.9v.7c-.7.7-.7,1.9-1.7,2.3-.3,0-.5,0-.5-.4s-.1-1,0-1.4c.4-.2.5.6.9.2.2-.6.7-1.1,1-1.6.1,0,.3.1.3.2h0Z"/>
  <polygon class="cls-2" points="1.9 18.8 61.3 18.8 61.3 22.9 1.9 22.9 1.9 18.8"/>
  <polygon class="cls-5" points="1.9 18.8 61.3 18.8 61.3 22.9 1.9 22.9 1.9 18.8"/>
  <polygon class="cls-3" points="46.1 19.5 52.8 19.5 52.8 22.2 46.1 22.2 46.1 19.5"/>
  <polygon class="cls-3" points="31.4 19.5 38.1 19.5 38.1 22.2 31.4 22.2 31.4 19.5"/>
  <polygon class="cls-3" points="16.6 19.5 23.4 19.5 23.4 22.2 16.6 22.2 16.6 19.5"/>
  <polygon class="cls-3" points="2.6 19.5 8.7 19.5 8.7 22.2 2.6 22.2 2.6 19.5"/>
  <path class="cls-2" d="M58.6,4.1c.5.6.2,1.5.3,2.2.5.4,1.7,0,1.8,1,0,.4-.2.7-.4.9-.4.4-1,0-1.3.4v3.9c.4.2.8.2,1.2.4.2.2.4.5.4.8s-.2.6-.6.7c-.3.2-.9,0-1,.4-.2.6,0,1.4,0,2.1-.4.2-1,.2-1.5.2h-4.8c-.4.2-.9.7-1.5.4-1-.6-2.4-.4-3.5-.5h-3.5c-.6-.6-.2-1.5-.4-2.2-.2-.4-.9-.2-1.3-.4-.4-.2-.4-.6-.4-.9s.4-.6.8-.7c.3-.2.8.1.9-.3v-3.6c0-.7-1-.3-1.4-.6-.4-.2-.4-.7-.3-1.1.3-.7,1.1-.5,1.7-.7v-.2l.2-2.1v-.2h5.6c.6,0,1.2.3,1.8.5,1.2-.9,2.9-.4,4.3-.7,1,.2,2,0,3,.2h0Z"/>
  <path class="cls-5" d="M58.6,4.1c.5.6.2,1.5.3,2.2.5.4,1.7,0,1.8,1,0,.4-.2.7-.4.9-.4.4-1,0-1.3.4v3.9c.4.2.8.2,1.2.4.2.2.4.5.4.8s-.2.6-.6.7c-.3.2-.9,0-1,.4-.2.6,0,1.4,0,2.1-.4.2-1,.2-1.5.2h-4.8c-.4.2-.9.7-1.5.4-1-.6-2.4-.4-3.5-.5h-3.5c-.6-.6-.2-1.5-.4-2.2-.2-.4-.9-.2-1.3-.4-.4-.2-.4-.6-.4-.9s.4-.6.8-.7c.3-.2.8.1.9-.3v-3.6c0-.7-1-.3-1.4-.6-.4-.2-.4-.7-.3-1.1.3-.7,1.1-.5,1.7-.7v-.2l.2-2.1v-.2h5.6c.6,0,1.2.3,1.8.5,1.2-.9,2.9-.4,4.3-.7,1,.2,2,0,3,.2h0Z"/>
  <path class="cls-2" d="M38.8,4c.2,0,.5.2.7.3.2.8,0,1.4.2,2.1.5.2,1.3,0,1.6.7v1c-.4.5-1.3,0-1.6.6v3.8c.4.4,1.1.1,1.5.6.2.2.3.5.2.8-.3.5-1,.5-1.6.6-.2.2,0,.6,0,.8-.2.5.3,1.2-.3,1.5-1.7.2-3.2-.1-4.9,0h-1.6c-.4.3-1,.7-1.5.4l-1-.4h-3.5c-.8,0-1.9.3-2.5-.4,0-.6.1-1.3,0-1.9-.6-.2-1.6.1-1.9-.7-.1-.2,0-.6.1-.8.4-.6,1.5-.1,1.9-.6v-1.8c.1-.8,0-1.5,0-2.3-.6-.2-1.7.1-1.8-.8-.1-.5.2-.9.6-1s1,0,1.2-.3v-1.9c.6-.8,1.8-.3,2.5-.4h3.7c.6,0,1.1.6,1.7.3,1.8-.7,4.3,0,6.5-.2h-.2Z"/>
  <path class="cls-5" d="M38.8,4c.2,0,.5.2.7.3.2.8,0,1.4.2,2.1.5.2,1.3,0,1.6.7v1c-.4.5-1.3,0-1.6.6v3.8c.4.4,1.1.1,1.5.6.2.2.3.5.2.8-.3.5-1,.5-1.6.6-.2.2,0,.6,0,.8-.2.5.3,1.2-.3,1.5-1.7.2-3.2-.1-4.9,0h-1.6c-.4.3-1,.7-1.5.4l-1-.4h-3.5c-.8,0-1.9.3-2.5-.4,0-.6.1-1.3,0-1.9-.6-.2-1.6.1-1.9-.7-.1-.2,0-.6.1-.8.4-.6,1.5-.1,1.9-.6v-1.8c.1-.8,0-1.5,0-2.3-.6-.2-1.7.1-1.8-.8-.1-.5.2-.9.6-1s1,0,1.2-.3v-1.9c.6-.8,1.8-.3,2.5-.4h3.7c.6,0,1.1.6,1.7.3,1.8-.7,4.3,0,6.5-.2h-.2ZM11.6,4.4c2-.8,4.2-.2,6.4-.4.6,0,1.4-.3,1.8.3v1.9c.2.5.9.2,1.2.4.2,0,.4.2.5.5s0,.6-.1.9c-.4.4-.9.3-1.4.4l-.2.2c.1,1.2-.2,2.2,0,3.3,0,.2-.1.6.2.7.6,0,1.1,0,1.5.4.2.3.2.6.1,1-.2,1.2-2.1-.2-1.9,1.2,0,.5.1,1.2-.1,1.7-2.2,0-4.4-.2-6.4,0-.4.3-.8.5-1.4.6-.4-.1-.8-.3-1.1-.6-2-.1-3.9-.1-5.8-.1-.6-.5-.2-1.4-.4-2.1-.3-.4-.8-.1-1.2-.3-.3,0-.4-.3-.5-.5,0-.4,0-.8.3-1.1.3-.2.8-.2,1.2-.2l.2-.2c0-1.3.2-2.6,0-4-.2-.3-.6,0-.8-.2-.4,0-.8-.3-.9-.7,0-.3,0-.6.2-.9.4-.5,1.2,0,1.6-.4l.2-1.9c.3-.6,1-.3,1.6-.3,1-.2,2.2,0,3.2,0s1.5.2,2.1.4h-.1Z"/>
  <path class="cls-3" d="M11.3,4.9l.2.4c.1,2.7.1,5.4.1,8.3v1c-.8,0-1.5-.3-2.2-.2-.8-.1-1.6.1-2.3-.1-.4-.9,0-1.9-.2-2.9v-6.6c0-2.1.2-.2.3-.3,1.4,0,2.9-.3,4,.4h0Z"/>
  <path class="cls-3" d="M6,4.7c-.4.3-.9.8-.7,1.3.2,3.4,0,6.4.2,9.6l.3.3c1.6,0,3.3-.2,4.8,0,.1,0,.1.2,0,.2-.4.2-.9.1-1.3.1h-4.1c-.3-.3-.2-.8-.2-1.2s0-.9-.3-1.1c-.6-.1-1.1,0-1.5-.4.3-.8,1.6-.2,1.8-1v-4.4c-.2-.8-1-.6-1.6-.7,0,0-.2-.2-.2-.4.5-.5,1.5,0,1.8-.6.2-.6,0-1.2,0-1.9h.9v.2h0Z"/>
  <path class="cls-3" d="M17.3,4.7v9.5c-1.6.2-3.4-.1-5,.3-.4-.3-.1-.8-.2-1.3-.1-1,0-2.2,0-3.3,0-1.6-.1-3.3,0-4.9.2-.5.8-.6,1.3-.6h3.8v.3h.1Z"/>
  <path class="cls-3" d="M19.2,4.7c.1.6-.2,1.5.2,2.1.4.2,1,0,1.4.2.2.2.1.4,0,.6-.4.4-1.4,0-1.6.6,0,1.6-.1,3.1,0,4.7l.2.2c.5.1,1.2-.1,1.5.3,0,.2,0,.5-.2.6-.5.1-1.3-.2-1.6.4-.1.6.1,1.3-.1,1.9h-.3c0,.1-5.7,0-5.7,0-.1-.1,0-.2,0-.2l.6-.2h4.6c.5-.1.5-.7.5-1.1v-6.4c0-1.1.2-2.1-.1-3.2,0-.2-.4-.4-.4-.7.4,0,.8,0,1,.2h0Z"/>
  <path class="cls-3" d="M45.1,4.7c0,.3-.5.6-.6.9v10.3l.3.2c1.8,0,3.7-.4,5.2.4h0c-1.9.1-3.9.2-5.8.1l-.2-.2c0-.7,0-1.4-.2-2.1-.4-.4-1.7.1-1.4-.8.5-.4,1.2.1,1.5-.5v-4.8c-.4-.5-1-.2-1.5-.3-.2-.2-.3-.4,0-.6.5-.4,2.1,0,1.8-1.1.2-.5-.2-1.5.5-1.6,0,0,.3,0,.4,0h0Z"/>
  <path class="cls-3" d="M58.3,4.7c.2.8-.2,1.5.3,2.2.4.2,1.2,0,1.4.4,0,1-1.4.2-1.7,1v4.4c-.2.1-.2.3,0,.4.4.4,1-.2,1.5.2.3.1,0,.3,0,.5-.4.5-1.2-.1-1.5.6v2h-.4c0,.1-5.4.1-5.4.1v-.2l.6-.2h4.1c.2,0,.5-.2.5-.5V5.7l-.5-1c.5-.2,1.1-.3,1.2,0h0Z"/>
  <path class="cls-3" d="M45.7,6v8.7c0,.2-.4.4-.5.5h-.2V5.6c.2-.2.3-.5.5-.6.2.4.2.6.2,1h0Z"/>
  <path class="cls-3" d="M57.5,5.6v9.5c-.7-.3-.4-1-.5-1.7V5.1c.2-.3.5.2.6.5h0Z"/>
  <path class="cls-3" d="M18.4,5.4c0,3.3,0,6.5-.1,9.4-.1.2-.2,0-.4-.1-.2-.5,0-1.1,0-1.6-.1-2.6,0-5.3,0-7.9.2-.2.4,0,.5.2h0Z"/>
  <path class="cls-3" d="M51.6,9.5c0,.2-.4.2-.6.1h-.2c0-.5,0-1.1.4-1.4.3.3.2.9.4,1.3h0Z"/>
  <path class="cls-3" d="M18,15.3c-.1.2-.5.1-.7.2h-1.3c-1,0-2.1-.1-3,.1-.2,0-.3-.2-.3-.4.1-.4.6-.2.9-.4h3.9c.1,0,.3.3.5.5h0Z"/>
  <path class="cls-3" d="M11.2,15.1c0,.2-.2.4-.4.5-1.3-.4-2.7-.1-4.1-.3h0c0-.2.3-.4.6-.4,1.3,0,2.7,0,3.9.2h0Z"/>
  <path class="cls-3" d="M50.7,15.3v.3c-.5.6-1.1-.1-1.7,0-1-.1-2.2,0-3.3-.1.3-.9,1.5-.4,2.2-.5,1,.1,2-.2,2.8.3h0Z"/>
  <path class="cls-3" d="M56.7,15.1c.2.1.4.3.4.5-1.7.2-3.3-.2-4.8.2-.2,0-.3-.3-.2-.5.3-.4.8-.3,1.3-.4l3.3.2h0Z"/>
  <path class="cls-3" d="M12.5,15.9c.1.3,0,.7-.2.9-.2.2-.5.2-.7.1-.2,0-.3-.3-.3-.5-.1-.4.4-.6.6-.9.3,0,.5.2.6.4h0Z"/>
  <path class="cls-3" d="M51.9,16.1c0,.4,0,.9-.4.9s-.6-.1-.7-.4c0-.4.2-.8.4-.9.4,0,.6.2.7.4h0Z"/>
  <path class="cls-3" d="M37.2,4.8v9.5h-.2c-1.7.3-3.4-.2-5,.4-.3-.2,0-.6-.1-.9V5.4c0-.3.2-.5.4-.6.4-.3,1-.2,1.6-.3h3.2v.3h.1Z"/>
  <path class="cls-3" d="M39.1,4.7v2.1c.5.4,1.9-.2,1.6.9-.4.3-1,0-1.5.2h-.2c-.2,1.7,0,3.4,0,4.8s0,.4.4.5c.4,0,1.1-.3,1.3.3,0,1-1.3.1-1.7.8,0,.7.2,1.4,0,2.1h-.2c-2.1.1-4.1.1-6,0v-.2l.4-.2c1.6-.2,3.4,0,5.1-.2.2,0,.4-.2.4-.5V5.6c0-.5-.6-.8-.6-1.2.3,0,.8,0,1,.3h0Z"/>
  <path class="cls-3" d="M25.7,4.6c-.1.4-.4.5-.6.8-.2.6,0,1.3-.1,2v8.1c0,.2.2.4.4.5h4.3c.2.1.5.2.7.4-.1.2-.4.2-.6.2-1.6,0-3.3.1-4.9-.1h-.2c0-.8,0-1.6-.3-2.2-.5-.2-1.1,0-1.6-.2-.2-.1-.2-.4,0-.6.5-.3,1.5.2,1.8-.6,0-1.6.1-3.1,0-4.7-.4-.6-1.4,0-1.8-.6.2-.9,1.4,0,1.8-.9v-1.9c.5-.3.8-.3,1.1-.2h0Z"/>
  <path class="cls-3" d="M26.3,5.1c.1,2.8-.2,5.3,0,8.1-.2.6.3,1.6-.6,1.7-.2-2.8,0-5.8-.1-8.8-.1-.5.2-.9.6-1.2v.2s.1,0,.1,0Z"/>
  <path class="cls-3" d="M38.3,5.6v9.3c-.2,0-.4-.2-.4-.3,0-1.2-.2-2.5,0-3.8v-5.6c.2,0,.5.2.5.4h0Z"/>
  <path class="cls-3" d="M30.9,15.1c.2,0,.4.2.2.4l-.3.3c-1.4-.5-3.2-.2-4.7-.4.1-.2.2-.4.4-.6,1.5.2,3,0,4.4.3h0Z"/>
  <path class="cls-3" d="M37.3,14.9c.2.1.4.3.4.5h-.2c-1.7.1-3.4,0-5,.3-.2,0-.5,0-.6-.3.2-.4.6-.5,1-.5h4.4,0Z"/>
  <path class="cls-3" d="M32.1,16.3c0,.3,0,.7-.4.7s-.7,0-.7-.4c.1-.3.3-.5.6-.7.3-.1.4.2.5.4h0Z"/>
  <path class="cls-3" d="M31.3,11.2c.2-1.6,0-3.4.1-5,0-.5,0-1-.3-1.4-1.2-.5-2.7-.2-4.1-.3h-.2v9.7c1.1.2,2,.1,3,.1.5.1,1,.2,1.5.3,0-1.1.1-1.9,0-3v-.5h0Z"/>
  <path class="cls-2" d="M30.9,11.1c-.5-.4-.6-1-1-1.5.2-.2.4-.3.6-.5.3-.3.6-.8.5-1.2,0-.4-.2-.8-.6-1-.8-.3-1.9-.2-2.8,0-.2,0-.2.2-.1.4.3,0,.5.2.5.5,0,1.1,0,2.2-.2,3.3l-.4.5c.4.4,1,.1,1.7.2.2-.3-.3-.5-.4-.8.1-.3,0-.8.2-1,.6.5.8,1.4,1.5,1.9h.9c0,.1,0-.4,0-.4,0,0-.3-.3-.4-.3h0ZM29.7,9.1c-.3,0-.7.2-.8-.2,0-.5-.2-1.2,0-1.7.4-.3.9-.2,1.2.2.2.3.2.6.2,1-.2.3-.3.6-.6.7h0Z"/>
  <path class="cls-3" d="M56.5,5.7c0-.4,0-.8-.2-1.1h-1.5c-1,.2-2.2-.2-3.1.4-.4.5-.2,1-.3,1.6,0,.3.2.7.3,1l-.2.4-.5-.2-.2-.4c0-.2.2-.4.2-.7,0-.7.2-1.7-.7-2-1.3,0-2.5-.2-3.9-.2s-.2,0-.2,0v8.8c0,.4,0,.8.3,1,1.2-.2,2.2,0,3.3,0s.7.4,1.2.3v-4.1c0-1.4,0-.4-.2-.4v-.3h.7v.3h0v4.2c0,.1,0,.4.3.4,1.2-.7,2.8-.2,4.2-.4h.3c.2-.8,0-3.2,0-3.2,0-1.8,0-3.6,0-5.5h.1Z"/>
  <path class="cls-2" d="M51.8,10.2c.2.2.3.5.2.8l-.3.4.2.2c.5,0,1.1.1,1.6-.1,0-.2-.4-.3-.6-.5-.6-1.5-1-3-1.4-4.6l-.5.3c-.3,1.4-.8,2.6-1.2,4,0,.3-.4.3-.6.5-.3.1-.4-.2-.5-.4v-3.5c0-.2.2-.4.4-.2.3.2.3.6.4.8.2,0,.4,0,.4,0l.2-1.2c-.2-.4-.5,0-.8,0-.6,0-1.4,0-2-.2-.5.2-.4.8-.4,1.3v.2c.4-.3.6-.9,1.1-.8v3.8c-.2.2-.6.3-.5.6.7.2,1.5,0,2.2.1.4,0,.8.1,1.2,0v-.3c-.2-.1-.5-.3-.4-.6,0-.2.2-.6.5-.5,0,0,0,0,.2.1h.6q0-.1,0-.1ZM50.9,9.7h-.2c0-.5,0-1.1.4-1.4.4.2.3.8.5,1.2,0,.2-.5.2-.7.2h0Z"/>
  <path class="cls-2" d="M55.5,6.9c0,.3.2.8,0,1-.3-.2-.3-.5-.8-.6-.2,0-.5,0-.5.3,0,.9.8.9,1.3,1.4s.7,1.2.5,1.8c-.2.5-.4.7-.9.7-.4.1-.7-.2-1,0,0,0-.2.1-.3,0v-1.6q0-.1.2-.1c.2.5,0,1.1.8,1.2.2,0,.4-.1.5-.4,0-1.4-1.8-1.1-1.8-2.6s0-.6.2-.9c.3-.5,1.1-.2,1.6-.5,0,0,0,.2.2.3h0Z"/>
  <path class="cls-2" d="M35.3,6.8c-.4.2-.8.5-.7,1.1v3l.6.6h0c-.7.1-1.3.2-2,.1-.3-.3.4-.5.5-.7,0-1.1.2-2.3,0-3.5-.2-.4-.8-.3-.7-.7h2.3Z"/>
  <path class="cls-2" d="M15.7,7.6c-.4.5-.5-.4-.9-.5h-.8c-.1.5-.2,1,0,1.5.2.1.5.1.7.1.2-.2.4-.6.7-.6.2.2-.1.5,0,.7-.1.3.2.7-.2.8-.2-.1-.4-.6-.7-.6h-.6c-.2.7-.1,1.4,0,2.1.3.3.7,0,1.1,0,.5-.1.4-.8.8-.8.1.3.2.7.1,1l-.2.2h-2.9c-.1,0-.4,0-.3-.2.9-.6.4-1.7.5-2.5-.1-.6.4-1.6-.5-2,0-.2.2-.2.3-.2.7,0,1.7.3,2.3-.3.6.2.6.8.6,1.2h0Z"/>
  <path class="cls-2" d="M11.3,7c-.8.6-.8,1.8-1.2,2.7-.3.5-.2,1.3-.7,1.7-.2.1-.4,0-.4-.3-.3-1.2-.6-2.5-1.1-3.7,0-.3-.9-.4-.4-.7h1.6c.1.4-.4.6-.3,1,.4.5.2,1.3.7,1.9l.2-.2c0-.9,1.1-1.8.2-2.6.2-.4.8,0,1.2-.2.1,0,.4.2.2.4h0Z"/>
  <path class="cls-3" d="M6.4,5.1c.2,3.3,0,6.4,0,9.5s-.2.4-.4.4c-.2-1-.2-2,0-3v-6.4c0-2.1.3-.5.5-.5h0Z"/>
</svg>